<svg height="512" viewBox="0 0 64 64" width="512" xmlns="http://www.w3.org/2000/svg"><path d="M45 27h-7.279l-1.772-5.316A1 1 0 0035 21h-5a1 1 0 00-1 1v5h-5.382L20.9 21.553A1 1 0 0020 21h-5a1 1 0 00-1 1v14a3 3 0 003 3h12v5a1 1 0 001 1h6a1 1 0 00.976-.783L38.135 39H49a3 3 0 003-3v-2a7.008 7.008 0 00-7-7zm-14-4h3.279l1.333 4H31zm19 13a1 1 0 01-1 1H38.58l.4-1.783-1.952-.434L35.2 43H31v-8h-2v2H17a1 1 0 01-1-1V23h3.382l2.723 5.447A1 1 0 0023 29h22a5.006 5.006 0 015 5z"/><path d="M43 31h4v2h-4zm-4 0h2v2h-2zm-4 0h2v2h-2zm-4 0h2v2h-2zm-4 0h2v2h-2zm-4 0h2v2h-2z"/><path d="M61.1 26.005L54 25.3a22.931 22.931 0 00-1.7-4.109l4.518-5.524a1 1 0 00-.066-1.34l-7.074-7.076a1 1 0 00-1.341-.067L42.814 11.7a23.021 23.021 0 00-4.109-1.7l-.71-7.1A1 1 0 0037 2H27a1 1 0 00-1 .9l-.7 7.1a23.021 23.021 0 00-4.114 1.7l-5.523-4.516a1 1 0 00-1.341.067l-7.071 7.071a1 1 0 00-.066 1.34l4.515 5.524A22.931 22.931 0 0010 25.3l-7.1.71A1 1 0 002 27v10a1 1 0 00.9.995l7.1.71a22.87 22.87 0 001.7 4.109l-4.515 5.524a1 1 0 00.066 1.34l7.071 7.071a1 1 0 001.341.067l5.523-4.516A23.021 23.021 0 0025.3 54l.71 7.1a1 1 0 001 .9H37a1 1 0 00.995-.9l.71-7.1a23.021 23.021 0 004.109-1.7l5.523 4.519a1 1 0 001.341-.067l7.071-7.071a1 1 0 00.066-1.34L52.3 42.814a22.87 22.87 0 001.7-4.109l7.1-.71A1 1 0 0062 37V27a1 1 0 00-.9-.995zM60 36.1l-6.872.687a1 1 0 00-.865.734 20.86 20.86 0 01-2.037 4.91 1 1 0 00.094 1.13l4.374 5.339-5.794 5.8-5.347-4.376a1 1 0 00-1.13-.092 21.012 21.012 0 01-4.911 2.037 1 1 0 00-.733.865L36.1 60h-8.19l-.687-6.871a1 1 0 00-.733-.865 21.012 21.012 0 01-4.911-2.037 1 1 0 00-1.13.092L15.1 54.7l-5.794-5.8 4.374-5.347a1 1 0 00.094-1.13 20.86 20.86 0 01-2.037-4.91 1 1 0 00-.865-.734L4 36.1v-8.19l6.872-.687a1 1 0 00.865-.734 20.887 20.887 0 012.037-4.91 1 1 0 00-.094-1.13L9.306 15.1 15.1 9.305l5.347 4.376a1 1 0 001.13.092 21.012 21.012 0 014.911-2.037 1 1 0 00.733-.865L27.905 4H36.1l.687 6.871a1 1 0 00.733.865 21.012 21.012 0 014.911 2.037 1 1 0 001.13-.092L48.9 9.305l5.794 5.795-4.374 5.344a1 1 0 00-.094 1.13 20.887 20.887 0 012.037 4.91 1 1 0 00.865.734l6.872.687z"/><path d="M32 17a14.909 14.909 0 0113.493 8.438l1.8-.876a17.005 17.005 0 00-26.538-5.312l1.324 1.5A14.981 14.981 0 0132 17zm0 30a15 15 0 01-12.4-6.563l-1.653 1.126a17 17 0 0028.114 0L44.4 40.437A15 15 0 0132 47zM31 9h2v2h-2zm-15.974 7.447l1.414-1.414 1.414 1.414-1.414 1.414zM9 31h2v2H9zm6.024 16.553l1.414-1.414 1.414 1.414-1.414 1.414zM31 53h2v2h-2zm15.133-5.432l1.414-1.414 1.414 1.414-1.414 1.414zM53 31h2v2h-2zm-6.865-14.553l1.414-1.414 1.414 1.414-1.414 1.414z"/></svg>