<svg height="512" viewBox="0 0 64 64" width="512" xmlns="http://www.w3.org/2000/svg"><path d="M46 19v-2a7.008 7.008 0 00-7-7H28.588l-1.632-5.294A1 1 0 0026 4h-6a1 1 0 00-1 1v5h-7.307L8.937 2.649A1 1 0 008 2H3a1 1 0 00-1 1v14a5.006 5.006 0 005 5h12v7a1 1 0 001 1h6a1 1 0 00.94-.658L29.61 22H43a3 3 0 003-3zM21 6h4.262l1.238 4H21zm23 13a1 1 0 01-1 1H30.337l.6-1.658-1.88-.684L25.3 28H21V18h-2v2H7a3 3 0 01-3-3V4h3.307l2.756 7.351A1 1 0 0011 12h28a5.006 5.006 0 015 5z"/><path d="M38 14h4v2h-4zm-6 0h2v2h-2zm-4 0h2v2h-2zm-4 0h2v2h-2zm-4 0h2v2h-2zm-4 0h2v2h-2zm-4 0h2v2h-2zm41 27a4 4 0 104 4 4 4 0 00-4-4zm0 6a2 2 0 112-2 2 2 0 01-2 2z"/><path d="M53 36a9.011 9.011 0 00-9 9c0 4.712 7.461 11.919 8.312 12.726a1 1 0 001.376 0C54.539 56.919 62 49.712 62 45a9.011 9.011 0 00-9-9zm0 19.6c-2.447-2.457-7-7.639-7-10.6a7 7 0 0114 0c0 2.96-4.553 8.144-7 10.6zM52 60h2v2h-2zm-4 0h2v2h-2zm-4 0h2v2h-2zm-4 0h2v2h-2zm-4 0h2v2h-2zm-4 0h2v2h-2zm-4 0h2v2h-2zm-4 0h2v2h-2zm-4 0h2v2h-2zm-4 0h2v2h-2zm-4 0h2v2h-2zm-4 0h2v2H8zm44-28h2v2h-2zm4 0h2v2h-2zm4 0h2v2h-2zm0-4h2v2h-2zm0-4h2v2h-2zm0-4h2v2h-2zm-4 0h2v2h-2zm-4 0h2v2h-2zm-4 0h2v2h-2zm0 12h2v2h-2zm-4 0h2v2h-2zm-4 0h2v2h-2zm-4 0h2v2h-2zm-4 0h2v2h-2zm-4 0h2v2h-2zm-4 0h2v2h-2zm-4 0h2v2h-2zm-4 0h2v2h-2zm-4 0h2v2h-2zm-4 0h2v2H8zM4 60h2v2H4zm0-4h2v2H4zm0-4h2v2H4zm0-4h2v2H4zm0-4h2v2H4zm0-4h2v2H4zm0-4h2v2H4zm0-4h2v2H4z"/></svg>