<svg height="512" viewBox="0 0 64 64" width="512" xmlns="http://www.w3.org/2000/svg"><path d="M48 25H37.588l-1.632-5.294A1 1 0 0035 19h-8a1 1 0 00-1 1v5h-7.307l-2.756-7.351A1 1 0 0015 17H8a1 1 0 00-1 1v16a5.006 5.006 0 005 5h14v7a1 1 0 001 1h8a1 1 0 00.956-.706L38.2 39H54a3 3 0 003-3v-2a9.011 9.011 0 00-9-9zm-20-4h6.262l1.233 4H28zm27 15a1 1 0 01-1 1H38.815l1.141-3.706-1.912-.588L34.261 45H28V33h-2v4H12a3 3 0 01-3-3V19h5.307l2.756 7.351A1 1 0 0018 27h30a7.008 7.008 0 017 7z"/><path d="M47 29h4v2h-4zm-6 0h2v2h-2zm-4 0h2v2h-2zm-4 0h2v2h-2zm-4 0h2v2h-2zm-4 0h2v2h-2zm-4 0h2v2h-2zm4 27a4 4 0 00-8 0 3 3 0 000 6h8a3 3 0 000-6zm0 4h-8a1 1 0 010-2h1.184a1 1 0 00.942-1.334 2 2 0 113.748 0A1 1 0 0023.816 58H25a1 1 0 010 2zM6 59h6v2H6zm-4 0h2v2H2zm6-4h4v2H8zM59 8a4 4 0 00-8 0 3 3 0 000 6h8a3 3 0 000-6zm0 4h-8a1 1 0 010-2h1.184a1 1 0 00.942-1.334 2 2 0 113.748 0A1 1 0 0057.816 10H59a1 1 0 010 2zm-19-1h6v2h-6zm-4 0h2v2h-2zm6-4h4v2h-4z"/></svg>