<svg xmlns="http://www.w3.org/2000/svg" viewBox="0 0 64 64" width="512" height="512"><path d="M30 6l4.2 5.6a1 1 0 00.8.4 1.019 1.019 0 00.316-.051A1 1 0 0036 11V2h-2v6l-4.2-5.6A1 1 0 0028 3v9h2zm1 48h2a1 1 0 011 1h2a3 3 0 00-3-3h-2a3 3 0 000 6h2a1 1 0 010 2h-2a1 1 0 01-1-1h-2a3 3 0 003 3h2a3 3 0 000-6h-2a1 1 0 010-2zm31-25v-2h-6a1 1 0 00-1 1v8a1 1 0 001 1h6v-2h-5v-2h3v-2h-3v-2zM8.039 36.275A1 1 0 009 37h.017a1 1 0 00.953-.757l2-8-1.94-.486-1.094 4.378-.975-3.41a1 1 0 00-1.922 0l-.975 3.41-1.094-4.378-1.94.486 2 8a1 1 0 001.931.032L7 32.64zm-.122 2.456l-1.927.538a26.977 26.977 0 0019.78 19.008l.46-1.946a24.977 24.977 0 01-18.313-17.6zm29.854 17.6l.458 1.946A26.977 26.977 0 0058.01 39.269l-1.926-.538a24.978 24.978 0 01-18.313 17.6zm18.313-31.062l1.926-.538A26.977 26.977 0 0038.229 5.723l-.458 1.946a24.978 24.978 0 0118.313 17.6zM26.23 7.669l-.46-1.946A27.171 27.171 0 005.723 25.77l1.946.46A25.159 25.159 0 0126.23 7.669zM15 32a17 17 0 1017-17 17.019 17.019 0 00-17 17zm17.8-14.96a.984.984 0 00-.5.253l-2 2A1 1 0 0030 20v4a1 1 0 00.485.857L35 27.566V32a1 1 0 00.836.986l5.164.861v2.917l-1.9 3.789A1 1 0 0039 41v2a1 1 0 001 1h.962A14.906 14.906 0 0134 46.851V45a1 1 0 00.447-.1l2-1A1 1 0 0037 43v-3a1 1 0 00-.293-.707l-2-2A1 1 0 0034 37h-4a1 1 0 00-.707.293l-2 2A1 1 0 0027 40v3a1.006 1.006 0 00.168.555L29 46.3v.4a14.9 14.9 0 01-5.189-2.147A.979.979 0 0024 44v-3.838l.832-2.495 4.683-2.81A1 1 0 0030 34v-4a1 1 0 00-.293-.707L27 26.586V23a1 1 0 00-.105-.447l-1.9-3.8A14.9 14.9 0 0132 17c.269 0 .532.026.8.04zM17 32a14.97 14.97 0 016.038-12h.344L25 23.236V27a1 1 0 00.293.707L28 30.414v3.02l-4.515 2.709a1 1 0 00-.434.541l-1 3A1 1 0 0022 40v3.149A14.951 14.951 0 0117 32zm14 14.949V46a1.006 1.006 0 00-.168-.555L29 42.7v-2.286L30.414 39h3.172L35 40.414v1.968L33.764 43H33a1 1 0 00-1 1v3c-.338 0-.668-.029-1-.051zM47 32a14.92 14.92 0 01-3.851 10H41v-.764l1.9-3.789A1 1 0 0043 37v-4a1 1 0 00-.836-.986L37 31.153V27a1 1 0 00-.485-.857L32 23.434v-3.02L33.414 19h6.038A15 15 0 0147 32z" id="Compass-3" data-name="Compass"/></svg>