<svg xmlns="http://www.w3.org/2000/svg" viewBox="0 0 64 64" width="512" height="512"><path d="M30 6l4.2 5.6a1 1 0 00.8.4 1.019 1.019 0 00.316-.051A1 1 0 0036 11V2h-2v6l-4.2-5.6A1 1 0 0028 3v9h2zm1 48h2a1 1 0 011 1h2a3 3 0 00-3-3h-2a3 3 0 000 6h2a1 1 0 010 2h-2a1 1 0 01-1-1h-2a3 3 0 003 3h2a3 3 0 000-6h-2a1 1 0 010-2zm31-25v-2h-6a1 1 0 00-1 1v8a1 1 0 001 1h6v-2h-5v-2h3v-2h-3v-2zM8.039 36.275A1 1 0 009 37h.017a1 1 0 00.953-.757l2-8-1.94-.486-1.094 4.378-.975-3.41a1 1 0 00-1.922 0l-.975 3.41-1.094-4.378-1.94.486 2 8a1 1 0 001.931.032L7 32.64zM50 32a1 1 0 00-.656-.939l-9.525-3.491 2.094-4.139a1 1 0 00-1.344-1.344l-4.139 2.094-3.491-9.525a1 1 0 00-1.878 0l-3.491 9.525-4.139-2.094a1 1 0 00-1.344 1.344l2.094 4.139-9.525 3.491a1 1 0 000 1.878l9.533 3.494-2.082 4.116a1 1 0 001.344 1.344l4.116-2.082 3.494 9.533a1 1 0 001.878 0l3.494-9.533 4.116 2.082a1 1 0 001.344-1.344l-2.082-4.116 9.533-3.494A1 1 0 0050 32zm-18 2a2 2 0 112-2 2 2 0 01-2 2zm2.019-5.433A3.915 3.915 0 0033 28.142v-7.508l2.4 6.551zM31 28.142a3.915 3.915 0 00-1.019.425L28.6 27.185l2.4-6.551zm-3.815.457l1.382 1.382A3.915 3.915 0 0028.142 31h-7.508zm.957 4.4a3.915 3.915 0 00.425 1.019L27.185 35.4 20.634 33zm1.839 2.433a3.915 3.915 0 001.019.426v7.508l-2.4-6.551zm3.019.426a3.915 3.915 0 001.019-.425l1.381 1.382-2.4 6.551zm3.815-.457l-1.382-1.382A3.915 3.915 0 0035.858 33h7.508zM35.858 31a3.915 3.915 0 00-.425-1.019l1.382-1.381 6.551 2.4zm2.894-5.752l-.824 1.629-.589-.216-.216-.589zm-13.5 0l1.629.824-.216.589-.589.216zm.02 13.484l.812-1.6.581.212.212.581zm13.464 0l-1.6-.812.212-.581.581-.212zm-30.819-.001l-1.927.538a26.977 26.977 0 0019.78 19.008l.46-1.946a24.977 24.977 0 01-18.313-17.6zm29.853 17.6l.46 1.946a26.977 26.977 0 0019.78-19.008l-1.927-.538a24.975 24.975 0 01-18.313 17.6zm18.313-31.062l1.927-.538A26.977 26.977 0 0038.23 5.723l-.46 1.946a24.977 24.977 0 0118.313 17.6zM26.23 7.669l-.46-1.946A27.171 27.171 0 005.723 25.77l1.946.46A25.159 25.159 0 0126.23 7.669z" id="Compass-2" data-name="Compass"/></svg>