<svg xmlns="http://www.w3.org/2000/svg" viewBox="0 0 64 64" width="512" height="512"><g id="Box-Package"><path d="M61.394 31.081L54 27.912V12a1.006 1.006 0 00-.168-.555l-5.408-8.107A2.982 2.982 0 0045.93 2H10.07a2.979 2.979 0 00-2.492 1.335l-5.41 8.11A1.006 1.006 0 002 12v41a3 3 0 003 3h34.031c.077.063.151.13.23.191l7.121 5.595a1 1 0 001.236 0l7.121-5.595A18.89 18.89 0 0062 41.251V32a1 1 0 00-.606-.919zM22 19H4v-6h18zm2-6h8v12.919l-3.375-2.7a1 1 0 00-1.25 0L24 25.919zm10 0h18v6H34zM9.244 4.441A.987.987 0 0110.07 4h35.86a.988.988 0 01.828.444L51.131 11H4.869zM4 53V21h18v7a1 1 0 001.625.781L28 25.28l4.375 3.5A1 1 0 0034 28v-7h18v6.055l-4.606-1.974a1.007 1.007 0 00-.788 0l-14 6A1 1 0 0032 32v9.251A18.874 18.874 0 0036.907 54H5a1 1 0 01-1-1zm56-11.749a16.9 16.9 0 01-6.5 13.368l-6.5 5.11-6.5-5.11A16.9 16.9 0 0134 41.251v-8.592l13-5.571 13 5.571z"/><path d="M46.606 29.433l-10 4.286a1 1 0 00-.606.919v6.614a14.915 14.915 0 005.731 11.794l4.651 3.654a1 1 0 001.236 0l4.65-3.653A14.913 14.913 0 0058 41.252v-6.614a1 1 0 00-.606-.919l-10-4.286a1 1 0 00-.788 0zM56 35.3v5.955a12.925 12.925 0 01-4.969 10.222L47 54.642l-4.032-3.168A12.927 12.927 0 0138 41.252V35.3l9-3.858z"/><path d="M43.707 41.293l-1.414 1.414 3 3a1 1 0 001.414 0l6-6-1.414-1.414L46 43.586z"/></g></svg>