<svg height="512" viewBox="0 0 64 64" width="512" xmlns="http://www.w3.org/2000/svg"><path d="M48 34h4v2h-4zM14 46h2v2h-2zm34 0h2v2h-2z"/><path d="M61.9 30.553L56 18.764A4.974 4.974 0 0051.528 16H5a3 3 0 00-3 3v26a3 3 0 003 3h3.08a6.991 6.991 0 0013.84 0h20.16a6.991 6.991 0 0013.84 0H59a3 3 0 003-3V31a1 1 0 00-.1-.447zm-7.689-10.895L59.382 30H46V18h5.528a2.986 2.986 0 012.683 1.658zM44 42.111A6.977 6.977 0 0042.08 46H36V22h8zm-24 0V32h14v14H21.92A6.974 6.974 0 0020 42.111zM4 30v-8h6v8zm8-8h6v8h-6zm8 0h6v8h-6zm14 8h-6v-8h6zM5 18h39v2H4v-1a1 1 0 011-1zM4 36h1v2H4zm0 9v-1h3v-2H4v-2h1a2 2 0 002-2v-2a2 2 0 00-2-2H4v-2h14v8.685A6.974 6.974 0 008.08 46H5a1 1 0 01-1-1zm11 7a5 5 0 115-5 5.006 5.006 0 01-5 5zm34 0a5 5 0 115-5 5.006 5.006 0 01-5 5zm10-6h-3.08A6.974 6.974 0 0046 40.685V32h14v2h-3a3 3 0 000 6h3v2h-3v2h3v1a1 1 0 01-1 1zm1-10v2h-3a1 1 0 010-2z"/></svg>