<svg height="512" viewBox="0 0 64 64" width="512" xmlns="http://www.w3.org/2000/svg"><path d="M61.356 31.065l-15.211-5.794 2.809-8.971a1 1 0 00-1.254-1.254l-8.972 2.809-5.793-15.211a1 1 0 00-1.87 0l-5.794 15.211-8.971-2.809a1 1 0 00-1.254 1.254l2.809 8.972-15.211 5.793a1 1 0 000 1.87l15.211 5.794-2.809 8.971a1 1 0 001.254 1.254l8.972-2.809 5.794 15.211a1 1 0 001.87 0l5.794-15.211 8.97 2.809a1 1 0 001.254-1.254l-2.809-8.972 15.211-5.794a1 1 0 000-1.87zm-22.521-7.314L36.9 25.688a7.953 7.953 0 00-3.9-1.619V8.434zM32 38a6 6 0 116-6 6.006 6.006 0 01-6 6zm-1-13.931a7.953 7.953 0 00-3.9 1.619l-1.937-1.937L31 8.434zm-7.249 1.1l1.937 1.931a7.953 7.953 0 00-1.619 3.9H8.434zM24.069 33a7.953 7.953 0 001.619 3.9l-1.937 1.937L8.434 33zm1.1 7.249l1.931-1.937a7.953 7.953 0 003.9 1.619v15.635zM33 39.931a7.953 7.953 0 003.9-1.619l1.937 1.937L33 55.566zm7.249-1.1L38.312 36.9a7.953 7.953 0 001.619-3.9h15.635zM39.931 31a7.953 7.953 0 00-1.619-3.9l1.937-1.937L55.566 31zm6.544-13.475l-2.2 7.033-3.5-1.333-1.332-3.5zm-28.95 0l7.033 2.2-1.333 3.5-3.5 1.333zm0 28.95l2.2-7.033 3.5 1.333 1.333 3.5zm28.95 0l-7.032-2.2 1.332-3.5 3.5-1.333z"/><path d="M15.056 19.592l-1.612-1.184a22.825 22.825 0 00-3.578 7.32l1.925.544a20.829 20.829 0 013.265-6.68zm37.154 6.68l1.924-.544a22.843 22.843 0 00-3.577-7.32l-1.614 1.184a20.834 20.834 0 013.267 6.68zm-6.981-13.089a22.861 22.861 0 00-6.957-3.317l-.544 1.925a20.85 20.85 0 016.348 3.026zm-18.957-1.392l-.544-1.925a22.864 22.864 0 00-6.956 3.316l1.152 1.635a20.872 20.872 0 016.348-3.026zM11.791 37.728l-1.925.544a22.825 22.825 0 003.578 7.32l1.612-1.184a20.829 20.829 0 01-3.265-6.68zm37.152 6.68l1.614 1.184a22.843 22.843 0 003.577-7.32l-1.924-.544a20.834 20.834 0 01-3.267 6.68zm-11.215 7.801l.544 1.925a22.861 22.861 0 006.957-3.317l-1.153-1.634a20.85 20.85 0 01-6.348 3.026zm-18.956-1.391a22.864 22.864 0 006.956 3.316l.544-1.925a20.872 20.872 0 01-6.348-3.026z"/></svg>