<svg xmlns="http://www.w3.org/2000/svg" viewBox="0 0 64 64" width="512" height="512"><g id="Globe_Grid" data-name="Globe Grid"><path d="M44 24a12 12 0 10-12 12 12.013 12.013 0 0012-12zM32 34a10 10 0 1110-10 10.011 10.011 0 01-10 10z"/><path d="M55.3 36.075A26.32 26.32 0 0057 27a25 25 0 00-50 0c0 8.036 4.248 16.62 12.285 24.825A73.55 73.55 0 0031.47 61.848a1 1 0 001.06 0 64.225 64.225 0 005.518-4.016A13.987 13.987 0 1055.3 36.075zM59.949 47h-4.973a24.979 24.979 0 00-1-6.35 14.05 14.05 0 002.262-1.35 11.96 11.96 0 013.711 7.7zM48 60c-1.361 0-2.809-1.639-3.8-4.373a11.8 11.8 0 017.59 0C50.809 58.361 49.361 60 48 60zm5.624-3.593a12.012 12.012 0 011.692 1.083 11.981 11.981 0 01-3.092 1.728 13.548 13.548 0 001.4-2.811zm-2.182-16.925a11.695 11.695 0 01-6.884 0C45.519 37.288 46.794 36 48 36s2.481 1.288 3.442 3.482zm.782-2.7A11.977 11.977 0 0154.615 38a11.926 11.926 0 01-1.325.759 12.612 12.612 0 00-1.066-1.977zm-9.514 1.975A11.926 11.926 0 0141.385 38a11.977 11.977 0 012.391-1.216 12.612 12.612 0 00-1.066 1.973zm-2.951.543a14.05 14.05 0 002.262 1.35 24.979 24.979 0 00-1 6.35h-4.97a11.96 11.96 0 013.708-7.7zm1.265 9.7a25.793 25.793 0 00.747 5.464A13.945 13.945 0 0039.2 56.13 11.942 11.942 0 0136.051 49zm1.352 7.407a13.548 13.548 0 001.4 2.811 11.981 11.981 0 01-3.092-1.728 11.955 11.955 0 011.692-1.083zM48 53a13.967 13.967 0 00-4.363.709A24.1 24.1 0 0143.023 49h9.954a24.1 24.1 0 01-.614 4.709A13.967 13.967 0 0048 53zm-4.977-6a23.241 23.241 0 01.86-5.635 13.664 13.664 0 008.234 0 23.241 23.241 0 01.86 5.635zM32 59.806C28.51 57.474 9 43.688 9 27a23 23 0 0146 0 24.216 24.216 0 01-1.486 8.135A13.979 13.979 0 0036.755 56.3 68.684 68.684 0 0132 59.806zm24.8-3.676a13.945 13.945 0 00-2.572-1.666A25.793 25.793 0 0054.976 49h4.973a11.942 11.942 0 01-3.149 7.13z"/></g></svg>