<svg height="512" viewBox="0 0 64 64" width="512" xmlns="http://www.w3.org/2000/svg"><g id="Call_Center" data-name="Call Center"><path d="M28 31h2v2h-2zm6 0h2v2h-2z"/><path d="M45 49.9a7.006 7.006 0 00-4.157-6.4L36 41.35v-1.432A8.056 8.056 0 0038.235 38H41a2 2 0 002-2v-2.382a3.927 3.927 0 000-5.236V27a11 11 0 00-22 0v1.382A3.98 3.98 0 0024 35c.086 0 .171-.019.257-.024A8.023 8.023 0 0028 39.918v1.432l-4.843 2.15A7.006 7.006 0 0019 49.9V56h-2v2h30v-2h-2zM39.411 36a8.1 8.1 0 00.332-1.024c.086.005.171.024.257.024a3.939 3.939 0 001-.142V36zM42 31a2 2 0 01-2 2v-4a2 2 0 012 2zM25.637 20.637A9 9 0 0141 27v.142A3.939 3.939 0 0040 27c-.086 0-.171.019-.257.024a7.988 7.988 0 00-15.486 0C24.171 27.019 24.086 27 24 27a3.939 3.939 0 00-1 .142V27a8.945 8.945 0 012.637-6.363zM37.91 28h-.5l-1.707-1.707a1 1 0 00-1.154-.188L30.764 28H26.09a5.993 5.993 0 0111.82 0zM22 31a2 2 0 012-2v4a2 2 0 01-2-2zm4 2v-3h5a1 1 0 00.447-.105l3.353-1.678 1.49 1.49A1 1 0 0037 30h1v3a5.958 5.958 0 01-.812 3H32v2h3.31A5.995 5.995 0 0126 33zm6 8a7.953 7.953 0 002-.263V42a2 2 0 01-4 0v-1.263A7.953 7.953 0 0032 41zm-11 8.9a5.005 5.005 0 012.969-4.569l4.3-1.912a3.982 3.982 0 007.456 0l4.3 1.912A5.005 5.005 0 0143 49.9V56H21zM13 8h2v2h-2zm4 0h2v2h-2zm4 0h2v2h-2z"/><path d="M60 16h-3V7a3 3 0 00-3-3H10a3 3 0 00-3 3v13H4a2 2 0 00-2 2v8a2 2 0 002 2h3v27a3 3 0 003 3h44a3 3 0 003-3V28h3a2 2 0 002-2v-8a2 2 0 00-2-2zM10 6h44a1 1 0 011 1v5.032H9V7a1 1 0 011-1zM4 22h12v8h-2a1 1 0 00-1 1v1.586l-2.293-2.293A1 1 0 0010 30H4zm51 37a1 1 0 01-1 1H10a1 1 0 01-1-1V32h.586l3.707 3.707A1 1 0 0015 35v-3h1a2 2 0 002-2v-8a2 2 0 00-2-2H9v-5.968h46V16h-7a2 2 0 00-2 2v8a2 2 0 002 2h1v3a1 1 0 001.707.707L54.414 28H55zm5-33h-6a1 1 0 00-.707.293L51 28.586V27a1 1 0 00-1-1h-2v-8h12z"/><path d="M50 19h8v2h-8zm0 4h8v2h-8zM6 23h8v2H6zm0 4h8v2H6z"/></g></svg>