<svg xmlns="http://www.w3.org/2000/svg" viewBox="0 0 64 64" width="512" height="512"><g id="Globe-2" data-name="Globe"><path d="M49.578 7.691a29.994 29.994 0 00-35.154 0 30 30 0 000 48.62 29.994 29.994 0 0035.154 0 30 30 0 000-48.62zM59.97 31h-8.986c-.164-7.866-2.25-14.976-5.546-20.187A29.741 29.741 0 0048.243 9.2c.053.038.109.069.161.108A28.06 28.06 0 0159.97 31zm-10.985 2c-.164 7.619-2.183 14.469-5.336 19.365a29.872 29.872 0 00-23.3 0C17.2 47.469 15.179 40.619 15.015 33H17v-2h-1.985c.164-7.619 2.183-14.469 5.336-19.365A29.869 29.869 0 0032 14a29.869 29.869 0 0011.649-2.365C46.8 16.531 48.821 23.381 48.985 31H47v2zM31 59.948c-3.561-.342-6.829-2.5-9.472-5.916A27.851 27.851 0 0131 52.037zm2-7.911a27.851 27.851 0 019.472 1.995c-2.643 3.416-5.911 5.574-9.472 5.916zm0-47.985c3.561.342 6.829 2.5 9.472 5.916A27.851 27.851 0 0133 11.963zm-2 7.911a27.851 27.851 0 01-9.472-1.995C24.171 6.552 27.439 4.394 31 4.052zM46.409 8a28.02 28.02 0 01-2.113 1.161A21.435 21.435 0 0040.772 5.4 27.679 27.679 0 0146.409 8zM19.7 9.156A32.014 32.014 0 0117.591 8a27.679 27.679 0 015.637-2.6A21.435 21.435 0 0019.7 9.156zm-4.1.153c.051-.038.107-.069.159-.106a29.616 29.616 0 002.805 1.61C15.266 16.024 13.18 23.134 13.016 31H4.03A28.063 28.063 0 0115.6 9.309zM4.03 33h8.986c.164 7.866 2.25 14.976 5.546 20.187a29.741 29.741 0 00-2.805 1.61c-.053-.038-.109-.069-.161-.108A28.06 28.06 0 014.03 33zm13.561 23.005a28.02 28.02 0 012.113-1.161 21.539 21.539 0 003.523 3.756 27.7 27.7 0 01-5.636-2.595zM44.3 54.844c.72.353 1.422.745 2.113 1.161a27.7 27.7 0 01-5.64 2.595 21.468 21.468 0 003.527-3.756zm4.106-.153c-.051.038-.107.069-.159.106a29.741 29.741 0 00-2.8-1.61c3.3-5.211 5.382-12.321 5.546-20.187h8.977A28.063 28.063 0 0148.4 54.691z"/><path d="M32 16a13.015 13.015 0 00-13 13c0 9.392 11.894 18.42 12.4 18.8a1 1 0 001.2 0C33.106 47.42 45 38.392 45 29a13.015 13.015 0 00-13-13zm0 29.725C29.621 43.792 21 36.281 21 29a11 11 0 0122 0c0 7.271-8.623 14.791-11 16.725z"/><path d="M32 23a6 6 0 106 6 6.006 6.006 0 00-6-6zm0 10a4 4 0 114-4 4 4 0 01-4 4z"/></g></svg>