<svg height="512" viewBox="0 0 64 64" width="512" xmlns="http://www.w3.org/2000/svg"><path d="M61.035 44L58 43.9V27.618l.9-.447a1.99 1.99 0 001.1-1.789V23a1 1 0 00-1-1v-3a1 1 0 00-1-1h-4a1 1 0 00-1 1v3h-1v-3a1 1 0 00-1-1h-4a1 1 0 00-1 1v3h-1a1 1 0 00-1 1v1H15a1 1 0 00-1 1v9h-3a1 1 0 00-1 1v7.241L3.035 42a.972.972 0 00-.836.4 1 1 0 00-.148.915L7.509 59.69A5.449 5.449 0 016.1 58.36C5.224 57.309 4.134 56 2 56v2c1.142 0 1.69.593 2.562 1.64S6.528 62 8.662 62H62V45a1 1 0 00-.965-1zm-1.6 14.359C58.555 57.308 57.463 56 55.327 56s-3.227 1.308-4.1 2.359S49.8 60 48.653 60s-1.692-.593-2.565-1.64S44.121 56 41.985 56s-3.224 1.309-4.1 2.36S36.464 60 35.322 60s-1.692-.593-2.565-1.64S30.791 56 28.656 56s-3.225 1.309-4.1 2.36S23.133 60 21.991 60s-1.691-.593-2.564-1.64S17.461 56 15.326 56s-3.224 1.309-4.1 2.36a4.8 4.8 0 01-1.58 1.416L7.721 54H60v5.012c-.181-.193-.365-.412-.569-.653zM58.2 60h-5.746c.1-.121.206-.242.3-.359.878-1.048 1.429-1.641 2.573-1.641s1.694.593 2.569 1.64c.097.117.204.238.304.36zm-13.345 0h-5.737c.1-.122.206-.243.3-.36.872-1.047 1.422-1.64 2.563-1.64s1.693.593 2.566 1.64c.102.117.203.238.308.36zm-13.331 0h-5.736c.1-.122.206-.243.3-.36.873-1.047 1.423-1.64 2.565-1.64s1.692.593 2.565 1.64l.306.36zm-13.33 0h-5.735c.1-.122.206-.243.3-.36.872-1.047 1.421-1.64 2.563-1.64s1.692.593 2.565 1.64l.307.36zM55 20h2v2h-2zm-7 0h2v2h-2zm-2 4h12v1.382l-1.447.723A1 1 0 0056 27v16.827l-8-.276V27a1 1 0 00-.553-.895L46 25.382zm0 12v7.482l-18-.621V36zm-.9-8.829l.9.447V34H32v-8h12.1a1.986 1.986 0 001.005 1.171zM16 26h14v8H16zm-4 10h14v6.792l-14-.482zm48 9.966V52H7.054L4.4 44.05z"/><path d="M50 26h4v2h-4zm0 4h4v2h-4zm0 4h4v2h-4zm0 4h4v2h-4zM9 48h2v2H9zm4 0h2v2h-2zm4 0h2v2h-2zm4 0h2v2h-2zm4 0h2v2h-2zm4 0h2v2h-2zm4 0h2v2h-2zm4 0h2v2h-2zM14 38h2v4h-2zm4 0h2v4h-2zm4 0h2v4h-2zm12-10h2v4h-2zm4 0h2v4h-2zm4 0h2v4h-2zm-24 0h2v4h-2zm4 0h2v4h-2zm4 0h2v4h-2zm4 10h2v4h-2zm4 0h2v4h-2zm4 0h2v4h-2zm4 0h2v4h-2zM60 8v2a1 1 0 01-1 1h-1a3 3 0 00-3 3v2h2v-2a1 1 0 011-1h1a3 3 0 003-3V8zm-10 6a1 1 0 011-1 3 3 0 003-3V8h-2v2a1 1 0 01-1 1 3 3 0 00-3 3v2h2z"/></svg>