<svg height="512" viewBox="0 0 64 64" width="512" xmlns="http://www.w3.org/2000/svg"><path d="M32 2a30 30 0 1030 30A30.034 30.034 0 0032 2zm19 50.543V47a1 1 0 00-.293-.707l-2-2-1.414 1.414L49 47.414v6.814a27.849 27.849 0 01-15 5.693v-4.507l2.707-2.707A1 1 0 0037 52v-3.586l1.707-1.707A1 1 0 0039 46v-1h-2v.586l-1.707 1.707A1 1 0 0035 48v3.586l-2.707 2.707A1 1 0 0032 55v5a28.16 28.16 0 01-2-.079V52a1 1 0 00-.293-.707L28 49.586V46a1 1 0 00-1-1h-3.586L22 43.586V43h-2v1a1 1 0 00.293.707l2 2A1 1 0 0023 47h3v3a1 1 0 00.293.707L28 52.414v7.3a27.994 27.994 0 01-17.5-9.8l4.207-4.207A1 1 0 0015 45v-2.586l2.707-2.707A1 1 0 0018 39v-3a1 1 0 00-.293-.707l-5-5-1.414 1.414L16 36.414v2.172l-2.707 2.707A1 1 0 0013 42v2.586l-3.732 3.732A27.932 27.932 0 0114.711 10h4.875L22 12.414v3.172l-3.707 3.707A1 1 0 0018 20v3.586l-.707.707 1.414 1.414 1-1A1 1 0 0020 24v-3.586l3.707-3.707A1 1 0 0024 16v-4a1 1 0 00-.293-.707l-3-3A1 1 0 0020 8h-2.4A27.8 27.8 0 0128 4.29V12a1 1 0 00.293.707l4 4A1 1 0 0033 17h4.586L42 21.414v5.172l-1.707 1.707A1 1 0 0040 29v4a1 1 0 00.293.707L44 37.414V39h2v-2a1 1 0 00-.293-.707L42 32.586v-3.172l1.707-1.707A1 1 0 0044 27v-6a1 1 0 00-.293-.707l-5-5A1 1 0 0038 15h-4.586L30 11.586V4.079A28.16 28.16 0 0132 4a27.983 27.983 0 0119 48.543z"/><path d="M33.707 36.293A1 1 0 0033 36h-2v2h1.586l1.707 1.707 1.414-1.414zM39 22a1 1 0 00-1-1h-6a1 1 0 00-1 1v2a1 1 0 00.293.707L33 26.414V30a1 1 0 001 1h2a1 1 0 00.707-.293l2-2A1 1 0 0039 28zm-2 5.586L35.586 29H35v-3a1 1 0 00-.293-.707L33 23.586V23h4zM56 23a4 4 0 10-5 3.858V31h2v-4.142A4 4 0 0056 23zm-4 2a2 2 0 112-2 2 2 0 01-2 2zm-37-5a3 3 0 10-4 2.816V25h2v-2.184A3 3 0 0015 20zm-3 1a1 1 0 111-1 1 1 0 01-1 1zm16 8a2.993 2.993 0 00-1 5.816V39h2v-4.184A2.993 2.993 0 0028 29zm0 4a1 1 0 111-1 1 1 0 01-1 1zm23 0h2v2h-2zm0 4h2v2h-2zm0 4h2v2h-2zm-4 0h2v2h-2zm-4 0h2v2h-2zm-4 0h2v2h-2zm-4 0h2v2h-2zm-4 0h2v2h-2zm-4 0h2v2h-2zm-4-2h2v2h-2zm-4 0h2v2h-2zm0-4h2v2h-2zm0-4h2v2h-2zm0-4h2v2h-2zm-4 0h2v2h-2zm-4 0h2v2h-2z"/></svg>