<svg height="512" viewBox="0 0 64 64" width="512" xmlns="http://www.w3.org/2000/svg"><g id="Checklist-2" data-name="Checklist"><path d="M25 12a3 3 0 10-3-3 3 3 0 003 3zm0-4a1 1 0 11-1 1 1 1 0 011-1z"/><path d="M59.832 30.445l-4-6A1 1 0 0055 24h-9v-7a5.006 5.006 0 00-5-5h-5.031A4.952 4.952 0 0033 11h-2V7a5.006 5.006 0 00-5-5h-2a5.006 5.006 0 00-5 5v4h-2a4.952 4.952 0 00-2.969 1H9a5.006 5.006 0 00-5 5v40a5.006 5.006 0 005 5h32a5.006 5.006 0 005-5v-3h12a2 2 0 002-2V31a1.006 1.006 0 00-.168-.555zm-2.7-.445H32.868l2.667-4h18.93zM41 35h-9v-3h9zM10 51.414L14.586 56H10zM11.414 50H15a1 1 0 011 1v3.586zM15 48h-5V18h2v3a1 1 0 001 1h24a1 1 0 001-1v-3h2v6h-5a1 1 0 00-.832.445l-4 6A1.006 1.006 0 0030 31v21a2 2 0 002 2h8v2H18v-5a3 3 0 00-3-3zm-1-29h22v1H14zm29 13h4v7.131l-1.445-.963a1 1 0 00-1.11 0L43 39.131zm6 0h9v3h-9zm-5-15v7h-2v-6a2 2 0 00-2-2h-2a4.95 4.95 0 00-.424-2H41a3 3 0 013 3zm-27-4h3a1 1 0 001-1V7a3 3 0 013-3h2a3 3 0 013 3v5a1 1 0 001 1h3a3 3 0 013 3v1H14v-1a3 3 0 013-3zm27 44a3 3 0 01-3 3H9a3 3 0 01-3-3V17a3 3 0 013-3h3.424A4.95 4.95 0 0012 16h-2a2 2 0 00-2 2v38a2 2 0 002 2h30a2 2 0 002-2v-2h2zm-12-5V37h9v4a1 1 0 001.555.832L45 40.2l2.445 1.63A1 1 0 0049 41v-4h9v15z"/><path d="M14 36h6a2 2 0 002-2v-2h-2v2h-6v-6h6v-2h-6a2 2 0 00-2 2v6a2 2 0 002 2z"/><path d="M16.707 29.293l-1.414 1.414 2 2a1 1 0 001.414 0l4-4-1.414-1.414L18 30.586zM24 27h4v2h-4zm0 3h4v2h-4zm-12 8h2v2h-2zm4 0h10v2H16zm-4 4h14v2H12z"/></g></svg>