<svg height="512" viewBox="0 0 64 64" width="512" xmlns="http://www.w3.org/2000/svg"><path d="M59 28h-5V12a1.006 1.006 0 00-.168-.555l-5.408-8.106A2.977 2.977 0 0045.93 2H10.07a2.977 2.977 0 00-2.492 1.335l-5.41 8.11A1.006 1.006 0 002 12v41a3 3 0 003 3h31v3a3 3 0 003 3h20a3 3 0 003-3V31a3 3 0 00-3-3zm-5 2h2v2.586l-.293-.293a1 1 0 00-1.414 0l-.293.293zM22 19H4v-6h18zm2-6h8v12.919l-3.375-2.7a1 1 0 00-1.25 0L24 25.919zm10 0h18v6H34zM9.245 4.44A.985.985 0 0110.07 4h35.86a.988.988 0 01.828.444L51.131 11H4.869zM5 54a1 1 0 01-1-1V21h18v7a1 1 0 001.625.781L28 25.28l4.375 3.5A1 1 0 0034 28v-7h18v7H39a3 3 0 00-3 3v23zm55 5a1 1 0 01-1 1H39a1 1 0 01-1-1V31a1 1 0 011-1h13v5a1 1 0 001.707.707L55 34.414l1.293 1.293A1 1 0 0057 36a.987.987 0 00.383-.076A1 1 0 0058 35v-5h1a1 1 0 011 1z"/><path d="M43 41.586l-1.293-1.293-1.414 1.414 2 2a1 1 0 001.414 0l4-4-1.414-1.414zm0 11l-1.293-1.293-1.414 1.414 2 2a1 1 0 001.414 0l4-4-1.414-1.414zM50 42h8v2h-8zm0 11h8v2h-8zm0-4h8v2h-8zm0-11h2v2h-2zm4 0h4v2h-4z"/></svg>