<svg xmlns="http://www.w3.org/2000/svg" viewBox="0 0 64 64" width="512" height="512"><g id="Conveyor-Machine-2" data-name="Conveyor-Machine"><path d="M52 12a3 3 0 10-3-3 3 3 0 003 3zm0-4a1 1 0 11-1 1 1 1 0 011-1zm-31 4a3 3 0 10-3-3 3 3 0 003 3zm0-4a1 1 0 11-1 1 1 1 0 011-1zm18 24h-1v-2.5a2.5 2.5 0 00-5 0V32H9v-2.5a2.5 2.5 0 00-5 0V32H3a1 1 0 00-1 1v28a1 1 0 001 1h36a1 1 0 001-1V33a1 1 0 00-1-1zm-4-2.5a.5.5 0 011 0V32h-1zm-29 0a.5.5 0 011 0V32H6zM38 34v2H4v-2zm0 4v18H4V38zM4 60v-2h34v2z"/><path d="M13 54a3 3 0 003-3v-8a3 3 0 00-6 0v8a3 3 0 003 3zm-1-11a1 1 0 012 0v8a1 1 0 01-2 0zm9 11a3 3 0 003-3v-8a3 3 0 00-6 0v8a3 3 0 003 3zm-1-11a1 1 0 012 0v8a1 1 0 01-2 0zm9 11a3 3 0 003-3v-8a3 3 0 00-6 0v8a3 3 0 003 3zm-1-11a1 1 0 012 0v8a1 1 0 01-2 0z"/><path d="M61.832 54.445l-4-6A1 1 0 0057 48V13.889A6.993 6.993 0 0047.111 4H25.889A6.993 6.993 0 0016 13.889V18h-1a1 1 0 00-1 1v4a1 1 0 001 1h1v3a1 1 0 00.293.707l2 2 1.414-1.414L18 26.586V24h6v2.586l-1.707 1.707 1.414 1.414 2-2A1 1 0 0026 27v-3h1a1 1 0 001-1v-4a1 1 0 00-1-1h-1v-4h21v34a1 1 0 00-.832.445l-4 6A1.006 1.006 0 0042 55v6a1 1 0 001 1h18a1 1 0 001-1v-6a1.006 1.006 0 00-.168-.555zM52 4a5 5 0 11-5 5 5.006 5.006 0 015-5zm-6.315 8h-18.37a6.912 6.912 0 000-6h18.37a6.912 6.912 0 000 6zM21 4a5 5 0 11-5 5 5.006 5.006 0 015-5zm5 18H16v-2h10zm-8-4v-2.685a6.912 6.912 0 006 0V18zm31-2.685a6.912 6.912 0 006 0V48h-6zM47.535 50h8.93l2.667 4H44.868zM44 60v-4h16v4z"/></g></svg>