<svg height="512" viewBox="0 0 64 64" width="512" xmlns="http://www.w3.org/2000/svg"><g id="Gps-2" data-name="Gps"><path d="M46 2H18a5.006 5.006 0 00-5 5v50a5.006 5.006 0 005 5h28a5.006 5.006 0 005-5V7a5.006 5.006 0 00-5-5zM25 4h14v2a1 1 0 01-1 1H26a1 1 0 01-1-1zm24 53a3 3 0 01-3 3H18a3 3 0 01-3-3V7a3 3 0 013-3h5v2a3 3 0 003 3h12a3 3 0 003-3V4h5a3 3 0 013 3z"/><path d="M32.934 18.641a1 1 0 00-1.868 0l-10 26a1 1 0 001.559 1.14l9.375-7.5 9.375 7.5a1 1 0 001.559-1.14zM31 36.519l-6.741 5.393L31 24.386zm2 0V24.386l6.741 17.526z"/><path d="M40.162 16.192h2.001v2h-2.001z" transform="rotate(-7.7 41.255 17.173)"/><path d="M40.703 20.156h2.001v2h-2.001z" transform="rotate(-7.7 41.64 21.072)"/><path d="M41.783 28.083h2.001v2h-2.001z" transform="rotate(-7.7 42.884 29.074)"/><path d="M42.324 32.046h2.001v2h-2.001z" transform="rotate(-7.7 43.434 33.044)"/><path d="M42.864 36.009h2.001v2h-2.001z" transform="rotate(-7.7 44.005 37.03)"/><path d="M41.243 24.119h2.001v2h-2.001z" transform="rotate(-7.7 42.341 25.104)"/><path d="M20.756 24.119h2v2.001h-2z" transform="rotate(-82.24 21.751 25.115)"/><path d="M21.837 16.192h2v2.001h-2z" transform="rotate(-82.24 22.832 17.19)"/><path d="M19.675 32.046h2v2.001h-2z" transform="rotate(-82.24 20.67 33.04)"/><path d="M20.216 28.082h2v2.001h-2z" transform="rotate(-82.24 21.211 29.077)"/><path d="M21.297 20.155h2v2.001h-2z" transform="rotate(-82.24 22.303 21.152)"/><path d="M19.135 36.009h2v2.001h-2z" transform="rotate(-82.24 20.128 37.001)"/></g></svg>