<svg height="512" viewBox="0 0 64 64" width="512" xmlns="http://www.w3.org/2000/svg"><path d="M32 11a16 16 0 1016 16 16.019 16.019 0 00-16-16zm0 30a14 14 0 1114-14 14.015 14.015 0 01-14 14z"/><path d="M32 2A25.028 25.028 0 007 27c0 8.036 4.248 16.62 12.285 24.825A73.55 73.55 0 0031.47 61.848a1 1 0 001.06 0 73.55 73.55 0 0012.185-10.023C52.752 43.62 57 35.036 57 27A25.028 25.028 0 0032 2zm0 57.805C28.507 57.472 9 43.687 9 27a23 23 0 0146 0c0 16.672-19.508 30.47-23 32.805z"/><path d="M38.962 18.721L21.284 26.5a1 1 0 00.238 1.9l7.778 1.3 1.3 7.78a1 1 0 00.862.828 1.031 1.031 0 00.124.007 1 1 0 00.915-.6l7.778-17.677a1 1 0 00-1.317-1.318zm-13.8 8.258l9.727-4.279-5.06 5.06zm6.863 6.863l-.778-4.67 5.053-5.059z"/></svg>