<svg height="512" viewBox="0 0 64 64" width="512" xmlns="http://www.w3.org/2000/svg"><path d="M39 48a5 5 0 105 5 5.006 5.006 0 00-5-5zm0 8a3 3 0 113-3 3 3 0 01-3 3zm12-8a5 5 0 105 5 5.006 5.006 0 00-5-5zm0 8a3 3 0 113-3 3 3 0 01-3 3zm-36-8a5 5 0 105 5 5.006 5.006 0 00-5-5zm0 8a3 3 0 113-3 3 3 0 01-3 3zM6.75 45.732l-1.5-1.322A12.974 12.974 0 002 53h2a10.983 10.983 0 012.75-7.268zm-4.569 9.433a12.862 12.862 0 00.562 2.17l1.885-.67a10.867 10.867 0 01-.475-1.83zM47 40h2v2h-2zm4 0v2a11.028 11.028 0 019.585 5.608l1.742-.984A13.034 13.034 0 0051 40z"/><path d="M51 44h-6V5a1 1 0 00-1-1H18a1 1 0 00-1 1v39h-2a9 9 0 000 18h36a9 9 0 000-18zM27 28h-8v-2h8zm-8-18h8v3a1 1 0 001.555.832L31 12.2l2.445 1.63A1 1 0 0035 13v-3h8v14H19zm10-4h4v5.132l-1.445-.964a1 1 0 00-1.11 0L29 11.132zm0 20h4v5.132l-1.445-.964a1 1 0 00-1.11 0L29 31.132zm6 0h8v2h-8zm8-18h-8V6h8zM27 6v2h-8V6zm-8 24h8v3a1 1 0 001.555.832L31 32.2l2.445 1.63A1 1 0 0035 33v-3h8v14H19zm32 30H15a7 7 0 010-14h36a7 7 0 010 14z"/><path d="M14 52h2v2h-2zm13-4a5 5 0 105 5 5.006 5.006 0 00-5-5zm0 8a3 3 0 113-3 3 3 0 01-3 3z"/><path d="M26 52h2v2h-2zm12 0h2v2h-2zm12 0h2v2h-2z"/></svg>