<svg height="512" viewBox="0 0 64 64" width="512" xmlns="http://www.w3.org/2000/svg"><g id="Location-3" data-name="Location"><path d="M37.293 22.293L32 27.586l-5.293-5.293a1 1 0 00-1.414 0l-6 6 1.414 1.414L26 24.414l5.293 5.293a1 1 0 001.414 0L38 24.414l5.293 5.293 1.414-1.414-6-6a1 1 0 00-1.414 0z"/><path d="M32 11a16 16 0 1016 16 16.019 16.019 0 00-16-16zm0 30a14 14 0 1114-14 14.015 14.015 0 01-14 14z"/><path d="M32 2A25.028 25.028 0 007 27c0 8.036 4.249 16.62 12.286 24.825A73.521 73.521 0 0031.47 61.848a1 1 0 001.06 0 73.521 73.521 0 0012.184-10.023C52.751 43.62 57 35.036 57 27A25.028 25.028 0 0032 2zm0 57.805C28.507 57.472 9 43.687 9 27a23 23 0 0146 0c0 16.672-19.508 30.47-23 32.805z"/></g></svg>