<svg xmlns="http://www.w3.org/2000/svg" viewBox="0 0 64 64" width="512" height="512"><g id="Location-2" data-name="Location"><path d="M32 25.414V29a1 1 0 001 1h2a1 1 0 00.707-.293l2-2A1 1 0 0038 27v-6a1 1 0 00-1-1h-6a1 1 0 00-1 1v2a1 1 0 00.293.707zM32 22h4v4.586L34.586 28H34v-3a1 1 0 00-.293-.707L32 22.586z"/><path d="M59.628 35.537A28.913 28.913 0 0031 2a27.887 27.887 0 00-3.106.166 29 29 0 00-.006 57.667A27.83 27.83 0 0031 60c.36 0 .71-.01 1.031-.03a28.481 28.481 0 0011.313-2.735A45.621 45.621 0 0048.4 61.8a1 1 0 001.2 0C50.106 61.42 62 52.392 62 43a12.921 12.921 0 00-2.372-7.463zM58 31c0 .845-.048 1.688-.126 2.526a12.941 12.941 0 00-16.194-1.26l-.68-.681v-3.171l1.707-1.707A1 1 0 0043 26v-6a1 1 0 00-.293-.707l-5-5A1 1 0 0037 14h-4.586L29 10.586v-6.5A24.343 24.343 0 0131 4a27.03 27.03 0 0127 27zM4 31A27 27 0 0115.369 9h3.217L21 11.414v3.172l-3.707 3.707A1 1 0 0017 19v3.586L13.586 26H11a1 1 0 00-1 1v3a1 1 0 00.293.707L15 35.414v2.172l-2.707 2.707A1 1 0 0012 41v2.586L8.989 46.6A26.729 26.729 0 014 31zm6.206 17.208l3.5-3.5A1 1 0 0014 44v-2.586l2.707-2.707A1 1 0 0017 38v-3a1 1 0 00-.293-.707L12 29.586V28h2a1 1 0 00.707-.293l4-4A1 1 0 0019 23v-3.586l3.707-3.707A1 1 0 0023 15v-4a1 1 0 00-.293-.707l-3-3A1 1 0 0019 7h-.355A26.95 26.95 0 0127 4.308V11a1 1 0 00.293.707l4 4A1 1 0 0032 16h4.586L41 20.414v5.172l-1.707 1.707A1 1 0 0039 28v4a1 1 0 00.293.707l.826.826a13 13 0 00-3.54 5.632l-3.872-3.872A1 1 0 0032 35h-8a1 1 0 00-.707.293l-4 4A1 1 0 0019 40v3a1 1 0 00.293.707l2 2A1 1 0 0022 46h3v3a1 1 0 00.293.707L27 51.414V57.7a27.129 27.129 0 01-16.794-9.492zM29 57.913V51a1 1 0 00-.293-.707L27 48.586V45a1 1 0 00-1-1h-3.586L21 42.586v-2.172L24.414 37h7.172L36 41.414v3.172l-1.707 1.707A1 1 0 0034 47v3.586l-2.707 2.707A1 1 0 0031 54v3.98a23.507 23.507 0 01-2-.067zm4 0v-3.5l2.707-2.707A1 1 0 0036 51v-3.586l.611-.611a25.817 25.817 0 005.322 8.886A26.465 26.465 0 0133 57.91zm16 1.815C46.621 57.792 38 50.281 38 43a11 11 0 0122 0c0 7.271-8.623 14.791-11 16.725z"/><path d="M49 37a6 6 0 106 6 6.006 6.006 0 00-6-6zm0 10a4 4 0 114-4 4 4 0 01-4 4z"/></g></svg>