<svg height="512" viewBox="0 0 64 64" width="512" xmlns="http://www.w3.org/2000/svg"><path d="M58 6H46V5a3 3 0 00-6 0v1h-5V5a3 3 0 00-6 0v1h-5V5a3 3 0 00-6 0v1h-6a1 1 0 00-1 1v39H6a1 1 0 00-1 1v4a5.006 5.006 0 005 5h1v5a1 1 0 001 1h46a1 1 0 001-1V7a1 1 0 00-1-1zm-1 8h-4V8h4zM42 5a1 1 0 012 0v1h-2zM31 5a1 1 0 012 0v1h-2zM20 5a1 1 0 012 0v1h-2zm-2 3v1a3 3 0 003 3v-2a1 1 0 01-1-1V8h9v1a3 3 0 003 3v-2a1 1 0 01-1-1V8h9v1a3 3 0 003 3v-2a1 1 0 01-1-1V8h9v6H13V8zm26 38H13V16h38v35a3 3 0 01-6 0v-4a1 1 0 00-1-1zM7 51v-3h36v3a4.973 4.973 0 001 3H10a3 3 0 01-3-3zm6 5h35a4.948 4.948 0 003-1.026V60H13zm40 4V16h4v44z"/><path d="M45 22a1 1 0 00-1-1H20a1 1 0 00-1 1v18a1 1 0 001 1h24a1 1 0 001-1zm-6 3h-5v-2h5zm-11-2h4v5.131l-1.445-.963a1 1 0 00-1.11 0L28 28.131zm-2 0v2h-5v-2zm-5 16V27h5v3a1 1 0 001.555.832L30 29.2l2.445 1.63A1 1 0 0034 30v-3h5v12zm22 0h-2V23h2z"/></svg>