<svg xmlns="http://www.w3.org/2000/svg" viewBox="0 0 64 64" width="512" height="512"><path d="M14 17.071v-1.1A4.977 4.977 0 0016 12v-1a1 1 0 001-1V8A6 6 0 005 8v2a1 1 0 001 1v1a4.977 4.977 0 002 3.974v1.1A7.011 7.011 0 002 24v11.5a2.5 2.5 0 003 2.449V56a3 3 0 00-3 3v2a1 1 0 001 1h6a1 1 0 00.447-.1L11 61.118l1.553.777A1 1 0 0013 62h6a1 1 0 001-1v-2a3 3 0 00-3-3V37.949a2.5 2.5 0 003-2.449V24a7.011 7.011 0 00-6-6.929zM7 8a4 4 0 018 0v1h-.172a1 1 0 01-.707-.293l-1.414-1.414a1 1 0 00-1.414 0l-.828.828A2.98 2.98 0 018.343 9H7zm1.343 3a4.969 4.969 0 003.536-1.465L12 9.414l.707.707A2.98 2.98 0 0014 10.87V12a3 3 0 01-6 0v-1zM11 17a5 5 0 001-.1v.687l-1 1-1-1V16.9a5 5 0 001 .1zM4.5 36a.5.5 0 01-.5-.5V34h1v1.5a.5.5 0 01-.5.5zm4.264 24H4v-1a1 1 0 011-1h5v1.382zM18 59v1h-4.764L12 59.382V58h5a1 1 0 011 1zm-6-3V40h-2v16H7V38h8v18zm5.5-20a.5.5 0 01-.5-.5V34h1v1.5a.5.5 0 01-.5.5zm.5-4h-1v-9h-2v13H7V23H5v9H4v-8a4.991 4.991 0 014.624-4.962L10 20.414V33h2V20.414l1.376-1.376A4.991 4.991 0 0118 24zm44 21a3 3 0 00-3-3V19a1 1 0 00-1-1H38a1 1 0 00-1 1v31h-2.061L33 18.938A3 3 0 0030 16h-4a3 3 0 000 6h4a2.988 2.988 0 001.171-.238L32.948 50.2A2.994 2.994 0 0034 56h1.556A3.959 3.959 0 0035 58a4 4 0 008 0 3.959 3.959 0 00-.556-2h10.112A3.959 3.959 0 0052 58a4 4 0 107.421-2.043A2.994 2.994 0 0062 53zM45 38h-6v-2h6zm-6-14h6v3a1 1 0 001.707.707L48 26.414l1.293 1.293A1 1 0 0050 28a.987.987 0 00.383-.076A1 1 0 0051 27v-3h6v10H39zm8-4h2v4.586l-.293-.293a1 1 0 00-1.414 0l-.293.293zm0 16h2v4.586l-.293-.293a1 1 0 00-1.414 0l-.293.293zm4 0h6v2h-6zm6-14h-6v-2h6zm-12-2v2h-6v-2zm-6 20h6v3a1 1 0 001.707.707L48 42.414l1.293 1.293A1 1 0 0050 44a.987.987 0 00.383-.076A1 1 0 0051 43v-3h6v10H39zm-9-20h-4a1 1 0 010-2h4a1 1 0 010 2zm3 33a1 1 0 111 1 1 1 0 01-1-1zm8 5a2 2 0 11-2-2 2 2 0 012 2zm15 2a2 2 0 112-2 2 2 0 01-2 2zm3-6H36.816a2.809 2.809 0 000-2H59a1 1 0 010 2z" id="Delivery_Cart" data-name="Delivery Cart"/></svg>