<svg height="512" viewBox="0 0 64 64" width="512" xmlns="http://www.w3.org/2000/svg"><path d="M52 30.363V5a3 3 0 00-3-3H5a3 3 0 00-3 3v44a3 3 0 003 3h34.129a43.747 43.747 0 009.271 9.8 1 1 0 001.2 0C50.106 61.42 62 52.392 62 43a13.014 13.014 0 00-10-12.637zM35 12h15v6H35zm15-7v5H35V4h14a1 1 0 011 1zM33 4v19a1 1 0 01-1 1H22a1 1 0 01-1-1V4zM19 18H4v-6h15zM5 4h14v6H4V5a1 1 0 011-1zm0 46a1 1 0 01-1-1V20h15v3a3 3 0 003 3h10a3 3 0 003-3v-3h15v10.051A12.7 12.7 0 0049 30a13.015 13.015 0 00-13 13 15.193 15.193 0 001.95 7zm44 9.725C46.622 57.792 38 50.281 38 43a11 11 0 0122 0c0 7.271-8.623 14.791-11 16.725z"/><path d="M49 37a6 6 0 106 6 6.006 6.006 0 00-6-6zm0 10a4 4 0 114-4 4 4 0 01-4 4z"/></svg>