<svg height="512" viewBox="0 0 64 64" width="512" xmlns="http://www.w3.org/2000/svg"><path d="M62 5a3 3 0 00-3-3H45a3 3 0 000 6h4.184A2.966 2.966 0 0049 9v1h-6.7l-2.745-1.832A1.006 1.006 0 0039 8H25a1.006 1.006 0 00-.555.168L21.7 10H15V9a2.966 2.966 0 00-.184-1H19a3 3 0 000-6H5a3 3 0 000 6h4.184A2.966 2.966 0 009 9v1H5a2 2 0 00-2 2v6a2 2 0 002 2h7.611a2.991 2.991 0 012.96 2.507l.443 2.658A1 1 0 0017 26v5a1 1 0 001 1h1v4.586l-1.707 1.707A1 1 0 0017 39v20a3 3 0 003 3h24a3 3 0 003-3V39a1 1 0 00-.293-.707L45 36.586V32h1a1 1 0 001-1v-5a1 1 0 00.986-.835l.443-2.658A2.991 2.991 0 0151.389 20H59a2 2 0 002-2v-6a2 2 0 00-2-2h-4V9a2.966 2.966 0 00-.184-1H59a3 3 0 003-3zM44 5a1 1 0 011-1h14a1 1 0 010 2H45a1 1 0 01-1-1zM4 5a1 1 0 011-1h14a1 1 0 010 2H5a1 1 0 01-1-1zm7 4a1 1 0 012 0v1h-2zm10 17v4h-2v-4zm20-2h-5.026a4.9 4.9 0 000-6H40a1 1 0 011 1zm-6-3a3 3 0 11-3-3 3 3 0 013 3zm-6.974 3H23v-5a1 1 0 011-1h4.026a4.9 4.9 0 000 6zM28 43h-9v-3h9zm2-3h4v7.131l-1.445-.963a1 1 0 00-1.11 0L30 47.131zm6 0h9v3h-9zm-15.586-2l2-2h19.172l2 2zM44 60H20a1 1 0 01-1-1V45h9v4a1 1 0 001.555.832L32 48.2l2.445 1.63A1 1 0 0036 49v-4h9v14a1 1 0 01-1 1zm-1-25.414l-.293-.293A1 1 0 0042 34H22a1 1 0 00-.707.293l-.293.293V32h1a1 1 0 001-1v-5h18v5a1 1 0 001 1h1zM45 30h-2v-4h2zm14-12h-7.611a4.984 4.984 0 00-4.932 4.178L46.153 24H43v-5a3 3 0 00-3-3H24a3 3 0 00-3 3v5h-3.153l-.3-1.822A4.984 4.984 0 0012.611 18H5v-6h17a1.006 1.006 0 00.555-.168L25.3 10h13.4l2.748 1.832A1.006 1.006 0 0042 12h17zm-6-9v1h-2V9a1 1 0 012 0z"/><path d="M31 20h2v2h-2zM7 14h4v2H7zm6 0h2v2h-2zm40 0h4v2h-4zm-4 0h2v2h-2zm-4 0h2v2h-2zm-28 0h2v2h-2zm14-2h2v2h-2zm4 0h2v2h-2zm-8 0h2v2h-2zm31 23a3 3 0 10-4 2.816V43h2v-5.184A3 3 0 0058 35zm-3 1a1 1 0 111-1 1 1 0 01-1 1zm-1 9h2v2h-2zm0 4h2v2h-2zm0 4h2v2h-2zm4-10h2v6h-2zm0 8h2v2h-2zm0 4h2v2h-2zM9 32a2.993 2.993 0 00-1 5.816V43h2v-5.184A2.993 2.993 0 009 32zm0 4a1 1 0 111-1 1 1 0 01-1 1zm-1 9h2v2H8zm0 4h2v2H8zm0 4h2v2H8zM4 43h2v6H4zm0 8h2v2H4zm0 4h2v2H4z"/></svg>