<svg height="512" viewBox="0 0 64 64" width="512" xmlns="http://www.w3.org/2000/svg"><g id="Map-3" data-name="Map"><path d="M57 2H7a5.006 5.006 0 00-5 5v38a5.006 5.006 0 005 5h16.867l-.75 6H21a3 3 0 000 6h22a3 3 0 000-6h-2.117l-.75-6H57a5.006 5.006 0 005-5V7a5.006 5.006 0 00-5-5zm3 5v17H21V4h36a3 3 0 013 3zM17 8V4h2v21a1 1 0 001 1h40v6H39a1 1 0 00-1 1v7h-6v-7a1 1 0 00-1-1H20a1 1 0 00-1 1v7h-6v-7a1 1 0 00-1-1H4v-6h8a1 1 0 001-1V4h2v4zm43 26v6H40v-6zm-30 6h-9v-6h9zm-19 0H4v-6h7zM7 4h4v20H4V7a3 3 0 013-3zm37 55a1 1 0 01-1 1H21a1 1 0 010-2h22a1 1 0 011 1zm-5.133-3H25.133l.75-6h12.234zM57 48H7a3 3 0 01-3-3v-3h56v3a3 3 0 01-3 3z"/><path d="M54 44h2v2h-2zM7 28h4v2H7zm8-8h2v4h-2zm0-8h2v4h-2zm0 22h2v4h-2zm6-6h4v2h-4zm8 0h4v2h-4zm8 0h4v2h-4zm-3 6h2v4h-2zm11-6h4v2h-4zm8 0h4v2h-4zM40 16a3 3 0 10-3-3 3 3 0 003 3zm0-4a1 1 0 11-1 1 1 1 0 011-1z"/><path d="M39.384 21.788a1 1 0 001.232 0C41.269 21.278 47 16.7 47 13a7 7 0 00-14 0c0 3.7 5.731 8.278 6.384 8.788zM40 8a5.006 5.006 0 015 5c0 1.869-2.851 4.9-5 6.711-2.149-1.811-5-4.842-5-6.711a5.006 5.006 0 015-5z"/></g></svg>