<svg xmlns="http://www.w3.org/2000/svg" viewBox="0 0 64 64" width="512" height="512"><g id="Insurance"><path d="M26 12a3 3 0 10-3-3 3 3 0 003 3zm0-4a1 1 0 11-1 1 1 1 0 011-1z"/><path d="M57.406 34.086l-9-4a1 1 0 00-.812 0L47 30.35V17a5.006 5.006 0 00-5-5h-5.031A4.952 4.952 0 0034 11h-2V7a5.006 5.006 0 00-5-5h-2a5.006 5.006 0 00-5 5v4h-2a4.952 4.952 0 00-2.969 1H10a5.006 5.006 0 00-5 5v40a5.006 5.006 0 005 5h32a5.006 5.006 0 005-5v-3.412l.514.286a1 1 0 00.972 0l2.827-1.574A13.006 13.006 0 0058 40.939V35a1 1 0 00-.594-.914zM45 17v14.239l-2 .889V18a2 2 0 00-2-2h-2a4.95 4.95 0 00-.424-2H42a3 3 0 013 3zm-4 32.234V56H19v-5a3 3 0 00-3-3h-5V18h2v3a1 1 0 001 1h24a1 1 0 001-1v-3h2v15.016l-2.406 1.07A1 1 0 0038 35v5.939a13 13 0 003 8.295zm-30 2.18L15.586 56H11zM12.414 50H16a1 1 0 011 1v3.586zM15 19h22v1H15zm3-6h3a1 1 0 001-1V7a3 3 0 013-3h2a3 3 0 013 3v5a1 1 0 001 1h3a3 3 0 013 3v1H15v-1a3 3 0 013-3zm27 44a3 3 0 01-3 3H10a3 3 0 01-3-3V17a3 3 0 013-3h3.424A4.95 4.95 0 0013 16h-2a2 2 0 00-2 2v38a2 2 0 002 2h30a2 2 0 002-2v-4.822a12.989 12.989 0 001.687 1.122l.313.174zm11-16.061a11.006 11.006 0 01-5.658 9.616L48 51.856l-2.342-1.3A11.006 11.006 0 0140 40.939v-5.29l8-3.549 8 3.554z"/><path d="M44.707 40.293l-1.414 1.414 3 3a1 1 0 001.414 0l5-5-1.414-1.414L47 42.586zM32.8 24.4a1 1 0 00-.8-.4H20a1 1 0 00-.8.4l-3 4a1 1 0 00-.2.6v16a1 1 0 001 1h18a1 1 0 001-1V29a1 1 0 00-.2-.6zM20.5 26h11l1.5 2H19zm2.5 6h-5v-2h5zm2-2h2v3.586l-.293-.293a1 1 0 00-1.414 0l-.293.293zm4 0h5v2h-5zM18 44V34h5v2a1 1 0 001.707.707L26 35.414l1.293 1.293A1 1 0 0028 37a.987.987 0 00.383-.076A1 1 0 0029 36v-2h5v10z"/></g></svg>