<svg height="512" viewBox="0 0 64 64" width="512" xmlns="http://www.w3.org/2000/svg"><g id="Map-2" data-name="Map"><path d="M61 10H3a1 1 0 00-1 1v42a1 1 0 001 1h58a1 1 0 001-1V11a1 1 0 00-1-1zm-43 2v16H4V12zM4 38h1v-2H4v-6h15a1 1 0 001-1V12h6v17a1 1 0 001 1h17v-2H28V12h32v16H50v2h10v6H46a1 1 0 00-1 1v15h-6V37a1 1 0 00-1-1H27a1 1 0 00-1 1v15H4zm33 14h-9V38h9zm10 0V38h13v14z"/><path d="M19 36h-2v2h1v8h2v-9a1 1 0 00-1-1zm27-14.143V26h2v-4.129a4.006 4.006 0 003-4.051 4 4 0 10-5 4.038zM46.91 16h.092a2 2 0 11-.092 0zM15 37.82a4.013 4.013 0 10-5 4.039V46h2v-4.129a4 4 0 003-4.051zm-2.519 1.529A2 2 0 1110.91 36h.092a2 2 0 011.475 3.349zM10 48h2v2h-2zm4 0h2v2h-2zm4 0h2v2h-2zm4 0h2v2h-2zm0-4h2v2h-2zm0-4h2v2h-2zm0-4h2v2h-2zm0-4h2v2h-2zm4 0h2v2h-2zm4 0h2v2h-2zm4 0h2v2h-2zm4 0h2v2h-2zm4 0h2v2h-2zm4 0h2v2h-2zm0-4h2v2h-2z"/></g></svg>