<svg xmlns="http://www.w3.org/2000/svg" viewBox="0 0 64 64" width="512" height="512"><g id="Logistic"><path d="M39.8 19.4a1 1 0 00-.8-.4H25a1 1 0 00-.8.4l-3 4a1 1 0 00-.2.6v17a2 2 0 002 2h18a2 2 0 002-2V24a1 1 0 00-.2-.6zM25.5 21h13l1.5 2H24zm2.5 6h-5v-2h5zm2-2h4v5.132l-1.445-.964a1 1 0 00-1.11 0L30 30.132zm6 0h5v2h-5zM23 41V29h5v3a1 1 0 001.555.832L32 31.2l2.445 1.63A1 1 0 0036 32v-3h5v12z"/><path d="M59 29a3 3 0 00-2.816 2h-5.235A18.87 18.87 0 0047 20.381V14h6.184a3 3 0 100-2H46a1 1 0 00-1 1v5.182a18.961 18.961 0 00-8-4.492V8h6.184a3 3 0 100-2H36a1 1 0 00-1 1v6.261a17.372 17.372 0 00-6 0V5a1 1 0 00-1-1h-7.184a3 3 0 100 2H27v7.69a18.961 18.961 0 00-8 4.492V13a1 1 0 00-1-1h-7.184a3 3 0 100 2H17v6.381A18.87 18.87 0 0013.051 31H7.816a3 3 0 100 2h5.235A18.87 18.87 0 0017 43.619V50h-6.184a3 3 0 100 2H18a1 1 0 001-1v-5.182a18.961 18.961 0 008 4.492V58h-6.184a3 3 0 100 2H28a1 1 0 001-1v-8.261a17.372 17.372 0 006 0V57a1 1 0 001 1h7.184a3 3 0 100-2H37v-5.69a18.961 18.961 0 008-4.492V51a1 1 0 001 1h7.184a3 3 0 100-2H47v-6.381A18.87 18.87 0 0050.949 33h5.235A2.995 2.995 0 1059 29zm-3-17a1 1 0 11-1 1 1 1 0 011-1zM46 6a1 1 0 11-1 1 1 1 0 011-1zM18 6a1 1 0 111-1 1 1 0 01-1 1zM8 14a1 1 0 111-1 1 1 0 01-1 1zm0 38a1 1 0 111-1 1 1 0 01-1 1zm10 8a1 1 0 111-1 1 1 0 01-1 1zm28-4a1 1 0 11-1 1 1 1 0 011-1zm10-6a1 1 0 11-1 1 1 1 0 011-1zM5 33a1 1 0 111-1 1 1 0 01-1 1zm27 16a17 17 0 1117-17 17.019 17.019 0 01-17 17zm27-16a1 1 0 111-1 1 1 0 01-1 1z"/></g></svg>