<svg height="512" viewBox="0 0 64 64" width="512" xmlns="http://www.w3.org/2000/svg"><path d="M61.553 6.167a1 1 0 00-.941-.089L41.99 13.919 22.371 6.071a1.007 1.007 0 00-.759.007l-19 8A1 1 0 002 15v42a1 1 0 001.388.922l18.622-7.841 19.619 7.848a1.012 1.012 0 00.759-.007l19-8A1 1 0 0062 49V7a1 1 0 00-.447-.833zM60 48.336l-17 7.158V36h-2v19.523l-18-7.2V44h-2v4.336L4 55.494v-39.83l17-7.158V38h2V8.477l18 7.2V30h2V15.664l17-7.158z"/><path d="M51 22.857V27h2v-4.129a4.006 4.006 0 003-4.051 4 4 0 10-5 4.038zM51.91 17h.092a2 2 0 01.088 4A1.983 1.983 0 0150 19.09 2 2 0 0151.91 17zM13 44v-6.129a4.006 4.006 0 003-4.051 4 4 0 10-5 4.038V44zm-3-9.91A2 2 0 0111.91 32h.092a2 2 0 11-2 2.09zm25.11-2.397l.895-1.788 1.787.894-.894 1.788zm-3.577-1.79l.894-1.788 1.788.894-.894 1.788zm7.154 3.578l.894-1.788 1.788.894-.894 1.788zm3.715-.689l1.859-.742.741 1.857-1.859.742zm3.718-1.496l1.858-.742.742 1.858-1.858.742zm3.715-1.486l1.812-.725.742 1.858-1.812.724zM14.924 44.061l1.714-1.03 1.03 1.714-1.714 1.03zm3.43-2.058l1.714-1.03 1.03 1.714-1.714 1.03zm-6.856 4.117l1.714-1.03 1.03 1.714-1.714 1.03zm17.84-1.101l.742-1.855 1.855.741-.742 1.856zm-3.669-1.503l.742-1.858 1.858.742-.742 1.858zm-3.714-1.482l.742-1.858 1.858.742-.742 1.858zM31 40h2v2h-2zm0-4h2v2h-2zm0-4h2v2h-2z"/></svg>