<svg xmlns="http://www.w3.org/2000/svg" viewBox="0 0 64 64" width="512" height="512"><g id="Logistic-Worldwide"><path d="M33 17h-6a1 1 0 00-1 1v2a1 1 0 00.293.707L28 22.414V26a1 1 0 001 1h2a1 1 0 00.707-.293l2-2A1 1 0 0034 24v-6a1 1 0 00-1-1zm-1 6.586L30.586 25H30v-3a1 1 0 00-.293-.707L28 19.586V19h4z"/><path d="M61 39H48.922A24.986 24.986 0 0027 2c-.351 0-.69.01-1.043.021A25 25 0 008.812 44.146a24.84 24.84 0 0017.157 7.833c.341.011.68.021 1.031.021a24.014 24.014 0 003.122-.2A24.438 24.438 0 0038 49.436V61a1 1 0 001 1h22a1 1 0 001-1V40a1 1 0 00-1-1zm-1 6h-6v-4h6zm-14 0h-6v-4h6zm2-4h4v7.131l-1.445-.963a1 1 0 00-1.11 0L48 48.131zm2-14a22.851 22.851 0 01-3.406 12h-3.18L43 38.586V34a1 1 0 00-.293-.707L39 29.586v-3.172l1.707-1.707A1 1 0 0041 24v-6a1 1 0 00-.293-.707l-5-5A1 1 0 0035 12h-4.586L27 8.586V4a23.026 23.026 0 0123 23zM4 27A22.972 22.972 0 0117.605 6.019L20 8.414v3.172l-3.707 3.707A1 1 0 0016 16v3.586L12.586 23H10a1 1 0 00-1 1v3a1 1 0 00.293.707L14 32.414v2.172l-2.707 2.707A1 1 0 0011 38v2.586l-1.4 1.4A22.893 22.893 0 014 27zm20 13h-3.586L19 38.586v-2.172L22.414 33h7.172L34 37.414v3.172l-1.707 1.707A1 1 0 0032 43v3.586l-2.707 2.707a.993.993 0 00-.275.615 25 25 0 01-2.018.086V47a1 1 0 00-.293-.707L25 44.586V41a1 1 0 00-1-1zm7.96 9.454l1.747-1.747A1 1 0 0034 47v-3.586l1.707-1.707A1 1 0 0036 41v-4a1 1 0 00-.293-.707l-5-5A1 1 0 0030 31h-8a1 1 0 00-.707.293l-4 4A1 1 0 0017 36v3a1 1 0 00.293.707l2 2A1 1 0 0020 42h3v3a1 1 0 00.293.707L25 47.414v2.473a22.786 22.786 0 01-14.034-6.439l1.741-1.741A1 1 0 0013 41v-2.586l2.707-2.707A1 1 0 0016 35v-3a1 1 0 00-.293-.707L11 26.586V25h2a1 1 0 00.707-.293l4-4A1 1 0 0018 20v-3.586l3.707-3.707A1 1 0 0022 12V8a1 1 0 00-.293-.707L19.634 5.22A22.788 22.788 0 0125 4.111V9a1 1 0 00.293.707l4 4A1 1 0 0030 14h4.586L39 18.414v5.172l-1.707 1.707A1 1 0 0037 26v4a1 1 0 00.293.707L41 34.414V39h-2a1 1 0 00-1 1v7.163a22.459 22.459 0 01-6.04 2.291zM40 60V47h6v3a1 1 0 001.555.832L50 49.2l2.445 1.63A1 1 0 0054 50v-3h6v13z"/><path d="M57 27a30.144 30.144 0 01-.769 6.775l1.95.45A32.146 32.146 0 0059 27a31.781 31.781 0 00-5.945-18.582l-1.627 1.164A29.786 29.786 0 0157 27zM51.45 6.354a32.474 32.474 0 00-1.906-2.064l-1.408 1.419a30.445 30.445 0 011.787 1.937zM27 57a29.789 29.789 0 01-21.29-8.865l-1.42 1.409A31.78 31.78 0 0027 59c1.033 0 2.074-.05 3.1-.147l-.2-1.992c-.954.093-1.93.139-2.9.139zm4.841-.389l.318 1.975a32.311 32.311 0 002.066-.405l-.45-1.949c-.643.148-1.294.276-1.934.379z"/></g></svg>