<svg height="512" viewBox="0 0 64 64" width="512" xmlns="http://www.w3.org/2000/svg"><g id="Mobile_App-Shipping-Tracking" data-name="Mobile App-Shipping-Tracking"><path d="M28.8 20.4a1 1 0 00-.8-.4H14a1 1 0 00-.8.4l-3 4a1 1 0 00-.2.6v17a2 2 0 002 2h18a2 2 0 002-2V25a1 1 0 00-.2-.6zM14.5 22h13l1.5 2H13zm2.5 6h-5v-2h5zm2-2h4v5.131l-1.445-.963a1 1 0 00-1.11 0L19 31.131zm6 0h5v2h-5zM12 42V30h5v3a1 1 0 001.555.832L21 32.2l2.445 1.63A1 1 0 0025 33v-3h5v12z"/><path d="M59 10H40V7a5.006 5.006 0 00-5-5H7a5.006 5.006 0 00-5 5v50a5.006 5.006 0 005 5h28a5.006 5.006 0 005-5V28h2v5a1 1 0 001.707.707L49.414 28H59a3 3 0 003-3V13a3 3 0 00-3-3zM14 4h14v2H14zm24 53a3 3 0 01-3 3H7a3 3 0 01-3-3V7a3 3 0 013-3h5v2a2 2 0 002 2h14a2 2 0 002-2V4h5a3 3 0 013 3v3h-1a3 3 0 00-3 3v12a3 3 0 003 3h1zm22-32a1 1 0 01-1 1H49a1 1 0 00-.707.293L44 30.586V27a1 1 0 00-1-1h-6a1 1 0 01-1-1V13a1 1 0 011-1h22a1 1 0 011 1z"/><path d="M40 16h16v2H40zm0 4h16v2H40zm4 26h8v2h-8z"/><path d="M43.86 39h7.28v2h-7.28z" transform="rotate(-15.97 47.482 39.99)"/><path d="M46.5 50.36h2v7.28h-2z" transform="rotate(-74.05 47.482 53.973)"/><path d="M16 49h2v2h-2zm4 0h2v2h-2zm4 0h2v2h-2z"/></g></svg>