<svg height="512" viewBox="0 0 64 64" width="512" xmlns="http://www.w3.org/2000/svg"><path d="M61.9 54.568l-11-23a1 1 0 00-.614-.526l-7.647-2.3A15.818 15.818 0 0045 21a13 13 0 00-26 0 15.87 15.87 0 002.4 7.81l-6.713 2.241a1 1 0 00-.571.487l-12 23A1 1 0 003 56a1.016 1.016 0 00.3-.045l15.668-4.9 12.675 4.875a.988.988 0 00.718 0l12.675-4.875 15.668 4.9a1 1 0 001.2-1.387zM31 39.49v14.054l-10.824-4.163 3.965-16.636A46.455 46.455 0 0031 39.49zm2 0a46.455 46.455 0 006.859-6.745l3.965 16.636L33 53.544zM32 10a11.013 11.013 0 0111 11c0 7.271-8.623 14.791-11 16.725C29.621 35.792 21 28.281 21 21a11.013 11.013 0 0111-11zM15.7 32.821l6.8-2.269.082.118-4.423 18.545L5 53.327zm30.141 16.394L41.42 30.67l.116-.168 7.753 2.329 9.818 20.53z"/><path d="M38 21a6 6 0 10-6 6 6.006 6.006 0 006-6zm-10 0a4 4 0 114 4 4 4 0 01-4-4z"/></svg>