<svg height="512" viewBox="0 0 64 64" width="512" xmlns="http://www.w3.org/2000/svg"><path d="M58.777 37.223a10.914 10.914 0 00-6.9-3.18L50.142 21H52a2 2 0 001.954-1.581A3.958 3.958 0 0056 20h1a1 1 0 001-1v-6a1 1 0 00-1-1h-1a3.958 3.958 0 00-2.046.581A2 2 0 0052 11h-8a4 4 0 00-3.858 3H36.5a2.5 2.5 0 000 5h4.048A3.976 3.976 0 0044 21v19a3 3 0 01-3 3h-7V31a1 1 0 001-1v-2a3 3 0 00-3-3h-6V9a2 2 0 00-2-2H6a2 2 0 00-2 2v16a2 2 0 002 2h1.184A2.966 2.966 0 007 28a3 3 0 003 3h.1a13.1 13.1 0 00-3.141 2.749 2.993 2.993 0 10-2.579 5.185A12.969 12.969 0 004 42v6a1 1 0 001 1h6.072a8 8 0 1015.856 0h16.3a7.009 7.009 0 001.886-.279A8 8 0 1059.915 46H61a1 1 0 001-1 10.928 10.928 0 00-3.223-7.777zM56 14v4a2 2 0 010-4zm-12-1h8v6h-6.5a2.5 2.5 0 000-5h-3.222A1.993 1.993 0 0144 13zm-8 3.5a.5.5 0 01.5-.5h9a.5.5 0 010 1h-9a.5.5 0 01-.5-.5zM32 27a1 1 0 011 1v1h-8v-2zm-8-16h-6V9h6zM14 9h2v4h-2zm-2 0v2H6V9zm-6 4h6v1a1 1 0 001 1h4a1 1 0 001-1v-1h6v12H6zm4 16a1 1 0 010-2h13v2zm-6 7a1 1 0 011-1 .989.989 0 01.808.419 12.91 12.91 0 00-.8 1.568A1.023 1.023 0 014 36zm24 7H10.1a5.009 5.009 0 014.9-4h12a1 1 0 011 1zm-18 2h18v2H10zm10 5a1 1 0 11-1-1 1 1 0 011 1zm5 0a6 6 0 01-12 0 6.126 6.126 0 01.09-1h3.094A2.966 2.966 0 0016 50a3 3 0 006 0 2.966 2.966 0 00-.184-1h3.094a6.126 6.126 0 01.09 1zm5-3v-7a3 3 0 00-3-3H15a7.008 7.008 0 00-7 7v3H6v-5a11.013 11.013 0 0111-11h15v13a1 1 0 001 1h8a5.006 5.006 0 005-5V21h2.125l1.86 13.952-1.885 8.172A4.978 4.978 0 0143.227 47zm29 3a6 6 0 01-12 0 5.864 5.864 0 01.55-2.488A6.956 6.956 0 0048.957 46h8.5A6 6 0 0159 50zm-9.089-6c.043-.144.1-.278.137-.426l1.739-7.536A9 9 0 0159.945 44z"/><path d="M53 53a3 3 0 10-3-3 3 3 0 003 3zm0-4a1 1 0 11-1 1 1 1 0 011-1zm-18 7h10v2H35zm-4 0h2v2h-2zm0 4h10v2H31zm-4 0h2v2h-2zm-4 0h2v2h-2zM10 3h10v2H10zM6 3h2v2H6zM2 3h2v2H2z"/></svg>