<svg xmlns="http://www.w3.org/2000/svg" id="Map-Route" viewBox="0 0 64 64" width="512" height="512"><path d="M59 2H5a3 3 0 00-3 3v54a3 3 0 003 3h54a3 3 0 003-3V5a3 3 0 00-3-3zm1 3v23H36a13 13 0 00-2-3.3V4h25a1 1 0 011 1zm-9 32v23h-6V37a1 1 0 00-1-1h-7.363a12.578 12.578 0 000-6H60v6h-8a1 1 0 00-1 1zM32 22.774a12.93 12.93 0 00-6-2.6V4h6zM35 33a11 11 0 11-11-11 11.013 11.013 0 0111 11zm-3 10.226V60h-6V45.83a12.93 12.93 0 006-2.604zm2-1.926a13 13 0 002-3.3h7v22h-9zM5 4h19v16a13.018 13.018 0 00-12 8H4V5a1 1 0 011-1zm6.363 32H4v-6h7.363a12.578 12.578 0 000 6zM4 59V38h8a13.018 13.018 0 0012 8v14H5a1 1 0 01-1-1zm55 1h-6V38h7v21a1 1 0 01-1 1z"/><path d="M46 21.857V26h2v-4.129a4.006 4.006 0 003-4.051 4 4 0 10-5 4.038zM46.91 16h.092a2 2 0 01.088 4A1.978 1.978 0 0145 18.09 2 2 0 0146.91 16zM11.82 43a3.991 3.991 0 00-.82 7.857V55h2v-4.129a4.006 4.006 0 003-4.051A4.015 4.015 0 0011.82 43zm.27 6a2 2 0 11-.18-4h.092a2 2 0 01.088 4zm5.141-22.64a1 1 0 00-.063 1.2L20.8 33l-3.626 5.445A1 1 0 0018 40a.981.981 0 00.393-.081l14-6a1 1 0 000-1.838l-14-6a1 1 0 00-1.162.279zM29.462 33L20.7 36.755l2.132-3.2a1 1 0 000-1.109l-2.134-3.2z"/></svg>