<svg xmlns="http://www.w3.org/2000/svg" viewBox="0 0 64 64" width="512" height="512"><g id="Money_Bag" data-name="Money Bag"><path d="M59.123 53.172l-.237-.095A2.984 2.984 0 0157 50.292V35a17.006 17.006 0 00-16.2-16.959 2.943 2.943 0 00-1.291-3.617l5.345-8.909A1 1 0 0044 4a3.782 3.782 0 01-2.446-.833 5.995 5.995 0 00-7.109 0 4.009 4.009 0 01-4.89 0 5.994 5.994 0 00-7.11 0A3.778 3.778 0 0120 4a1 1 0 00-.857 1.515l5.345 8.909a2.943 2.943 0 00-1.288 3.617A17.006 17.006 0 007 35v15.292a2.986 2.986 0 01-1.887 2.786l-.235.094A4.578 4.578 0 006.578 62h50.844a4.578 4.578 0 001.7-8.828zM25 17a1 1 0 011-1h12a1 1 0 010 2H26a1 1 0 01-1-1zM23.555 4.832a4.009 4.009 0 014.89 0A5.739 5.739 0 0032 6a5.747 5.747 0 003.555-1.168 4.008 4.008 0 014.891 0 6.431 6.431 0 001.915.955L37.434 14H26.566l-4.927-8.211a6.425 6.425 0 001.916-.957zM57.422 60H6.578a2.578 2.578 0 01-.957-4.971l.235-.094A4.976 4.976 0 009 50.292V35a15.017 15.017 0 0115-15h16a15.017 15.017 0 0115 15v15.292a4.975 4.975 0 003.143 4.642l.237.1A2.578 2.578 0 0157.422 60z"/><path d="M32 24a13.015 13.015 0 00-13 13c0 9.392 11.894 18.42 12.4 18.8a1 1 0 001.2 0C33.106 55.42 45 46.392 45 37a13.015 13.015 0 00-13-13zm0 29.725C29.622 51.792 21 44.281 21 37a11 11 0 0122 0c0 7.271-8.623 14.791-11 16.725z"/><path d="M32 31a6 6 0 106 6 6.006 6.006 0 00-6-6zm0 10a4 4 0 114-4 4 4 0 01-4 4z"/></g></svg>