<svg xmlns="http://www.w3.org/2000/svg" viewBox="0 0 64 64" width="512" height="512"><g id="Operator"><path d="M41 23h2v2h-2zm6 0h2v2h-2z"/><path d="M61 48h-3v-6.1a7.006 7.006 0 00-4.157-6.4L49 33.35v-1.432A8.056 8.056 0 0051.235 30H54a2 2 0 002-2v-2.382a3.927 3.927 0 000-5.236V19a11 11 0 00-22 0v1.382A3.98 3.98 0 0037 27c.086 0 .171-.019.257-.024A8.023 8.023 0 0041 31.918v1.432l-4.843 2.15A7.008 7.008 0 0032 41.9V48h-4V13a1 1 0 00-1-1H7a1 1 0 00-1 1v35H3a1 1 0 00-1 1v4a1 1 0 001 1h2v7a1 1 0 001 1h52a1 1 0 001-1v-7h2a1 1 0 001-1v-4a1 1 0 00-1-1zm-8.589-20a8.1 8.1 0 00.332-1.024c.086.005.171.024.257.024a3.939 3.939 0 001-.142V28zM55 23a2 2 0 01-2 2v-4a2 2 0 012 2zM38.637 12.637A9 9 0 0154 19v.142A3.939 3.939 0 0053 19c-.086 0-.171.019-.257.024a7.988 7.988 0 00-15.486 0C37.171 19.019 37.086 19 37 19a3.939 3.939 0 00-1 .142V19a8.945 8.945 0 012.637-6.363zM50.91 20h-.5l-1.707-1.707a1 1 0 00-1.154-.188L43.764 20H39.09a5.993 5.993 0 0111.82 0zM35 23a2 2 0 012-2v4a2 2 0 01-2-2zm4 2v-3h5a1 1 0 00.447-.105l3.353-1.678 1.49 1.49A1 1 0 0050 22h1v3a5.958 5.958 0 01-.812 3H45v2h3.31A5.995 5.995 0 0139 25zm6 8a7.953 7.953 0 002-.263V34a2 2 0 01-4 0v-1.263A7.953 7.953 0 0045 33zm-11 8.9a5 5 0 012.97-4.569l4.3-1.912a3.982 3.982 0 007.456 0l4.3 1.913A5 5 0 0156 41.9V48H34zM13 34H8v-2h5zM8 18h5v3a1 1 0 001.555.832L17 20.2l2.445 1.63A1 1 0 0021 21v-3h5v12H8zm7-4h4v5.131l-1.445-.963a1 1 0 00-1.11 0L15 19.131zm0 18h4v5.131l-1.445-.963a1 1 0 00-1.11 0L15 37.131zm6 0h5v2h-5zm5-16h-5v-2h5zm-13-2v2H8v-2zM8 36h5v3a1 1 0 001.555.832L17 38.2l2.445 1.63A1 1 0 0021 39v-3h5v12H8zm49 24H7v-6h50zm3-8H4v-2h56z"/></g></svg>