<svg height="512" viewBox="0 0 64 64" width="512" xmlns="http://www.w3.org/2000/svg"><path d="M61.18 39.1A3.969 3.969 0 0059 36.81V9a3.009 3.009 0 00-3-3H24a3.009 3.009 0 00-3 3v28.03a20.264 20.264 0 00-3.24 1.85l-3.14 2.2-1.15-1.64a1.007 1.007 0 00-1.39-.25l-9.83 6.88a1.017 1.017 0 00-.25 1.4l10.33 14.74a1 1 0 001.39.25l9.83-6.88a1.019 1.019 0 00.25-1.4l-.57-.81a8.9 8.9 0 016.6-1.41l1.78.3a13 13 0 006.71-.58l20.47-7.45a4 4 0 002.39-5.13zM45 8h11a1 1 0 011 1v3H45zm-8 0h6v8.59l-2.29-2.3a1.008 1.008 0 00-1.42 0L37 16.59zM23 9a1 1 0 011-1h11v4H23zm0 5h12v5a.987.987 0 00.62.92 1 1 0 001.09-.21l3.29-3.3 3.29 3.3A1.007 1.007 0 0044 20a.838.838 0 00.38-.08A.987.987 0 0045 19v-5h12v22.51a3.847 3.847 0 00-.94.2L52.52 38h-7.03a3.873 3.873 0 00-1.85-.87l-10.05-1.77a20.993 20.993 0 00-9.74.58l-.18.06c-.23.06-.45.15-.67.23zm-9.61 46.25L4.22 47.14l8.19-5.74 9.17 13.11zM59.4 40.82a2 2 0 01-1.29 1.53L37.64 49.8a10.988 10.988 0 01-5.68.49l-1.79-.3a10.883 10.883 0 00-8.09 1.74l-6.31-9.02 3.14-2.19a18.6 18.6 0 015.31-2.6l.18-.05a19.244 19.244 0 018.85-.55l10.04 1.77a2.048 2.048 0 011.3.83 2.012 2.012 0 01.33.86 1.768 1.768 0 01-.05.84 2.009 2.009 0 01-2.29 1.42l-10.81-1.91-.34 1.96L42.23 45a3.419 3.419 0 00.71.07 4.017 4.017 0 003.84-2.85l9.96-3.63a2 2 0 012.56 1.2 1.9 1.9 0 01.1 1.03z"/></svg>