<svg height="512" viewBox="0 0 64 64" width="512" xmlns="http://www.w3.org/2000/svg"><g id="Navigation_Setting" data-name="Navigation Setting"><path d="M40.613 22.078l-21.92 9.192a1 1 0 00.19 1.9l9.954 1.99 1.99 9.954a1 1 0 00.881.8h.1a1 1 0 00.922-.613l9.192-21.92a1 1 0 00-1.309-1.309zm-18.136 9.774L36.7 25.889l-7.339 7.339zm9.671 9.671l-1.376-6.881 7.339-7.342z"/><path d="M61.124 26.008l-5.016-.627a24.8 24.8 0 00-2.378-5.75l3.1-3.988a1 1 0 00-.082-1.321l-7.07-7.071a1 1 0 00-1.321-.082l-3.987 3.1a24.794 24.794 0 00-5.751-2.378l-.627-5.016A1 1 0 0037 2H27a1 1 0 00-.992.876l-.627 5.016a24.794 24.794 0 00-5.751 2.378l-3.987-3.1a1 1 0 00-1.321.082l-7.071 7.07a1 1 0 00-.082 1.321l3.1 3.988a24.8 24.8 0 00-2.378 5.75l-5.016.627A1 1 0 002 27v10a1 1 0 00.876.992l5.016.628a24.841 24.841 0 002.378 5.75l-3.1 3.987a1 1 0 00.082 1.321l7.071 7.071a1 1 0 001.321.082l3.987-3.1a24.812 24.812 0 005.751 2.378l.627 5.016A1 1 0 0027 62h10a1 1 0 00.992-.876l.627-5.016a24.812 24.812 0 005.751-2.378l3.987 3.1a1 1 0 001.321-.082l7.071-7.071a1 1 0 00.082-1.321l-3.1-3.987a24.841 24.841 0 002.378-5.75l5.016-.628A1 1 0 0062 37V27a1 1 0 00-.876-.992zM60 36.117l-4.813.6a1 1 0 00-.848.755 22.83 22.83 0 01-2.67 6.454 1 1 0 00.065 1.134l2.976 3.826-5.822 5.824-3.826-2.976a1 1 0 00-1.134-.065 22.817 22.817 0 01-6.454 2.67 1 1 0 00-.755.848L36.117 60h-8.234l-.6-4.813a1 1 0 00-.755-.848 22.817 22.817 0 01-6.454-2.67 1 1 0 00-1.134.065l-3.828 2.976-5.822-5.822 2.976-3.826a1 1 0 00.065-1.134 22.83 22.83 0 01-2.67-6.454 1 1 0 00-.848-.755L4 36.117v-8.234l4.813-.6a1 1 0 00.848-.755 22.842 22.842 0 012.67-6.454 1 1 0 00-.065-1.133L9.29 15.112l5.822-5.822 3.826 2.976a1 1 0 001.134.065 22.817 22.817 0 016.454-2.67 1 1 0 00.755-.848L27.883 4h8.234l.6 4.813a1 1 0 00.755.848 22.817 22.817 0 016.454 2.67 1 1 0 001.134-.065l3.828-2.976 5.822 5.822-2.976 3.827a1 1 0 00-.065 1.133 22.842 22.842 0 012.67 6.454 1 1 0 00.848.755l4.813.6z"/><path d="M31 10h2v2h-2z"/><path d="M45.849 16.151h2v2h-2z" transform="rotate(-45 46.85 17.161)"/><path d="M52 31h2v2h-2z"/><path d="M45.849 45.849h2v2h-2z" transform="rotate(-45 46.844 46.862)"/><path d="M31 52h2v2h-2z"/><path d="M16.151 45.849h2v2h-2z" transform="rotate(-45 17.143 46.856)"/><path d="M10 31h2v2h-2z"/><path d="M16.151 16.151h2v2h-2z" transform="rotate(-45 17.15 17.155)"/><path d="M32 14a18 18 0 1018 18 18.021 18.021 0 00-18-18zm0 34a16 16 0 1116-16 16.019 16.019 0 01-16 16z"/></g></svg>