<svg xmlns="http://www.w3.org/2000/svg" viewBox="0 0 64 64" width="512" height="512"><path d="M61 51h-4V16a1 1 0 00-1-1H8a1 1 0 00-1 1v35H3a1 1 0 00-1 1v8a1 1 0 001 1h8a1 1 0 001-1v-3h15v3a1 1 0 001 1h8a1 1 0 001-1v-3h15v3a1 1 0 001 1h8a1 1 0 001-1v-8a1 1 0 00-1-1zM16 37H9v-2h7zM9 21h7v3a1 1 0 001.555.832L20 23.2l2.445 1.63A1 1 0 0024 24v-3h7v12H9zm9-4h4v5.131l-1.445-.963a1 1 0 00-1.11 0L18 22.131zm37 20h-7v-2h7zm-15 0h-7v-2h7zm2-2h4v5.131l-1.445-.963a1 1 0 00-1.11 0L42 40.131zm13-2H33V21h7v3a1 1 0 001.555.832L44 23.2l2.445 1.63A1 1 0 0048 24v-3h7zm-9-10.869l-1.445-.963a1 1 0 00-1.11 0L42 22.131V17h4zM40 19h-7v-2h7zM18 35h4v5.131l-1.445-.963a1 1 0 00-1.11 0L18 40.131zm6 0h7v2h-7zm9 4h7v3a1 1 0 001.555.832L44 41.2l2.445 1.63A1 1 0 0048 42v-3h7v12H33zm22-20h-7v-2h7zm-24 0h-7v-2h7zm-15-2v2H9v-2zM9 39h7v3a1 1 0 001.555.832L20 41.2l2.445 1.63A1 1 0 0024 42v-3h7v12H9zM4 53h56v2H4zm6 6H4v-2h6zm25 0h-6v-2h6zm19 0v-2h6v2z" id="Packages-Product"/></svg>