<svg height="512" viewBox="0 0 64 64" width="512" xmlns="http://www.w3.org/2000/svg"><g id="Navigator-2" data-name="Navigator"><path d="M36 50h-8a1 1 0 00-1 1v4a1 1 0 001 1h8a1 1 0 001-1v-4a1 1 0 00-1-1zm-1 4h-6v-2h6zm9-4h-4a1 1 0 00-1 1v4a1 1 0 001 1h4a1 1 0 001-1v-4a1 1 0 00-1-1zm-1 4h-2v-2h2zm9-4h-4a1 1 0 00-1 1v4a1 1 0 001 1h4a1 1 0 001-1v-4a1 1 0 00-1-1zm-1 4h-2v-2h2zm-27-4h-4a1 1 0 00-1 1v4a1 1 0 001 1h4a1 1 0 001-1v-4a1 1 0 00-1-1zm-1 4h-2v-2h2zm-7-4h-4a1 1 0 00-1 1v4a1 1 0 001 1h4a1 1 0 001-1v-4a1 1 0 00-1-1zm-1 4h-2v-2h2z"/><path d="M59 6H45.889a6.976 6.976 0 00-9.778 0H5a3 3 0 00-3 3v48a3 3 0 003 3h54a3 3 0 003-3V9a3 3 0 00-3-3zm-3 6v10H28V12h6.141c.848 3.476 5.648 7.323 6.244 7.788a1 1 0 001.23 0c.6-.465 5.4-4.312 6.244-7.788zm0 18H45a1 1 0 00-1 1v15h-6V31a1 1 0 00-1-1H27a1 1 0 00-1 1v15h-6V31a1 1 0 00-1-1H8v-6h11a1 1 0 001-1V12h6v11a1 1 0 001 1h29zm0 2v14H46V32zM36 46h-8V32h8zM8 32h10v14H8zm0-10V12h10v10zM41 6a5.006 5.006 0 015 5c0 1.869-2.851 4.9-5 6.711-2.149-1.811-5-4.842-5-6.711a5.006 5.006 0 015-5zm19 51a1 1 0 01-1 1H5a1 1 0 01-1-1V9a1 1 0 011-1h29.685a6.937 6.937 0 00-.605 2H8a2 2 0 00-2 2v34a2 2 0 002 2h48a2 2 0 002-2V12a2 2 0 00-2-2h-8.08a6.937 6.937 0 00-.605-2H59a1 1 0 011 1z"/><path d="M15 26h4v2h-4zm-4 0h2v2h-2zm11-7h2v4h-2zm0-4h2v2h-2zm0 16h2v4h-2zm0 6h2v4h-2zm5-11h4v2h-4zm6 0h4v2h-4zm6 0h4v2h-4zm6 0h4v2h-4zm-5 5h2v4h-2zm0 6h2v4h-2zm1-23a3 3 0 10-3-3 3 3 0 003 3zm0-4a1 1 0 11-1 1 1 1 0 011-1z"/></g></svg>