<svg height="512" viewBox="0 0 64 64" width="512" xmlns="http://www.w3.org/2000/svg"><path d="M61.857 25.485l-6-10A1 1 0 0055 15H9a1 1 0 00-.857.485l-6 10A1 1 0 003 27h5v23a1 1 0 001 1h46a1 1 0 001-1V27h5a1 1 0 00.857-1.515zM17 17h4v7.132l-1.445-.964a1 1 0 00-1.11 0L17 24.132zM4.766 25L8 19.611V25zM10 49V17h5v9a1 1 0 001.555.832L19 25.2l2.445 1.63A1 1 0 0023 26v-9h5v32zm44 0H30V19.611l4.143 6.9A1 1 0 0035 27h19zM35.566 25l-4.8-8h23.668l4.8 8z"/><path d="M48 45h4v2h-4zm-4 0h2v2h-2zM34 32v8a1 1 0 001 1h14a1 1 0 001-1v-8a1 1 0 00-1-1H35a1 1 0 00-1 1zm2 1h12v6H36z"/><path d="M38 35h2v2h-2zm4 0h4v2h-4z"/></svg>