<svg height="512" viewBox="0 0 64 64" width="512" xmlns="http://www.w3.org/2000/svg"><path d="M57 10H7a5.006 5.006 0 00-5 5v34a5.006 5.006 0 005 5h50a5.006 5.006 0 005-5V15a5.006 5.006 0 00-5-5zm3 39a3 3 0 01-3 3H7a3 3 0 01-3-3V15a3 3 0 013-3h50a3 3 0 013 3z"/><path d="M57 14H7a1 1 0 00-1 1v34a1 1 0 001 1h50a1 1 0 001-1V15a1 1 0 00-1-1zM8 16h23v32H8zm48 32H33V16h23z"/><path d="M25.8 35.4l-6-8a1.036 1.036 0 00-1.6 0l-6 8A1 1 0 0013 37h2v7a1 1 0 001 1h6a1 1 0 001-1v-7h2a1 1 0 00.8-1.6zM22 35a1 1 0 00-1 1v7h-4v-7a1 1 0 00-1-1h-1l4-5.333L23 35zm-9-12h4v2h-4zm0-4h4v2h-4zm8 4h4v2h-4zm0-4h4v2h-4zm16 20.816V42h2v-2.184a3 3 0 10-2 0zM38 36a1 1 0 11-1 1 1 1 0 011-1zm12-12.184V26h2v-2.184a3 3 0 10-2 0zM51 20a1 1 0 11-1 1 1 1 0 011-1z"/><path d="M46 38h1a3 3 0 010 6H37v2h10a5 5 0 000-10h-1a2 2 0 010-4h3a3 3 0 003-3v-1h-2v1a1 1 0 01-1 1h-3a4 4 0 000 8z"/></svg>