<svg height="512" viewBox="0 0 64 64" width="512" xmlns="http://www.w3.org/2000/svg"><path d="M38.8 38.4a1 1 0 00-.8-.4H26a1 1 0 00-.8.4l-3 4a1 1 0 00-.2.6v15a2 2 0 002 2h16a2 2 0 002-2V43a1 1 0 00-.2-.6zM26.5 40h11l1.5 2H25zm2.5 6h-5v-2h5zm2-2h2v4.586l-.293-.293a1 1 0 00-1.414 0l-.293.293zm4 0h5v2h-5zM24 58V48h5v3a1 1 0 001.707.707L32 50.414l1.293 1.293A1 1 0 0035 51v-3h5v10z"/><path d="M62 23V7a5.006 5.006 0 00-5-5H33a5.006 5.006 0 00-5 5v4h-3A19.021 19.021 0 006 30v11.1A5.009 5.009 0 002 46v6a5.006 5.006 0 005 5h1.09A6 6 0 0020 56V42a5.984 5.984 0 00-8-5.65V30a13.015 13.015 0 0113-13h3v6a5.006 5.006 0 005 5h5v7a1 1 0 00.684.949A1.019 1.019 0 0039 36a1 1 0 00.8-.4l5.7-7.6h6.329A13.136 13.136 0 0152 30v6.35A5.984 5.984 0 0044 42v14a6 6 0 0011.91 1H57a5.006 5.006 0 005-5v-6a5.009 5.009 0 00-4-4.9V30a18.584 18.584 0 00-.134-2.088A5 5 0 0062 23zM4 52v-6a3 3 0 013-3h1v12H7a3 3 0 01-3-3zm14-10v14a4 4 0 01-8 0V42a4 4 0 018 0zm7-27a15.017 15.017 0 00-15 15v7.54A6 6 0 008.09 41H8V30a17.019 17.019 0 0117-17h3v2zm29 41a4 4 0 01-8 0V42a4 4 0 018 0zm0-18.46V30a15.2 15.2 0 00-.148-2h2.011A16.634 16.634 0 0156 30v11h-.09A6 6 0 0054 37.54zM60 46v6a3 3 0 01-3 3h-1V43h1a3 3 0 013 3zm0-23a3 3 0 01-3 3H45a1 1 0 00-.8.4L40 32v-5a1 1 0 00-1-1h-6a3 3 0 01-3-3V7a3 3 0 013-3h24a3 3 0 013 3z"/><path d="M34 8h2v2h-2zm4 0h2v2h-2zm4 0h14v2H42zm-8 4h14v2H34zm16 0h2v2h-2zm4 0h2v2h-2zm-20 4h22v2H34zm0 4h8v2h-8zm10 0h2v2h-2zm4 0h2v2h-2zm4 0h4v2h-4z"/></svg>