<svg xmlns="http://www.w3.org/2000/svg" viewBox="0 0 64 64" width="512" height="512"><g id="Point-2" data-name="Point"><path d="M60.615 40.9a4.027 4.027 0 00-5.465-1.464l-8.516 4.914A4 4 0 0043 42H31.162l-3.69-1.23a14.977 14.977 0 00-4.743-.77h-.851a15 15 0 00-7.718 2.138L12.723 43H12a1 1 0 00-1-1H3a1 1 0 00-1 1v14a1 1 0 001 1h8a1 1 0 001-1h7.531a6.986 6.986 0 01.818.048l11.921 1.4a14.717 14.717 0 001.729.1 15.1 15.1 0 007.523-2.008L59.15 46.366a3.962 3.962 0 002-3.466 4.03 4.03 0 00-.535-2zM10 56H4V44h6zm48.15-11.366L40.522 54.812a13.081 13.081 0 01-8.022 1.652l-11.921-1.4A9.026 9.026 0 0019.531 55H12V45h1a1 1 0 00.515-.143l1.674-1A13 13 0 0121.878 42h.851a12.993 12.993 0 014.11.667l3.845 1.282A1 1 0 0031 44h12a2 2 0 010 4H28v2h15a3.992 3.992 0 003.952-3.525l9.194-5.306a2 2 0 013 1.731 1.983 1.983 0 01-.996 1.734zM31.4 37.8a1 1 0 001.2 0C33.106 37.42 45 28.392 45 19a13 13 0 00-26 0c0 9.392 11.894 18.42 12.4 18.8zM32 8a11.013 11.013 0 0111 11c0 7.271-8.623 14.791-11 16.725C29.621 33.792 21 26.281 21 19A11.013 11.013 0 0132 8z"/><path d="M38 19a6 6 0 10-6 6 6.006 6.006 0 006-6zm-10 0a4 4 0 114 4 4 4 0 01-4-4z"/></g></svg>