<svg xmlns="http://www.w3.org/2000/svg" viewBox="0 0 64 64" width="512" height="512"><g id="Thief"><path d="M44 35h2v2h-2zm8 0h2v2h-2z"/><path d="M61.843 53.524a8.978 8.978 0 00-2-4.173 8.823 8.823 0 00-3.185-2.375L53 45.351v-1.433A8 8 0 0057 37v-4a7.939 7.939 0 00-1-3.864V14a1 1 0 00-.122-.479L50.447 3.56A3.006 3.006 0 0047.81 2H10.19a3 3 0 00-2.638 1.562l-5.43 9.959A1 1 0 002 14v45a3 3 0 003 3h56a1 1 0 001-1v-5.8a9.194 9.194 0 00-.157-1.676zm-22.754-2.066C41.259 53.044 44.911 54 49 54s7.741-.956 9.911-2.542a6.976 6.976 0 01.81 1.828C57.281 54.965 53.266 56 49 56s-8.281-1.035-10.721-2.714a7.009 7.009 0 01.81-1.828zm16.76-2.652a6.748 6.748 0 011.751 1.128C55.782 51.191 52.507 52 49 52s-6.782-.809-8.6-2.066a6.767 6.767 0 011.759-1.13l3.116-1.386a3.982 3.982 0 007.456 0zM51 46a2 2 0 01-4 0v-1.263a7.736 7.736 0 004 0zm-2-3a5.983 5.983 0 01-4.46-2H47a1 1 0 00.9-.553L48.618 39h.764l.723 1.447A1 1 0 0051 41h2.46A5.983 5.983 0 0149 43zm-1-9a1 1 0 00.447-.1l3.353-1.683 1.49 1.49A1 1 0 0054 34h1v3a5.976 5.976 0 01-.35 2h-3.032l-.718-1.447A1 1 0 0050 37h-2a1 1 0 00-.9.553L46.382 39H43.35a5.976 5.976 0 01-.35-2v-3zm-4.91-2a5.993 5.993 0 0111.82 0h-.5l-1.707-1.707a1 1 0 00-1.154-.188L47.764 32zM22 21H4v-6h18zm2-6h10v15.132l-4.445-2.964a1 1 0 00-1.11 0L24 30.132zm12 0h18v6H36zM9.308 4.52A1.016 1.016 0 0110.19 4h37.62a1.016 1.016 0 01.882.519L53.316 13H4.684zM4 59V23h18v9a1 1 0 001.555.832L29 29.2l5.445 3.63A1 1 0 0036 32v-9h18v3.765A7.991 7.991 0 0041 33v4a8 8 0 004 6.918v1.433l-3.651 1.623a8.82 8.82 0 00-3.188 2.375 8.984 8.984 0 00-2.005 4.18A9.185 9.185 0 0036 55.2V60H5a1 1 0 01-1-1zm34 1v-4.527A22.793 22.793 0 0049 58a22.793 22.793 0 0011-2.527V60z"/></g></svg>