<svg xmlns="http://www.w3.org/2000/svg" viewBox="0 0 64 64" width="512" height="512"><g id="Point"><path d="M51 19.417v-2.006a8.005 8.005 0 10-10.819-5.731A25.726 25.726 0 0031 10a26.19 26.19 0 00-4.157.332 25.246 25.246 0 00-6.18 1.811 25.991 25.991 0 00-9.538 40.61 25.66 25.66 0 0017.784 9.153 23.437 23.437 0 004.169.001A25.969 25.969 0 0051 19.417zm-4-1.486a7.281 7.281 0 002 0V28a1 1 0 01-2 0zM48 4a6 6 0 11-6 6 6.006 6.006 0 016-6zM7 36a23.979 23.979 0 0113.853-21.733L23 16.414v3.172l-3.707 3.707A1 1 0 0019 24v3.586L15.586 31H13a1 1 0 00-1 1v3a1 1 0 00.293.707L17 40.414v2.172l-2.707 2.707A1 1 0 0014 46v2.586L11.986 50.6A23.962 23.962 0 017 36zm6.262 16.152l2.445-2.445A1 1 0 0016 49v-2.586l2.707-2.707A1 1 0 0019 43v-3a1 1 0 00-.293-.707L14 34.586V33h2a1 1 0 00.707-.293l4-4A1 1 0 0021 28v-3.586l3.707-3.707A1 1 0 0025 20v-4a1 1 0 00-.293-.707l-1.869-1.869A23.408 23.408 0 0126 12.529V17a1 1 0 00.293.707l4 4A1 1 0 0031 22h4.586L40 26.414v5.172l-1.707 1.707A1 1 0 0038 34v4a1 1 0 00.293.707L42 42.414V47a1 1 0 00.293.707L47 52.414v1.456a23.954 23.954 0 01-13 5.912v-1.368l2.707-2.707A1 1 0 0037 55v-3.586l1.707-1.707A1 1 0 0039 49v-4a1 1 0 00-.293-.707l-5-5A1 1 0 0033 39h-8a1 1 0 00-.707.293l-4 4A1 1 0 0020 44v3a1 1 0 00.293.707l2 2A1 1 0 0023 50h3v3a1 1 0 00.293.707L28 55.414V59.8a23.643 23.643 0 01-14.738-7.648zM30 59.955V55a1 1 0 00-.293-.707L28 52.586V49a1 1 0 00-1-1h-3.586L22 46.586v-2.172L25.414 41h7.172L37 45.414v3.172l-1.707 1.707A1 1 0 0035 51v3.586l-2.707 2.707A1 1 0 0032 58v1.955c-.664.031-1.329.031-2 0zm18.979-8.062a.993.993 0 00-.272-.6L44 46.586V42a1 1 0 00-.293-.707L40 37.586v-3.172l1.707-1.707A1 1 0 0042 32v-6a1 1 0 00-.293-.707l-5-5A1 1 0 0036 20h-4.586L28 16.586v-4.38A24.241 24.241 0 0131 12a23.721 23.721 0 0110.275 2.317A8.044 8.044 0 0045 17.411V28a3 3 0 006 0v-5.224a23.93 23.93 0 01-2.021 29.117z"/><path d="M30 30.414V34a1 1 0 001 1h2a1 1 0 00.707-.293l2-2A1 1 0 0036 32v-6a1 1 0 00-1-1h-6a1 1 0 00-1 1v2a1 1 0 00.293.707zM30 27h4v4.586L32.586 33H32v-3a1 1 0 00-.293-.707L30 27.586zm18-14a3 3 0 10-3-3 3 3 0 003 3zm0-4a1 1 0 11-1 1 1 1 0 011-1z"/></g></svg>