<svg id="Time" height="512" viewBox="0 0 64 64" width="512" xmlns="http://www.w3.org/2000/svg"><path d="M29 10h2v2h-2z"/><path d="M15.565 15.564h2v2.001h-2z" transform="rotate(-45 16.563 16.569)"/><path d="M10 29h2v2h-2z"/><path d="M15.564 42.435h2.001v2h-2.001z" transform="rotate(-45 16.558 43.44)"/><path d="M29 48h2v2h-2zm19-19h2v2h-2z"/><path d="M42.434 15.565h2.001v2h-2.001z" transform="rotate(-45 43.436 16.574)"/><path d="M31 26.758V15h-2v11.758L26.758 29H17v2h9.758l2.535 2.535a1 1 0 001.414 0l2.828-2.828a1 1 0 000-1.414zm-1 4.656L28.586 30 30 28.586 31.414 30z"/><path d="M61.832 38.445l-3.957-5.935c.076-.84.125-1.682.125-2.51a28 28 0 10-28 28c.661 0 1.33-.033 2-.082V59a3 3 0 003 3h24a3 3 0 003-3V39a1.006 1.006 0 00-.168-.555zM43 43h-9v-3h9zm8.9-11H37a1 1 0 00-.832.445l-4 6A1.006 1.006 0 0032 39v12.9c-.671.062-1.341.1-2 .1a22 22 0 1122-22c0 .659-.043 1.329-.1 2zM45 40h4v7.132l-1.445-.964a1 1 0 00-1.11 0L45 47.132zm6 0h9v3h-9zm-16.132-2l2.667-4h18.93l2.667 4zM30 56a26 26 0 1126-26c0 .66-.036 1.33-.089 2H53.9c.057-.671.1-1.34.1-2a24 24 0 10-24 24c.66 0 1.329-.039 2-.1v2.007c-.67.057-1.34.093-2 .093zm29 4H35a1 1 0 01-1-1V45h9v4a1 1 0 001.555.832L47 48.2l2.445 1.63A1 1 0 0051 49v-4h9v14a1 1 0 01-1 1z"/></svg>