<svg xmlns="http://www.w3.org/2000/svg" viewBox="0 0 64 64" width="512" height="512"><g id="Radar"><path d="M62 31h-4.034a25.926 25.926 0 00-3.754-12.521l-1.707 1.042A23.93 23.93 0 0155.966 31h-2.014a21.846 21.846 0 00-1.6-7.381l-1.85.762A19.82 19.82 0 0151.952 31h-2a18.145 18.145 0 00-.235-2.175l-1.969.35a16.325 16.325 0 01.2 1.825h-1.999A14 14 0 0033 18.051v-1.992a16.117 16.117 0 012.766.386l.468-1.944A18.109 18.109 0 0033 14.029v-1.981a19.831 19.831 0 016.619 1.452l.762-1.849A21.828 21.828 0 0033 10.048V8.034A23.937 23.937 0 0144.479 11.5l1.042-1.707A25.93 25.93 0 0033 6.034V2h-2v4.025A26.027 26.027 0 006.025 31H2v2h4.025A26.027 26.027 0 0031 57.975V62h2v-4.025A26.027 26.027 0 0057.975 33H62zm-18.051 2A12.006 12.006 0 0133 43.949v-2A10.015 10.015 0 0041.949 33zm-25.9 0A14 14 0 0031 45.949v2A16 16 0 0116.051 33zm8.039 0A6.008 6.008 0 0031 37.91v2.021A8.008 8.008 0 0124.069 33zM31 33v2.858A4 4 0 0128.142 33zm-2.858-2A4 4 0 0131 28.142V31zM33 33h2.858A4 4 0 0133 35.858zm0-2v-2.858A4 4 0 0135.858 31zm-2-4.91A6.008 6.008 0 0026.09 31h-2.021A8.008 8.008 0 0131 24.069zM22.051 31h-2A12.006 12.006 0 0131 20.051v2A10.015 10.015 0 0022.051 31zm0 2A10.015 10.015 0 0031 41.949v2A12.006 12.006 0 0120.051 33zM33 45.949A14 14 0 0045.949 33h2A16 16 0 0133 47.949zm0-6.018V37.91A6.008 6.008 0 0037.91 33h2.021A8.008 8.008 0 0133 39.931zM37.91 31A6.008 6.008 0 0033 26.09v-2.021A8.008 8.008 0 0139.931 31zm-19.859 0h-2A16 16 0 0131 16.051v2A14 14 0 0018.051 31zm-4 0h-2A19.991 19.991 0 0131 12.051v2A17.994 17.994 0 0014.051 31zm0 2A17.994 17.994 0 0031 49.949v2A19.991 19.991 0 0112.051 33zM33 49.949A17.994 17.994 0 0049.949 33h2A19.991 19.991 0 0133 51.949zM43.949 31h-2A10.015 10.015 0 0033 22.051v-2A12.006 12.006 0 0143.949 31zM31 8.025v2A22.026 22.026 0 0010.025 31h-2A24.027 24.027 0 0131 8.025zM8.025 33h2A22.026 22.026 0 0031 53.975v2A24.027 24.027 0 018.025 33zM33 55.975v-2A22.026 22.026 0 0053.975 33h2A24.027 24.027 0 0133 55.975z"/><path d="M36.694 16.539a1 1 0 00.828.861l7.778 1.3 1.3 7.78a1 1 0 00.862.828 1.031 1.031 0 00.124.007 1 1 0 00.915-.6l7.778-17.676a1 1 0 00-1.317-1.318L37.284 15.5a1 1 0 00-.59 1.039zm11.327 6.3l-.778-4.67 5.057-5.056zM50.889 11.7l-5.06 5.06-4.671-.779z"/></g></svg>