<svg height="512" viewBox="0 0 64 64" width="512" xmlns="http://www.w3.org/2000/svg"><path d="M42 37h4v2h-4zM13 49h2v2h-2zm35 0h2v2h-2z"/><path d="M61.31 32.574l-4.864-9a2.99 2.99 0 00-2.5-1.553A13.008 13.008 0 0041 10h-1V9a1 1 0 00-1-1H3a1 1 0 00-1 1v40a2 2 0 002 2h4.09a5.993 5.993 0 0011.82 0h23.18a5.993 5.993 0 0011.82 0H59a3 3 0 003-3V35.108a4.959 4.959 0 00-.69-2.534zm-6.623-8.05L59.267 33H44v-9h9.808a1 1 0 01.879.524zM41 12a11.01 11.01 0 0110.949 10H40V12zM4 10h34v30H4zm10 44a4 4 0 114-4 4 4 0 01-4 4zm0-10a6.006 6.006 0 00-5.91 5H4v-7h34v7H19.91A6.006 6.006 0 0014 44zm35 10a4 4 0 114-4 4 4 0 01-4 4zm10-5h-4.09a5.993 5.993 0 00-11.82 0H40V24h2v10a1 1 0 001 1h16.985c0 .037.015.072.015.108V37h-4a2 2 0 00-2 2v2a2 2 0 002 2h4v2h-3v2h3v1a1 1 0 01-1 1zm1-10v2h-4v-2z"/><path d="M30.406 17.086l-9-4a1 1 0 00-.812 0l-9 4A1 1 0 0011 18v5.939A13.006 13.006 0 0017.687 35.3l2.828 1.571a1 1 0 00.97 0l2.828-1.571A13.008 13.008 0 0031 23.939V18a1 1 0 00-.594-.914zM29 23.939a11.007 11.007 0 01-5.657 9.616L21 34.856l-2.343-1.3A11.007 11.007 0 0113 23.939v-5.29l8-3.549 8 3.554z"/><path d="M17.707 23.293l-1.414 1.414 3 3a1 1 0 001.414 0l5-5-1.414-1.414L20 25.586z"/></svg>