<svg height="512" viewBox="0 0 64 64" width="512" xmlns="http://www.w3.org/2000/svg"><path d="M42 37h4v2h-4zM11 49h2v2h-2zm14 0h2v2h-2zm23 0h2v2h-2z"/><path d="M61.31 32.575l-4.863-9A3 3 0 0053.808 22H40V9a1 1 0 00-1-1H3a1 1 0 00-1 1v40a2 2 0 002 2h2.09a5.993 5.993 0 0011.82 0h2.18a5.993 5.993 0 0011.82 0h11.18a5.993 5.993 0 0011.82 0H59a3 3 0 003-3V35.108a4.947 4.947 0 00-.69-2.533zm-6.623-8.051L59.267 33H44v-9h9.808a1 1 0 01.879.524zM4 38h34v2H4zm34-2H4V14h34zm0-26v2H4v-2zM12 54a4 4 0 114-4 4 4 0 01-4 4zm14 0a4 4 0 114-4 4 4 0 01-4 4zm0-10a6.006 6.006 0 00-5.91 5h-2.18a5.993 5.993 0 00-11.82 0H4v-7h34v7h-6.09A6.006 6.006 0 0026 44zm23 10a4 4 0 114-4 4 4 0 01-4 4zm10-5h-4.09a5.993 5.993 0 00-11.82 0H40V24h2v10a1 1 0 001 1h16.985c0 .036.015.071.015.108V37h-4a2 2 0 00-2 2v2a2 2 0 002 2h4v2h-3v2h3v1a1 1 0 01-1 1zm1-10v2h-4v-2z"/><path d="M13 34a3 3 0 003-3V19a3 3 0 00-6 0v12a3 3 0 003 3zm-1-15a1 1 0 012 0v12a1 1 0 01-2 0zm9 15a3 3 0 003-3V19a3 3 0 00-6 0v12a3 3 0 003 3zm-1-15a1 1 0 012 0v12a1 1 0 01-2 0zm9 15a3 3 0 003-3V19a3 3 0 00-6 0v12a3 3 0 003 3zm-1-15a1 1 0 012 0v12a1 1 0 01-2 0z"/></svg>