<svg height="512" viewBox="0 0 64 64" width="512" xmlns="http://www.w3.org/2000/svg"><g id="Route-2" data-name="Route"><path d="M15 56a1 1 0 00.6-.2C16.106 55.42 28 46.392 28 37a13 13 0 00-26 0c0 9.392 11.894 18.42 12.4 18.8a1 1 0 00.6.2zM4 37a11 11 0 0122 0c0 7.271-8.623 14.791-11 16.725C12.622 51.792 4 44.281 4 37z"/><path d="M21 37a6 6 0 10-6 6 6.006 6.006 0 006-6zm-10 0a4 4 0 114 4 4 4 0 01-4-4zM49 2a13.015 13.015 0 00-13 13c0 9.392 11.894 18.42 12.4 18.8a1 1 0 001.2 0C50.106 33.42 62 24.392 62 15A13.015 13.015 0 0049 2zm0 29.725C46.622 29.792 38 22.281 38 15a11 11 0 0122 0c0 7.271-8.623 14.791-11 16.725z"/><path d="M49 9a6 6 0 106 6 6.006 6.006 0 00-6-6zm0 10a4 4 0 114-4 4 4 0 01-4 4zm-1 38a3 3 0 01-3 3H16v-2h-2v2a2 2 0 002 2h29a5.006 5.006 0 005-5V36h-2z"/></g></svg>