<svg height="512" viewBox="0 0 64 64" width="512" xmlns="http://www.w3.org/2000/svg"><path d="M42 36h4v2h-4zM11 48h2v2h-2zm14 0h2v2h-2zm23 0h2v2h-2z"/><path d="M61.31 31.574l-4.863-9A3 3 0 0053.807 21H39a1 1 0 00-1 1v20h-2V24a2.993 2.993 0 00-2.675-2.967l-18.878-10.9a3 3 0 00-4.4 3.374 2.972 2.972 0 00.95 1.5V23H6a1 1 0 00-1 1v12a1 1 0 001 1h12a1 1 0 001-1V24a1 1 0 00-1-1h-5v-6.773l17 9.814V37a1 1 0 00-.707.293L27.586 39H3a1 1 0 00-1 1v8a2 2 0 002 2h2.09a5.993 5.993 0 0011.82 0h2.18a5.993 5.993 0 0011.82 0h11.18a5.993 5.993 0 0011.82 0H59a3 3 0 003-3V34.108a4.959 4.959 0 00-.69-2.534zM11 25h2v4h-2zm-2 0v2H7v-2zM7 35v-6h2v1a1 1 0 001 1h4a1 1 0 001-1v-1h2v6zm10-8h-2v-2h2zm37.687-3.475L59.267 32H44v-9h9.807a1 1 0 01.88.525zM38 44v4h-2v-4zM12.082 12.232a1 1 0 011.365-.366l17.4 10.048a2.984 2.984 0 00-.825 1.832L12.447 13.6a1 1 0 01-.365-1.368zM32 24a1 1 0 012 0v13h-2zM12 53a4 4 0 114-4 4 4 0 01-4 4zm14 0a4 4 0 114-4 4 4 0 01-4 4zm0-10a6.006 6.006 0 00-5.91 5h-2.18a5.993 5.993 0 00-11.82 0H4v-7h24a1 1 0 00.707-.293L30.414 39H34v9h-2.09A6.006 6.006 0 0026 43zm23 10a4 4 0 114-4 4 4 0 01-4 4zm10-5h-4.09a5.993 5.993 0 00-11.82 0H40V23h2v10a1 1 0 001 1h16.985c0 .036.015.071.015.108V36h-4a2 2 0 00-2 2v2a2 2 0 002 2h4v2h-3v2h3v1a1 1 0 01-1 1zm1-10v2h-4v-2z"/></svg>