<svg height="512" viewBox="0 0 64 64" width="512" xmlns="http://www.w3.org/2000/svg"><path d="M61.955 56.7l-10-32A1 1 0 0051 24H22v-3.589a8 8 0 10-6 0V24h-3a1 1 0 00-.955.7l-10 32A1 1 0 003 58h58a1 1 0 00.955-1.3zM13 13a6 6 0 116 6 6.006 6.006 0 01-6-6zm6 8a8.047 8.047 0 001-.069V31a1 1 0 01-2 0V20.931A8.047 8.047 0 0019 21zM4.36 56l9.375-30H16v5a3 3 0 006 0v-5h28.265l9.375 30z"/><path d="M47 38a3.992 3.992 0 00-1 7.858V50h2v-4.142A3.992 3.992 0 0047 38zm0 6a2 2 0 112-2 2 2 0 01-2 2zm-1 8h2v2h-2zm-4 0h2v2h-2zm-4 0h2v2h-2zm-21-8h18a4 4 0 000-8h-9v2h9a2 2 0 010 4H17a6 6 0 000 12h19v-2H17a4 4 0 010-8z"/><path d="M22 36h2v2h-2zm-4 0h2v2h-2zm4-23a3 3 0 10-3 3 3 3 0 003-3zm-4 0a1 1 0 111 1 1 1 0 01-1-1z"/></svg>