<svg height="512" viewBox="0 0 64 64" width="512" xmlns="http://www.w3.org/2000/svg"><path d="M21 52h2v2h-2zm28 0h2v2h-2zM2 49h5v2H2zm2-4h3v2H4zm1-4h2v2H5z"/><path d="M61.121 38.707L49.294 26.88A2.98 2.98 0 0047.17 26H37a2 2 0 00-2 2v13H12a2 2 0 00-2 2v8a3 3 0 003 3h2.08a6.98 6.98 0 002.03 4H2v2h48a7 7 0 006.92-6H59a3 3 0 003-3V40.829a2.978 2.978 0 00-.879-2.122zM60 40.829V41H45v-9h6.586l8.121 8.121a1 1 0 01.293.708zM17 53a5 5 0 115 5 5.006 5.006 0 01-5-5zm9.89 5a6.98 6.98 0 002.03-4h14.16a6.975 6.975 0 002.031 4zM50 58a5 5 0 115-5 5.006 5.006 0 01-5 5zm9-6h-2.08a6.991 6.991 0 00-13.84 0H28.92a6.991 6.991 0 00-13.84 0H13a1 1 0 01-1-1v-8h24a1 1 0 001-1V28h10.17a1 1 0 01.71.294L49.586 30H45a2 2 0 00-2 2v9a2 2 0 002 2h15v8a1 1 0 01-1 1z"/><path d="M40 45h4v2h-4zM6 6h6v2H6zM2 6h2v2H2zm7-4h4v2H9zM5 2h2v2H5zm37 16h8v2h-8zm-4 0h2v2h-2zM8 20c0 9.392 11.894 18.42 12.4 18.8a1 1 0 001.2 0C22.106 38.42 34 29.392 34 20a13 13 0 00-26 0zM21 9a11.013 11.013 0 0111 11c0 7.271-8.623 14.791-11 16.725C18.622 34.792 10 27.281 10 20A11.013 11.013 0 0121 9z"/><path d="M21 26a6 6 0 10-6-6 6.006 6.006 0 006 6zm0-10a4 4 0 11-4 4 4 4 0 014-4zm19-2h4v2h-4zm-4 0h2v2h-2z"/></svg>