<svg height="512" viewBox="0 0 64 64" width="512" xmlns="http://www.w3.org/2000/svg"><path d="M56 44.764V25.937A12.991 12.991 0 1036.363 12H11a3 3 0 00-3 3v29.764L2.105 56.553A1 1 0 002 57v3a2 2 0 002 2h56a2 2 0 002-2v-3a1 1 0 00-.1-.447zM40.618 56L38.9 52.553A1 1 0 0038 52H26a1 1 0 00-.895.553L23.382 56H4.618l5-10h44.764l5 10zm-2.236 0H25.618l1-2h10.764zM49 4a11 11 0 11-11 11A11.013 11.013 0 0149 4zM10 15a1 1 0 011-1h25.051A12.7 12.7 0 0036 15a12.994 12.994 0 0018 12v17H10zM4 60v-2h56v2z"/><path d="M10 52h2v2h-2zm4 0h2v2h-2zm34 0h2v2h-2zm4 0h2v2h-2zm-37-4h2v2h-2zm-4 0h2v2h-2zm8 0h2v2h-2zm4 0h2v2h-2zm4 0h2v2h-2zm4 0h2v2h-2zm4 0h2v2h-2zm4 0h2v2h-2zm4 0h2v2h-2zm4 0h2v2h-2zm4 0h2v2h-2zm-33 4h4v2h-4zm24 0h4v2h-4zm-9.2-33.6a1 1 0 00-.8-.4H18a1 1 0 00-.8.4l-3 4a1 1 0 00-.2.6v17a2 2 0 002 2h18a2 2 0 002-2V23a1 1 0 00-.2-.6zM18.5 20h13l1.5 2H17zm2.5 6h-5v-2h5zm2-2h4v5.131l-1.445-.963a1 1 0 00-1.11 0L23 29.131zm6 0h5v2h-5zM16 40V28h5v3a1 1 0 001.555.832L25 30.2l2.445 1.63A1 1 0 0029 31v-3h5v12zm32-22h-6v-1a1 1 0 011-1h3a2 2 0 002-2v-2a2 2 0 00-2-2h-4a2 2 0 00-2 2v1h2v-1h4v2h-3a3 3 0 00-3 3v2a1 1 0 001 1h7zm3-2h3v4h2v-4h2v-2h-2v-4h-2v4h-2v-4h-2v5a1 1 0 001 1zm-7 14h6v2h-6zm-4 4h10v2H40zm0 4h10v2H40zm0-8h2v2h-2z"/></svg>