<svg version="1.1" id="Capa_1" xmlns="http://www.w3.org/2000/svg" x="0" y="0" viewBox="0 0 464.77 464.77" xml:space="preserve"><path d="M464.557 346.786a4.004 4.004 0 00-2.184-2.377L278.68 264.043l18.009-10.394c17.601-10.153 33.09-23.215 46.081-38.828l81.966 2.157.105.001c.76 0 1.505-.217 2.147-.625l15.809-10.06a4 4 0 00-1.307-7.286l-76.998-16.545 13.027-22.024c2.643-4.467 3.27-9.627 1.766-14.53a18.458 18.458 0 00-6.446-9.264l24.115-62.346a3.998 3.998 0 00-5.673-4.94l-45.271 25.15c-.498.276-.93.655-1.269 1.112l-37.888 51.017-20.96-31.445a3.997 3.997 0 00-5.464-1.163l-13.657 8.623a4 4 0 00-1.844 3.783l4.903 48.667a77771.606 77771.606 0 00-73.978 42.643l-93.161-82.493a4.003 4.003 0 00-4.137-.719c-12.102 4.841-18.042 18.209-13.522 30.435l17.335 46.889-28.021 18.632c-3.528 2.149-5.664 6.234-5.855 11.276-.172 4.54 1.19 9.564 3.836 14.147s6.316 8.275 10.334 10.396c2.434 1.285 4.913 1.931 7.252 1.931 2.036 0 3.966-.49 5.668-1.473.097-.056 21.548-14.972 21.548-14.972l3.496 9.458c-29.133 16.895-54.731 31.814-71.057 41.476-18.1 10.712-32.413 25.996-41.392 44.198A106.95 106.95 0 00.82 366.454c-2.218 8.279.115 16.796 6.24 22.781 4.464 4.362 10.224 6.678 16.205 6.678 2.218 0 4.467-.319 6.69-.97a391.864 391.864 0 0043.659-15.692 391.66 391.66 0 0041.493-20.769l73.016-42.164 64.575 12.244-12.553 8.141c-3.552 2.142-5.702 6.242-5.894 11.304-.172 4.54 1.19 9.563 3.836 14.146 4.461 7.727 11.394 12.336 17.599 12.336 1.996 0 3.916-.477 5.655-1.48.098-.057 48.396-33.631 48.396-33.631l126.264 23.941c1.671.317 3.341.471 4.995.471a26.54 26.54 0 0023.274-13.789 3.98 3.98 0 00.287-3.215zm-34.284-142.005l-6.549 4.167-98.9-2.602c6.797-5.237 18.459-12.221 29.434-17.899l76.015 16.334zm-79.625-103.698l34.857-19.364-24.937 64.469-71.463 37.766 61.543-82.871zM281.4 122.877l20.386 30.584-4.218 5.68c-5.936 3.415-12.706 7.31-20.137 11.588l-4.295-42.632 8.264-5.22zM92.083 259.47l-.594.413c-1.227.646-3.071.418-5.091-.648-2.663-1.405-5.266-4.074-7.14-7.321-1.875-3.247-2.885-6.835-2.771-9.845.088-2.338.842-4.085 2.068-4.793.473-.272 1.044-.408 1.688-.408 1.023 0 2.227.343 3.498 1.014 2.663 1.405 5.266 4.074 7.14 7.321 3.487 6.039 3.464 12.2 1.202 14.267zm9.504-6.609c-.291-3.736-1.532-7.77-3.777-11.658-2.548-4.413-6.049-7.985-9.892-10.139l17.3-11.497 9.049 24.478-12.68 8.816zm-9.052-90.667c-2.724-7.369.266-15.361 6.844-19.188l89.167 78.957a43376.94 43376.94 0 00-60.894 35.219l-35.117-94.988zM14.278 384.9a15.883 15.883 0 01-1.624-1.385c-4.021-3.929-5.556-9.518-4.112-14.954a7.9 7.9 0 014.444-1.393c4.587 0 8.32 4.003 8.32 8.924-.001 4.42-3.064 8.136-7.028 8.808zm96.832-33.346a383.632 383.632 0 01-40.643 20.343 383.346 383.346 0 01-42.761 15.37 15.884 15.884 0 01-3.022.574 17.204 17.204 0 004.621-11.75c0-9.332-7.321-16.924-16.32-16.924-.482 0-.961.023-1.438.066a98.71 98.71 0 013.807-8.768c.23-.466.478-.922.715-1.384 4.341 5.185 12.796 7.796 25.204 7.796 3.167 0 6.591-.17 10.27-.51 2.2-.204 3.818-2.152 3.614-4.353S53 348.218 50.805 348.4c-19.884 1.846-26.398-1.934-28.512-4.346-1.189-1.356-1.33-2.707-1.299-3.447 8.164-12.49 19.283-23.084 32.65-30.995 46.308-27.407 167.28-97.136 231.953-134.357l-13.435 18.091a4 4 0 005.08 5.922l88.387-46.708a3.988 3.988 0 001.861-2.093l2.233-5.773a10.497 10.497 0 011.912 3.559c.836 2.725.479 5.605-1.003 8.112l-14.387 24.324-1.705-.366a4.016 4.016 0 00-2.66.349c-5.835 2.979-35.18 18.316-39.843 27.643a4 4 0 003.472 5.788l16.922.445a162.71 162.71 0 01-39.742 32.171l-23.113 13.341-2.66-1.164a4.004 4.004 0 00-2.802-.151c-2.563.805-63.079 20.03-90.771 48.452a4 4 0 002.12 6.721l.619.117-64.972 37.519zm146.721 14.173l-.555.386c-2.772 1.495-8.558-1.552-12.257-7.958-1.875-3.247-2.884-6.835-2.77-9.844.088-2.339.843-4.086 2.068-4.794.48-.276 1.054-.412 1.696-.412 3.029 0 7.553 3.011 10.629 8.339 3.496 6.053 3.466 12.229 1.189 14.283zm9.518-6.617c-.289-3.738-1.531-7.774-3.778-11.666-2.616-4.532-6.084-7.984-9.756-10.071l10.329-6.64 34.586 6.558-31.381 21.819zm170.146-3.649L184.714 307.53c25.794-21.973 71.771-37.841 80.391-40.693l189.563 82.934a18.554 18.554 0 01-17.173 5.69z"/></svg>