<svg version="1.1" id="Capa_1" xmlns="http://www.w3.org/2000/svg" x="0" y="0" viewBox="0 0 442.187 442.187" xml:space="preserve"><path d="M331.827 262.925l.016-12.754-9.519 5.477-.002.002-.014 12.786-11.065 6.407.014 10.981 11.038-6.39-.014 12.753 9.516-5.478.016-12.785 11.065-6.405.002-.003-.016-10.982z"/><path d="M442.186 112.329a3.995 3.995 0 00-1.999-3.46l-141.071-81.46a3.998 3.998 0 00-3.99-.006l-145.865 83.65-1.562-.902c-.597-.36-3.497-.37-4.083-.027l-32.19 18.597a4 4 0 00-1.999 3.464c0 .244.073 1.668.073 1.668l-44.403 25.459a3.996 3.996 0 00-1.426 1.397l-.028-.017-45.111 76.776-17.915 28.42A4 4 0 000 268.021v61.783c0 1.429.762 2.749 1.999 3.463l141.075 81.511a3.99 3.99 0 003.947.027l.002.003 38.608-21.533c1.692 7.755 5.684 13.725 11.615 17.149 3.47 2.004 7.361 3.001 11.508 3.001 4.979 0 10.328-1.439 15.753-4.303 9.34-4.931 17.926-13.606 24.174-24.429 6.109-10.581 9.315-22.067 9.082-32.438l97.673-55.641c1.81 7.265 5.714 12.863 11.386 16.138 3.551 2.05 7.485 3.024 11.603 3.024 13.723 0 29.48-10.827 39.833-28.756 6.041-10.464 9.057-21.308 9.165-30.89l12.893-8.106a3.998 3.998 0 001.871-3.386l-.001-132.309zm-296.551 5.867l47.489 27.422-24.209 13.98-47.49-27.416 24.21-13.986zM117.5 139.153l45.856 26.473v9.284L117.5 148.437v-9.284zm53.856 31.092l45.23 26.112v9.284l-45.23-26.112v-9.284zm53.231 26.111l24.276-14.017v9.368l-24.276 14.017v-9.368zm-4-6.928l-43.671-25.212 24.208-13.98 43.668 25.215-24.205 13.977zM109.5 143.074v7.672c0 1.429.762 2.75 2 3.464l107.16 61.864a4.002 4.002 0 004 0l32.203-18.595a3.998 3.998 0 002-3.464l-.082-18.706a3.993 3.993 0 00-1.991-3.322l-97.516-56.309 139.835-80.192 133.057 76.833-221.993 127.298-133.066-76.824 34.393-19.719zm52.085 172.536L27.438 238.101l30.714-52.273L192.3 263.337l-30.715 52.273zm34.767-59.171L62.204 178.931l6.295-10.714 134.174 77.463-6.321 10.759zM23.279 244.938l134.143 77.506-13.679 21.7L9.6 266.638l13.679-21.7zm161.439 139.687l-35.643 19.879v-9.65l36.92-21.9c-.859 3.966-1.295 7.888-1.277 11.671zM31.59 288.582v15.536L8 290.488v-15.536l23.59 13.63zm109.485 78.795l-24.888-14.38v-15.536l24.888 14.38v15.536zm-32.888-19.003L39.59 308.74v-15.536l68.597 39.634v15.536zM8 299.727l133.075 76.888v9.728L8 309.455v-9.728zm0 27.769v-8.802l133.075 76.888v8.802L8 327.496zm233.753 53.198c-5.505 9.534-12.956 17.118-20.981 21.354-7.422 3.919-14.357 4.433-19.526 1.448-5.169-2.984-8.19-9.247-8.508-17.634-.344-9.068 2.499-19.313 8.003-28.848 5.505-9.535 12.956-17.118 20.981-21.354 4.239-2.238 8.318-3.365 12-3.365 2.766 0 5.309.637 7.526 1.917 5.169 2.984 8.19 9.247 8.508 17.634.344 9.069-2.498 19.314-8.003 28.848zm112.559-92.646l-97.616 55.608c-1.784-7.38-5.715-13.062-11.448-16.372-7.636-4.41-17.318-3.947-27.261 1.302-9.34 4.931-17.926 13.606-24.174 24.429a73.604 73.604 0 00-4.202 8.492l-40.536 24.045v-34.865l17.332-27.495.065-.106 44.602-75.91 223.113-127.939v103.996l-15.682 9.053a22.168 22.168 0 00-3.681-2.675c-15.384-8.881-37.977 2.421-51.435 25.731-6.162 10.673-9.372 22.266-9.077 32.706zm57.018-5.027c-10.843 18.778-29.394 29.222-40.507 22.803-5.169-2.984-8.191-9.247-8.509-17.634-.344-9.068 2.499-19.313 8.003-28.848 10.842-18.778 29.392-29.22 40.507-22.804 11.115 6.419 11.347 27.705.506 46.483zm15.275-35.826c-.65-3.12-1.688-5.996-3.097-8.559l10.679-6.165v9.957l-7.582 4.767z"/><path d="M402.789 250.456c-2.032-1.174-6.386-2.457-12.718 2.133-3.784 2.742-7.485 7.054-10.422 12.141-7.856 13.606-6.345 23.971-.792 27.177.938.542 2.37 1.106 4.263 1.106 2.209 0 5.045-.769 8.455-3.24 3.784-2.743 7.485-7.054 10.422-12.141 2.938-5.087 4.821-10.448 5.304-15.096.808-7.778-2.48-10.907-4.512-12.08zm-3.446 11.254c-.364 3.502-1.922 7.849-4.275 11.923-2.352 4.075-5.337 7.597-8.188 9.664-2.511 1.82-3.875 1.767-4.023 1.683-1.057-.61-1.42-7.345 3.72-16.25 2.352-4.075 5.336-7.597 8.188-9.663 2.014-1.459 3.292-1.715 3.794-1.715.124 0 .2.015.229.032.149.086.876 1.244.555 4.326zm-166.13 86.419c-2.031-1.173-6.385-2.457-12.718 2.133-3.784 2.742-7.485 7.054-10.422 12.141-7.855 13.606-6.345 23.971-.792 27.177.938.541 2.37 1.106 4.264 1.106 2.209 0 5.045-.769 8.455-3.24 3.784-2.742 7.485-7.054 10.421-12.141 2.938-5.087 4.821-10.448 5.304-15.096.808-7.777-2.48-10.907-4.512-12.08zm-3.446 11.254c-.364 3.502-1.922 7.848-4.275 11.923-2.352 4.075-5.337 7.597-8.188 9.664-2.511 1.82-3.874 1.767-4.023 1.683-1.057-.61-1.42-7.345 3.721-16.249 2.352-4.075 5.337-7.597 8.188-9.664 2.014-1.459 3.292-1.715 3.794-1.715.124 0 .2.015.229.032.147.086.874 1.244.554 4.326zm49.806-139.601a4.003 4.003 0 00-3.995-.009l-54.604 31.31a4 4 0 00-1.766 2.093l-19.382 52.859a4 4 0 005.756 4.841l73.986-42.722a3.998 3.998 0 002-3.464v-41.447a4.003 4.003 0 00-1.995-3.461zm-6.006 42.599l-62.433 36.05 15.083-41.134 47.35-27.15v32.234zm93.399-45.673a4.002 4.002 0 004 0l54.6-31.52a4.002 4.002 0 002-3.464v-41.45a3.999 3.999 0 00-5.99-3.47l-54.6 31.31a4 4 0 00-2.01 3.47v41.66a4 4 0 002 3.464zm6-42.807l46.6-26.722v32.235l-46.6 26.902v-32.415zm-21.01 4.514a3.996 3.996 0 00-3.995-.009l-54.6 31.31a3.999 3.999 0 00-2.01 3.47v41.66a3.998 3.998 0 006 3.464l54.6-31.52a4.002 4.002 0 002-3.464v-41.45a4.002 4.002 0 00-1.995-3.461zm-6.005 42.602l-46.6 26.902v-32.415l46.6-26.723v32.236z"/></svg>