<svg version="1.1" id="Capa_1" xmlns="http://www.w3.org/2000/svg" x="0" y="0" viewBox="0 0 458.643 458.643" xml:space="preserve"><path d="M264.06 347.9c-8.177-4.72-20.793 2.897-29.35 17.717-8.557 14.82-8.844 29.556-.669 34.276 1.632.942 3.44 1.393 5.358 1.393 7.692 0 17.143-7.247 23.991-19.109 3.771-6.529 6.092-13.446 6.538-19.478.524-7.056-1.56-12.312-5.868-14.799zm-2.108 14.209c-.354 4.783-2.354 10.64-5.488 16.067-6.721 11.641-15.398 16.53-18.422 14.789-3.021-1.745-3.123-11.709 3.597-23.349 5.839-10.112 13.154-15.133 16.956-15.133.574 0 1.069.115 1.466.344 1.437.831 2.161 3.621 1.891 7.282zm160.774-112.875c-4.305-2.487-9.901-1.667-15.751 2.316-4.999 3.401-9.828 8.87-13.599 15.4-3.77 6.529-6.092 13.446-6.538 19.477-.521 7.057 1.563 12.313 5.87 14.799 1.632.942 3.44 1.393 5.358 1.393 7.691 0 17.142-7.247 23.99-19.109 3.771-6.529 6.093-13.446 6.539-19.477.523-7.056-1.561-12.312-5.869-14.799zm-2.108 14.208c-.354 4.783-2.354 10.64-5.488 16.067-6.721 11.639-15.401 16.532-18.421 14.789-1.438-.83-2.162-3.62-1.892-7.28.354-4.783 2.354-10.64 5.487-16.067 3.135-5.428 7.206-10.089 11.171-12.787 3.036-2.066 5.816-2.828 7.251-2.002 1.438.83 2.162 3.62 1.892 7.28z"/><path d="M458.596 250.331c-.591-15.573-6.682-27.479-17.149-33.522-.043-.025-7.748-4.253-10.904-6.041l11.531-6.493a4 4 0 002.037-3.485v-57.183a4.004 4.004 0 00-1.154-2.812s-38.577-39.049-38.876-39.24c-.294-.188-135.816-78.778-135.816-78.778a4 4 0 00-4.004-.008L114.98 108.673a3.995 3.995 0 00-1.713 1.968l-25.192 62.313L1.292 234.95A3.999 3.999 0 000 237.894v58.01c0 1.429.762 2.75 2 3.464l27.222 15.715c-.452 17.431 5.717 31.097 17.152 37.71.883.511 27.83 15.834 27.845 15.843 4.729 2.728 10.053 4.076 15.726 4.076 7.99 0 16.669-2.683 25.332-7.951l22.773 13.147a4.002 4.002 0 004 0l31.125-18.035c-6.842 25.046-1.503 47.476 14.3 56.612.905.523 20.268 11.815 27.968 15.9 4.696 2.682 9.966 4.022 15.594 4.022 6.897 0 14.33-2.006 21.89-5.996 13.181-6.958 25.312-19.229 34.158-34.553 8.848-15.324 13.409-31.966 12.845-46.858-.584-15.426-6.565-27.252-16.851-33.348-.099-.059-12.09-6.697-17.042-9.556l64.05-37.042c-3.884 22.066 2.025 40.66 16.049 48.762.901.521 20.271 11.813 27.975 15.909l-.002-.006c4.697 2.683 9.966 4.023 15.595 4.023 6.896 0 14.33-2.007 21.89-5.997 13.181-6.958 25.312-19.229 34.159-34.553s13.408-31.967 12.843-46.861zm-22.485-51.879l-8.666 4.879c-1.924-6.842-5.772-12.153-11.146-15.255-7.636-4.411-17.317-3.949-27.263 1.298-9.339 4.931-17.923 13.605-24.173 24.427-5.867 10.167-9.058 21.131-9.104 31.161l-95.063 54.979c-1.945-6.702-5.762-11.914-11.06-14.975-15.385-8.877-37.982 2.424-51.443 25.734a74.168 74.168 0 00-3.206 6.222l-50.937 29.462v-27.881l85.054-60.636 202.599-117.079 4.408 4.461v53.203zm-16.735 5.883c-.684-.399-4.769-2.786-5.779-3.368-6.652-3.841-14.47-4.939-22.767-3.412a39.767 39.767 0 011.941-1.105c7.422-3.918 14.356-4.434 19.527-1.444 3.232 1.863 5.652 5.094 7.078 9.329zM24.36 303.038V291.08l95.087 55.299v11.553L24.36 303.038zM8 244.277l26.765 15.565v28.034L8 272.311v-28.034zm34.765 48.252v-28.034l57.948 33.7v28.034l-57.948-33.7zm65.948 38.352v-28.034l27.336 15.898v28.034l-27.336-15.898zm35.337 24.747l46.814-27.078c-1.094 4.319-1.698 8.607-1.766 12.738l-45.048 26.356v-12.016zm107.202-57.772c-11.304-4.539-25.344-1.962-38.71 6.532 10.642-11.999 24.231-17.61 33.094-12.493 2.308 1.333 4.202 3.366 5.616 5.961zm4.596-104.05l61.933-35.724v39.354l-82.751 47.861 20.818-51.491zm170.044-58.899l-22.342 12.922-9.064-33.993 6.745-3.891 24.661 24.962zm-38.581-16.932l9.067 34.002-70.596 40.831v-39.342l61.529-35.491zM266.247 30.857l127.598 74.113-141.242 81.471-128.155-73.988 141.799-81.596zm-147.491 87.549l128.866 74.401-22.499 55.646L96.289 173.98l22.467-55.574zM91.411 180.4l128.435 74.242-80.017 57.045-128.08-74.485L91.411 180.4zM8 281.565l8.36 4.862v11.993L8 293.594v-12.029zm42.38 64.302c-7.881-4.557-12.493-13.908-13.112-26.14l19.791 11.425c-.174 7.647.938 14.559 3.211 20.468-2.404-1.391-9-5.237-9.89-5.753zm27.183 15.447c-7.426-4.646-11.792-13.733-12.44-25.506l42.076 24.29c-10.435 5.281-20.404 6.069-28.12 2.079a50.563 50.563 0 01-1.516-.863zm49.884 1.235V351.03l8.603 5.003v11.482l-8.603-4.966zm64.032 47.009c-13.953-8.066-17.194-31.383-7.9-55.773l11.561-6.764a3.998 3.998 0 001.969-3.738c-.17-5.428.805-11.274 2.797-17.132 16.475-19.403 37.386-27.462 51.034-19.583.992.571 8.163 4.756 9.344 5.44-4.893.872-9.971 2.665-15.11 5.377-13.181 6.958-25.312 19.229-34.159 34.553-8.848 15.324-13.409 31.966-12.845 46.858.232 6.116 1.324 11.656 3.184 16.507-2.358-1.367-8.963-5.218-9.875-5.745zm100.456-60.257c.508 13.406-3.675 28.52-11.778 42.556s-19.101 25.215-30.965 31.478c-11.263 5.944-21.871 6.675-29.871 2.057-8-4.619-12.672-14.171-13.154-26.897-.508-13.407 3.674-28.52 11.778-42.556 8.103-14.035 19.101-25.215 30.965-31.478 6.374-3.364 12.537-5.059 18.138-5.059 4.102 0 7.898.92 11.256 2.748l.529.286c7.967 4.63 12.621 14.166 13.102 26.865zm58.203-38.414c-12.158-7.024-16.361-25.898-10.656-47.27l22.331-12.915a4.002 4.002 0 001.983-3.788c-.41-9.132 2.427-19.466 7.995-29.113a67.023 67.023 0 013.229-5.055c12.815-8.374 25.389-10.155 34.578-4.851 1.001.577 7.3 4.257 9.351 5.446-4.892.872-9.971 2.665-15.109 5.377-13.18 6.958-25.311 19.229-34.158 34.553s-13.409 31.965-12.845 46.858c.232 6.115 1.324 11.654 3.184 16.505-2.367-1.37-8.974-5.221-9.883-5.747zm88.686-17.697c-16.394 28.394-43.684 43.439-60.837 33.535-17.151-9.903-17.769-41.06-1.376-69.453 8.104-14.036 19.101-25.215 30.966-31.479 6.373-3.364 12.537-5.059 18.138-5.059 4.295 0 8.26.997 11.732 3.002 8 4.619 12.672 14.172 13.154 26.897.509 13.408-3.674 28.521-11.777 42.557z"/></svg>