<svg version="1.1" id="Capa_1" xmlns="http://www.w3.org/2000/svg" x="0" y="0" viewBox="0 0 465.249 465.249" xml:space="preserve"><path d="M463.924 171.628c-2.196-15.696-10.881-29.217-24.294-37.808l1.504-.583a4 4 0 00.555-7.193L372.73 86.221V43.463c0-9.212-11.594-16.159-26.969-16.159-15.374 0-26.968 6.947-26.968 16.159v11.615l-27.666-15.973a4 4 0 00-3.445-.266l-105.51 40.899a4 4 0 00-.555 7.193l36.641 21.158v53.83L27.148 272.244c-17.096 9.867-27.209 27.505-27.1 47.181-.113 4.557.007 21.292.007 21.923 0 19.599 10.129 37.152 27.096 46.957 1.857 1.073 32.364 20.99 32.364 20.99a169.401 169.401 0 0088.698 28.557 169.396 169.396 0 0090.394-22.623l157.844-91.131c32.134-18.552 54.333-50.137 60.907-86.655 0 0 3.244-15.637 3.578-16.521 2.762-7.301 4.49-23.229 4.299-35.293-.067-4.237-1.16-12.924-1.311-14.001zm-131.745 2.244a4.004 4.004 0 003.445.265l.064-.025v44.206l-50-28.872v-42.421l46.491 26.847zm88.012-32.516v68.974l-18.503 10.682v-72.483l18.503-7.173zm-26.503 84.274l-25 14.433v-78.742l25-9.691v74zm-33 19.051l-17 9.814v-83.484l17-6.59v80.26zm-25-17.125v26.939l-109.43-63.187v-26.94l109.43 63.188zm-115.429-30.475l117.43 67.807a4.002 4.002 0 004 0l84.503-48.785a4 4 0 002-3.464v-56.455c1.664.884 3.308 1.79 4.917 2.719 11.76 6.789 19.612 17.745 22.2 30.901-2.807 12.308-10.566 23.027-21.94 29.592L191.18 359.226c-24.679 14.248-52.339 21.371-80.008 21.369-27.669-.001-55.346-7.128-80.022-21.379a4.356 4.356 0 00-.165-.091c-7.755-4.517-13.828-10.963-17.77-18.559-3.946-7.604-3.887-16.572.212-24.095 3.978-7.299 9.929-13.399 17.463-17.747l187.37-108.167v3.062a3.996 3.996 0 001.999 3.462zm213.11-57.727c11.402 6.578 19.139 17.153 21.936 29.626-4.542-6.869-10.683-12.668-18.196-17.005a167.13 167.13 0 00-8.918-4.789v-8.931l1.907-.739c1.145.623 2.227 1.23 3.271 1.838zM326.794 75.999c4.8 2.79 11.427 4.465 18.968 4.465 7.542 0 14.169-1.674 18.969-4.465v47.377c0 3.327-7.39 8.159-18.969 8.159s-18.968-4.832-18.968-8.159V75.999zm18.968-3.535c-11.579 0-18.968-4.832-18.968-8.159v-9.146c4.8 2.791 11.427 4.465 18.968 4.465 7.542 0 14.169-1.674 18.969-4.465v9.146c-.001 3.327-7.39 8.159-18.969 8.159zm0-37.16c11.579 0 18.969 4.832 18.969 8.159s-7.39 8.16-18.969 8.16-18.968-4.833-18.968-8.16 7.388-8.159 18.968-8.159zM288.787 46.99l30.007 17.324v59.061c0 9.212 11.594 16.159 26.968 16.159 15.375 0 26.969-6.947 26.969-16.159V95.458l57.728 33.338-95.938 37.19L192.849 84.18l95.938-37.19zm-11.099 95.417v42.421l-51.43-29.697V112.71l51.43 29.697zM31.148 279.172l187.11-108.016v10.162L26.889 291.794c-7.084 4.089-12.967 9.51-17.435 15.912 2.987-11.917 10.617-22.14 21.694-28.534zM8.634 348.616c4.575 7.08 10.844 13.103 18.504 17.526a3.6 3.6 0 00.173.094c25.872 14.903 54.864 22.354 83.859 22.354 29.049 0 58.098-7.479 84.008-22.438l242.188-139.829c7.493-4.324 13.647-10.186 18.19-17.048-.585 3.585-1.296 6.683-2.103 8.816-3.756 9.927-10.703 18.04-20.092 23.462L191.184 381.377c-24.681 14.251-52.345 21.375-80.017 21.373-27.666-.001-55.341-7.126-80.016-21.372-12.324-7.123-20.395-19.051-22.517-32.762zm180.944 42.953c0 8.981-3.623 14.94-6.02 14.94-1.795 0-4.494-3.583-5.564-9.585a166.538 166.538 0 0011.579-5.535c.001.06.005.119.005.18zm202.873-74.399l-157.844 91.131a161.43 161.43 0 01-86.129 21.556 161.395 161.395 0 01-80.765-24.794 168.78 168.78 0 0043.454 5.685 168.594 168.594 0 0059.293-10.762c1.989 8.756 6.993 14.524 13.098 14.524 7.992 0 14.02-9.862 14.02-22.94 0-1.529-.096-3.028-.265-4.492l240.049-138.595a55.181 55.181 0 0011.374-8.684c-6.964 32.591-27.308 60.641-56.285 77.371z"/></svg>