<svg version="1.1" id="Capa_1" xmlns="http://www.w3.org/2000/svg" x="0" y="0" viewBox="0 0 449.432 449.432" xml:space="preserve"><path d="M449.432 93.213a4 4 0 00-2-3.464l-111.145-64.17a3.999 3.999 0 00-3.998-.001L2.002 216.035A3.997 3.997 0 000 219.498v136.73a4 4 0 002 3.464l33.489 19.334-6.215 3.553c-6.022-7.621-14.583-10.777-20.819-7.176-3.672 2.119-5.89 6.298-6.086 11.464-.173 4.561 1.196 9.609 3.855 14.214 2.658 4.605 6.346 8.315 10.382 10.446 2.445 1.29 4.934 1.938 7.282 1.938 2.044 0 3.98-.491 5.688-1.478 3.671-2.119 5.89-6.297 6.085-11.463.135-3.545-.672-7.382-2.282-11.078l10.13-5.79 69.624 40.195a4.002 4.002 0 003.998.001l35.624-20.54c.118 7.732 3.157 13.975 8.635 17.136 2.452 1.416 5.166 2.09 8 2.09 9.178-.001 19.601-7.065 26.394-18.822 2.77-4.796 4.589-9.853 5.411-14.71 1.39 2.207 3.213 4.014 5.446 5.302 2.417 1.396 5.116 2.091 7.979 2.091 3.373 0 6.975-.965 10.612-2.886 6.125-3.233 11.737-8.898 15.802-15.948a46.294 46.294 0 004.294-9.947l95.601-55.194a15.235 15.235 0 003.082 2.375c2.418 1.396 5.118 2.092 7.983 2.092 3.37 0 6.97-.963 10.604-2.881 6.122-3.23 11.736-8.894 15.807-15.944 2.765-4.786 4.582-9.852 5.404-14.722 1.391 2.218 3.22 4.028 5.453 5.315 2.417 1.396 5.116 2.091 7.98 2.091 3.373 0 6.975-.964 10.612-2.885 6.124-3.232 11.739-8.897 15.812-15.95 5.39-9.344 7.182-19.756 4.975-27.674l18.79-10.834a4 4 0 002.002-3.465V93.213h-.001zM25.577 405.061c-1.237.715-3.146.495-5.235-.608-2.682-1.415-5.302-4.103-7.189-7.371-1.887-3.269-2.903-6.881-2.789-9.911.09-2.359.852-4.123 2.092-4.839.484-.279 1.065-.416 1.714-.416 3.055 0 7.613 3.03 10.711 8.396 1.887 3.269 2.903 6.881 2.788 9.911-.09 2.358-.853 4.122-2.092 4.838zM441.432 206.13l-98.511 56.807v-14.755l98.511-56.807v14.755zM323.73 295.496v-46.072l11.19-6.461v46.08l-11.19 6.453zM119.134 413.464v-12.259l100.646-58.031v12.258l-100.646 58.032zm210.922-249.109l-6.325 12.477v-8.83l6.325-3.647zm-14.326 28.257l-11.189 22.072v-35.617l11.189-6.452v19.997zm-19.189 37.852l-11.19 22.073v-62.406l11.19-6.452v46.785zm-19.19 30.374l-11.19-9.148v-50.495l11.19-6.452v66.095zm-19.191-15.687l-11.189-9.147V212.26l11.189-6.452v39.343zm-19.189-15.686l-9.032-7.383 9.032-5.208v12.591zm-19.191 80.486l-100.646 58.03v-14.755l100.646-58.032v14.757zM30.244 282.534l56.652 32.705v14.753l-56.652-32.704v-14.754zm-8 10.135L8 284.446v-14.753l14.244 8.223v14.753zm72.652 27.188l16.237 9.374v14.753l-16.237-9.374v-14.753zm124.884-33.896l-100.646 58.031v-14.756l100.646-58.031v14.756zm0-23.99l-100.646 58.03v-14.755l100.646-58.032v14.757zm-108.646 58.022l-16.237-9.374v-14.752l16.237 9.374v14.752zm-24.238-13.992l-56.652-32.704v-14.752l56.652 32.705v14.751zm-64.652-37.323L8 260.455v-14.752l14.244 8.223v14.752zM8 293.682l14.244 8.223v14.752L8 308.435v-14.753zm22.244 12.842l56.652 32.705v14.752l-56.652-32.704v-14.753zm64.652 37.323l16.237 9.374v14.752l-16.237-9.374v-14.752zm24.238 33.368l100.646-58.031v14.756l-100.646 58.03v-14.755zM227.78 230.649l11.19 9.148v49.326l-11.19 6.461v-64.935zm19.191 15.687l11.189 9.147v22.561l-11.189 6.46v-38.168zm19.189 15.686l8.176 6.683-8.176 4.72v-11.403zm30.381-13.867v7.73l-5.54 3.199 5.54-10.929zm8-15.78l11.189-22.072v34.503l-11.189 6.46v-18.891zm19.189-37.852l11.19-22.074v61.278l-11.19 6.461v-45.665zm15.138-44.483L235.727 90.495l49.277-28.415 103.143 59.547-49.279 28.413zm-8.005 4.615l-49.567 28.579-103.139-59.543 49.565-28.581 103.141 59.545zm-57.572 33.195l-50 28.829-103.136-59.543 49.996-28.83 103.14 59.544zm-58.005 33.445l-49.445 28.509-103.133-59.54 49.443-28.511 103.135 59.542zm4.494 6.643v10.043l-100.646 58.031V285.97l100.646-58.032zm-108.646 68.066L8 236.466v-10.039l103.134 59.542v10.035zM8 317.672l14.244 8.223v14.753L8 332.425v-14.753zm22.244 12.841l56.652 32.705v14.753l-56.652-32.704v-14.754zm64.652 37.323l16.237 9.374v14.753l-16.237-9.374v-14.753zm16.238 33.364v12.26l-16.237-9.374v-12.26l16.237 9.374zm116.646-96.379l11.19-6.461v46.008l-11.19 6.452v-45.999zm19.191-11.08l11.189-6.46v46.022l-11.189 6.452v-46.014zm19.189-11.079l11.19-6.461v46.036l-11.19 6.452v-46.027zm19.191-11.079l11.19-6.461v46.051l-11.19 6.452v-46.042zm19.19-11.079l11.189-6.46v46.066l-11.189 6.452v-46.058zm136.891-78.363l-98.511 56.807v-14.756l98.511-56.807v14.756zm0-23.99l-98.511 56.807v-14.756l98.511-56.807v14.756zm0-23.991l-98.511 56.807v-14.755l98.511-56.807v14.755zm0-23.989l-98.511 56.807v-10.042l98.511-56.8v10.035zm-107.146-76.51l103.142 59.55-41.277 23.8-103.143-59.547 41.278-23.803zM54.703 194.879l103.133 59.541-42.702 24.621-103.131-59.54 42.7-24.622zM8 341.662l14.244 8.223v12.258L8 353.919v-12.257zm22.244 25.099v-12.258l25.03 14.449a3.973 3.973 0 00-2.882.413l-8.862 5.065-13.286-7.669zm26.118 9.55a4 4 0 001.487-5.458 3.992 3.992 0 00-.543-.727l29.59 17.082v12.259L51.55 379.061l4.812-2.75zm132.494 23.403c-6.424 11.121-17.171 17.44-23.467 13.806-3.82-2.205-5.421-8.006-4.258-15.037l32.312-18.631c.97 5.642-.663 13.069-4.587 19.862zm45.249-26.147c-3.323 5.763-7.801 10.334-12.609 12.873-2.435 1.287-7.082 3.12-10.855.941-3.806-2.198-5.412-7.977-4.274-14.98l32.345-18.65c.949 5.632-.691 13.039-4.607 19.816zm11.831-23.981l89.454-51.578c.077 2.755.538 5.309 1.34 7.604l-89.788 51.838c.035-2.792-.293-5.446-1.006-7.864zm125.541-55.521c-3.327 5.763-7.807 10.334-12.612 12.87-2.435 1.284-7.081 3.112-10.854.937-3.732-2.155-5.355-7.804-4.32-14.65l32.421-18.694c.846 5.609-.803 12.903-4.635 19.537zm45.259-26.15c-3.328 5.764-7.809 10.336-12.618 12.875-2.436 1.286-7.088 3.119-10.859.938-3.718-2.143-5.343-7.771-4.324-14.595l32.441-18.705c.827 5.599-.824 12.873-4.64 19.487zm-73.815 16.516v-12.26l98.511-56.807v12.267l-98.511 56.8z"/></svg>