<svg version="1.1" id="Capa_1" xmlns="http://www.w3.org/2000/svg" x="0" y="0" viewBox="0 0 466.329 466.329" xml:space="preserve"><path d="M214.662 172.721l44.35 25.604a4.002 4.002 0 003.998.001l131.809-76a4 4 0 00.002-6.929L350.467 89.79a3.999 3.999 0 00-3.998-.001l-131.805 76.003a4 4 0 00-.002 6.929zm133.804-74.85l36.351 20.987-123.804 71.384-36.347-20.983 123.8-71.388z"/><path d="M466.325 117.348c0-.001-.762-2.752-2-3.467L353.18 49.711a3.999 3.999 0 00-3.998-.001L18.896 240.166a4.001 4.001 0 00-2.002 3.46v24H4a4 4 0 00-4 4v15.613a4 4 0 008 0v-11.613h8.894v73.369a4 4 0 002 3.464l111.135 64.16a4.002 4.002 0 003.998.001l67.981-39.204c1.01 5.203 3.648 9.225 7.638 11.529 2.305 1.331 4.854 1.963 7.515 1.963 8.563 0 18.263-6.557 24.569-17.48 4.342-7.52 6.083-15.396 5.352-21.995l136.636-78.781c.942 5.215 3.533 9.482 7.716 11.898 2.306 1.331 4.855 1.963 7.516 1.963 8.563 0 18.263-6.557 24.569-17.48 4.43-7.673 6.154-15.717 5.305-22.396l35.504-20.465a4 4 0 002.002-3.465l-.005-105.359zm-7.996 23.937l-117.248 67.604V191.87l117.248-67.604v17.019zm-125.248 72.217l-28.8 16.606v-17.019l28.8-16.606v17.019zm-36.8 21.218l-104.223 60.094v-17.018l104.223-60.094v17.018zm-112.222 64.707l-28.799 16.605v-17.018l28.799-16.605v17.018zm-36.799 21.218l-11.231 6.476v-17.018l11.231-6.476v17.018zm0 51.001l-11.231 6.479v-41.77l11.231-6.476v41.767zm-19.232-44.53L24.894 267.575V250.56l103.135 59.541v17.015zM24.894 276.813l92.205 53.231h-1.964a4 4 0 00-4 4v15.613a4 4 0 008 0v-11.613h8.894v40.078L24.894 318.581v-41.768zm111.134 110.548l11.231-6.479v18.871l-11.231 6.477v-18.869zm19.232-62.094l10.399-5.996v69.872l-10.399 5.997v-69.873zm18.399-10.609l10.399-5.996v69.87l-10.399 5.997v-69.871zm18.4-10.609l30.913-17.824v35.487l-30.913 17.825v-35.488zm38.913-22.437l28.207-16.264v35.486l-28.207 16.264v-35.486zm36.207-20.877l29.103-16.78v35.486l-29.103 16.781v-35.487zm37.102-21.393l10.399-5.996v69.876l-10.399 5.996v-69.876zm18.4-10.609l10.4-5.997v69.876l-10.4 5.997v-69.876zm18.4-10.609l22.409-12.921v35.488l-22.409 12.921v-35.488zm30.409-17.534l28.206-16.263v35.489l-28.206 16.263V200.59zm36.206-20.876l23.227-13.392v35.489l-23.227 13.392v-35.489zm31.227-18.005l19.406-11.189v35.489l-19.406 11.189v-35.489zM351.18 57.793l103.142 59.549-322.293 185.831-103.132-59.54L351.18 57.793zM24.894 327.819l103.135 59.541v18.866l-8.491-4.902v-9.997l-11.45-6.245v9.633l-66.032-38.121V346.57l-11.45-6.245v9.659l-5.713-3.298v-18.867zm209.908 41.608c-5.721 9.908-15.605 15.796-21.156 12.588-3.338-1.927-3.993-6.351-4.087-8.817-.185-4.867 1.423-10.625 4.41-15.799 4.658-8.068 12.075-13.466 17.667-13.466 1.275 0 2.458.282 3.489.877 5.549 3.205 5.397 14.708-.323 24.617zm4.323-31.545c-9.725-5.614-23.818 1.201-32.084 15.517-2.778 4.81-4.554 9.944-5.208 14.881l-9.775 5.637V348.77l104.223-60.095v25.155l-51.605 29.754c-1.338-2.381-3.189-4.338-5.551-5.702zm177.466-72.85c-5.722 9.91-15.608 15.791-21.157 12.589-5.549-3.204-5.397-14.707.323-24.617 5.723-9.91 15.61-15.791 21.157-12.589 5.549 3.205 5.398 14.708-.323 24.617zm9.687-26.163c-1.322-2.236-3.109-4.08-5.364-5.382-9.726-5.614-23.819 1.201-32.085 15.517-2.779 4.813-4.489 9.771-5.172 14.448L341.081 288v-25.154l117.248-67.603v25.151l-32.051 18.475z"/></svg>