<svg version="1.1" id="Capa_1" xmlns="http://www.w3.org/2000/svg" x="0" y="0" viewBox="0 0 450.936 450.936" xml:space="preserve"><path d="M198.521 123.545l44.35 25.604a4.002 4.002 0 003.998.001l131.809-76a4 4 0 00.002-6.929l-44.354-25.607a3.999 3.999 0 00-3.998-.001l-131.805 76.003a4 4 0 00-.002 6.929zm133.804-74.849l36.351 20.987-123.804 71.383-36.347-20.983 123.8-71.387z"/><path d="M448.184 64.706L337.04.536a3.999 3.999 0 00-3.998-.001L2.755 190.991a4 4 0 00-2.002 3.464v.001l-.005.001.005 82.952a4 4 0 002 3.464l49.681 28.682L2.75 338.202l.004.006c-.083.048-.168.092-.248.146a3.998 3.998 0 00-1.758 3.313v41.109a4 4 0 002 3.464l111.141 64.16a4.002 4.002 0 003.998.001l67.974-39.203c.997 5.044 3.561 9.167 7.643 11.524 2.305 1.331 4.855 1.964 7.515 1.964 8.564 0 18.264-6.558 24.57-17.48 4.342-7.52 6.083-15.396 5.352-21.995l136.648-78.788c.955 5.385 3.619 9.546 7.704 11.904 2.274 1.313 4.813 1.968 7.503 1.968 3.154 0 6.518-.899 9.911-2.69 5.686-3.002 10.896-8.256 14.671-14.794 3.775-6.538 5.72-13.677 5.477-20.102a26.878 26.878 0 00-.188-2.284l35.521-20.476a4.004 4.004 0 002.002-3.466V68.17c-.002 0-.768-2.75-2.006-3.464zM214.831 331.644v-42.508l28.206-16.263v42.508l-28.206 16.263zm-38.913 22.438v-42.51l30.913-17.824v42.509l-30.913 17.825zM8.748 201.381l103.138 59.544v41.92L8.751 243.304l-.003-41.923zm433.44-52.571L119.887 334.645v-22.561l322.302-185.835v22.561zm0-31.795l-36.45 21.017V96.107l36.45-21.017v41.925zm-44.45 25.629l-39.064 22.524v-41.924l39.064-22.524v41.924zm-47.064 27.137l-39.065 22.525v-41.924l39.065-22.525v41.924zm-47.066 27.137l-39.065 22.524v-41.923l39.065-22.525v41.924zm-47.065 27.137l-39.064 22.524v-41.923l39.064-22.524v41.923zm-47.065 27.137l-39.065 22.525v-41.923l39.065-22.525v41.923zm-47.065 27.137l-42.526 24.52v-41.923l42.526-24.52v41.923zm-50.526 120.572l-50.148-28.952v-55.023l50.148 28.952v55.023zm-58.149-33.57l-40.987-23.663 40.987-23.638v47.301zm25.25 23.814v31.87l-37.34-21.556v-31.872l37.34 21.558zm8 4.619l24.898 14.375v31.869l-24.898-14.374v-31.87zm32.899-49.884l11.231-6.476v96.132l-11.231 6.477V343.88zm19.231-11.089l28.8-16.606v96.127l-28.8 16.61v-96.131zm111.919-64.531l29.103-16.78v42.507l-29.103 16.781V268.26zm37.103-21.393l28.8-16.606v96.131l-28.8 16.605v-96.13zm36.799-21.219l22.41-12.921v42.51l-22.41 12.921v-42.51zm30.41-17.534l28.206-16.263v42.51l-28.206 16.263v-42.51zm36.207-20.876l23.227-13.392v42.51l-23.227 13.392v-42.51zm31.226-18.005l19.406-11.189v42.511l-19.406 11.189v-42.511zM335.039 8.618l103.142 59.55-322.293 185.83-103.131-59.54L335.039 8.618zM8.751 252.541l103.135 59.542v22.559L8.753 275.099l-.002-22.558zm-.003 96.053l24.9 14.376v31.872l-24.9-14.375v-31.873zm209.913 54.612c-5.722 9.91-15.607 15.794-21.157 12.589-5.549-3.204-5.397-14.708.323-24.617 5.724-9.909 15.609-15.787 21.157-12.589 5.549 3.204 5.398 14.708-.323 24.617zm4.323-31.545c-9.723-5.617-23.818 1.2-32.085 15.517-2.869 4.968-4.602 10.093-5.238 14.901l-9.744 5.619v-44.382L280.14 303.22v44.39l-51.604 29.754c-1.339-2.382-3.19-4.339-5.552-5.703zM400.45 298.81c-2.987 5.174-7.171 9.445-11.478 11.719-2.182 1.151-6.343 2.796-9.68.87-3.338-1.927-3.993-6.352-4.087-8.817-.185-4.867 1.423-10.625 4.41-15.799s7.171-9.445 11.478-11.719c1.456-.769 3.792-1.757 6.178-1.757 1.189 0 2.392.246 3.502.887 3.338 1.927 3.993 6.352 4.087 8.817.185 4.868-1.423 10.625-4.41 15.799zm9.692-26.166c-1.338-2.265-3.14-4.091-5.369-5.378-4.94-2.854-11.126-2.596-17.414.723-5.686 3.002-10.896 8.256-14.671 14.794-2.693 4.663-4.434 9.628-5.134 14.426l-42.615 24.571v-44.388l117.249-67.603v44.383l-32.046 18.472z"/><ellipse cx="20.878" cy="372.422" rx="5.14" ry="7.709"/><ellipse cx="99.545" cy="416.756" rx="5.14" ry="7.709"/></svg>