<svg version="1.1" id="Capa_1" xmlns="http://www.w3.org/2000/svg" x="0" y="0" viewBox="0 0 433.758 433.758" xml:space="preserve"><path d="M237.598 306.044c-5.553-3.209-15.284.67-23.14 14.274-2.938 5.087-4.82 10.448-5.304 15.097-.808 7.778 2.48 10.907 4.512 12.08 1.208.698 2.613 1.06 4.154 1.06 5.544 0 12.839-4.688 18.985-15.334 2.938-5.087 4.82-10.448 5.304-15.097.809-7.779-2.48-10.908-4.511-12.08zm-3.446 11.254c-.364 3.502-1.922 7.848-4.274 11.923-5.141 8.905-11.153 11.947-12.212 11.347-.147-.085-.874-1.244-.554-4.326.363-3.503 1.921-7.849 4.273-11.923 4.723-8.181 10.183-11.421 11.859-11.421.148 0 .267.025.353.075.148.083.876 1.243.555 4.325zm170.113-108.153c-5.55-3.202-15.283.67-23.14 14.275-7.855 13.606-6.345 23.972-.792 27.178 1.208.698 2.613 1.06 4.154 1.06 5.544 0 12.84-4.688 18.985-15.334 7.856-13.606 6.345-23.972.793-27.179zm-7.72 23.179c-5.143 8.906-11.154 11.96-12.212 11.347-1.057-.61-1.42-7.346 3.72-16.25 5.14-8.9 11.155-11.956 12.213-11.347 1.056.61 1.42 7.346-3.721 16.25z"/><path d="M433.758 137.526a4 4 0 00-1.998-3.463L296.07 55.624a3.996 3.996 0 00-4.004 0l-72.772 42.069-10.341-5.978c-9.421-5.447-22.169 2.438-33.415 9.392-.854.528-1.688 1.042-2.511 1.545-4.567 2.474-7.847 6.69-9.107 11.81-.021.085-3.393 19.051-3.393 19.051s-40.955-23.827-41.893-24.106c-1.707-.508-4.161-.574-5.367 1.462l-25.192 62.313-86.784 61.996A4.007 4.007 0 000 238.122v58.01a4 4 0 002 3.464l136.05 78.54c.619.357 1.31.536 2 .536s2.32-.548 2.32-.548l47.466-27.772c1.58 8.167 5.65 14.441 11.794 17.987 3.47 2.004 7.36 3.001 11.508 3.001 4.979 0 10.328-1.439 15.753-4.303 9.341-4.931 17.926-13.606 24.175-24.43 6.249-10.822 9.47-22.596 9.069-33.15-.011-.287-.036-.566-.052-.85l94.46-54.63c1.626 7.673 5.565 13.892 11.754 17.465 3.552 2.051 7.484 3.024 11.603 3.024 13.723-.001 29.481-10.827 39.833-28.756 9.652-16.718 11.604-34.416 6.262-46.366l6.976-9.442a3.995 3.995 0 00.783-2.377V137.57c.001-.015.004-.029.004-.044zM294.067 63.707l127.699 73.82-43.891 25.384-127.711-73.824 43.903-25.38zm-51.895 30.001l127.714 73.825-43.771 25.315.023-5.218c.016-3.289.245-6.539.487-9.98l.077-1.094c.684-9.794-4.369-19.3-12.874-24.217l-86.543-50.026 14.887-8.605zm-37.224 4.933l104.876 60.623c5.877 3.398 9.37 9.967 8.897 16.734l-.076 1.087c-.242 3.419-.491 6.954-.508 10.508l-.044 9.893-9.786 5.66.011-4.452c.009-3.294.238-6.552.481-10l.068-.978c.684-9.795-4.369-19.301-12.874-24.217l-104.876-60.624a19.208 19.208 0 00-1.502-.773c6.032-3.205 11.957-5.413 15.333-3.461zm-33.23 17.617a10.394 10.394 0 016.041-7.024 10.401 10.401 0 019.355.568l104.876 60.624c5.878 3.397 9.37 9.966 8.897 16.734l-.068.972c-.242 3.43-.491 6.977-.501 10.542l-.023 9.106-27.601 15.963-23.391-13.522 7.061-17.463c.819-2.025-.149-4.306-2.155-5.156l-86.312-49.832 3.821-21.512zm74.557 101.451l18.429 10.654-29.677 17.163 11.248-27.817zm-127.518-99.074l128.866 74.401-22.499 55.645-128.835-74.473 22.468-55.573zm-27.346 61.994l128.436 74.242-80.017 57.046L11.749 237.43l79.662-56.801zM189.11 341.51l-45.06 26.364v-12.018l46.822-27.082c-1.094 4.318-1.693 8.603-1.762 12.736zM83.348 325.612v11.707l-32-18.473v-11.844l32 18.61zm-58.797-43.448v-9.045l94.797 55.13v9.045l-94.797-55.13zM8 244.505l8.551 4.973v28.034L8 272.539v-28.034zm111.348 74.489l-94.797-55.129v-9.734l94.797 55.129v9.734zm8-5.082l8.702 5.061v28.034l-8.702-5.061v-28.034zM8 281.793l35.348 20.557v11.878L8 293.822v-12.029zm83.348 60.145v-11.673l44.702 25.997v11.483l-44.702-25.807zm154.791-3.33c-5.505 9.534-12.957 17.118-20.981 21.354-7.424 3.919-14.358 4.433-19.526 1.449-5.169-2.984-8.19-9.247-8.509-17.635-.344-9.067 2.499-19.313 8.004-28.847s12.956-17.118 20.98-21.354c4.239-2.238 8.318-3.365 12.001-3.365 2.766 0 5.309.636 7.525 1.916 5.169 2.984 8.19 9.247 8.509 17.635.343 9.068-2.499 19.313-8.003 28.847zm109.559-93.383l-94.997 54.94c-1.927-6.695-5.706-11.871-11.068-14.967-7.636-4.409-17.317-3.946-27.261 1.302-9.341 4.931-17.926 13.606-24.174 24.43a74.389 74.389 0 00-3.213 6.221l-50.936 29.461v-27.881l85.057-60.638 196.648-113.631v41.746l-4.458 6.035a22.226 22.226 0 00-4.997-3.942c-15.386-8.883-37.978 2.42-51.435 25.731-6.104 10.575-9.119 21.537-9.166 31.193zm57.108-3.513c-10.842 18.777-29.39 29.221-40.508 22.804-11.115-6.418-11.347-27.704-.505-46.482 8.668-15.015 22.264-24.699 33.048-24.699 2.703 0 5.23.609 7.459 1.896 11.115 6.416 11.346 27.702.506 46.481z"/></svg>