<svg version="1.1" id="Capa_1" xmlns="http://www.w3.org/2000/svg" x="0" y="0" viewBox="0 0 472.375 472.375" xml:space="preserve"><path d="M220.885 351.796c-1.945-1.124-6.107-2.358-12.114 1.995-3.543 2.567-7.006 6.601-9.75 11.354-5.589 9.68-7.601 21.585-.63 25.61.902.521 2.282 1.066 4.102 1.066 2.103 0 4.792-.729 8.013-3.063 3.543-2.567 7.006-6.6 9.75-11.354 5.588-9.677 7.599-21.582.629-25.608zm-7.558 21.611c-4.411 7.638-9.694 10.752-10.9 10.447-.946-.936-.89-7.067 3.521-14.708 4.214-7.3 9.222-10.468 10.715-10.468a.75.75 0 01.186.021c.946.935.889 7.067-3.522 14.708zm202.636-137.429c-6.97-4.018-16.275 3.671-21.863 13.352-2.745 4.754-4.506 9.769-4.958 14.121-.767 7.38 2.383 10.365 4.328 11.488.902.521 2.282 1.066 4.102 1.066 2.103 0 4.792-.728 8.013-3.062 3.543-2.567 7.006-6.601 9.75-11.354 5.588-9.679 7.6-21.585.628-25.611zm-7.557 21.611c-4.409 7.639-9.659 10.747-10.901 10.447-.945-.936-.889-7.068 3.522-14.707 4.215-7.3 9.224-10.469 10.715-10.469a.75.75 0 01.186.021c.946.936.889 7.068-3.522 14.708z"/><path d="M471.221 162.737l-35.212-35.639a3.987 3.987 0 00-1.828-1.238L309.076 53.194a4 4 0 00-4.025.004L106.807 168.892a4.002 4.002 0 00-1.691 1.956l-23.344 57.738-80.48 57.495A4.005 4.005 0 000 289.026v53.824a4 4 0 002 3.464l126.231 72.872c.619.357 1.31.536 2 .536s2.146-.634 2.219-.683l43.776-25.432c1.536 7.466 5.323 13.213 10.998 16.49 3.337 1.927 7.034 2.843 10.901 2.843 12.84-.001 27.559-10.095 37.216-26.823 5.825-10.088 8.827-21.066 8.454-30.913-.008-.215-.028-.422-.039-.635l128.008-74.845c1.762 6.525 5.363 11.569 10.538 14.557 3.265 1.886 6.924 2.824 10.821 2.824 4.667 0 9.675-1.347 14.751-4.026 8.714-4.601 16.721-12.689 22.545-22.777 5.611-9.718 8.593-20.259 8.472-29.822l31.501-18.417a3.999 3.999 0 001.981-3.453v-53.061a3.992 3.992 0 00-1.152-2.812zm-233.312 85.571l38.129-22.289v35.792l-57.069 33.339 18.94-46.842zm46.129-26.965l71.654-41.886v35.821l-71.654 41.86v-35.795zm79.654-46.563l9.975-5.831v35.828l-9.975 5.827V174.78zm17.975-10.507l32.025-18.72 12.871 28.323-44.896 26.228v-35.831zm51.84 5.546l-12.872-28.325 11.632-6.799 22.458 22.729-21.218 12.395zM307.072 61.282l117.84 68.446L234.65 240.947l-118.354-68.33L307.072 61.282zM110.619 178.577l119.062 68.741-20.657 51.09-119.033-68.809 20.628-51.022zM85.12 236.024l118.617 68.568-73.726 52.561-118.29-68.793 73.399-52.336zm90.347 148.761l-41.235 24.126v-10.48l42.705-24.701c-.903 3.747-1.397 7.461-1.47 11.055zM8 295.45l11.855 6.895v25.343L8 320.793V295.45zm19.855 11.547l7.756 4.51v25.343l-7.756-4.51v-25.343zm15.756 9.163l47.143 27.416v25.343l-47.143-27.416V316.16zm55.143 32.069l7.755 4.51v25.343l-7.755-4.51v-25.343zm15.755 9.162l11.723 6.818v25.343l-11.723-6.817v-25.344zM8 340.54v-10.492l118.231 68.759v9.988L8 340.54zm220.414 41.577c-9.98 17.287-27.016 26.928-37.189 21.053-4.707-2.718-7.459-8.443-7.751-16.123-.316-8.36 2.307-17.811 7.388-26.61s11.953-15.798 19.352-19.703c3.891-2.054 7.63-3.089 10.999-3.089 2.516 0 4.826.577 6.839 1.739 4.707 2.718 7.459 8.443 7.751 16.123.315 8.36-2.308 17.81-7.389 26.61zM423.493 266.3c-5.081 8.8-11.953 15.797-19.352 19.702-6.795 3.587-13.129 4.068-17.838 1.35-4.707-2.718-7.459-8.443-7.751-16.123-.316-8.359 2.307-17.811 7.388-26.61s11.953-15.797 19.352-19.702c3.891-2.054 7.629-3.089 10.998-3.089 2.517 0 4.827.578 6.84 1.739 4.707 2.718 7.459 8.443 7.751 16.123.316 8.359-2.307 17.81-7.388 26.61zm40.882-49.986l-26.534 15.513c-1.695-6.835-5.368-12.104-10.711-15.188-7.174-4.145-16.257-3.717-25.572 1.202-8.715 4.6-16.721 12.689-22.545 22.777-5.753 9.965-8.747 20.795-8.46 30.547l-128.205 74.96c-1.841-6.099-5.357-10.818-10.297-13.67-7.173-4.144-16.257-3.715-25.572 1.202-8.715 4.601-16.721 12.689-22.545 22.778a69.257 69.257 0 00-2.955 5.714l-46.747 27.038v-25.22l78.787-56.168L460.53 163.298l3.846 3.892v49.124z"/><path d="M173.238 169.297l62.975 36.357a4.002 4.002 0 003.998.001l46.749-26.959a4 4 0 00.002-6.929l-62.976-36.357a3.999 3.999 0 00-3.998-.001l-46.748 26.959a4 4 0 00-.002 6.929zm48.747-25.804l54.973 31.737-38.744 22.343-54.972-31.737 38.743-22.343z"/></svg>