<svg height="512" viewBox="0 0 64 64" width="512" xmlns="http://www.w3.org/2000/svg"><g id="Cargo_Truck-3" data-name="Cargo Truck"><path d="M42 37h4v2h-4zM11 49h2v2h-2zm37 0h2v2h-2z"/><path d="M61.31 32.574l-4.863-9a2.986 2.986 0 00-2.5-1.555A13.008 13.008 0 0041 10h-1V9a1 1 0 00-1-1H3a1 1 0 00-1 1v40a2 2 0 002 2h2.09a5.993 5.993 0 0011.82 0h25.18a5.993 5.993 0 0011.82 0H59a3 3 0 003-3V35.108a4.959 4.959 0 00-.69-2.534zm-6.623-8.049L59.267 33H44v-9h9.807a1 1 0 01.88.525zM41 12a11.01 11.01 0 0110.949 10H40V12zM4 10h34v30H4zm8 44a4 4 0 114-4 4 4 0 01-4 4zm0-10a6.006 6.006 0 00-5.91 5H4v-7h34v7H17.91A6.006 6.006 0 0012 44zm37 10a4 4 0 114-4 4 4 0 01-4 4zm10-5h-4.09a5.993 5.993 0 00-11.82 0H40V24h2v10a1 1 0 001 1h16.985c0 .036.015.071.015.108V37h-4a2 2 0 00-2 2v2a2 2 0 002 2h4v2h-3v2h3v1a1 1 0 01-1 1zm1-10v2h-4v-2z"/></g></svg>