<svg version="1.1" id="Capa_1" xmlns="http://www.w3.org/2000/svg" x="0" y="0" viewBox="0 0 419.809 419.809" xml:space="preserve"><path d="M419.806 153.483a3.997 3.997 0 00-2-3.461l-41.464-23.944c12.583-18.004 26.169-37.43 29.824-42.389a4.004 4.004 0 00.777-2.21c1.661-40.678-33.293-53.276-33.646-53.398a4.008 4.008 0 00-1.604-.21l-101.587 7.452a44.873 44.873 0 00-17.443 4.995l-50.385 26.313a44.934 44.934 0 00-13.163 10.389s-67.518 77.295-67.942 77.626L79.69 130.693a3.998 3.998 0 00-4 0l-60.185 34.754c-1.237.714-1.769 2.054-2 3.464C12.158 177.158 0 248.991 0 249.872v67.656c0 1.429.762 2.75 2 3.464l121.981 70.422a3.99 3.99 0 001.997.535c.698 0 1.384-.197 1.998-.552l.006.01 39.695-22.915c.406 7.952 3.635 14.558 9.58 17.99 2.724 1.573 5.738 2.32 8.888 2.32 10.299 0 22.036-7.992 29.703-21.271 4.606-7.979 6.98-16.676 6.685-24.489a30.063 30.063 0 00-.762-5.768l63.634-36.393c.599 7.876 3.937 13.935 9.49 17.141 2.724 1.572 5.738 2.32 8.889 2.32 10.299 0 22.036-7.993 29.702-21.271 4.677-8.1 6.891-16.527 6.739-23.893 1.37 5.558 4.373 9.853 8.747 12.379 2.724 1.572 5.738 2.319 8.889 2.319 10.299 0 22.036-7.993 29.702-21.271 4.606-7.979 6.98-16.676 6.685-24.489a30.15 30.15 0 00-.727-5.605l7.383-4.261a4 4 0 002-3.464v-39.939l14.9-8.575a4.001 4.001 0 002.005-3.467v-25.322h-.003zm-276.671 88.361l52.316-30.199v63.962l-63.57 36.702 11.254-70.465zm60.316-15.106l61.964-11.009c5.628-1 10.949-3.03 15.815-6.035l56.435-34.844a44.988 44.988 0 0011.884-10.654c.826-1.06 4.463-6.21 9.646-13.6l26.836 15.406-182.58 105.084v-44.348zm190.603-65.355l-30.252-17.367c2.47-3.529 5.146-7.357 7.94-11.356l36.053 20.819-13.741 7.904zm-8.767-116.222c9.399 8.993 14.006 20.694 13.701 34.794-4.737 6.533-46.898 66.86-51.612 73.54 4.208-22.636.452-46.214-10.995-66.803-11.401-20.504-29.428-36.092-50.898-44.477l85.9-6.301c2.01.828 7.989 3.588 13.904 9.247zm-128.92 2.248a37.051 37.051 0 017.447-2.912l2.593.495c26.784 5.156 49.74 21.772 62.982 45.589 13.035 23.444 15.233 51.092 6.116 76.095a37.83 37.83 0 01-2.043 1.367l-52.795 32.597c8.364-25.17 6.418-52.462-5.781-76.531-13.387-26.412-37.203-45.161-65.798-52.009l47.279-24.691zm-57.111 30.829l3.826.737c28.142 5.419 51.712 23.188 64.668 48.75 12.553 24.768 13.314 53.246 2.19 78.552-1.921.682-66.268 12.335-66.268 12.335V204.59c0-1.429-.762-2.75-2-3.464l-12.886-7.44c-1.552-6.943-4.654-13.906-9.061-20.233a63.142 63.142 0 00-2.797-3.741c-4.317-5.342-9.289-9.818-14.777-13.303-8.306-5.273-17.082-7.756-25.043-7.394-.001 0 60.685-69.544 62.148-70.777zm-20.732 109.523l-49.574-28.625c7.757-3.966 18.621-2.505 28.913 4.027 4.752 3.018 9.073 6.913 12.831 11.563a55.15 55.15 0 012.451 3.277 52.902 52.902 0 015.379 9.758zM77.69 138.776l113.981 65.813-52.185 30.124L25.504 168.91l52.186-30.134zM20.918 175.5l114.184 65.92-11.629 72.808L8.819 248.035 20.918 175.5zm101.065 147.106v33.061L8 289.864V256.8l113.983 65.806zm-18.277 31.748v16.118l-76.193-43.988v-16.117l76.193 43.987zM8 299.102l11.512 6.646v16.116L8 315.218v-16.116zm103.706 75.988v-16.118l10.277 5.933v16.118l-10.277-5.933zm56.773-16.297l-38.496 22.222v-58.373l65.711-37.798v39.148a31.58 31.58 0 00-3.454 1.562c-6.915 3.65-13.26 10.054-17.866 18.033-2.918 5.055-4.871 10.235-5.895 15.206zm40.441 4.74c-7.51 13.006-20.176 20.345-27.663 16.023-7.485-4.322-7.465-18.961.044-31.968 3.863-6.69 9.074-12.003 14.673-14.958 2.891-1.526 5.653-2.295 8.122-2.295 1.799 0 3.443.409 4.868 1.231 3.38 1.951 5.359 6.135 5.574 11.782.24 6.326-1.755 13.495-5.618 20.185zm117.638-68.46c-7.51 13.008-20.18 20.344-27.663 16.023-3.38-1.952-5.358-6.136-5.573-11.782-.239-6.327 1.756-13.496 5.618-20.187 7.511-13.007 20.182-20.341 27.663-16.023 7.485 4.322 7.464 18.962-.045 31.969zm54.077-30.466c-7.51 13.008-20.18 20.346-27.663 16.023-3.38-1.951-5.359-6.135-5.573-11.782-.24-6.326 1.756-13.495 5.618-20.186 3.863-6.69 9.074-12.003 14.673-14.959 2.891-1.526 5.652-2.295 8.122-2.295 1.799 0 3.442.409 4.867 1.231 3.38 1.951 5.359 6.135 5.574 11.782.24 6.327-1.755 13.496-5.618 20.186zm14.269-36.13l-4.514 2.605c-1.503-2.227-3.415-4.046-5.71-5.371-5.848-3.377-13.208-3.05-20.724.917-6.915 3.65-13.26 10.055-17.866 18.034-2.878 4.985-4.885 10.251-5.913 15.406l-3.501 2.021c-1.535-2.444-3.561-4.462-6.072-5.912-11.629-6.713-28.58 1.611-38.591 18.951-3.031 5.251-5.089 10.812-6.062 16.228l-67.36 38.524c-1.49-2.169-3.374-3.942-5.626-5.242-2.793-1.613-5.934-2.371-9.271-2.301v-16.841l191.21-110.044v33.025zm-191.21 67.789v-15.949L396.05 169.463l15.759-9.064v16.093L203.694 296.266z"/></svg>