<svg version="1.1" id="Capa_1" xmlns="http://www.w3.org/2000/svg" x="0" y="0" viewBox="0 0 471.138 471.138" xml:space="preserve"><path d="M471.001 112.968a4 4 0 00-3.863-2.963h-49.043V99.311h-.001a4 4 0 00-2-3.463l-107.386-62a3.998 3.998 0 00-4 0L81.046 162.987a4 4 0 00-2 3.464v33.969l-65.139 37.119c-1.056.602-1.966 2.821-1.966 2.821L.223 310.991A3.97 3.97 0 000 312.282v59.556c0 1.429.762 2.75 2 3.464l107.375 61.989a3.99 3.99 0 001.997.535c.688 0 1.979-.525 1.979-.525l48.457-27.524c.521 6.842 3.428 12.51 8.623 15.509 2.468 1.425 5.2 2.103 8.051 2.103 9.241 0 19.736-7.117 26.574-18.96 5.348-9.263 7.07-19.016 5.357-26.656l88.245-50.943c.687 6.466 3.563 11.797 8.545 14.673 2.468 1.425 5.199 2.103 8.051 2.103 9.24 0 19.735-7.117 26.573-18.96 3.571-6.186 5.522-12.589 5.917-18.437 1.452 3.709 3.844 6.619 7.061 8.476 2.432 1.404 5.147 2.104 8.029 2.104 3.394 0 7.018-.97 10.677-2.902 6.166-3.254 11.819-8.957 15.918-16.058 4.1-7.101 6.212-14.848 5.948-21.814a27.325 27.325 0 00-.576-4.677l6.196-3.577a4 4 0 002-3.464v-34l13.097-7.561a4 4 0 002-3.464v-76.273l51.046-29.53a4.003 4.003 0 001.861-4.501zM306.708 41.931l99.386 57.381-215.672 124.509-99.375-57.37 215.661-124.52zm103.387 64.308v3.766h-6.524l6.524-3.766zm-23.784 84.7L222.14 285.697v-68.749h73.964c.703 0 1.395-.186 2.003-.538l88.204-51.026v25.555zm0 9.222v13.036L222.14 307.961v-13.026l164.171-94.774zM87.046 173.379l99.374 57.37v27.088l-99.374-57.379v-27.079zm-4.033 33.988l99.349 57.364-59.085 33.661-99.349-57.355 59.085-33.67zm59.67 89.177v55.069L117.2 366.325l9.71-60.796 15.773-8.985zM18.889 247.365l99.991 57.726-2.321 14.532-100.073-57.774 2.403-14.484zm8.04 133.091L8 369.528v-9.788l18.929 10.93v9.786zm26.641 15.38l-18.642-10.762v-33.471l18.642 10.762v33.471zm26.879 15.518L61.57 400.455v-33.471l18.878 10.899v33.471zm26.928 15.546l-18.929-10.928v-9.793l18.929 10.93v9.791zm0-19.029l-18.929-10.93v-21.369a4 4 0 00-2-3.464l-53.52-30.897a3.998 3.998 0 00-6 3.464v16.757L8 350.503V319.21l99.377 57.374v31.287zm1.428-39.701L8.457 310.237l6.63-39.958 100.121 57.801-6.403 40.09zm53.719 31.999l-47.146 26.78v-50.334l33.306-19.229a3.998 3.998 0 002-3.464v-61.936l35.737-20.36.002 97.882c-6.909 2.719-13.761 8.803-18.703 17.362-2.55 4.416-4.273 8.942-5.196 13.299zm35.605 4.258c-6.48 11.225-17.331 17.603-23.697 13.93-6.364-3.675-6.266-16.262.215-27.486 5.235-9.066 13.32-14.971 19.59-14.971 1.492 0 2.883.335 4.106 1.041 6.364 3.675 6.266 16.262-.214 27.486zm52.373-55.035l-43.315 25.005a15.644 15.644 0 00-4.844-4.384c-2.43-1.403-5.118-2.072-7.921-2.093v-13.216l56.08-32.375v27.063zm84.398-24.748c-6.481 11.224-17.334 17.602-23.696 13.93-6.364-3.675-6.266-16.262.214-27.486 6.481-11.225 17.329-17.604 23.696-13.93 6.365 3.675 6.266 16.262-.214 27.486zm47.602-26.817c-3.355 5.813-7.875 10.423-12.725 12.983-2.46 1.299-7.156 3.147-10.972.945s-4.562-7.194-4.667-9.975c-.208-5.48 1.526-11.699 4.882-17.512s7.875-10.423 12.725-12.983c1.634-.862 4.254-1.968 6.947-1.968 1.362 0 2.743.283 4.024 1.022 3.814 2.202 4.562 7.194 4.667 9.975.208 5.482-1.526 11.7-4.881 17.513zm12.496-31.842l-3.347 1.932a15.658 15.658 0 00-4.934-4.505c-5.294-3.058-11.938-2.774-18.706.799-6.166 3.254-11.819 8.957-15.918 16.058-2.519 4.363-4.28 8.969-5.208 13.489l-2.518 1.453c-1.359-2.043-3.107-3.742-5.253-4.981-10.464-6.041-25.676 1.359-34.624 16.857-2.734 4.736-4.517 9.6-5.381 14.245l-40.607 23.442v-27.063l136.496-78.798v27.072zm15.097-45.024L194.422 345.467l-.002-114.717 19.72-11.384v95.522a4 4 0 006 3.464l172.171-99.382a4 4 0 002-3.464v-54.75l15.784-9.131v69.336zM295.03 208.948h-62.845l157.528-90.942h62.522L295.03 208.948z"/></svg>