<svg version="1.1" id="Capa_1" xmlns="http://www.w3.org/2000/svg" x="0" y="0" viewBox="0 0 455.061 455.061" xml:space="preserve"><path d="M249.152 241.769a3.998 3.998 0 00-4 0l-89.513 51.669a4 4 0 00-1.929 2.712l-9.585 50.071a4.002 4.002 0 005.925 4.218l99.098-57.085a4 4 0 002.003-3.466v-44.655a3.995 3.995 0 00-1.999-3.464zm-87.927 57.682l36.508-21.073v35.362l-44.107 25.408 7.599-39.697zm81.927-11.876l-37.42 21.556V273.76l37.42-21.6v35.415zM428.02 147.896a3.998 3.998 0 00-4 0l-67.1 38.74a4 4 0 00-2 3.464v44.867a4 4 0 006 3.464l67.1-38.74a4 4 0 002-3.464V151.36c0-1.428-.763-2.75-2-3.464zm-30.855 24.743l9.204-5.314v35.629l-9.204 5.314v-35.629zm-8 40.247l-9.205 5.315v-35.629l9.205-5.315v35.629zM362.92 192.41l9.04-5.219v35.629l-9.04 5.219V192.41zm59.1 1.508l-7.65 4.417v-35.629l7.65-4.417v35.629zm-109.058 45.325a3.998 3.998 0 00-4 0l-27.215 15.712a4 4 0 00-2 3.464v18.197a4 4 0 006 3.464l27.215-15.712a4 4 0 002-3.464v-18.197a4 4 0 00-2-3.464zm-6 19.352l-19.215 11.094v-8.96l19.215-11.094v8.96z"/><path d="M455.061 107.234a4 4 0 00-2-3.464L327.146 31.079a3.998 3.998 0 00-4 0l-121.478 70.132a4 4 0 00-2 3.464v24.99l-36.608 21.134-21.428-12.371a3.998 3.998 0 00-4 0L16.155 208.561c-2.189 1.099-2.129 2.675-2.129 2.675L.311 276.441A3.99 3.99 0 000 277.985v69.84a4 4 0 002 3.464l125.916 72.693a3.99 3.99 0 001.997.535c.698 0 1.384-.197 1.998-.552l.006.01 41.158-23.759c.369 8.259 3.685 15.125 9.836 18.676 2.793 1.612 5.883 2.379 9.114 2.379 10.584 0 22.655-8.229 30.545-21.894 4.744-8.216 7.188-17.169 6.884-25.21a30.889 30.889 0 00-.806-6.038l104.866-60.537c.571 7.84 3.868 14.324 9.786 17.74 2.792 1.612 5.883 2.379 9.113 2.379 10.584 0 22.655-8.229 30.546-21.894 4.743-8.216 7.188-17.169 6.883-25.21a34.997 34.997 0 00-.081-1.317c1.155 6.623 4.392 11.725 9.36 14.593 2.742 1.584 5.81 2.372 9.07 2.372 3.869 0 8.009-1.11 12.197-3.321 7.116-3.757 13.648-10.351 18.392-18.566 6.246-10.818 8.222-22.196 6.153-31.017l8.063-4.457a4.002 4.002 0 002.064-3.501c.001.002.001-127.981.001-128.159zM297.094 55.357l40.423 23.34-54.132 31.252-40.429-23.337 54.138-31.255zM234.956 91.23l46.429 26.802a4.002 4.002 0 004 0l62.132-35.871a4 4 0 000-6.928l-42.423-24.495 20.052-11.577 117.915 68.072-113.477 65.513-117.916-68.072 23.288-13.444zm34.674 152.183l55.587-32.089v65.323l-55.587 32.09v-65.324zm-61.962-131.811l117.552 67.863v18.005s-116.685-67.361-117.552-67.855v-18.013zm-3.951 24.963l117.5 67.832-51.586 29.779v-19.24h-.106c.01-.116.023-.232.023-.351a4 4 0 00-2-3.464l-96.487-55.703 32.656-18.853zM63.07 196.392l25.224 14.562v6.599L63.07 202.991v-6.599zm33.224 19.18l12.559 7.25v6.599l-12.559-7.25v-6.599zm20.559 11.868l29.783 17.194v6.598l-29.783-17.194v-6.598zm37.783 17.194l19.598-11.316v6.671l-19.598 11.315v-6.67zm-4-6.928l-29.792-17.199 19.538-11.283 29.789 17.202-19.535 11.28zm-37.792-21.817l-12.703-7.333 19.541-11.285 12.702 7.335-19.54 11.283zm-20.703-11.952l-25.135-14.51 19.542-11.289 25.136 14.514-19.543 11.285zm-37.071-8.606v9.97a4 4 0 002 3.464l91.628 52.896a4.002 4.002 0 004 0l27.535-15.898c1.237-.715 1.929-2.035 1.929-3.464v-15.995a3.995 3.995 0 00-1.992-3.342L93.699 173.03l45.933-26.518 117.915 68.073-113.477 65.513-117.915-68.074 28.915-16.693zm43.629 202.547l-64.576-37.281v-31.664l64.576 37.28v31.665zm6-37.439l-72.576-41.898a3.998 3.998 0 00-6 3.464v10.218L8 321.762v-36.849l117.918 68.079v36.837l-19.219-11.091v-14.835a4 4 0 00-2-3.464zm-96.123-84.43l8.113-38.571 52.644 30.392-7.842 38.729-52.915-30.55zm118.569 68.454L68.8 310.778l7.842-38.729 58.653 33.861-8.15 38.553zm9.891-46.784L18.422 229.201l2.327-11.061 118.625 68.484-2.338 11.055zM8 330.998l18.123 10.461v14.519L8 345.516v-14.518zm98.699 71.498v-14.522l19.219 11.091v14.526l-19.219-11.095zm108.944-7.117c-7.788 13.486-20.947 21.083-28.731 16.587-7.787-4.496-7.787-19.688-.001-33.176 4-6.927 9.396-12.429 15.198-15.49 5.199-2.744 10.006-3.133 13.533-1.097 3.529 2.038 5.595 6.395 5.817 12.269.249 6.554-1.816 13.979-5.816 20.907zm160.388-93.56c-7.787 13.487-20.944 21.084-28.731 16.587-7.787-4.496-7.788-19.688-.002-33.176 7.787-13.486 20.947-21.084 28.732-16.587 3.528 2.037 5.595 6.395 5.817 12.269.249 6.555-1.817 13.98-5.816 20.907zm55.822-31.449c-4 6.928-9.397 12.429-15.198 15.491-5.199 2.744-10.006 3.134-13.533 1.097-3.529-2.038-5.595-6.395-5.818-12.27-.248-6.555 1.817-13.979 5.816-20.906 7.787-13.486 20.948-21.086 28.732-16.588 7.787 4.496 7.787 19.69.001 33.176zm9.962-34.435c-1.542-2.327-3.527-4.261-5.964-5.668-11.94-6.893-29.361 1.678-39.66 19.516-2.975 5.152-5.044 10.594-6.1 15.92l-3.778 2.18c-1.598-2.589-3.707-4.679-6.284-6.166-11.941-6.894-29.36 1.677-39.66 19.515-3.23 5.595-5.319 11.34-6.298 16.805l-108.609 62.698c-1.536-2.261-3.485-4.109-5.821-5.458-5.996-3.463-13.548-3.124-21.269.949-7.116 3.757-13.647 10.351-18.391 18.565-3.016 5.224-5.031 10.579-6.083 15.714l-39.982 23.08v-62.486l13.462-63.674 114.25-65.959v94.199a4.002 4.002 0 006 3.464l63.587-36.708a4 4 0 002-3.464v-74.514c0-.015.003-.029.003-.044v-24.513l113.841-65.724v118.873l-5.244 2.9z"/></svg>