<svg version="1.1" id="Capa_1" xmlns="http://www.w3.org/2000/svg" x="0" y="0" viewBox="0 0 477 477" xml:space="preserve"><path d="M476.987 193.226l-3.867-47.439v-34.901c0-.017.003-.034.003-.052a4 4 0 00-2-3.464l-84.82-48.98a3.998 3.998 0 00-4.003.001l-42.236 24.427-20.179-11.653a3.998 3.998 0 00-4.003.001l-93.266 53.942a3.991 3.991 0 00-.125 6.842L35.988 239.811a3.998 3.998 0 00-1.997 3.463v51.656L7.3 310.372a3.996 3.996 0 00-1.967 3.018H5.33L.026 360.412a3.997 3.997 0 001.994 3.923l11.351 6.471c-3.789 4.194-3.873 11.849.18 18.87 2.094 3.627 5.011 6.556 8.213 8.246 1.987 1.049 4.019 1.575 5.946 1.575 1.709 0 3.336-.414 4.777-1.246 4.271-2.467 5.898-7.938 4.663-13.889l60.094 34.259a3.993 3.993 0 004.021-.035l38.245-22.674c1.223 2.214 2.909 4.002 4.989 5.201 2.038 1.177 4.306 1.763 6.706 1.763 2.788 0 5.753-.791 8.739-2.366 4.958-2.616 9.496-7.188 12.773-12.871 1.94-3.351 3.329-6.924 4.095-10.448a12.958 12.958 0 003.726 3.265c2.015 1.166 4.283 1.755 6.699 1.755 1.394 0 2.836-.196 4.308-.59 6.497-1.737 12.937-7.211 17.228-14.644 2.171-3.766 3.628-7.763 4.314-11.659a12.9 12.9 0 003.495 2.977c2.015 1.166 4.283 1.755 6.699 1.755 1.393 0 2.836-.196 4.308-.589 6.496-1.737 12.936-7.211 17.229-14.646 2.608-4.531 4.216-9.451 4.651-14.092l88.338-52.372c1.181 1.927 2.736 3.489 4.644 4.594 2.056 1.188 4.329 1.751 6.697 1.751 7.532 0 16.025-5.704 21.532-15.229 1.961-3.398 3.331-6.943 4.086-10.458 1.044 1.337 2.288 2.456 3.727 3.282 2.035 1.175 4.301 1.761 6.699 1.761 2.791 0 5.761-.793 8.751-2.373 4.959-2.618 9.498-7.191 12.778-12.874 2.159-3.736 3.624-7.741 4.317-11.648a12.996 12.996 0 003.499 2.976c2.054 1.185 4.325 1.748 6.692 1.748 7.536 0 16.036-5.71 21.548-15.243 2.468-4.293 4.015-8.818 4.547-13.215l27.718-16.433a4 4 0 001.945-3.764zm-175.13-16.018a3.98 3.98 0 002.573.478v2.558L105.894 294.863v-12.382l189.113-109.178 6.85 3.905zM388.3 94.653V68.781l35.191 20.321v25.872L388.3 94.653zm-3.996 6.93l46.416 26.803-41.04 23.694v-23.29l9-5.195a4 4 0 000-6.928l-20.246-11.692 5.87-3.392zm-2.624 55.116l-69.25 39.991v-23.306l69.25-39.975v23.29zm-77.25 53.846v11.248L251 252.64v-11.248l53.43-30.847zm8-4.619l50.087-28.917v11.248l-50.087 28.917v-11.248zm58.087-33.544l11.163-6.445v11.257l-11.163 6.445v-11.257zM97.894 294.868L41.99 262.595v-12.393l55.904 32.283v12.383zM41.99 271.832l55.904 32.273v32.312L41.99 304.135v-32.303zm63.904 32.269L304.43 189.482v11.827L122.503 306.34a4 4 0 104 6.928L172 287.001v11.247l-66.106 38.165v-32.312zM180 282.382l63-36.372v11.248l-63 36.372v-11.248zm63-15.886v5.385l-63 36.374v-5.387l63-36.372zm8-4.619l53.43-30.847v5.383L251 267.261v-5.384zm61.43-35.465l50.087-28.917v5.381l-50.087 28.918v-5.382zm58.087-33.535l17.163-9.909a3.998 3.998 0 002-3.464v-18.186l34.174-19.73v25.874l-53.337 30.795v-5.38zm61.337-55.908l6.866-3.964 22.405 12.938-29.271 16.9v-25.874zm14.865-8.581l18.401-10.624v21.249l-18.401-10.625zm-8-4.62l-7.228-4.174V93.722l29.633 17.112-22.405 12.934zM380.3 68.79v25.868l-9.862 5.699-22.377-12.922L380.3 68.79zm-62.413 10.458l70.793 40.882-84.862 48.988-71.166-40.573 85.235-49.297zm-87.358 57.296l56.429 32.169-185.067 106.842-55.906-32.284 184.544-106.727zM33.99 304.172v2.272a4 4 0 002 3.464l63.9 36.899a4.002 4.002 0 004 0L172 307.486v5.387l-78.187 45.142-76.517-44.184 16.694-9.659zm-21.396 16.181l77.449 44.722 4.404 42.744-52.838-30.123 5.46-3.121a4 4 0 10-3.97-6.945l-9.562 5.465L8.27 358.691l4.324-38.338zm15.891 70.97c-.614.354-1.759.172-2.988-.477-1.859-.981-3.689-2.866-5.02-5.171-2.674-4.631-2.304-8.941-.888-9.759.218-.126.494-.189.816-.189 1.775 0 4.929 1.917 7.192 5.837 2.675 4.631 2.306 8.941.888 9.759zm137.304-7.685c-2.5 4.333-5.991 7.904-9.58 9.797-1.759.929-5.099 2.26-7.713.751-.975-.562-1.647-1.421-2.116-2.346l21.571-12.788a30.057 30.057 0 01-2.162 4.586zm36.052-20.657c-3.203 5.549-7.941 9.73-12.364 10.913-1.956.524-3.614.402-4.937-.362-1.166-.674-1.9-1.762-2.372-2.909l22.141-13.126a29.961 29.961 0 01-2.468 5.484zm36.043-22.16c-3.203 5.549-7.94 9.729-12.364 10.913-1.957.521-3.616.4-4.937-.363-.956-.552-1.622-1.386-2.09-2.284l21.505-12.749a30.351 30.351 0 01-2.114 4.483zm125.866-75.353c-5.248 9.075-13.327 12.847-17.298 10.554-.762-.441-1.33-1.067-1.766-1.749l20.794-12.328a30.434 30.434 0 01-1.73 3.523zm36.041-20.663c-2.5 4.332-5.995 7.904-9.586 9.801-1.76.931-5.104 2.268-7.723.753-.947-.543-1.608-1.37-2.073-2.264l21.49-12.74a30.371 30.371 0 01-2.108 4.45zm36.053-22.161c-5.25 9.08-13.336 12.852-17.31 10.563-.743-.43-1.3-1.033-1.73-1.689l20.717-12.282a30.53 30.53 0 01-1.677 3.408zM102.562 408.517l-4.504-43.715 367.588-212.231 3.164 38.814-366.248 217.132z"/></svg>