<svg version="1.1" id="Capa_1" xmlns="http://www.w3.org/2000/svg" x="0" y="0" viewBox="0 0 457.79 457.79" xml:space="preserve"><path d="M455.782 108.209l.006-.011-121.996-70.36a3.931 3.931 0 00-.899-.381L275.71 21.118a3.993 3.993 0 00-3.733.131L75.713 134.571a3.998 3.998 0 00-2 3.464v38.922L15.505 210.57a3.998 3.998 0 00-1.939 2.807l-.006-.001-13.505 80.96.006.001a3.984 3.984 0 00-.061.657v67.657c0 1.429.762 2.75 2 3.464l121.981 70.421a3.998 3.998 0 001.999.535c.694 0 1.382-.19 1.999-.546l.003.006 39.732-22.936c.412 8.299 3.788 14.689 9.544 18.012 2.724 1.572 5.738 2.319 8.888 2.319 10.298 0 22.036-7.993 29.702-21.271 6.1-10.565 8.005-21.683 5.939-30.281l101.323-58.492c.597 7.548 3.804 13.787 9.523 17.088 2.724 1.573 5.738 2.32 8.889 2.32 10.298 0 22.036-7.993 29.702-21.271 4.514-7.818 6.877-16.323 6.692-24.013 1.339 5.459 4.283 9.893 8.793 12.498 2.676 1.545 5.669 2.315 8.85 2.315 3.768 0 7.799-1.081 11.875-3.233 6.915-3.65 13.26-10.054 17.866-18.033 4.607-7.979 6.98-16.676 6.685-24.489a30.15 30.15 0 00-.727-5.605l7.383-4.262a3.998 3.998 0 002-3.464v-38.938l15.148-8.745a4 4 0 002-3.464v-90.923a3.989 3.989 0 00-2.007-3.454zm-32.157-9.326l-26.103-7.459-93.203-53.812 25.903 7.401 93.403 53.87zM273.977 29.332l113.992 65.814-46.953 27.106-113.993-65.81 46.954-27.11zm-1.655 273.398V171.147l64.737-37.373v131.583l-64.737 37.373zM151.445 413.749l-21.462 12.39v-12.623l21.462-12.392v12.625zM20.501 220.382l115.104 66.452-12.098 72.537L8.402 292.916l12.099-72.534zm82.995 136.673v17.775l-77.98-45.02v-17.775l77.98 45.02zm8 4.619l10.487 6.055v17.775l-10.487-6.055v-17.775zm-93.98-54.258v17.775L8 319.698v-17.775l9.516 5.493zM8 328.936l113.983 65.806v9.261L8 338.197v-9.261zm135.753-42.325l51.941-29.984v63.962l-63.746 36.803 11.805-70.781zm.022-64.555l-34.55 19.95-26.478-15.282 34.56-19.951 26.468 15.283zm-62.062-45.073v-32.021l113.981 65.803v32.031L81.713 176.983zm121.981 33.783l60.628-35v131.583l-60.628 35.001V210.766zm64.672-46.573L154.38 98.386l64.643-37.325 113.992 65.809-64.649 37.323zM146.38 103.006l113.986 65.806-60.672 35.026-113.981-65.803 60.667-35.029zm-68.69 80.892l31.617 18.256-36.561 21.107a4 4 0 000 6.928l34.48 19.9a4 4 0 004 0l40.548-23.414 39.897 23.037-52.185 30.124-113.982-65.803 52.186-30.135zM8 360.341v-12.906l113.983 65.806v12.904L8 360.341zm160.508 43.558l-9.063 5.232v-14.936a3.998 3.998 0 00-6-3.464l-23.462 13.547v-36.514l65.711-37.937v39.244c-7.848 2.972-15.684 9.877-21.32 19.64-2.838 4.915-4.825 10.102-5.866 15.188zm40.412 4.757c-7.51 13.007-20.179 20.347-27.663 16.023-3.38-1.951-5.359-6.135-5.574-11.782-.24-6.327 1.755-13.496 5.618-20.186 6.045-10.47 15.431-17.266 22.767-17.266 1.778 0 3.436.399 4.896 1.242 7.486 4.322 7.465 18.962-.044 31.969zm155.375-90.636c-7.51 13.007-20.179 20.343-27.663 16.023-7.485-4.322-7.464-18.961.045-31.968 3.863-6.69 9.074-12.003 14.673-14.958 2.891-1.526 5.652-2.295 8.122-2.295 1.799 0 3.443.409 4.868 1.231 3.38 1.951 5.359 6.135 5.573 11.781.24 6.327-1.755 13.496-5.618 20.186zm54.077-30.465c-3.863 6.69-9.074 12.003-14.673 14.958-4.997 2.638-9.61 3.015-12.99 1.064-7.485-4.322-7.464-18.961.045-31.968 3.863-6.69 9.074-12.003 14.673-14.958 2.891-1.526 5.652-2.295 8.122-2.295 1.799 0 3.443.409 4.868 1.231 3.38 1.951 5.359 6.135 5.573 11.781.24 6.327-1.755 13.496-5.618 20.187zm14.269-36.131l-4.514 2.606c-1.503-2.227-3.415-4.046-5.711-5.371-5.848-3.376-13.208-3.051-20.725.917-6.915 3.65-13.259 10.054-17.866 18.033-2.96 5.127-4.926 10.383-5.938 15.42l-3.482 2.01c-1.551-2.477-3.585-4.483-6.066-5.915-5.847-3.377-13.208-3.05-20.725.917-6.915 3.65-13.259 10.054-17.866 18.033-3.125 5.412-5.151 10.971-6.106 16.262L218.58 374.987c-1.474-2.136-3.345-3.916-5.617-5.228-2.833-1.635-5.984-2.372-9.271-2.31v-15.862l228.947-132.174v32.011zm17.149-51.148l-104.731 60.462V129.156l51.448-29.701 53.283 15.225v85.596z"/></svg>