<svg version="1.1" id="Capa_1" xmlns="http://www.w3.org/2000/svg" x="0" y="0" viewBox="0 0 474.375 474.375" xml:space="preserve"><path d="M472.376 169.414l-13.962-8.065c6.33-6.439 9.979-15.974 10.421-27.651.545-14.402-3.867-30.494-12.422-45.309-8.55-14.818-20.279-26.685-33.027-33.415-13.27-7.004-26.139-7.692-36.261-1.942-.063.032-46.849 27.057-46.849 27.057l-5.529-3.193a4 4 0 00-3.98-.011l-31.491 17.946a4 4 0 00-.02 6.94l1.739 1.004-39.745 22.953-4.947-2.856a4 4 0 00-3.98-.011l-31.492 17.946a4 4 0 00-.02 6.94l1.162.671-39.54 22.839-4.13-2.385a4 4 0 00-3.98-.011l-31.492 17.946a4 4 0 00-.02 6.94l.337.194-35.784 20.652c-10.445 6.032-16.404 18.435-16.641 33.954l-22.427-12.95a4 4 0 00-3.98-.011l-52.923 30.159a3.996 3.996 0 00-1.96 2.821L.198 324.185A3.935 3.935 0 000 325.397v46.946a4 4 0 002 3.464l84.642 48.863a4.002 4.002 0 004 0l37.066-21.057c.695 5.266 3.153 9.338 7.062 11.594 2.05 1.184 4.334 1.774 6.75 1.774 2.811 0 5.802-.798 8.813-2.388 4.999-2.639 9.576-7.25 12.886-12.983 3.311-5.733 5.016-12.002 4.802-17.651a22.45 22.45 0 00-.396-3.339l52.498-30.309c.776 4.85 3.119 8.84 6.984 11.071 2.051 1.184 4.334 1.773 6.751 1.773 2.811 0 5.802-.798 8.813-2.388 5-2.639 9.576-7.25 12.886-12.983 3.311-5.733 5.016-12.002 4.802-17.652-.017-.44-.071-.855-.11-1.281l4.615-2.664a4 4 0 002.001-3.464V295.29l25.775 14.88a4 4 0 003.791.112 9526 9526 0 008.999-5.105c1.176 3.422 3.263 6.112 6.165 7.787 2.071 1.196 4.362 1.765 6.749 1.765 7.593 0 16.154-5.755 21.701-15.362 2.263-3.92 3.755-8.086 4.417-12.137 1.185 1.914 2.734 3.485 4.656 4.595 2.051 1.184 4.334 1.774 6.751 1.774 2.811 0 5.802-.798 8.813-2.388 4.999-2.639 9.575-7.25 12.885-12.983 2.166-3.751 3.629-7.73 4.333-11.616 1.051 1.349 2.308 2.491 3.795 3.349 2.051 1.184 4.334 1.774 6.751 1.774 2.811 0 5.802-.798 8.813-2.388 5-2.639 9.576-7.25 12.886-12.983 2.323-4.023 3.788-8.164 4.437-12.104 1.182 1.899 2.725 3.458 4.636 4.562 2.051 1.184 4.334 1.774 6.751 1.774 2.811 0 5.802-.798 8.813-2.388 4.999-2.639 9.575-7.25 12.885-12.983 3.311-5.733 5.016-12.002 4.802-17.651a22.511 22.511 0 00-.372-3.212l4.379-2.528a4.002 4.002 0 002-3.464v-26.322l9.895-5.704a4 4 0 00.005-6.93zM154.951 350.096v-18.617c.814.055 1.623.09 2.423.09 5.551 0 10.743-1.328 15.255-3.932l.059-.037-.008.04 278.819-161.05 10.874 6.282-307.422 177.224zM332.734 84.972l42.339 24.447-23.438 13.353-42.34-24.443 23.439-13.357zm-78.444 45.974l42.339 24.447-23.438 13.353-42.34-24.443 23.439-13.357zm-78 46l42.339 24.447-23.439 13.353-42.34-24.443 23.44-13.357zm16.887 45.876a4 4 0 003.98.012l31.492-17.941a4 4 0 00.02-6.94l-38.237-22.079 39.541-22.84 41.205 23.788a4.002 4.002 0 003.98.012l31.492-17.941a4 4 0 00.02-6.94l-37.421-21.607 39.746-22.953 40.627 23.455a4.002 4.002 0 003.98.012l31.492-17.941a4 4 0 00.02-6.94l-36.839-21.271 42.674-24.646c7.682-4.435 17.874-3.728 28.703 1.987 11.432 6.034 22.026 16.809 29.833 30.339 15.79 27.344 15.218 57.34-1.277 66.866l-261.77 151.202c1.638-4.517 2.596-9.632 2.813-15.242.557-14.343-3.808-30.373-12.291-45.148a5.322 5.322 0 00-.123-.22c-8.554-14.817-20.286-26.683-33.034-33.412-4.961-2.619-9.865-4.351-14.591-5.197l21.936-12.678 42.029 24.263zm-81.814-1.301c16.493-9.522 42.757 4.979 58.526 32.292l.005.01c.024.046.05.092.076.138 15.716 27.304 15.114 57.248-1.341 66.75-3.968 2.29-8.562 3.21-13.678 2.753v-35.53h-.017c0-1.429-.761-2.75-1.999-3.464l-54.103-31.24c-.951-14.818 3.65-26.58 12.531-31.709zm-45.082 22.151l76.614 44.238-44.87 25.563-76.614-44.231 44.87-25.57zm-2.866 158.353l-34.188-19.737v-14.952l34.188 19.737v14.952zm6-20.726l-42.188-24.355a3.998 3.998 0 00-6 3.464v.165L8 352.618v-20.294l76.642 44.248-.001 21.128-13.226-7.956v-4.982a4 4 0 00-2-3.463zm22.669-51.464l-77.311-44.632 1.598-9.632 77.256 44.601-1.543 9.663zm-1.351 8.458l-4.761 29.81-77.528-44.759 4.93-29.711 77.359 44.66zm10.926-17.684l10.813-6.161v41.462l-18.123 10.463 7.31-45.764zM8 361.954l13.227 7.955v7.761L8 370.033v-8.079zm63.415 44.69v-7.562l13.226 7.955v7.242l-13.226-7.635zm60.906-22.875c-1.928 3.34-3.293 6.86-4.07 10.335L92.642 414.33v-37.733l25.83-14.913a3.998 3.998 0 002-3.464v-48.33l26.479-15.085v75.153a23.86 23.86 0 00-1.744.826c-4.999 2.64-9.576 7.252-12.886 12.985zm23.971 13.84c-2.53 4.381-6.063 7.992-9.692 9.909-1.786.942-5.176 2.294-7.83.761-2.655-1.532-3.18-5.144-3.256-7.161-.156-4.102 1.206-8.968 3.735-13.349s6.062-7.992 9.692-9.909c1.202-.634 3.131-1.455 5.075-1.455.942 0 1.888.193 2.755.693 2.655 1.533 3.18 5.145 3.256 7.162.156 4.103-1.206 8.968-3.735 13.349zm4.479-27.437c-1.784-1.03-3.748-1.603-5.82-1.736v-9.106l42.512-24.507v19.333l-33.104 19.112c-1.011-1.236-2.196-2.293-3.588-3.096zm87.859-26.388c-2.529 4.381-6.062 7.993-9.692 9.909-1.784.942-5.174 2.294-7.83.761-4.03-2.327-4.825-11.323.479-20.51 2.529-4.381 6.062-7.992 9.691-9.909 1.202-.634 3.132-1.455 5.075-1.455.942 0 1.888.193 2.755.694 2.654 1.532 3.18 5.144 3.256 7.161.157 4.103-1.205 8.968-3.734 13.349zm4.479-27.438c-4.435-2.561-9.963-2.343-15.564.614-5 2.639-9.576 7.25-12.886 12.983-2.096 3.63-3.477 7.352-4.209 10.94l-14.989 8.653V330.21l53.403-30.786v20.988l-1.051.607c-1.189-1.949-2.755-3.548-4.704-4.673zm21.349-25.91l16.184-9.33v18.674l-16.184-9.344zm58.66 4.932c-5.305 9.187-13.49 12.996-17.522 10.67-2.654-1.533-3.18-5.145-3.256-7.162-.155-4.102 1.206-8.967 3.735-13.348s6.062-7.993 9.692-9.909c1.201-.634 3.131-1.455 5.074-1.455.942 0 1.888.193 2.755.694 2.655 1.533 3.18 5.145 3.256 7.161.157 4.103-1.205 8.968-3.734 13.349zm37.523-21.14c-2.529 4.381-6.062 7.993-9.692 9.909-1.783.942-5.174 2.295-7.829.761-2.655-1.533-3.18-5.145-3.256-7.161-.156-4.102 1.205-8.967 3.734-13.348 5.305-9.187 13.491-12.996 17.522-10.67 2.654 1.533 3.18 5.145 3.256 7.162.155 4.101-1.206 8.966-3.735 13.347zm36.578-21.865c-2.529 4.381-6.063 7.992-9.692 9.909-1.784.942-5.175 2.294-7.83.761-2.654-1.532-3.18-5.144-3.256-7.161-.155-4.103 1.206-8.968 3.735-13.349 4.287-7.425 10.456-11.337 14.793-11.337 1.029 0 1.956.221 2.729.667 4.031 2.328 4.824 11.323-.479 20.51zm37.522-21.139c-2.529 4.381-6.062 7.993-9.692 9.909-1.783.942-5.174 2.295-7.829.761-2.655-1.533-3.18-5.145-3.256-7.161-.156-4.102 1.205-8.967 3.734-13.348 5.305-9.187 13.49-12.997 17.522-10.67 2.654 1.533 3.18 5.145 3.256 7.162.156 4.101-1.205 8.966-3.735 13.347zm9.738-25.165l-1.592.919c-1.026-1.278-2.238-2.367-3.666-3.192-8.661-5.002-21.16.97-28.45 13.598-2.264 3.922-3.756 8.091-4.418 12.144-1.171-1.896-2.71-3.48-4.654-4.602-8.666-5.001-21.161.971-28.45 13.598-2.166 3.751-3.63 7.73-4.333 11.616-1.051-1.349-2.308-2.491-3.795-3.349-8.661-5.004-21.16.97-28.45 13.598-2.263 3.92-3.755 8.086-4.417 12.137-1.185-1.914-2.734-3.485-4.656-4.595-4.435-2.56-9.962-2.343-15.564.614-4.999 2.639-9.575 7.25-12.885 12.983-2.808 4.863-4.446 10.109-4.753 15.037l-5.752 3.269v-23.339l155.836-89.836v19.4z"/></svg>