<svg version="1.1" id="Capa_1" xmlns="http://www.w3.org/2000/svg" x="0" y="0" viewBox="0 0 468.271 468.271" xml:space="preserve"><path d="M468.271 172.802a4.001 4.001 0 00-2-3.467l-23.239-13.417-43.08-123.556a4.004 4.004 0 00-3.393-2.665 3.957 3.957 0 00-2.377.521l-.003-.006-196.095 113.062c-.442.32-.824.731-1.11 1.221l-17.768 30.431-22.046 12.642-68.89-39.778a4 4 0 00-4 0l-67.192 38.8a3.997 3.997 0 00-1.512 1.55c-.315.578-15.243 90.734-15.243 90.734A3.976 3.976 0 000 280.441v75.533c0 1.429.762 2.75 2 3.464l136.183 78.621a3.997 3.997 0 001.998.535c.696 0 2.003-.541 2.003-.541l44.975-25.962c.272 9.059 3.815 16.604 10.503 20.465 2.915 1.683 6.177 2.521 9.648 2.521 4.132 0 8.558-1.188 13.04-3.554 7.643-4.035 14.661-11.121 19.76-19.954 5.1-8.833 7.729-18.454 7.401-27.09-.09-2.378-.402-4.614-.918-6.689l71.996-41.175c.501 8.995 4.176 15.911 10.409 19.51 2.972 1.715 6.263 2.531 9.703 2.531 11.327 0 24.271-8.843 32.744-23.519 5.1-8.833 7.729-18.454 7.4-27.09a33.495 33.495 0 00-.712-5.766l.786-.453c.001.04 0 .08.002.12.354 9.317 4.064 16.478 10.449 20.165 2.972 1.715 6.263 2.531 9.703 2.531 11.328 0 24.272-8.843 32.745-23.519 6.786-11.754 8.89-24.115 6.552-33.613l8.512-4.913a4 4 0 002-3.464V214.54l17.384-10.005a4.001 4.001 0 002.005-3.467v-28.266zM147.625 291.12L18.796 216.746l3.383-20.282 128.698 74.299-3.252 20.357zm-1.351 8.458l-8.538 53.454L8.507 278.424l8.883-53.252 128.884 74.406zm-38.596 70.258l-67.879-39.187a3.998 3.998 0 00-6 3.464v2.621L8 321.84v-34.471l128.186 74.005v34.46l-26.508-15.305V373.3a4.002 4.002 0 00-2-3.464zM8 331.078l25.799 14.894v6.392L8 337.471v-6.393zm33.799 9.963l59.879 34.568v32.137l-59.879-34.569v-32.136zm67.879 48.725l26.508 15.305v6.393l-26.508-15.305v-6.393zm49.232-118.579l59.812-34.527v72.485l-72.566 41.895 12.754-79.853zm67.812-37.12l10.176 29.184-10.176-5.876v-23.308zm.094-24.028l49.698-28.622 55.968 32.313-86.922 50.061-18.744-53.752zm11.609-59.849l30.325-17.39-15.235 26.102-15.09-8.712zm44.248-25.374l19.58-11.228 12.71 36.453-38.445 22.141-16.075-9.281 22.23-38.085zm8.09-13.861l6.617-11.337 2.192 6.286-8.809 5.051zm26.88 46.774l16.675 47.824-49.795-28.749 33.12-19.075zm7.056-4.063l49.277-28.38 55.968 32.313-86.502 49.819-18.743-53.752zm-2.68-7.688l-12.705-36.438 18.758-10.757 37.9 21.881-43.953 25.314zm8.059-55.274a3.998 3.998 0 00-3.99-.005l-19.454 11.156-3.482-9.985 81.987-47.219-33.983 58.223-21.078-12.17zm-53.238 28.235l-68.161 39.086-3.411-9.782 82.049-47.255-10.477 17.951zm-46.442 35.854l38.111 22.003-44.373 25.556-12.777-36.641 19.039-10.918zm-6.442 71.343L175.055 197.9l9.982-17.096 19.261-11.045 19.658 56.377zm2.766 40.476l33.207 19.175-33.207 19.112v-38.287zm41.219 14.564l-18.245-10.535 90.791-52.289 18.279 10.553-90.825 52.271zm98.836-56.883l-18.282-10.555 89.453-51.518 18.313 10.573-89.484 51.5zm15.209-103.62l33.548-19.322 16.89 48.442-50.438-29.12zm30.868-27.01l-38.873 22.388-15.897-9.178 37.171-63.683 17.599 50.473zm-213.347 62.358l2.111 6.053-8.486 4.866 6.375-10.919zm-28.396 32.769l-2.984 5.11-2.954-1.705 5.938-3.405zM86.27 155.873l128.183 74.014-59.192 34.169-128.184-74.003 59.193-34.18zM8 346.709l25.799 14.894v6.956L8 353.665v-6.956zm101.678 65.656v-6.969l26.508 15.305v6.967l-26.508-15.303zm84.935-27.063c-3.273 5.669-5.45 11.479-6.573 17.043l-43.854 25.316v-66.245l74.293-43.033v45.084c-8.759 3.213-17.553 10.9-23.866 21.835zm38.568 22.267c-4.355 7.544-10.239 13.539-16.566 16.879-5.726 3.023-11.036 3.441-14.953 1.18-8.575-4.951-8.63-21.586-.12-36.326 8.511-14.739 22.945-23.008 31.52-18.059 3.917 2.261 6.209 7.069 6.454 13.539.271 7.149-1.979 15.242-6.335 22.787zm131.336-76.431c-8.511 14.74-22.947 23.009-31.52 18.059-3.917-2.261-6.21-7.07-6.455-13.539-.271-7.15 1.979-15.243 6.334-22.787 4.356-7.544 10.24-13.539 16.567-16.879 3.295-1.74 6.453-2.617 9.286-2.617 2.09 0 4.004.477 5.666 1.437 3.917 2.261 6.21 7.07 6.455 13.539.272 7.15-1.978 15.243-6.333 22.787zm60.373-34.013c-8.511 14.74-22.943 23.011-31.521 18.059-3.917-2.261-6.209-7.07-6.454-13.539-.271-7.15 1.979-15.243 6.334-22.787 6.833-11.834 17.483-19.497 25.854-19.497 2.056 0 3.975.462 5.665 1.438 8.576 4.951 8.63 21.586.122 36.326zm15.992-40.301l-5.647 3.259c-1.657-2.559-3.811-4.68-6.467-6.213-12.757-7.364-31.401 1.854-42.447 20.987-3.227 5.589-5.461 11.492-6.586 17.263l-4.492 2.593c-1.719-2.881-4.02-5.198-6.847-6.83-6.383-3.687-14.44-3.32-22.687 1.033-7.644 4.035-14.661 11.121-19.761 19.954-3.398 5.886-5.692 12.121-6.752 18.182l-75.771 43.334c-1.66-2.528-3.79-4.587-6.363-6.072-3.224-1.861-6.825-2.659-10.583-2.51v-19.268l214.403-123.392v37.68zm-214.16 76.342v-19.038l233.549-134.412v19.039L226.722 333.166z"/></svg>