<svg version="1.1" id="Capa_1" xmlns="http://www.w3.org/2000/svg" x="0" y="0" viewBox="0 0 444.111 444.111" xml:space="preserve"><path d="M237.598 327.53c-5.549-3.204-15.284.668-23.14 14.275-7.855 13.606-6.345 23.971-.792 27.177.938.541 2.37 1.106 4.264 1.106 2.209 0 5.045-.769 8.454-3.24 3.784-2.742 7.485-7.054 10.422-12.141 2.938-5.087 4.82-10.448 5.304-15.096.807-7.778-2.481-10.907-4.512-12.081zm-3.446 11.254c-.364 3.503-1.922 7.849-4.274 11.923s-5.337 7.597-8.188 9.664c-2.511 1.82-3.874 1.768-4.023 1.683-1.057-.61-1.42-7.345 3.72-16.249 5.141-8.905 11.158-11.957 12.212-11.346.147.085.873 1.243.553 4.325zm170.113-108.15c-2.031-1.174-6.387-2.456-12.718 2.133-3.784 2.742-7.485 7.054-10.422 12.141-2.938 5.086-4.821 10.448-5.304 15.096-.809 7.778 2.479 10.908 4.511 12.081.938.542 2.37 1.106 4.264 1.106 2.209 0 5.045-.769 8.454-3.24 3.784-2.742 7.485-7.054 10.422-12.141 2.938-5.086 4.821-10.448 5.304-15.096.808-7.778-2.48-10.907-4.511-12.08zm-3.446 11.254c-.363 3.502-1.922 7.848-4.274 11.923s-5.337 7.597-8.188 9.664c-2.509 1.818-3.875 1.766-4.023 1.683-.147-.085-.874-1.244-.554-4.326.363-3.502 1.922-7.848 4.274-11.922 2.353-4.075 5.337-7.597 8.188-9.664 2.015-1.459 3.292-1.715 3.794-1.715.124 0 .2.015.229.032.148.084.874 1.242.554 4.325zM15.017 289.059l21 12.22v-11.57l-21-12.22zm93 43.43v11.57l21 12.22v-11.57z"/><path d="M442.957 162.511l-37.96-38.423a4.024 4.024 0 00-1.188-.974c-.215-.116-135.543-78.621-135.543-78.621a3.998 3.998 0 00-4.004-.008L114.98 130.388a4 4 0 00-1.713 1.968l-25.192 62.313-86.786 61.999A3.997 3.997 0 000 259.609v58.01a4 4 0 002 3.464l136.05 78.54c.619.357 1.31.536 2 .536s2.32-.547 2.32-.547l47.467-27.772c1.58 8.166 5.65 14.44 11.794 17.987 3.47 2.004 7.361 3.001 11.508 3.001 4.979 0 10.328-1.439 15.753-4.303 9.341-4.931 17.926-13.606 24.174-24.429 6.715-11.631 9.702-23.735 9.101-34.049l94.441-54.619c1.646 7.928 5.67 14.027 11.69 17.502 3.47 2.004 7.36 3.001 11.508 3.001 4.979 0 10.328-1.439 15.753-4.303 9.341-4.931 17.926-13.606 24.174-24.429 6.652-11.523 9.642-23.508 9.112-33.759l13.229-7.449a3.998 3.998 0 002.037-3.485v-57.183a4.004 4.004 0 00-1.154-2.812zm-187.109 53.01l61.933-35.724v39.354l-82.752 47.862 20.819-51.492zm69.933-40.339l61.53-35.492 9.066 34.003-70.596 40.831v-39.342zm77.77-5.638l-9.064-33.993 6.745-3.891 24.661 24.962-22.342 12.922zM266.247 52.572l127.598 74.114-141.242 81.471-128.155-73.987 141.799-81.598zm-147.49 87.549l128.866 74.401-22.499 55.645-128.835-74.472 22.468-55.574zm-27.346 61.995l128.435 74.242-80.017 57.046-128.08-74.487 79.662-56.801zm97.699 160.88l-45.06 26.364v-12.017l46.822-27.082c-1.094 4.317-1.693 8.603-1.762 12.735zm-69.663 5.098v11.553L24.36 324.754v-11.959l95.087 55.299zM8 294.026v-28.034l128.05 74.468v28.034L8 294.026zm0 9.254l8.36 4.862v11.994L8 315.31v-12.03zm119.447 80.985v-11.519l8.603 5.003v11.482l-8.603-4.966zm118.691-24.169c-5.505 9.534-12.956 17.118-20.981 21.354-7.423 3.918-14.357 4.433-19.526 1.448-5.169-2.984-8.19-9.247-8.508-17.634-.344-9.068 2.499-19.313 8.003-28.848s12.956-17.119 20.98-21.354c4.239-2.238 8.318-3.365 12-3.365 2.767 0 5.31.637 7.526 1.917 11.116 6.417 11.347 27.703.506 46.482zm166.667-96.897c-5.505 9.534-12.956 17.118-20.98 21.354-7.424 3.918-14.358 4.433-19.526 1.448-5.169-2.984-8.19-9.247-8.509-17.634-.344-9.068 2.498-19.313 8.003-28.848s12.956-17.119 20.98-21.355c4.239-2.237 8.318-3.365 12.001-3.365 2.766 0 5.309.636 7.525 1.917 11.116 6.418 11.347 27.704.506 46.483zm23.306-43.032l-8.616 4.852c-1.879-6.641-5.621-12.011-11.196-15.23-7.636-4.409-17.317-3.946-27.261 1.302-9.341 4.931-17.926 13.607-24.174 24.43-5.858 10.146-9.055 21.126-9.102 31.155l-95.018 54.953c-1.905-6.508-5.619-11.77-11.113-14.941-7.636-4.41-17.317-3.946-27.261 1.301-9.34 4.931-17.926 13.607-24.174 24.43a74.107 74.107 0 00-3.213 6.222L144.05 368.1v-27.881l85.054-60.637 202.599-117.079 4.407 4.461v53.203z"/></svg>