<svg version="1.1" id="Capa_1" xmlns="http://www.w3.org/2000/svg" x="0" y="0" viewBox="0 0 474.86 474.86" xml:space="preserve"><path d="M238.085 156.442l44.035 25.422a4.002 4.002 0 003.998.001l32.688-18.851a4 4 0 00.002-6.929l-44.035-25.422a4.004 4.004 0 00-3.998-.001l-32.688 18.851a4 4 0 00-.002 6.929zm34.687-17.697l36.032 20.802-24.684 14.235-36.032-20.802 24.684-14.235zM181.425 349.87c-6.113-3.526-14.108 2.949-18.853 11.168-2.292 3.969-3.763 8.167-4.143 11.819-.669 6.437 2.155 9.085 3.897 10.091.819.474 2.073.972 3.718.972 1.851 0 4.195-.632 6.97-2.643 2.975-2.155 5.874-5.528 8.165-9.497 4.746-8.218 6.353-18.383.246-21.91zm-7.173 17.911c-3.046 5.276-6.429 7.661-7.827 8.07-.346-1.416.029-5.538 3.075-10.813s6.428-7.661 7.827-8.07c.345 1.416-.029 5.537-3.075 10.813zm264.672-167.067c-1.74-1.006-5.447-2.126-10.688 1.67-2.974 2.155-5.873 5.528-8.165 9.496-4.745 8.218-6.353 18.384-.245 21.911a7.254 7.254 0 003.68.983c5.372 0 11.337-5.506 15.173-12.151 2.292-3.969 3.763-8.166 4.143-11.82.668-6.434-2.156-9.083-3.898-10.089zm-7.173 17.91c-3.046 5.276-6.428 7.661-7.827 8.07-.345-1.417.029-5.538 3.075-10.813 3.047-5.276 6.429-7.662 7.827-8.07.346 1.416-.028 5.538-3.075 10.813z"/><path d="M472.86 142.011l-97.43-56.248a4.002 4.002 0 00-3.049-.396l-15.13 4.112-35.761-20.772a4.006 4.006 0 00-3.999-.011L87.584 200.54a4.002 4.002 0 00-1.718 1.971L66.89 249.448 1.291 296.32A3.998 3.998 0 000 299.263v43.939a4 4 0 002 3.464l103.052 59.49a4.002 4.002 0 004 0l35.044-20.37c1.42 5.821 4.55 10.315 9.115 12.95 2.832 1.636 5.969 2.413 9.246 2.413 10.751 0 23.018-8.366 31.039-22.258 5.047-8.742 7.35-17.841 7.031-25.71L401.85 237.652c1.506 5.188 4.469 9.393 8.861 11.929 2.833 1.635 5.969 2.412 9.246 2.412 10.751 0 23.019-8.366 31.039-22.258 6.063-10.501 8.169-21.519 6.519-30.295l15.073-12.63a4.004 4.004 0 001.43-2.978l.842-38.269a4.002 4.002 0 00-2-3.552zm-99.988-48.487l88.947 51.35-20.087 8.276-16.091-23.48a4 4 0 00-2.089-1.679l-56.579-32.864 5.899-1.603zM195.535 266.546l28.463-16.342v27.459l-42.924 24.65 14.461-35.767zm36.463-20.935l37.346-21.442v27.453l-37.346 21.447v-27.458zm45.346-26.035l43.962-25.24v27.447l-43.962 25.246v-27.453zm51.962-29.833l38.204-21.935v27.441l-38.204 21.94v-27.446zm46.204-26.528l29.983-17.214 6.137 23.911-36.12 20.743v-27.44zm43.318 2.563l-6.137-23.91 8.333-4.785 13.49 19.686-15.686 9.009zm-99.36-88.993l94.704 55.008-221.862 127.38-95.124-54.917L319.468 76.785zM91.404 210.155l95.913 55.376-16.048 39.691-95.911-55.378 16.046-39.689zm-20.576 46.31l95.487 55.133-59.484 42.407-95.174-55.349 59.171-42.191zm-27.008 70.15v34.956l-8.666-5.003v-34.993l8.666 5.04zm8 4.653l8.667 5.04v34.885l-8.667-5.003v-34.922zm16.667 9.693l8.667 5.04v34.814l-8.667-5.003v-34.851zM8 320.639l13.362 7.776v-8.764L8 311.876v-6.091l19.154 11.139v35.027L8 340.893v-20.254zm77.154 64.794v-34.78l17.897 10.408v5.956l-13.264-7.719v8.764l13.264 7.718v19.983l-17.897-10.33zm101.414-10.541c-7.95 13.768-21.391 21.516-29.357 16.917-3.616-2.088-5.732-6.546-5.96-12.554-.254-6.688 1.854-14.263 5.933-21.328 4.079-7.066 9.586-12.678 15.505-15.802 3.068-1.62 6.004-2.437 8.634-2.437 1.927 0 3.688.439 5.218 1.321 7.963 4.598 7.976 20.114.027 33.883zm257.5-149.156c-7.95 13.768-21.39 21.516-29.357 16.917-7.964-4.599-7.977-20.115-.028-33.883 7.95-13.768 21.391-21.515 29.357-16.917 7.964 4.598 7.977 20.115.028 33.883zm10.518-34.278c-1.623-2.714-3.805-4.95-6.546-6.532-12.122-7.002-29.818 1.718-40.285 19.845-4.752 8.232-7.071 16.781-7.06 24.321L199.025 344.82c-1.599-4.64-4.434-8.4-8.485-10.739-6.084-3.512-13.748-3.168-21.587.969-7.234 3.819-13.875 10.523-18.697 18.877-4.328 7.496-6.767 15.592-6.999 23.082l-32.205 18.843v-35.03l64.195-45.766c.201-.143.381-.31.551-.486l266.229-152.889 24.7-10.176-.667 30.339-11.474 9.614z"/></svg>