<svg version="1.1" id="Capa_1" xmlns="http://www.w3.org/2000/svg" x="0" y="0" viewBox="0 0 430.978 430.978" xml:space="preserve"><path d="M430.978 109.319a4 4 0 00-2-3.471L287.903 24.391a3.997 3.997 0 00-3.988-.007L91.089 134.878a3.99 3.99 0 00-1.427 1.397l-44.917 76.37-43.573 43.573A4.004 4.004 0 000 259.047v61.783c0 1.429.762 2.749 1.999 3.463l141.074 81.511a3.994 3.994 0 004 .001l31.862-18.289c1.734 7.275 5.599 13.168 11.554 16.606 3.47 2.003 7.361 3 11.508 3 4.979 0 10.327-1.439 15.753-4.303 9.341-4.931 17.926-13.607 24.174-24.43 6.009-10.407 9.208-21.69 9.09-31.926l89.754-51.128c1.649 7.591 5.572 13.745 11.713 17.291 3.47 2.003 7.361 3 11.508 3 4.979 0 10.327-1.439 15.753-4.303 9.341-4.931 17.926-13.607 24.174-24.43 6.164-10.675 9.374-22.271 9.077-32.714l15.958-9.085a4 4 0 002.021-3.476V109.391c.001-.024.006-.047.006-.072zM94.486 143.781l134.174 77.461-5.221 8.886L89.292 152.62l5.194-8.839zm142.577 78.954l60.196-34.49v41.713l-97.582 56.404 37.386-63.627zm68.196-39.073l71.496-40.964v41.31l-71.496 41.326v-41.672zm79.496-45.548l38.218-21.897v41.076l-38.218 22.091v-41.27zM285.896 32.47l133.06 76.83-184.797 105.879L101.1 138.362 285.896 32.47zM85.24 159.518l134.147 77.508-31.814 54.148-134.149-77.509 31.816-54.147zm-36.649 60.594l133.905 77.368-38.432 38.432L10.16 258.544l38.431-38.432zM8 266.535l25.239 14.583v30.479L8 297.015v-30.48zm33.239 19.206l66.267 38.288v30.479L41.239 316.22v-30.479zm74.267 42.91l25.568 14.773v30.479l-25.568-14.773v-30.479zM8 318.521v-12.268l133.074 76.888v12.268L8 318.521zm226.996 55.869c-5.505 9.535-12.956 17.119-20.98 21.355-7.424 3.917-14.358 4.432-19.526 1.449-11.115-6.418-11.347-27.704-.506-46.482 5.505-9.534 12.956-17.118 20.98-21.354 7.422-3.917 14.357-4.434 19.526-1.448 5.169 2.984 8.191 9.247 8.509 17.634.345 9.067-2.498 19.312-8.003 28.846zm161.992-91.495c-5.505 9.535-12.956 17.119-20.98 21.355-7.423 3.917-14.358 4.432-19.526 1.448-11.115-6.417-11.347-27.703-.506-46.481 8.668-15.014 22.264-24.699 33.048-24.699 2.704 0 5.231.609 7.46 1.895 5.169 2.984 8.19 9.248 8.509 17.635.343 9.068-2.5 19.313-8.005 28.847zm14.88-37.278c-1.811-7.262-5.714-12.858-11.385-16.132-15.388-8.881-37.979 2.422-51.436 25.732-6.153 10.657-9.167 21.708-9.168 31.419l-89.842 51.178c-1.731-7.602-5.697-13.456-11.548-16.834-7.637-4.409-17.316-3.946-27.261 1.302-9.341 4.931-17.926 13.606-24.174 24.429-6.316 10.94-9.335 22.301-9.171 32.195l-28.81 16.415v-53.107l41.326-41.326 232.572-134.357v72.764l-11.103 6.322z"/><path d="M388.448 250.33c-5.552-3.206-15.284.67-23.14 14.275-7.855 13.607-6.345 23.972-.793 27.178 1.208.697 2.613 1.06 4.154 1.06 5.543 0 12.839-4.688 18.986-15.334 7.857-13.608 6.346-23.973.793-27.179zm-7.719 23.177c-5.139 8.901-11.148 11.959-12.213 11.347-1.057-.61-1.42-7.345 3.721-16.25 5.142-8.905 11.155-11.95 12.212-11.347 1.056.611 1.42 7.346-3.72 16.25zm-154.273 68.318c-2.031-1.173-6.385-2.456-12.718 2.133-3.784 2.743-7.485 7.054-10.422 12.141-2.938 5.087-4.821 10.448-5.304 15.096-.809 7.779 2.479 10.908 4.511 12.081 1.208.697 2.613 1.06 4.155 1.06 5.543 0 12.839-4.688 18.984-15.334 2.938-5.087 4.821-10.448 5.304-15.097.809-7.777-2.478-10.907-4.51-12.08zm-3.446 11.254c-.363 3.503-1.922 7.849-4.274 11.923-5.138 8.899-11.153 11.963-12.212 11.346-.147-.085-.874-1.243-.554-4.325.363-3.503 1.922-7.849 4.274-11.923s5.337-7.597 8.188-9.664c2.015-1.46 3.293-1.715 3.795-1.715.123 0 .199.016.229.032.148.085.874 1.244.554 4.326z"/></svg>