<svg version="1.1" id="Capa_1" xmlns="http://www.w3.org/2000/svg" x="0" y="0" viewBox="0 0 435.051 435.051" xml:space="preserve"><path d="M227.367 310.499c-2.031-1.173-6.384-2.456-12.718 2.133-3.784 2.743-7.485 7.054-10.422 12.141-7.855 13.607-6.345 23.972-.792 27.178 1.207.697 2.612 1.059 4.153 1.059 5.543 0 12.839-4.688 18.986-15.334 7.857-13.606 6.346-23.971.793-27.177zm-7.72 23.177c-5.139 8.9-11.15 11.956-12.213 11.347-1.057-.61-1.42-7.345 3.721-16.25 2.353-4.075 5.337-7.597 8.188-9.664 2.509-1.818 3.873-1.767 4.023-1.683 1.058.611 1.422 7.346-3.719 16.25zm169.712-117.673c-5.548-3.202-15.284.667-23.14 14.275-2.938 5.086-4.821 10.448-5.304 15.096-.809 7.778 2.479 10.908 4.511 12.081.938.542 2.37 1.106 4.264 1.106 2.209 0 5.045-.769 8.454-3.24 3.784-2.742 7.485-7.054 10.422-12.141 7.856-13.606 6.346-23.971.793-27.177zm-7.72 23.178c-2.353 4.075-5.337 7.597-8.188 9.664-2.509 1.817-3.876 1.767-4.023 1.683-.147-.085-.874-1.244-.554-4.326.363-3.502 1.922-7.848 4.274-11.922 4.723-8.18 10.183-11.421 11.858-11.421a.71.71 0 01.354.075c1.056.608 1.419 7.342-3.721 16.247z"/><path d="M433.051 132.386L304.42 58.126a4.003 4.003 0 00-4 0l-92.891 53.636-47.14-27.381a4.002 4.002 0 00-4.006-.007l-65.39 37.68a4 4 0 00-1.714 1.974l-29.085 72.341-58.905 45.57A4.002 4.002 0 000 244.88v50.04a4 4 0 002 3.464l136.051 78.54a4.002 4.002 0 004 0l37.609-21.539c1.634 7.647 5.567 13.846 11.741 17.41 3.47 2.003 7.361 3 11.508 3 4.979 0 10.327-1.439 15.753-4.303 9.341-4.931 17.926-13.607 24.174-24.43 6.249-10.823 9.47-22.596 9.07-33.15-.003-.078-.011-.154-.014-.232l90.007-51.965c1.76 7.482 5.707 13.242 11.494 16.584 3.551 2.05 7.485 3.025 11.604 3.024 13.724 0 29.48-10.826 39.832-28.756 6.377-11.046 9.388-22.517 9.16-32.478l19.063-11.007a4 4 0 002-3.464v-69.77a4.004 4.004 0 00-2.001-3.462zm-137.003 30.678l-36.456-21.062 42.831-24.731 76.399 44.116-80.771 46.635V166.53c0-1.43-.764-2.751-2.003-3.466zm-72.405 43.128l-2.527 6.285-128.865-74.396 2.529-6.29 128.863 74.401zm-5.542 13.783l-20.491 50.962-128.86-74.403 20.487-50.955 128.864 74.396zm13.766-12.794l43.493-25.199v40.56l-67.687 44.811 24.194-60.172zm51.493-29.834l6.69-3.876v39.346l-6.69 4.429v-39.899zm103.461-20.579l-80.398-46.425V68.52l116.628 67.331-36.23 20.917zm-88.398-88.251v41.826l-46.806 27.027-36.113-20.976 82.919-47.877zM158.372 92.461l127.609 74.121-57.368 33.238-128.154-73.987 57.913-33.372zM64.378 203.247l128.606 74.256-53.258 41.125-128.6-74.254 53.252-41.127zm114.421 143.397l-34.749 20.061v-12.828l36.68-21.177c-1.279 4.816-1.915 9.517-1.931 13.944zM8 251.806l7.418 4.283v14.882L8 266.688v-14.882zm15.418 8.902l18.02 10.405h-.054v14.849L23.418 275.59v-14.882zm25.966 14.993l45.5 26.272v14.878l-45.5-26.27v-14.88zm53.5 30.892l17.966 10.521v14.73l-17.966-10.373v-14.878zm25.966 14.992l7.201 4.158v14.876l-7.201-4.158v-14.876zM8 292.611v-16.685l128.051 73.931v16.676L8 292.611zm227.907 50.453c-5.505 9.535-12.956 17.119-20.98 21.355-7.424 3.917-14.358 4.432-19.526 1.449-11.115-6.418-11.347-27.704-.506-46.482 8.668-15.014 22.264-24.699 33.048-24.699 2.704 0 5.231.609 7.46 1.895 5.169 2.984 8.19 9.247 8.509 17.635.343 9.068-2.5 19.313-8.005 28.847zm161.992-94.495c-10.842 18.778-29.389 29.223-40.508 22.803-5.169-2.984-8.19-9.247-8.509-17.634-.344-9.068 2.499-19.313 8.004-28.848 5.505-9.534 12.956-17.118 20.98-21.354 4.239-2.238 8.318-3.365 12.001-3.365 2.766 0 5.309.637 7.525 1.917 11.117 6.416 11.348 27.702.507 46.481zm29.152-45.258l-14.167 8.18c-1.765-7.15-5.61-12.937-11.491-16.332-7.636-4.41-17.317-3.947-27.261 1.302-9.341 4.931-17.926 13.606-24.174 24.429-6.059 10.494-9.26 21.877-9.086 32.181l-90.251 52.105c-1.875-6.963-5.71-12.342-11.219-15.523-15.387-8.88-37.979 2.422-51.436 25.732a75.704 75.704 0 00-2.912 5.58L144.05 344.64v-19.245l57.446-44.358 94.101-62.299c.42-.176.816-.417 1.16-.733l130.293-75.227v60.533z"/></svg>