<svg version="1.1" id="Capa_1" xmlns="http://www.w3.org/2000/svg" x="0" y="0" viewBox="0 0 472.641 472.641" xml:space="preserve"><path d="M466.492 145.857c-4.22-7.352-10.048-13.261-16.41-16.641-1.959-1.04-3.906-1.803-5.817-2.306 4.162-8.18 3.084-20.584-3.609-32.251-9.089-15.841-24.58-23.447-35.267-17.316l-2.888 1.658a48.064 48.064 0 00-3.971-8.854c-5.428-9.474-13.562-16.456-21.758-18.676-4.875-1.321-9.478-.885-13.325 1.26-.061.031-226.752 130.191-226.752 130.191-7.161 4.108-10.157 13.208-8.442 23.754l-53.034-30.622a4 4 0 00-4 0L14.686 208.7a4.004 4.004 0 00-1.911 2.625C12.716 211.598 0 287.613 0 288.214v63.553c0 1.429.762 2.75 2 3.464l114.583 66.15a3.99 3.99 0 001.997.535c.698 0 1.384-.197 1.998-.552l.006.011 36.946-21.328c.471 7.376 3.54 13.493 9.098 16.703 2.595 1.498 5.465 2.209 8.464 2.209 9.763-.001 20.871-7.549 28.117-20.101 4.35-7.534 6.591-15.75 6.312-23.134a28.642 28.642 0 00-.682-5.283l122.004-69.614c.637 7.017 3.676 12.812 9.031 15.904 2.595 1.498 5.465 2.209 8.464 2.209 9.763 0 20.871-7.549 28.118-20.101 4.066-7.042 6.154-14.348 6.347-20.899 1.456 4.507 4.134 8.016 7.868 10.172 2.594 1.498 5.465 2.21 8.464 2.21 9.763 0 20.871-7.549 28.118-20.1 4.35-7.534 6.591-15.75 6.311-23.134a28.691 28.691 0 00-.651-5.135l6.782-3.915a3.998 3.998 0 002-3.464v-36.5l21.937-12.585c10.801-6.197 12.057-23.607 2.86-39.632zm-57.119-61.575c6.567-3.769 17.717 2.807 24.345 14.359 6.627 11.553 6.677 24.496.108 28.265l.051.088a15.94 15.94 0 00-3.051 1.344l-32.567 18.708a128.478 128.478 0 00-7.328-14.923c-5.617-9.785-12.326-18.547-19.733-25.921l38.175-21.92zM383.7 222.081c2.773-6.346 4.385-13.78 4.721-22.08.45-11.127-1.449-23.063-5.441-34.954l11.04-6.342c8.716 27.152 5.17 52.673-10.32 63.376zm-87.943 50.498c2.737-6.317 4.331-13.704 4.665-21.945.451-11.148-1.455-23.108-5.463-35.021l80.945-46.5c8.931 27.857 4.939 53.974-11.602 64.141l-68.545 39.325zm-52.963 30.385c.114-.866.193-1.756.231-2.673.292-7.197-1.872-15.21-6.092-22.562s-10.047-13.262-16.409-16.641a29.45 29.45 0 00-2.596-1.225l50.86-29.216c8.644 26.911 5.233 52.212-9.904 63.087l-16.09 9.23zm-58.969 36.148v18.527c-7.372 2.845-14.71 9.333-19.995 18.486-2.733 4.733-4.57 9.585-5.542 14.248l-35.704 20.611v-54.273l61.24-35.356v17.757zm-98.194 55.163l-49.112-28.353v-24.128l49.112 28.353v24.128zm6-29.903l-57.112-32.971a3.998 3.998 0 00-6 3.464v7.392L8 329.919v-34.776l106.584 61.535v37.338L93.63 381.412v-13.575a4 4 0 00-1.999-3.465zM19.829 218.597l107.056 61.805-10.842 67.879-107.494-62.06 11.28-67.624zm337.82-113.841l-10.727 6.159c-5.08-4.315-10.411-8-15.898-10.915-7.294-3.874-14.486-6.226-21.33-7.046 13.64-6.323 31.584-1.302 47.955 11.802zm-18.101 10.393l-80.698 46.335c-5.058-4.288-10.365-7.952-15.826-10.853-7.424-3.943-14.74-6.302-21.692-7.081l68.54-39.354c13.833-7.593 32.609-2.719 49.676 10.953zm26.315 31.327a120.521 120.521 0 017.278 14.998l-81.023 46.544a128.467 128.467 0 00-7.316-14.893c-5.627-9.804-12.352-18.58-19.775-25.963l80.886-46.443c7.353 7.044 14.199 15.737 19.95 25.757zm-174.038 99.203a4.02 4.02 0 00-2.021-3.464l-9.719-5.612c-3.638-9.789-2.549-19.202 2.716-22.227 6.571-3.767 17.718 2.808 24.345 14.358 6.787 11.833 6.052 23.046 1.416 27.284l-2.853 1.639c-3.825 1.174-9.005-.484-13.884-4.394v-7.584zm22.259-20.926c-4.932-8.596-11.75-14.759-18.662-17.626l43.328-24.878c7.377 7.055 14.246 15.768 20.013 25.817a120.396 120.396 0 017.256 14.944l-46.114 26.491c.945-7.399-.971-16.293-5.821-24.748zm51.618-20.668c-5.626-9.802-12.349-18.576-19.77-25.958l11.913-6.84c7.379 7.055 14.25 15.77 20.019 25.821a120.583 120.583 0 017.252 14.933l-12.094 6.947a128.232 128.232 0 00-7.32-14.903zm-25.947-31.637c-5.06-4.29-10.369-7.956-15.831-10.858-7.346-3.902-14.588-6.259-21.475-7.063 13.753-7.141 32.212-2.247 49.024 11.192l-11.718 6.729zm-57.455-6.416c13.855-7.955 32.837-3.133 50.079 10.651l-53.56 30.753.001.001-.002.001a15.674 15.674 0 00-2.759 2.044 48.488 48.488 0 00-4.094-9.246c-4.168-7.264-9.926-13.105-16.213-16.446a29.523 29.523 0 00-2.468-1.168l28.987-16.644.029.054zm1.525 86.562v59.522l-59.38 34.283 10.473-65.573 48.907-28.232zm8 72.124v-61.846a28.01 28.01 0 004.369 1.937c-5.831 8.095-5.256 22.02 2.212 35.033 4.22 7.352 10.047 13.261 16.409 16.641.81.43 1.617.805 2.422 1.143l-25.413 14.579v-7.487zm36.908-13.687c-3.722 1.276-7.872-.395-10.165-1.613-5.048-2.681-9.744-7.496-13.223-13.558-6.732-11.73-6.776-24.879-.095-28.713 1.348-.773 2.796-1.069 4.223-1.069 2.834 0 5.585 1.167 7.298 2.077 5.048 2.682 9.744 7.497 13.223 13.558s5.268 12.545 5.037 18.256c-.105 2.595-.757 7.024-3.74 9.595l-2.558 1.467zm47.924-27.495c2.737-6.317 4.331-13.703 4.664-21.944.451-11.145-1.454-23.1-5.459-35.01l12.021-6.905c8.649 26.919 5.237 52.229-9.906 63.102l-1.32.757zm103.487-126.085a128.412 128.412 0 00-7.342-14.958c-5.61-9.775-12.312-18.528-19.709-25.897l10.923-6.272c7.362 7.048 14.217 15.749 19.975 25.781 2.84 4.948 5.25 9.962 7.264 14.963l-11.111 6.383zm-13.046-97.596c.052-.027.104-.056.156-.085 2.53-1.454 5.436-1.117 7.428-.576 6.099 1.652 12.578 7.374 16.912 14.938 1.659 2.884 2.946 5.935 3.793 8.957l-30.363 17.434c-5.072-4.305-10.394-7.983-15.872-10.892-7.387-3.924-14.669-6.282-21.59-7.073l39.536-22.703zM140.681 189.859c3.947-2.266 8.783-.348 11.316.997 4.974 2.643 9.601 7.388 13.028 13.362 5.949 10.373 6.117 20.269 2.961 25.4l-29.931-17.282c-3.766-9.893-2.716-19.415 2.626-22.477zm-67.46-5.722l106.583 61.542-48.535 28.017-106.583-61.532 48.535-28.027zM8 339.254l20.519 12.34v9.71L8 349.458v-10.204zm85.631 59.64v-8.146l20.954 12.604v7.639l-20.954-12.097zm102.649-4.034c-6.987 12.104-18.735 18.958-25.653 14.963-6.917-3.994-6.857-17.594.131-29.698 5.634-9.758 14.361-16.103 21.157-16.103 1.633 0 3.156.367 4.496 1.14 4.183 2.415 5 7.845 5.114 10.867.225 5.898-1.638 12.586-5.245 18.831zm173.246-100.018c-6.987 12.104-18.733 18.957-25.653 14.963-6.917-3.994-6.857-17.594.131-29.698s18.737-18.957 25.653-14.962c6.917 3.994 6.857 17.593-.131 29.697zm50.797-28.617c-6.989 12.104-18.738 18.955-25.654 14.962-4.183-2.415-5-7.844-5.114-10.866-.224-5.898 1.639-12.586 5.245-18.832 3.605-6.246 8.466-11.203 13.686-13.958 1.771-.935 4.61-2.131 7.542-2.131 1.495 0 3.014.311 4.426 1.127 4.183 2.415 5 7.844 5.114 10.866.224 5.898-1.639 12.586-5.245 18.832zm13.371-33.958l-3.92 2.263c-1.412-2.037-3.195-3.704-5.32-4.931-5.569-3.216-12.564-2.911-19.703.857-6.535 3.45-12.529 9.499-16.879 17.033-2.697 4.67-4.581 9.602-5.558 14.436l-3 1.731c-1.447-2.24-3.331-4.097-5.657-5.44-11.043-6.375-27.11 1.484-36.582 17.891-2.924 5.066-4.826 10.268-5.736 15.228l-125.684 71.714a16.455 16.455 0 00-5.243-4.814c-2.629-1.518-5.545-2.22-8.587-2.2V341.43l241.87-138.763v29.6zm25.955-53.715l-57.831 33.178c2.778-6.351 4.395-13.792 4.731-22.1.451-11.138-1.452-23.087-5.452-34.99l33.712-19.366c4.025-2.311 8.946-.36 11.521 1.007 5.048 2.681 9.745 7.496 13.224 13.558 6.732 11.73 6.776 24.879.095 28.713z"/></svg>