<svg version="1.1" id="Capa_1" xmlns="http://www.w3.org/2000/svg" x="0" y="0" viewBox="0 0 460.145 460.145" xml:space="preserve"><path d="M237.595 332.767c-2.032-1.174-6.387-2.456-12.718 2.133-3.784 2.742-7.485 7.054-10.422 12.141-7.855 13.606-6.345 23.971-.792 27.177.938.541 2.37 1.106 4.264 1.106 2.209 0 5.045-.769 8.455-3.24 3.784-2.742 7.485-7.054 10.421-12.141 2.938-5.086 4.821-10.448 5.304-15.096.808-7.778-2.48-10.907-4.512-12.08zm-3.446 11.254c-.363 3.502-1.922 7.848-4.275 11.923-2.352 4.075-5.337 7.597-8.188 9.664-2.511 1.82-3.874 1.768-4.023 1.683-1.057-.61-1.42-7.345 3.721-16.249 2.353-4.075 5.337-7.597 8.189-9.664 2.508-1.818 3.874-1.767 4.023-1.683.147.085.873 1.243.553 4.326zm179.192-114.447c-5.553-3.204-15.284.67-23.14 14.275-2.938 5.087-4.82 10.449-5.304 15.097-.809 7.778 2.479 10.908 4.512 12.081.938.542 2.37 1.106 4.264 1.106 2.208 0 5.045-.769 8.454-3.24 3.784-2.743 7.485-7.054 10.422-12.141 7.856-13.607 6.345-23.972.792-27.178zm-7.719 23.177c-2.353 4.075-5.337 7.597-8.188 9.664-2.508 1.816-3.875 1.77-4.023 1.683-.147-.085-.875-1.244-.555-4.326.364-3.502 1.922-7.849 4.274-11.923 5.142-8.904 11.16-11.95 12.212-11.347 1.056.61 1.42 7.345-3.72 16.249zm-59.948-8.671l-83.057 48.04a4.001 4.001 0 004.006 6.925l83.057-48.04a4.001 4.001 0 00-4.006-6.925z"/><path d="M458.145 152.074l-128.631-74.26a4.002 4.002 0 00-3.049-.396l-20.488 5.569-47.678-27.693a3.999 3.999 0 00-4.007-.006l-56.087 32.345-1.296-.748a3.975 3.975 0 00-2.043-.571h-.043a3.98 3.98 0 00-2.001.546l-32.186 18.594a4 4 0 00-1.999 3.464c0 .244.073 1.485.073 1.485l-43.738 25.225a4.005 4.005 0 00-1.71 1.965l-25.193 62.31-86.778 61.996A4.001 4.001 0 000 264.843v58.01c0 1.429.762 2.75 2 3.464l136.05 78.54a4.002 4.002 0 004 0c.081-.047.154-.103.231-.155l.086.146 47.467-27.772c1.58 8.166 5.65 14.44 11.794 17.987 3.47 2.004 7.361 3.001 11.508 3.001 4.979 0 10.328-1.439 15.752-4.303 9.341-4.931 17.926-13.606 24.174-24.429 6.715-11.631 9.703-23.736 9.101-34.05l103.669-59.962c1.74 7.25 5.601 13.121 11.541 16.551 3.551 2.05 7.484 3.024 11.603 3.024 13.724 0 29.481-10.827 39.833-28.756 8.027-13.903 10.726-28.482 8.337-39.871l20.456-17.14a4.004 4.004 0 001.43-2.978l1.111-50.523a3.998 3.998 0 00-1.998-3.553zM326.957 85.575l120.147 69.362-29.885 12.312-21.85-31.885a3.995 3.995 0 00-2.207-1.736L315.7 88.634l11.257-3.059zM222.369 313.224c-9.34 4.931-17.926 13.606-24.174 24.429a74.107 74.107 0 00-3.213 6.222l-50.931 29.459v-27.882l83.47-59.511v24.989a41.583 41.583 0 00-5.152 2.294zm-33.262 55.008l-45.057 26.362v-12.018l46.818-27.08c-1.093 4.319-1.692 8.604-1.761 12.736zM93.64 349.068l-44.6-25.938v-11.654l44.6 25.937v11.655zm6.011-17.413l-52.6-30.59a4 4 0 00-6.01 3.458v13.955L8 299.263v-7.724l19.828 11.538v-11.57L8 279.97v-8.74l128.05 74.469v9.147l-20.223-11.768v11.57l20.223 11.768v7.317l-34.41-20.012v-18.608a4 4 0 00-1.989-3.458zm135.555-59.86l20.637-51.038 49.303-28.503v39.163l-69.94 40.378zm77.939-84.166l53.669-31.028 7.939 34.629-61.608 35.569v-39.17zm68.856-.584l-7.94-34.634 16.683-9.645 19.263 28.11-28.006 16.169zM194.845 94.93l30.753 17.758-24.211 13.981-30.751-17.753 24.209-13.986zm-28.135 20.957l30.856 17.813v9.284l-30.856-17.813v-9.284zm38.856 22.432l16.043 9.262v9.284l-16.043-9.262v-9.284zm24.043 13.88l36.187 20.891v9.284l-36.187-20.891v-9.284zm44.187 20.89l24.276-14.017v9.368l-24.276 14.017v-9.368zm-4-6.928l-36.197-20.897 24.207-13.979 36.195 20.9-24.205 13.976zm-44.197-25.515l-16.212-9.359 24.209-13.981 16.211 9.361-24.208 13.979zm-64.889-9.701l107.16 61.863a4.002 4.002 0 004 0l32.203-18.594a4 4 0 002-3.464v-18.706c-.049-1.373-.877-2.631-2.073-3.322l-97.793-56.469 50.077-28.879 127.602 74.116-131.287 75.902-128.159-73.99 34.271-19.765v7.843a4 4 0 001.999 3.465zm-41.958 14.412l128.866 74.401-22.158 54.798-128.862-74.404 22.154-54.795zM92.148 206.82l128.502 74.195-80.823 57.625-128.08-74.487 80.401-57.333zM8 320.543v-12.025l128.05 74.469v11.478L8 320.543zm238.135 44.789c-5.505 9.534-12.956 17.118-20.981 21.354-7.423 3.918-14.357 4.433-19.526 1.448-5.169-2.984-8.19-9.247-8.508-17.634-.344-9.068 2.499-19.313 8.003-28.848 5.504-9.534 12.956-17.118 20.98-21.354 4.239-2.238 8.318-3.365 12-3.365 2.766 0 5.309.637 7.525 1.917 11.117 6.417 11.348 27.704.507 46.482zm118.636-98.639l-104.029 60.17c-1.905-6.507-5.619-11.769-11.113-14.941-4.185-2.417-8.988-3.36-14.109-2.864v-28.207l176.229-101.743v26.685c-13.226.997-27.961 11.612-37.808 28.667-6.324 10.955-9.342 22.329-9.17 32.233zm57.111-4.554c-10.842 18.777-29.395 29.222-40.508 22.803-11.115-6.417-11.347-27.703-.506-46.481 10.842-18.778 29.395-29.22 40.508-22.804 11.116 6.418 11.347 27.704.506 46.482zm12.431-43.934c-2.095-3.994-5.079-7.248-8.937-9.476a22.222 22.222 0 00-5.628-2.279v-31.591l32.263-13.292-.937 42.593-16.761 14.045z"/></svg>