<svg version="1.1" id="Capa_1" xmlns="http://www.w3.org/2000/svg" x="0" y="0" viewBox="0 0 438.619 438.619" xml:space="preserve"><path d="M234.102 368.924c-5.554-3.211-15.285.668-23.14 14.274-2.938 5.087-4.821 10.448-5.304 15.097-.809 7.778 2.479 10.907 4.511 12.08.938.542 2.371 1.106 4.264 1.106 2.208 0 5.045-.769 8.454-3.239 3.784-2.743 7.485-7.055 10.422-12.142 2.937-5.087 4.821-10.448 5.304-15.097.808-7.777-2.479-10.906-4.511-12.079zm-3.446 11.254c-.364 3.503-1.922 7.849-4.275 11.923-2.352 4.075-5.337 7.597-8.188 9.663-2.511 1.82-3.877 1.768-4.024 1.684-.147-.085-.874-1.244-.554-4.326.364-3.503 1.922-7.849 4.274-11.923 4.723-8.181 10.183-11.421 11.858-11.421.148 0 .267.025.353.074.15.085.877 1.244.556 4.326zm59.035-293.806l-10.403 7.282c-11.248 7.875-25.76 10.045-38.82 5.811a51.815 51.815 0 00-17.529-2.52 4 4 0 00-3.884 4.112c.063 2.209 1.894 3.926 4.113 3.884A43.91 43.91 0 01238 107.074a51.737 51.737 0 0015.964 2.513c10.583 0 21.097-3.208 29.912-9.378l10.403-7.282a4 4 0 00-4.588-6.555z"/><path d="M438.618 136.41a4 4 0 00-1.999-3.462l-92.138-53.205c-2.118-8.407-8.282-16.257-18.14-23.047-1.835-14.898-9.375-28.965-21.677-38.607L288.735 5.604a5.617 5.617 0 00-7.286.281 5.619 5.619 0 00-.913 7.235 39.396 39.396 0 015.981 27.362c-13.277-3.005-27.934-4.6-42.699-4.6-56.916 0-101.5 22.183-101.5 50.5 0 3.012 5.911 33.538 8.078 45.4L61.51 182.355a4 4 0 00-1.377 1.312l-.035-.022-51.845 83c-.25.401-.428.844-.524 1.307L.083 304.825a4.007 4.007 0 00-.02 1.524l7.646 42.29a4.002 4.002 0 001.935 2.752l141.074 81.511a4.003 4.003 0 004.301-.192c.163-.115 31.61-18.124 31.61-18.124 1.754 7.506 5.705 13.285 11.505 16.633 3.47 2.004 7.361 3.001 11.508 3.001 4.979 0 10.328-1.439 15.753-4.303 9.34-4.931 17.926-13.606 24.174-24.43 6.269-10.859 9.287-22.129 9.172-31.972L348.47 322.4c1.677 7.852 5.699 13.894 11.66 17.327 3.551 2.049 7.484 3.022 11.602 3.022 13.725-.001 29.482-10.827 39.832-28.758 6.116-10.595 9.351-22.354 9.07-32.701l15.965-9.095a4 4 0 002.021-3.477l-.002-132.308zm-280.864-22.943c18.503 14.662 50.677 23.415 86.064 23.415 38.849 0 71.946-10.336 89.048-25.903-3.829 21.319-7.764 42.78-9.179 49.358-.269 1.251-.694 2.461-1.319 3.578-8.992 16.074-42 27.963-78.55 27.963s-69.559-11.888-78.551-27.963c-.625-1.117-1.05-2.327-1.319-3.578-1.417-6.584-5.357-28.079-9.19-49.418a58.996 58.996 0 002.996 2.548zm141.975-89.082c17.326 13.58 23.717 37.34 15.541 57.778a4 4 0 107.428 2.97 57.22 57.22 0 003.999-18.092c5.674 4.908 10.622 11.444 10.622 19.34 0 23.037-42.818 42.5-93.5 42.5-31.621 0-61.35-7.569-78.677-19.883 8.789-19.472 29.192-31.425 50.661-29.316l26.191 2.576c16.451 1.623 32.404-5.147 42.676-18.1a47.392 47.392 0 007.397-45.78l7.662 6.007zm-55.91 19.497c14.103 0 28.079 1.508 40.727 4.354a39.502 39.502 0 01-6.143 10.954c-8.576 10.81-21.896 16.455-35.626 15.108l-26.191-2.576c-24.154-2.383-47.142 10.604-57.794 32.001-4.442-4.393-8.473-10.31-8.473-17.341 0-23.037 42.818-42.5 93.5-42.5zm-91.89 96.233c2.502 13.508 4.508 23.802 5.024 25.003 8.781 20.466 44.501 34.76 86.866 34.76s78.085-14.294 86.866-34.759c1.037-2.416 14.235-73.721 14.462-75.754l81.428 47.021-221.991 126.276-133.05-76.804 80.395-45.743zm133.06 86.013l125.82-71.571v75.209l-125.82 71.569v-75.207zM142.133 381.634L8.354 304.339l5.722-27.593 133.778 77.295-5.721 27.593zm-21.177-2.996l5.635 31.084-88.685-51.241-5.635-31.084 88.685 51.241zm-56.15-187.427l134.176 77.454-48.504 77.651L16.334 268.81l48.472-77.599zm142.619 79.038l34.141-19.421v45.769l-78.798 45.145 44.657-71.493zM9.634 314.318l13.555 7.832 5.635 31.084-13.572-7.842-5.618-31.074zm126.04 100.652l-5.635-31.084 11.592 6.698 5.618 31.074-11.575-6.688zm106.969-13.481c-5.505 9.534-12.956 17.118-20.981 21.354-7.422 3.921-14.356 4.435-19.526 1.449-5.169-2.984-8.191-9.247-8.509-17.635-.344-9.067 2.499-19.313 8.003-28.847 5.505-9.534 12.956-17.118 20.981-21.354 4.239-2.238 8.318-3.365 12-3.365 2.766 0 5.309.636 7.526 1.916 11.115 6.418 11.347 27.704.506 46.482zm161.991-91.497c-10.838 18.779-29.391 29.225-40.509 22.804-4.511-2.597-7.393-7.739-8.258-14.609l11.83-6.739c.466 3.412 1.973 5.994 4.461 7.428.939.542 2.373 1.108 4.27 1.108 2.208-.001 5.044-.769 8.453-3.237 3.788-2.743 7.49-7.057 10.422-12.143 2.223-3.844 3.822-7.8 4.693-11.556l12.522-7.133c-.622 7.769-3.358 16.237-7.884 24.077zm-28.925-3.109l13.42-7.645c-.241.457-.493.913-.755 1.366-2.35 4.075-5.333 7.598-8.186 9.663-2.509 1.818-3.88 1.767-4.032 1.679-.281-.162-.931-1.741-.447-5.063zm-26.041 5.631l-91.932 52.369c-1.71-7.366-5.592-13.334-11.6-16.803-7.637-4.41-17.318-3.946-27.261 1.302-9.34 4.931-17.926 13.606-24.174 24.43-6.052 10.482-9.253 21.852-9.086 32.147l-29.987 17.084-6.48-35.842 6.688-32.25 91.718-52.564a4.001 4.001 0 002.012-3.471v-52.638l27.423-15.599v77.534a4 4 0 005.978 3.477l133.82-76.12a4 4 0 002.022-3.477v-82.086l11.81-6.718v123.106l-80.951 46.119z"/></svg>