<svg version="1.1" id="Capa_1" xmlns="http://www.w3.org/2000/svg" x="0" y="0" viewBox="0 0 459.359 459.359" xml:space="preserve"><path d="M457.359 107.894l-152.14-87.85a4 4 0 00-4 0l-212.32 122.59a3.998 3.998 0 00-2 3.464v61.747l-42.357 24.093c-.574.326-1.414 1.306-1.414 1.306l-42.52 68.07A3.993 3.993 0 000 303.433v64.924c0 1.429.762 2.749 1.999 3.463l115.699 66.849a3.994 3.994 0 004.001.001c.24-.139 25.348-14.553 25.348-14.553 1.586 5.899 4.847 10.464 9.538 13.173 2.959 1.708 6.272 2.56 9.796 2.56 4.2 0 8.7-1.208 13.256-3.614 7.779-4.106 14.922-11.32 20.113-20.312 4.909-8.503 7.565-17.72 7.558-26.13 0 0 19.667-11.199 19.842-11.321l13.898 8.098a4 4 0 004 0l95.593-55.188c1.751 5.058 4.837 9.016 8.987 11.414 2.96 1.709 6.274 2.561 9.8 2.561 4.199 0 8.699-1.208 13.255-3.613 7.779-4.106 14.92-11.319 20.108-20.31 4.587-7.937 7.213-16.542 7.525-24.503l57.042-32.931a4.002 4.002 0 002-3.464v-149.18a3.997 3.997 0 00-1.999-3.463zm-154.14-79.767l144.14 83.23-204.31 117.952-144.15-83.212 204.32-117.97zM94.899 153.026l144.15 83.212v139.87l-10.18-5.879V266.575a4 4 0 00-2-3.464l-115.71-66.79a4.001 4.001 0 00-3.977-.013L94.9 203.294v-50.268zm14.245 51.369l107.68 62.154-54.59 31.055-107.67-62.163 54.58-31.046zm36.807 211.14l-22.252 12.678v-9.473l23.397-13.33c-.772 3.439-1.162 6.844-1.145 10.125zM47.842 240.797l108.789 62.81-7.378 11.812-108.769-62.843 7.358-11.779zm97.17 81.412l-27.394 43.857L8.849 303.22l27.395-43.856 108.768 62.845zm-29.313 51.987v5.918L8 317.887v-5.918l107.699 62.227zM8 327.126l19.261 11.129v23.335L8 350.461v-23.335zm27.261 15.751l52.908 30.569v23.335l-52.908-30.569v-23.335zm60.908 35.192l19.53 11.284v23.335l-19.53-11.284v-23.335zm68.904-72.876l26.771-15.23v35.872L130.27 360.91l34.803-55.717zM8 366.049V359.7l107.699 62.227v6.349L8 366.049zm184.824 45.876c-4.448 7.704-10.457 13.825-16.92 17.237-5.86 3.094-11.301 3.521-15.318 1.201s-6.368-7.244-6.619-13.867c-.277-7.303 2.02-15.568 6.468-23.271 8.697-15.062 23.458-23.506 32.238-18.438 4.017 2.32 6.368 7.244 6.619 13.867.276 7.302-2.021 15.567-6.468 23.271zm28.045-39.064l-14.615 8.328c-1.57-5.976-4.848-10.598-9.582-13.331-12.967-7.485-31.926 1.9-43.166 21.367a61.555 61.555 0 00-2.458 4.726l-27.349 15.582v-35.672l74.125-42.223a3.999 3.999 0 002.02-3.476v-42.748l21.024-11.96v99.407zm164.995-55.425c-4.445 7.703-10.453 13.824-16.915 17.235-5.861 3.093-11.303 3.519-15.319 1.2-3.394-1.961-5.064-5.406-5.88-8.59l8.649-4.993c.888 1.846 2.157 2.879 3.104 3.422a7.544 7.544 0 003.822 1.019c5.681 0 12.035-5.895 16.138-12.993a38.497 38.497 0 002.985-6.486l9.288-5.362c-.943 5.141-2.941 10.476-5.872 15.548zm-22.425.788l4.871-2.812c-2.097 2.153-3.916 3.163-4.757 3.287a3.445 3.445 0 01-.114-.475zm-116.39 57.956V236.238l204.31-117.951v139.942L247.049 376.18z"/><path d="M186.802 384.953c-6.424-3.705-14.905 3.214-19.96 11.971-2.458 4.257-4.036 8.756-4.442 12.666-.705 6.783 2.239 9.556 4.056 10.605.851.491 2.151 1.007 3.859 1.007 1.943 0 4.415-.667 7.354-2.797 3.183-2.307 6.29-5.922 8.749-10.18 5.054-8.756 6.809-19.562.384-23.272zm-7.314 19.272c-3.579 6.197-7.618 8.775-8.988 8.964-.521-1.281-.309-6.068 3.269-12.266 3.578-6.197 7.617-8.775 8.987-8.965.522 1.283.31 6.07-3.268 12.267z"/></svg>