<svg version="1.1" id="Capa_1" xmlns="http://www.w3.org/2000/svg" x="0" y="0" viewBox="0 0 449.441 449.441" xml:space="preserve"><path d="M447.438 104.14L336.292 39.97a3.997 3.997 0 00-3.997-.002l-274.78 158.32-.015.008a3.998 3.998 0 00-2 3.464v72.803L1.964 305.786a4 4 0 00-1.955 3.723v29.741c0 1.429.762 2.75 2 3.464l111.13 64.16a4.002 4.002 0 003.999.001l22.932-13.225c.493 6.343 3.205 11.603 8.038 14.394 2.305 1.331 4.855 1.964 7.515 1.964 8.563 0 18.263-6.558 24.57-17.48 4.979-8.625 6.538-17.717 4.868-24.814L366.83 262.91c.942 5.215 3.533 9.482 7.716 11.897 2.274 1.313 4.813 1.968 7.503 1.968 3.154 0 6.518-.899 9.911-2.69 5.685-3.001 10.896-8.255 14.67-14.793 4.43-7.673 6.154-15.717 5.305-22.396l35.504-20.466a4.004 4.004 0 002.002-3.466V107.606s-.765-2.751-2.003-3.466zm-5.997 58.688l-28.413 16.382v-27.645l28.413-16.382v27.645zM145.503 372.499c-2.188 3.79-3.71 7.67-4.595 11.433l-21.773 12.557V375.38l48.035-27.944v7.832c-7.783 1.275-16.063 7.526-21.667 17.231zm29.667-93.031v-11.414l266.271-153.529v11.424L175.17 279.468zm-60.276 89.124l-20.176-11.648 47.867-27.919 20.239 11.685-47.93 27.882zm-25.52-88.173l46.379 26.776-49.269 34.997-46.442-26.817 49.332-34.956zm1.376 68.555l48.015-34.106v7.124L90.75 349.998v-1.024zm56.015-26.774v-8.647l20.405 11.781v8.647L146.765 322.2zm20.405-42.799l-23.702-13.684v-10.861l23.702 13.684v10.861zm-31.702-18.303l-41.49-23.954v-10.861l41.49 23.954v10.861zm-49.49-28.572L63.5 219.548v-10.861l22.478 12.978v10.861zm81.192 56.112v27.458L63.5 256.245v-27.459l103.67 59.852zm-85.421-12.621l-6.556 4.646-11.693-6.75v-8.431l18.249 10.535zm-13.74 9.736l-37.684 26.702a3.995 3.995 0 00-1.68 3.264l-.008 2.853-16.447-9.49 47.87-27.916 7.949 4.587zm-31.371 36.894l46.112 26.628v30.817l-46.112-26.623v-30.822zm54.112 41.244l20.385 11.768v20.819L90.75 384.71v-20.819zm84.42-75.189l24.531-14.143v27.64l-24.531 14.147v-27.644zm32.531-18.756l21.122-12.178v75.479l-21.122 12.178v-75.479zm29.121-16.79l30.706-17.704V263.1l-30.706 17.704v-27.648zm38.706-22.316l26.375-15.206v27.647l-26.375 15.207V230.84zm34.375-19.819l26.375-15.206v27.646l-26.375 15.207v-27.647zm34.375-19.818l26.375-15.206v27.646l-26.375 15.207v-27.647zm34.375-19.819l26.375-15.206v27.645l-26.375 15.207v-27.646zM334.29 48.051l103.144 59.551-266.685 153.767-103.242-59.605L334.29 48.051zM8.01 315.905l20.628 11.903v21.041L8.01 336.94v-21.035zm165.255 72.622c-5.722 9.909-15.609 15.787-21.157 12.589-5.549-3.204-5.398-14.707.324-24.617 5.722-9.909 15.61-15.793 21.156-12.589 5.549 3.204 5.397 14.708-.323 24.617zm4.323-31.545a14.391 14.391 0 00-2.418-1.104V325.58l24.531-14.147v38.605l-18.068 10.417a14.546 14.546 0 00-4.045-3.473zm222.114-101.69c-2.987 5.174-7.171 9.445-11.478 11.719-2.182 1.151-6.343 2.794-9.679.869-5.549-3.204-5.397-14.706.323-24.616 5.722-9.909 15.608-15.787 21.156-12.589 5.55 3.204 5.399 14.707-.322 24.617zm9.687-26.164c-1.322-2.236-3.109-4.08-5.364-5.381-9.726-5.617-23.818 1.201-32.084 15.517-2.779 4.813-4.489 9.771-5.172 14.448l-129.947 74.923v-38.597l204.619-117.977v38.591l-32.052 18.476z"/></svg>