<svg version="1.1" id="Capa_1" xmlns="http://www.w3.org/2000/svg" x="0" y="0" viewBox="0 0 460.147 460.147" xml:space="preserve"><path d="M237.598 332.765c-2.03-1.173-6.385-2.457-12.718 2.133-3.784 2.743-7.485 7.054-10.422 12.141-2.938 5.087-4.821 10.448-5.304 15.097-.809 7.778 2.479 10.908 4.512 12.081 1.207.697 2.612 1.06 4.153 1.059 5.544 0 12.839-4.688 18.985-15.334 2.938-5.087 4.821-10.448 5.304-15.097.809-7.777-2.478-10.907-4.51-12.08zm-3.447 11.254c-.363 3.503-1.922 7.849-4.274 11.923-5.139 8.901-11.148 11.958-12.212 11.347-.147-.085-.874-1.244-.554-4.326.363-3.503 1.922-7.849 4.274-11.923s5.337-7.597 8.188-9.664c2.015-1.46 3.293-1.715 3.795-1.715.123 0 .199.016.229.032.148.085.875 1.244.554 4.326zm179.193-114.446c-2.031-1.173-6.387-2.456-12.718 2.133-3.784 2.742-7.485 7.054-10.422 12.141-7.855 13.606-6.345 23.971-.792 27.177.938.542 2.37 1.106 4.264 1.106 2.209 0 5.045-.769 8.454-3.24 3.784-2.742 7.485-7.054 10.422-12.141 2.938-5.087 4.82-10.448 5.304-15.096.808-7.778-2.48-10.907-4.512-12.08zm-3.446 11.254c-.364 3.502-1.922 7.848-4.274 11.923s-5.337 7.597-8.188 9.664c-2.509 1.818-3.875 1.766-4.023 1.683-1.057-.61-1.421-7.345 3.72-16.249 2.353-4.075 5.337-7.597 8.188-9.664 2.015-1.459 3.292-1.715 3.794-1.715.124 0 .2.015.229.032.147.085.875 1.244.554 4.326z"/><path d="M458.147 152.073l-128.63-74.26a4.002 4.002 0 00-3.049-.396l-20.492 5.569-47.675-27.692a3.999 3.999 0 00-4.007-.006l-139.317 80.336a3.998 3.998 0 00-1.71 1.966l-25.192 62.313-86.786 62A4 4 0 000 264.844v58.01a4 4 0 002 3.464l136.05 78.54a4.002 4.002 0 004 0l47.728-27.749c1.561 7.897 5.534 14.305 11.853 17.954 3.47 2.003 7.361 3 11.508 3 4.979 0 10.327-1.439 15.753-4.303 9.341-4.931 17.926-13.607 24.174-24.43 6.249-10.823 9.47-22.596 9.07-33.15-.011-.288-.036-.566-.052-.851l103.801-60.038c1.761 7.479 5.707 13.238 11.493 16.578 3.551 2.05 7.484 3.025 11.604 3.025 13.723 0 29.479-10.826 39.832-28.756 8.027-13.903 10.726-28.482 8.337-39.872l20.456-17.14a4.004 4.004 0 001.43-2.978l1.111-50.523a4.004 4.004 0 00-2.001-3.552zM326.96 85.574l120.146 69.362-29.885 12.312-21.861-31.901a4.024 4.024 0 00-1.242-1.269c-.294-.19-78.42-45.443-78.42-45.443l11.262-3.061zm-71.112 135.18l49.3-28.501v39.163l-69.934 40.375 20.634-51.037zm57.299-33.126l53.669-31.027 7.939 34.627-61.608 35.568v-39.168zm68.856-.584l-7.94-34.632 16.684-9.645 19.262 28.109-28.006 16.168zM256.286 63.375l127.602 74.117L252.6 213.391l-128.158-73.989 131.844-76.027zm-137.53 81.981l128.866 74.402-22.155 54.798-128.864-74.404 22.153-54.796zm-26.602 61.465l128.502 74.195-80.827 57.622-128.08-74.486 80.405-57.331zm96.879 161.455l-44.984 26.319v-12.017l46.765-27.05c-1.122 4.391-1.712 8.68-1.781 12.748zM8 271.227l128.05 74.468v28.034L8 299.261v-28.034zm0 49.317v-12.029l128.05 74.468v11.482L8 320.544zm238.138 44.786c-5.505 9.535-12.956 17.119-20.98 21.355-7.424 3.917-14.358 4.433-19.526 1.448-11.115-6.417-11.347-27.703-.506-46.481 8.668-15.014 22.264-24.699 33.048-24.699 2.704 0 5.231.609 7.46 1.895 5.169 2.984 8.19 9.247 8.509 17.635.342 9.068-2.5 19.313-8.005 28.847zm175.747-103.192c-10.843 18.78-29.396 29.222-40.508 22.803-5.169-2.984-8.19-9.247-8.509-17.634-.344-9.068 2.499-19.313 8.004-28.848 5.505-9.534 12.956-17.118 20.98-21.354 4.239-2.238 8.318-3.365 12.001-3.365 2.766 0 5.309.637 7.525 1.917 11.116 6.417 11.348 27.703.507 46.481zm12.431-43.935c-2.095-3.993-5.079-7.248-8.937-9.475-7.635-4.41-17.317-3.947-27.261 1.302-9.341 4.931-17.926 13.606-24.174 24.429-6.06 10.495-9.261 21.879-9.086 32.184l-104.157 60.245c-1.927-6.695-5.706-11.871-11.068-14.967-15.387-8.879-37.979 2.422-51.436 25.732a75.928 75.928 0 00-3.218 6.225l-50.929 29.458v-27.881l85.289-60.804c.25-.178.471-.39.672-.619l187.511-108.256 34.493-14.211-.937 42.593-16.762 14.045z"/><path d="M15.016 294.294l21 12.22v-11.57l-21-12.22zm93 43.43v11.57l21 12.22v-11.57z"/></svg>