<svg version="1.1" id="Capa_1" xmlns="http://www.w3.org/2000/svg" x="0" y="0" viewBox="0 0 457.632 457.632" xml:space="preserve"><path d="M457.632 95.691c0-1.43-.762-2.751-2-3.465l-94.193-54.383a4.001 4.001 0 00-3.998-.001L2.005 242.756a4.002 4.002 0 00-2.002 3.464L0 361.945c0 1.429.762 2.75 2 3.464l25.692 14.836v9.402c0 1.429.762 2.75 2 3.464l26.285 15.175a4.002 4.002 0 004 0 3.998 3.998 0 002-3.464v-4.782l34.214 19.749a4 4 0 003.998.001l25.321-14.598 10.812 6.237a3.998 3.998 0 003.997 0l5.887-3.394a13.002 13.002 0 003.54 3.019c2.028 1.175 4.312 1.769 6.745 1.768 1.402 0 2.854-.197 4.335-.593 6.551-1.751 13.045-7.271 17.368-14.763a37.798 37.798 0 002.966-6.465 13.04 13.04 0 001.942 1.396c2.071 1.195 4.36 1.763 6.746 1.763 7.594-.001 16.159-5.758 21.706-15.365 2.16-3.735 3.58-7.598 4.294-11.321L369.1 279.13c1.107 1.524 2.468 2.78 4.063 3.697 2.05 1.184 4.333 1.773 6.749 1.773 2.811 0 5.802-.799 8.814-2.389 5-2.64 9.574-7.254 12.879-12.986a38.415 38.415 0 002.983-6.468c.602.517 1.236.998 1.935 1.401 2.05 1.183 4.333 1.772 6.75 1.772 2.811 0 5.802-.799 8.814-2.389 5-2.64 9.574-7.254 12.878-12.986 5.197-8.987 6.174-18.824 2.961-25.471l17.704-10.206a3.999 3.999 0 002.002-3.465c-.002.001 0-115.712 0-115.722zm-98.194-49.766l86.19 49.762L98.189 295.978l-86.182-49.754L359.438 45.925zM94.188 314.793L72.35 302.186v-11.888l21.838 12.607v11.888zM64.35 297.567l-27.914-16.115v-11.888l27.914 16.115v11.888zm-35.914-20.733L8 265.036v-11.888l20.436 11.798v11.888zM8 274.274l20.436 11.798v52.477L8 326.751v-52.477zm28.436 16.416l27.914 16.115v52.477l-27.914-16.115V290.69zm35.914 20.734l21.838 12.607v52.477L72.35 363.901v-52.477zm29.838 16.82l16.938-9.766c.044-.026.069-.039.135-.002.069.04.069.072.069.125v44.64a.133.133 0 01-.068.115l-17.074 9.843v-44.955zm-48.211 69.649l-18.285-10.556v-7.986l18.285 10.556v7.986zm6-13.759l-26.285-15.175a4.003 4.003 0 00-4 0 3.99 3.99 0 00-1.778 2.175L8 359.636v-23.647l86.188 49.758v23.65l-32.211-18.593v-3.205a4 4 0 00-2-3.465zm78.343 19.213l-4.803-2.771 8.982-5.178a23.132 23.132 0 00.405 5.307l-4.584 2.642zm32.945-9.881c-3.237 5.611-8.029 9.84-12.506 11.037-1.983.531-3.666.406-5.011-.373-1.059-.611-1.879-1.623-2.443-3.023-1.125-2.763-1.074-6.735.087-10.835l23.12-13.328c1.14 3.943.475 10.088-3.247 16.522zm198.708-138.44v-41.861l19.044-10.979v41.861l-19.044 10.979zm-3.809 16.563l-150.127 86.543c-.273-1.555-.698-3.029-1.305-4.376l151.198-87.165a24.097 24.097 0 00.234 4.998zm-31.236-23.341v26.98L222.35 340.13v-26.984l112.578-64.898zm8 22.369v-41.86l19.044-10.98v41.86l-19.044 10.98zM214.35 344.742l-19.044 10.979v-41.873l19.044-10.98v41.874zm182.667-186.483l26.78-15.439c.046-.026.068-.04.134-.002.069.04.069.072.069.126v44.64a.133.133 0 01-.067.114l-26.916 15.515v-44.954zm-8 34.692l-19.044 10.979v-30.08l19.044-10.979v30.08zm-27.044 15.592l-19.044 10.98v-30.081l19.044-10.979v30.08zm-27.045 30.472l-52.578 30.31v-44.959l52.578-30.311v44.96zm-60.578 34.921l-52 29.976v-44.957l52-29.978v44.959zm-60 19.698l-19.044 10.98v-30.067l19.044-10.979v30.066zm-27.044 15.592l-19.044 10.98v-30.069l19.044-10.979v30.068zm-27.044 30.476l-12.621 7.278v-44.956l12.621-7.276v44.954zm8-10.262l19.044-10.98v41.872l-19.044 10.979V329.44zm36.364 45.355c-5.306 9.19-13.493 13.001-17.527 10.675-3.335-1.923-4.189-8.028-2.159-14.539l22.768-13.125c1.353 3.982.701 10.445-3.082 16.989zm190.049-109.568c-2.526 4.382-6.057 7.995-9.687 9.912-1.784.942-5.174 2.293-7.833.759-1.199-.69-2.091-1.892-2.648-3.572-.977-2.945-.78-6.884.503-10.97l22.752-13.117c1.352 3.98.698 10.441-3.087 16.988zm33.36-18.67c-2.526 4.382-6.057 7.995-9.686 9.912-1.784.942-5.173 2.293-7.828.762-3.498-2.02-4.261-8.426-1.939-15.229l22.406-12.917c1.867 4.516.227 11.972-2.953 17.472zm-31.018-7.122v-26.987l30.916-17.82a8.16 8.16 0 004.068-7.042v-44.64c0-2.944-1.52-5.581-4.066-7.052-2.543-1.47-5.583-1.472-8.132-.003L141.7 296.216a3.994 3.994 0 00-2.058 3.595v54.003l-.001.124.001.116a4 4 0 004 3.966h.017a3.985 3.985 0 002.706-1.069l13.898-8.015v26.986l-58.074 33.479v-26.969l21.074-12.149a8.16 8.16 0 004.068-7.043V318.6c0-2.944-1.52-5.58-4.065-7.052-2.543-1.47-5.583-1.472-8.133-.003l-12.944 7.463v-16.103L449.63 102.614v106.49l-52.613 30.331z"/><path d="M355.565 69.125a4.004 4.004 0 00-6.002-3.465L50.22 238.225a4 4 0 003.995 6.931L353.4 72.682a3.998 3.998 0 002.165-3.557zm25.046 12.773a4 4 0 00-5.463-1.468L75.805 252.996a4 4 0 003.995 6.931L379.144 87.361a3.999 3.999 0 001.467-5.463zM99.922 273.222a3.996 3.996 0 005.463 1.468L404.72 102.133a4 4 0 00-3.995-6.931L101.39 267.759a4 4 0 00-1.468 5.463z"/><ellipse cx="16.843" cy="353.335" rx="5.14" ry="7.709"/><ellipse cx="82.8" cy="391.633" rx="5.14" ry="7.709"/></svg>