<svg version="1.1" id="Capa_1" xmlns="http://www.w3.org/2000/svg" x="0" y="0" viewBox="0 0 473.132 473.132" xml:space="preserve"><path d="M473.065 166.378c.809-21.347-5.746-45.229-18.459-67.246-12.711-22.018-30.116-39.636-49.006-49.608-19.492-10.29-38.312-11.289-52.989-2.816l-120.34 69.378c-.079 0-.156-.003-.235-.003-22.375 0-39.248 9.135-39.248 21.249 0 .496.039.985.094 1.471 0 0-168.038 96.783-168.756 97.198C9.447 244.476.903 261.273.068 283.3c-.809 21.346 5.746 45.227 18.458 67.245 7.62 13.199 16.935 24.8 27.237 34.137-1.637.146-3.19.617-4.588 1.424-7.173 4.142-8.153 15.42-2.23 25.678 4.481 7.762 11.445 12.394 17.677 12.394 2.003 0 3.932-.479 5.676-1.486 6.447-3.722 7.872-13.21 3.799-22.539l.707-.404c.244.132.486.277.731.406 10.737 5.668 21.268 8.517 31.017 8.517 3.406 0 6.71-.37 9.901-1.067l31.474 18.167a4 4 0 004.005-.003l22.479-13.023c.08 7.806 3.121 14.112 8.636 17.293 2.453 1.416 5.165 2.089 7.999 2.089 9.178-.001 19.603-7.065 26.396-18.822 2.77-4.796 4.589-9.852 5.411-14.709 1.39 2.207 3.213 4.013 5.445 5.302 2.417 1.396 5.117 2.091 7.981 2.091 3.373 0 6.974-.964 10.611-2.885 6.125-3.233 11.737-8.898 15.803-15.948a46.24 46.24 0 004.293-9.947l95.601-55.195a15.235 15.235 0 003.082 2.375c2.418 1.396 5.118 2.093 7.983 2.092 3.371 0 6.97-.963 10.604-2.88 6.122-3.23 11.735-8.894 15.807-15.944 2.765-4.787 4.583-9.853 5.404-14.723 1.391 2.218 3.219 4.028 5.452 5.316 2.453 1.417 5.169 2.09 8.003 2.09 9.182 0 19.609-7.069 26.402-18.835 5.568-9.654 7.292-20.446 4.737-28.451l20.892-12.103a4 4 0 00-.005-6.925l-24.597-14.2 10.661-6.145c14.674-8.48 23.218-25.277 24.053-47.304zm-241.03-42.296c14.751 0 31.248 5.666 31.248 13.249s-16.497 13.249-31.248 13.249c-14.75 0-31.248-5.666-31.248-13.249s16.498-13.249 31.248-13.249zm0 34.498c22.375 0 39.248-9.135 39.248-21.249 0-9.414-10.193-17.027-25.236-19.953l13.453-7.756.009.015c25.845-14.921 66.698 7.282 91.07 49.495 11.969 20.729 18.146 43.083 17.393 62.942-.715 18.861-7.63 33.127-19.472 40.301l-93.165 53.699c3.779-7.821 5.963-17.182 6.364-27.755.81-21.346-5.746-45.227-18.458-67.245s-30.117-39.637-49.007-49.608c-9.446-4.987-18.729-7.771-27.464-8.374l29.339-16.917c5.968 7.449 19.45 12.405 35.926 12.405zM126.123 288.422c-12.712-22.019-30.117-39.636-49.007-49.608-9.348-4.935-18.535-7.708-27.19-8.35l95.284-54.941.032.056c25.845-14.919 66.699 7.282 91.071 49.495 23.741 41.121 23.207 86.28-.727 102.383l-97.49 56.192c3.849-7.868 6.081-17.303 6.485-27.981.81-21.345-5.746-45.227-18.458-67.246zm-67.826 127.34c-2.768 1.594-8.669-1.475-12.425-7.979-3.755-6.504-3.465-13.151-.698-14.75.479-.276 1.057-.413 1.707-.413 1.033 0 2.247.345 3.529 1.021 2.681 1.416 5.302 4.103 7.188 7.371 3.756 6.504 3.466 13.151.699 14.75zm16.846-20.783l6.524-3.729a4 4 0 00-3.97-6.945l-10.891 6.225c-15.853-9.597-30.405-25.022-41.354-43.985-11.968-20.729-18.145-43.083-17.392-62.942.727-19.179 7.853-33.624 20.063-40.674 5.342-3.084 11.42-4.617 17.992-4.617 8.451 0 17.716 2.538 27.265 7.578 17.575 9.277 33.845 25.804 45.814 46.533 11.968 20.73 18.145 43.084 17.392 62.943-.727 19.179-7.853 33.624-20.063 40.674-11.277 6.509-25.849 6.096-41.38-1.061zm127.369 14.322c-6.424 11.119-17.168 17.442-23.468 13.807-3.856-2.224-5.455-8.114-4.228-15.235l32.244-18.68c1.06 5.67-.568 13.218-4.548 20.108zm45.249-26.146c-3.323 5.763-7.802 10.334-12.61 12.873-2.436 1.285-7.085 3.117-10.856.94-3.866-2.232-5.466-8.16-4.219-15.316l32.235-18.675c1.08 5.674-.553 13.258-4.55 20.178zm11.732-24.339l89.549-51.879c.019 3.005.477 5.787 1.341 8.262l-89.788 51.839c.038-2.928-.316-5.711-1.102-8.222zm125.638-55.163c-3.327 5.763-7.807 10.334-12.612 12.87-2.437 1.283-7.084 3.113-10.854.935-3.868-2.232-5.469-8.219-4.194-15.403l32.182-18.644c1.104 5.691-.528 13.327-4.522 20.242zm45.261-26.151c-6.425 11.127-17.174 17.455-23.479 13.815-3.879-2.238-5.478-8.267-4.173-15.49l32.154-18.628c1.126 5.695-.5 13.364-4.502 20.303zm22.562-40.01L141.921 417.684l-23.53-13.58c.532-.267 1.057-.55 1.579-.841l-.072.111 310.443-178.937 22.613 13.055zm-83.425 12.762c3.818-7.847 6.033-17.245 6.436-27.876.809-21.347-5.746-45.229-18.459-67.246-12.712-22.019-30.117-39.636-49.008-49.608-9.416-4.97-18.669-7.751-27.38-8.366l75.489-43.521c25.842-14.918 66.698 7.281 91.07 49.495 11.969 20.729 18.146 43.083 17.393 62.942-.728 19.18-7.853 33.625-20.061 40.673l-75.48 43.507z"/></svg>