<svg version="1.1" id="Capa_1" xmlns="http://www.w3.org/2000/svg" x="0" y="0" viewBox="0 0 457.79 457.79" xml:space="preserve"><path d="M457.781 121.137a3.993 3.993 0 00-1.991-3.464L333.797 47.24a4.003 4.003 0 00-3.275-.327L76.438 132.381a4.002 4.002 0 00-2.705 3.394c-.013.133-.011.265-.011.397h-.009v14.798l-58.208 33.613a3.998 3.998 0 00-1.939 2.807l-.006-.001L.055 268.35l.006.001a3.984 3.984 0 00-.061.657v67.657c0 1.429.762 2.75 2 3.464l121.981 70.421a3.99 3.99 0 001.997.535 4 4 0 001.997-.552l.006.011 39.695-22.915c.406 7.952 3.635 14.558 9.58 17.991 2.724 1.572 5.738 2.319 8.888 2.319 10.299 0 22.037-7.993 29.703-21.271 6.1-10.565 8.005-21.683 5.939-30.281l101.323-58.493c.597 7.548 3.804 13.787 9.523 17.089 2.676 1.545 5.669 2.315 8.85 2.315 3.768 0 7.799-1.081 11.875-3.232 6.915-3.65 13.26-10.055 17.866-18.033 4.514-7.819 6.878-16.325 6.692-24.015 1.339 5.46 4.283 9.895 8.794 12.5 2.676 1.545 5.669 2.315 8.85 2.315 3.768 0 7.799-1.081 11.875-3.233 6.915-3.65 13.26-10.054 17.867-18.033 4.606-7.979 6.98-16.676 6.684-24.489a30.151 30.151 0 00-.726-5.605l7.383-4.262a3.998 3.998 0 002-3.464V188.81l15.148-8.745a4 4 0 002-3.464v-55.463h-.009zM133.846 268.422l-114.652-66.19 1.307-7.836 114.601 66.161-1.256 7.865zm-1.351 8.458l-9.022 56.485L8.402 266.93l9.387-56.272 114.706 66.222zm-10.512 64.862v15.816L8 291.754v-15.818l113.983 65.806zM8 300.992l11.063 6.386v12.234L8 313.226v-12.234zm19.063 11.005l75.5 43.587v33.363l-75.5-43.587v-33.363zm83.5 48.206l11.421 6.593v12.236l-11.421-6.591v-12.238zm32.572-99.222l52.559-30.34v63.962l-63.813 36.842 11.254-70.464zm-61.422-117.88l113.981 65.803v7.907L81.713 150.997v-7.896zm118.417 59.126l-13.179-7.609 144.846-83.635 51.397 29.675-183.064 61.569zm193.174-64.968l-57.507-33.203V57.633l108.318 62.537-50.811 17.089zM327.797 56.27v47.786L178.951 190l-91.564-52.861 240.41-80.869zM77.69 157.912l113.981 65.813-52.185 30.125-113.981-65.803 52.185-30.135zM8 322.464l11.063 6.386v11.892L8 334.355v-11.891zm102.563 71.102v-11.889l11.421 6.591v11.891l-11.421-6.593zm57.916-15.636l-38.496 22.222v-58.374l65.711-37.937v39.246c-7.847 2.972-15.683 9.876-21.32 19.638-2.917 5.054-4.87 10.233-5.895 15.205zm40.441 4.74c-7.51 13.007-20.179 20.343-27.663 16.023-7.485-4.322-7.464-18.961.045-31.968 6.045-10.47 15.431-17.266 22.767-17.266 1.778 0 3.436.399 4.896 1.242 7.485 4.322 7.465 18.962-.045 31.969zm4.045-38.897c-2.833-1.635-5.983-2.371-9.271-2.308v-15.863l24.638-14.224v31.995l-9.75 5.629c-1.474-2.137-3.345-3.917-5.617-5.229zm83.911-71.966v31.996l-60.544 34.952V306.76l60.544-34.953zm67.419 20.227c-3.862 6.69-9.073 12.003-14.672 14.958-4.997 2.638-9.609 3.015-12.99 1.064-7.485-4.322-7.464-18.961.045-31.968 3.863-6.69 9.074-12.003 14.673-14.958 4.997-2.638 9.61-3.016 12.99-1.064 3.38 1.951 5.359 6.135 5.573 11.781.239 6.328-1.756 13.497-5.619 20.187zm54.078-30.465c-3.863 6.69-9.074 12.003-14.673 14.958-4.997 2.638-9.61 3.015-12.99 1.064-7.485-4.322-7.464-18.961.045-31.968 3.862-6.69 9.073-12.003 14.672-14.958 2.89-1.526 5.652-2.295 8.122-2.295 1.799 0 3.443.409 4.868 1.231 3.38 1.951 5.359 6.135 5.573 11.781.24 6.327-1.755 13.496-5.617 20.187zm14.269-36.131l-4.514 2.606c-1.503-2.227-3.415-4.046-5.711-5.371-5.848-3.377-13.208-3.05-20.725.917-6.915 3.65-13.26 10.054-17.866 18.033-2.96 5.127-4.926 10.383-5.938 15.42l-3.482 2.01c-1.551-2.477-3.585-4.483-6.066-5.915-5.847-3.376-13.208-3.05-20.725.917-6.915 3.65-13.26 10.054-17.866 18.033-3.125 5.412-5.15 10.971-6.105 16.261l-18.767 10.834v-31.996l127.765-73.76v32.011zm-228.948 90.926V209.469l246.096-82.766v47.588L203.694 316.364z"/></svg>