<svg version="1.1" id="Capa_1" xmlns="http://www.w3.org/2000/svg" x="0" y="0" viewBox="0 0 471.443 471.443" xml:space="preserve"><path d="M471.382 261.834c-.699-18.434-7.285-32.889-18.662-41.218-1.116-.817-34.684-19.958-41.224-23.727-8.827-5.093-19.275-6.447-30.446-4.16V80.353l9.034-5.215a4 4 0 000-6.928L279.615 4.416a4 4 0 00-4.003.001L144.854 80.044a4.002 4.002 0 00.021 6.939l8.396 4.787v36.847l-11.979-10.571V65.147c0-18.092 9.139-34.649 24.446-44.292a4.001 4.001 0 00-4.264-6.77c-17.647 11.116-28.183 30.205-28.183 51.062v156.542l-28.308 32.701c-6.46-3.67-13.191-7.502-15.653-8.916-11.023-6.361-25.092-5.643-39.612 2.022-13.92 7.347-26.737 20.313-36.091 36.512C4.273 300.201-.549 317.783.049 333.518c.623 16.413 7.033 28.958 18.053 35.326 5.273 3.042 29.191 16.588 30.05 17.074l.008.005.016.008.015.008c4.921 2.836 10.508 4.241 16.476 4.241 7.684 0 15.996-2.335 24.309-6.939l25.123 14.321a3.997 3.997 0 004.089-.078l20.78-12.894c-2.631 8.955-3.87 17.875-3.552 26.269.622 16.412 7.03 28.956 18.048 35.322 5.344 3.08 31.937 18.103 32.891 18.532 4.227 1.902 8.836 2.849 13.701 2.849 7.268 0 15.104-2.115 23.077-6.325 13.924-7.35 26.741-20.316 36.091-36.512 9.351-16.194 14.172-33.778 13.575-49.512-.366-9.655-2.749-17.955-6.88-24.461l39.193-22.672c3.72 9.677 9.809 17.205 17.981 21.926 6.705 3.865 40.773 23.064 42.338 23.708 4.86 1.999 10.116 2.996 15.646 2.996 8.96 0 18.636-2.616 28.494-7.82 17.313-9.139 33.259-25.278 44.902-45.446 11.646-20.167 17.65-42.047 16.909-61.61zm-98.332-66.895a75.558 75.558 0 00-10.294 4.514c-10.692 5.643-20.86 13.964-29.818 24.25V108.127l40.112-23.156v109.968zm-68.113 80.371l-37.396 21.633V145.879l57.396-33.134v121.119a138.932 138.932 0 00-7.084 11.037c-5.706 9.883-10.049 20.177-12.916 30.409zM277.617 12.5l102.467 59.173-122.187 70.535-103.008-58.726L277.617 12.5zm-21.679 137.8a3.983 3.983 0 003.603.174v103.077l-98.27-56.75V96.33l94.667 53.97zM59.639 324.38l8.372 4.773v32.93l-8.372-4.772V324.38zm16.372 9.334l5.601 3.193v32.929l-5.601-3.192v-32.93zm13.601 7.753l5.6 3.192v32.928l-5.6-3.192v-32.928zm13.6 7.753l8.862 5.052v32.927l-8.862-5.052V349.22zm12.776-1.925l-54.133-30.86 96.848-111.878 97.052 56.047-139.767 86.691zm25.304-218.58l11.979 10.571v59.323l-11.979 13.839v-83.733zM20.555 288.009c17.431-30.187 46.493-46.154 64.785-35.602 1.905 1.093 6.341 3.621 11.234 6.404-19.017 3.016-39.542 19.181-52.886 42.287-9.35 16.195-14.171 33.778-13.575 49.512.252 6.658 1.472 12.665 3.55 17.894-5.01-2.845-9.596-5.456-11.561-6.589-18.288-10.568-18.981-43.721-1.547-73.906zm31.606 90.985c-8.549-4.932-13.54-15.119-14.054-28.687-.539-14.247 3.903-30.303 12.509-45.209 11.157-19.32 27.452-33.315 42.933-37.499L52.62 314.88c-.19.22-.354.543-.491.888-.348.876-.489 1.821-.489 2.764v41.103c0 1.437.771 2.764 2.02 3.475l26.948 15.361c-10.645 4.708-20.761 4.965-28.447.523zm67.913 7.906v-32.725l139.467-86.506v75.657a31.411 31.411 0 00-4.789-3.426c-.009-.005-24.853-14.089-30.059-17.089-11.019-6.357-25.086-5.639-39.609 2.026-13.923 7.349-26.74 20.316-36.091 36.514a110.886 110.886 0 00-5.584 11.07L120.074 386.9zm37.39 52.352c-18.282-10.563-18.974-43.715-1.543-73.901 17.429-30.188 46.485-46.162 64.776-35.609 1.891 1.09 6.317 3.61 11.205 6.388-5.411.858-11.047 2.782-16.758 5.797-13.924 7.35-26.741 20.316-36.091 36.512-9.351 16.195-14.171 33.779-13.575 49.512.253 6.658 1.473 12.664 3.551 17.894-5.012-2.848-9.6-5.46-11.565-6.593zm94.833-18.526c-8.606 14.907-20.289 26.782-32.897 33.438-12.006 6.336-23.326 7.109-31.873 2.175-18.282-10.556-18.976-43.707-1.545-73.899 8.606-14.906 20.29-26.781 32.897-33.437 12.006-6.338 23.324-7.111 31.873-2.175 8.548 4.936 13.539 15.124 14.054 28.69.539 14.246-3.903 30.302-12.509 45.208zm15.244-80.154v-34.387l34.953-20.219c-1.256 7.008-1.799 13.909-1.547 20.542.184 4.865.789 9.444 1.773 13.715l-35.179 20.349zm59.551 2.505c-23.439-13.543-24.477-55.79-2.311-94.176 22.162-38.389 59.267-58.616 82.719-45.081 2.713 1.563 9.578 5.469 16.721 9.528-7.587.754-15.592 3.266-23.726 7.56-17.312 9.139-33.259 25.278-44.902 45.446s-17.647 42.048-16.906 61.61c.358 9.447 2.281 17.83 5.584 24.898-7.281-4.133-14.366-8.163-17.179-9.785zm120.455-23.632c-10.9 18.879-25.713 33.927-41.709 42.371-15.396 8.127-29.956 9.089-41.003 2.712-11.047-6.378-17.494-19.471-18.154-36.866-.685-18.075 4.94-38.428 15.84-57.307 22.167-38.393 59.274-58.614 82.713-45.083 11.047 6.378 17.494 19.471 18.153 36.866.685 18.075-4.94 38.428-15.84 57.307z"/><path d="M240.594 364.423c-10.957-6.325-28.447 4.876-40.68 26.06-12.23 21.185-13.188 41.932-2.229 48.26 2.037 1.177 4.319 1.759 6.781 1.759 4.344 0 9.248-1.813 14.352-5.378 7.121-4.975 14.063-12.944 19.546-22.441 12.231-21.186 13.189-41.933 2.23-48.26zm-.54 19.424c-.648 7.512-3.709 16.331-8.618 24.835-4.91 8.504-11.018 15.565-17.199 19.883-5.152 3.599-9.846 4.813-12.552 3.25-2.708-1.563-4.002-6.235-3.462-12.497.648-7.511 3.709-16.331 8.618-24.835 4.91-8.504 11.019-15.564 17.199-19.882 5.151-3.597 9.846-4.812 12.553-3.25 2.709 1.563 4.002 6.234 3.461 12.496zm193.298-137.995c-14.644-8.458-38.555 6.466-54.434 33.971-7.333 12.7-11.773 26.129-12.504 37.813-.792 12.676 2.866 22.02 10.301 26.312 2.77 1.6 5.869 2.362 9.185 2.362 14.215-.002 32.373-14.031 45.249-36.332 15.88-27.504 16.847-55.671 2.203-64.126zm-47.506 37.97c5.865-10.16 12.567-18.035 19.085-23.476 2.46-1.134 5.828-2.142 8.259-.745 5.805 3.356 4.831 20.037-5.163 37.338-4.907 8.503-11.014 15.563-17.195 19.88-5.151 3.597-9.842 4.808-12.545 3.248-2.195-1.272-3.053-4.179-3.385-6.568 1.389-9.346 5.188-19.705 10.944-29.677zm38.375 22.156c-14.547 25.193-34.239 36.388-43.506 31.042-2.921-1.686-4.911-5.083-5.828-9.73 1.883.961 3.951 1.463 6.178 1.463 4.342 0 9.243-1.812 14.346-5.375 7.123-4.974 14.063-12.943 19.544-22.438 12.162-21.055 13.179-41.679 2.415-48.15 2.388-.87 4.633-1.318 6.66-1.318 2.008 0 3.805.432 5.321 1.308 9.267 5.349 9.416 28.002-5.13 53.198z"/></svg>