<svg version="1.1" id="Capa_1" xmlns="http://www.w3.org/2000/svg" x="0" y="0" viewBox="0 0 469.74 469.74" xml:space="preserve"><path d="M469.74 204.379a4 4 0 00-2-3.467l-50.365-29.072v-44.877l32.27-18.606a4.001 4.001 0 00.002-6.929l-117.8-68.012a4.001 4.001 0 00-3.998-.001L213.625 99.28a4.001 4.001 0 00-.002 6.929l12.186 7.035v43.897L38.745 265.256a4 4 0 00-1.999 3.464l.003.051-.002 42.381-34.715 19.622A4.001 4.001 0 000 334.238c0 .019.003.036.003.055v30.565c0 1.429.762 2.75 2 3.464l39.351 22.719-6.628 3.789c-6.023-7.62-14.584-10.774-20.82-7.176-7.172 4.141-8.152 15.421-2.23 25.679 2.659 4.605 6.346 8.314 10.383 10.445 2.444 1.29 4.934 1.938 7.282 1.938 2.043 0 3.98-.491 5.688-1.478 3.672-2.119 5.89-6.297 6.086-11.463.134-3.545-.673-7.382-2.283-11.078l10.543-6.026 70.412 40.652a4 4 0 003.995.003l22.806-13.121c1.446 2.571 3.42 4.627 5.864 6.04 2.418 1.396 5.118 2.092 7.983 2.092 3.371 0 6.97-.963 10.604-2.881 6.122-3.23 11.736-8.894 15.806-15.943 2.741-4.74 4.581-9.78 5.416-14.73 1.402 2.235 3.229 4.042 5.441 5.322 2.417 1.396 5.117 2.091 7.981 2.091 3.373 0 6.974-.964 10.612-2.885 6.125-3.232 11.74-8.897 15.813-15.952 2.892-5.021 4.784-10.355 5.539-15.54l112.429-64.682c1.385 2.142 3.177 3.876 5.313 5.114 2.418 1.396 5.119 2.092 7.984 2.092 3.371 0 6.969-.963 10.603-2.88 6.122-3.23 11.736-8.894 15.808-15.946 2.653-4.599 4.483-9.503 5.348-14.301l.241-.138c1.378 2.11 3.155 3.817 5.267 5.034 2.453 1.417 5.168 2.09 8.002 2.09 9.183 0 19.609-7.069 26.403-18.836 2.63-4.56 4.45-9.42 5.321-14.173l27.363-15.742a3.997 3.997 0 002.005-3.467l.006-30.605zM31.029 417.311c-1.24.716-3.148.494-5.236-.608-2.682-1.415-5.302-4.102-7.189-7.37-3.755-6.505-3.465-13.152-.698-14.751.485-.279 1.065-.416 1.714-.416 3.055 0 7.614 3.031 10.711 8.396 1.887 3.269 2.904 6.882 2.789 9.912-.089 2.358-.851 4.122-2.091 4.837zm426.7-212.941l-40.354 23.217v-46.511l40.354 23.294zM294.263 329.017v-21.373l144-82.846v21.374l-144 82.845zm-168.476 96.926v-21.371l140.477-80.819v21.373l-140.477 80.817zM274.263 319.15l12-6.904v21.373l-12 6.904V319.15zm-193.86 37.217v-11.416l27.693 15.986v11.416l-27.693-15.986zm27.693-27.809l-63.348-36.567.001-16.343 63.347 36.57v16.34zm0 9.236V351.7l-27.693-15.986v-13.906l27.693 15.986zm-35.693-20.603v13.906l-27.656-15.964.001-13.906 27.655 15.964zm-27.657 7.178l27.657 15.965v11.416l-27.657-15.965v-11.416zm71.35-12.152l25.623-14.808v60.294l-25.623 14.884v-60.37zm215.325-138.001c.619.357 1.31.536 2 .536.439 0 .875-.081 1.295-.225v38.188l-14.602-8.428.344-12.366h-.009c.001-.038.007-.075.007-.113a3.999 3.999 0 00-2-3.463L284.954 169v-21.61l46.467 26.826zm11.296 37.952v-42.159l30.282-17.46v42.161l-30.282 17.458zm-65.763-59.995v16.571l-18.103 10.724 18.103-27.295zm-34.421 37.425a4 4 0 005.372 5.652l32.831-19.448 27.723 16.008-43.688 25.248-63.355-36.578 43.691-25.251 14.621 8.445-17.195 25.924zm14.243 32.08l-60.886 35.187-63.352-36.577 60.883-35.188 63.355 36.578zm-68.882 39.807l-58.015 33.527-63.35-36.575 58.013-33.529 63.352 36.577zm-38.175 31.301l27.208-15.723v60.19l-27.208 15.804v-60.271zm35.207-20.346l27.2-15.719v60.085l-27.2 15.8V272.44zm35.2-20.343l27.2-15.719v59.981l-27.2 15.799v-60.061zm35.2-20.342l27.21-15.725v59.877l-27.21 15.805v-59.957zm35.21-20.348l21.726-12.556-1.689 60.77-20.037 11.639v-59.853zm29.326 1.972l14.855 8.573v43.987l-16.129-6.718 1.274-45.842zm22.855 54.494v-46.47l66.657-38.429v49.215L345.216 269.1l-2.499-1.227zm66.657-94.134l-28.375 16.358v-42.161l28.375-16.361v42.164zm-75.951-7.605l-52.929-30.557 106.224-61.244 52.924 30.556-106.219 61.245zm-3.577-124.636l48.87 28.216-106.224 61.244-48.865-28.21 106.219-61.25zm-96.037 76.365l40.713 23.504-10.364 15.625-17.051-9.848a3.997 3.997 0 00-4.002.001l-9.296 5.373v-34.655zM58.534 263.058l63.35 36.575-9.788 5.657-63.352-36.573 9.79-5.659zm-21.787 57.284l-.001 17.751c0 1.429.762 2.75 2 3.464l70.748 40.839a3.987 3.987 0 002.708 1.079c.685 0 1.377-.176 2.007-.541l200.7-116.579 20.348 8.475-213.464 122.81-109.729-63.346 24.683-13.952zm26.555 62.761a3.998 3.998 0 00-5.458-1.487l-8.449 4.83-41.392-23.897v-21.362l109.783 63.378v21.367l-60.372-34.855 4.399-2.514a4.003 4.003 0 001.489-5.46zm104.003 38.278c-2.436 1.285-7.082 3.112-10.852.938-1.347-.779-2.276-1.923-2.93-3.103l29.261-16.834a38.994 38.994 0 01-2.867 6.13c-3.327 5.761-7.806 10.333-12.612 12.869zm57.873-39.02c-3.328 5.764-7.809 10.336-12.619 12.875-2.436 1.286-7.084 3.119-10.855.941-1.189-.688-2.158-1.697-2.901-3.012l29.185-16.791a39.415 39.415 0 01-2.81 5.987zm157.678-91.844c-3.328 5.763-7.807 10.334-12.613 12.87-2.435 1.285-7.082 3.115-10.849.938-.922-.534-1.71-1.27-2.366-2.188l28.065-16.146a39.9 39.9 0 01-2.237 4.526zm45.26-26.151c-6.425 11.127-17.176 17.454-23.48 13.814-.896-.517-1.665-1.223-2.309-2.105l27.961-16.086a39.816 39.816 0 01-2.172 4.377zm18.147-22.796v-21.374l15.472-8.901v21.375l-15.472 8.9z"/></svg>