<svg version="1.1" id="Capa_1" xmlns="http://www.w3.org/2000/svg" x="0" y="0" viewBox="0 0 444.904 444.904" xml:space="preserve"><path d="M444.871 123.25c.001-1.077-.405-2.119-1.187-2.878l-89.188-86.546a4.003 4.003 0 00-2.055-1.062l-89.516-16.64a4.006 4.006 0 00-2.72.462L15.945 156.554a4 4 0 00-2.008 3.47l-.009 154.415c0 1.429.762 2.75 2 3.464l49.696 28.691-32.732 56.952-30.89 17.836a4 4 0 104 6.928l31.248-18.042 103.17-20.491 54.22 31.303a4 4 0 003.988.007l60.715-34.785c2.497 7.523 6.946 13.276 13.056 16.812l31.044 18.028c4.227 2.441 8.977 3.656 14.046 3.656 6.136 0 12.741-1.781 19.455-5.324 11.656-6.154 22.38-16.998 30.196-30.536 7.816-13.538 11.846-28.247 11.347-41.419-.525-13.853-5.961-24.452-15.305-29.847l-21.994-12.674c7.722-1.457 15.04-.599 21.255 2.986 3.798 2.195 7.018 5.345 9.569 9.36a4 4 0 005.365 1.326l65.516-37.534a4.001 4.001 0 002.012-3.471V123.25h-.034zm-10.572-.836L197.268 258.223l-82.311-80.207L351.093 41.672l83.206 80.742zM262.907 24.259l77.421 14.391-232.66 134.336-78.354-14.873L262.907 24.259zM21.927 164.854l84.525 16.045 86.186 83.982v85.115L21.927 251.442v-86.588zm0 95.825l170.711 98.554v51.453L21.927 312.129v-51.45zm50.624 89.915l26.026 15.025-51.876 29.953 25.85-44.978zm-13.769 47.24l47.794-27.596 23.33 13.469-71.124 14.127zM359.181 324.6c6.876 3.971 10.894 12.218 11.311 23.222.443 11.686-3.208 24.867-10.28 37.116-7.072 12.25-16.663 22.002-27.003 27.461-9.739 5.14-18.89 5.783-25.766 1.815-6.876-3.971-10.894-12.218-11.311-23.222-.443-11.686 3.208-24.867 10.28-37.116 11.307-19.584 28.522-31.895 42.563-31.895 3.673 0 7.131.843 10.206 2.619zm-17.117-9.819c-4.028.833-8.182 2.342-12.383 4.559-11.657 6.153-22.38 16.997-30.196 30.535-7.816 13.538-11.846 28.247-11.347 41.419.18 4.742.948 9.091 2.239 12.992l-13.969-8.097c-5.733-3.318-8.552-8.994-9.939-13.971l10.342-5.925a3.997 3.997 0 001.872-2.424c2.41-8.881 6.09-17.638 10.941-26.027 11.051-19.132 26.287-33.157 41.166-39.599l11.274 6.538zm34.493-4.861c-2.851-3.653-6.241-6.626-10.114-8.864-12.139-7.002-27.66-6.197-43.702 2.271-15.441 8.15-29.663 22.539-40.044 40.514-4.904 8.482-8.696 17.331-11.285 26.327l-70.773 40.547v-51.472l236.267-135.37v51.475l-60.349 34.572zm60.347-95.268l-236.266 135.37v-84.511l236.267-135.37v84.511z"/><path d="M318.688 394.738c1.389.801 3.005 1.217 4.782 1.217 6.634 0 15.5-5.793 23.073-18.909 3.647-6.317 5.984-12.959 6.581-18.7.713-6.859-1.129-11.927-5.187-14.269-4.056-2.344-9.367-1.404-14.951 2.642-4.674 3.388-9.257 8.732-12.904 15.05-9.601 16.628-7.97 29.172-1.394 32.969zm8.321-28.97c3.052-5.287 6.941-9.869 10.671-12.571 2.342-1.698 4.254-2.373 5.412-2.373.356 0 .641.063.845.182.866.499 1.62 2.751 1.229 6.513-.476 4.581-2.5 10.24-5.552 15.527-6.591 11.416-14.703 16.043-16.927 14.764-2.221-1.284-2.268-10.626 4.322-22.042z"/></svg>