<svg version="1.1" id="Capa_1" xmlns="http://www.w3.org/2000/svg" x="0" y="0" viewBox="0 0 474.377 474.377" xml:space="preserve"><path d="M474.377 88.604a4 4 0 00-2-3.464l-84.648-48.872a4.001 4.001 0 00-3.998-.002L64.312 220.416a4.004 4.004 0 00-2.002 3.465v26.285l-50.92 29.017a3.995 3.995 0 00-1.96 2.822L.195 337.626a3.99 3.99 0 00-.195 1.21v46.946a4 4 0 002 3.464l84.642 48.863a4.002 4.002 0 004 0l37.078-21.063c.686 5.086 3.047 9.289 7.05 11.6 2.072 1.196 4.362 1.765 6.749 1.765 7.593 0 16.155-5.756 21.702-15.362 3.31-5.734 5.015-12.003 4.801-17.651a22.396 22.396 0 00-.395-3.336l67.988-39.249c.796 4.793 3.137 8.731 6.968 10.943 2.072 1.196 4.362 1.765 6.749 1.765 7.593-.001 16.155-5.756 21.702-15.362 2.265-3.922 3.757-8.092 4.418-12.145 1.171 1.896 2.711 3.48 4.654 4.603 2.072 1.196 4.362 1.765 6.749 1.765 7.593 0 16.155-5.756 21.702-15.362 3.311-5.733 5.016-12.003 4.802-17.651a22.639 22.639 0 00-.372-3.212l4.379-2.527a4 4 0 002-3.465V277.99l24.666-14.219 23.057 13.237a3.999 3.999 0 004.011-.02l7.657-4.487c.815 4.924 3.209 8.745 6.94 10.9 2.051 1.185 4.334 1.774 6.751 1.774 2.811 0 5.801-.798 8.813-2.388 4.999-2.64 9.575-7.251 12.885-12.984 2.323-4.023 3.788-8.163 4.438-12.103 1.182 1.898 2.724 3.458 4.635 4.561 2.051 1.185 4.334 1.774 6.751 1.774 2.811 0 5.801-.798 8.813-2.388 4.999-2.64 9.576-7.251 12.886-12.984 4.152-7.192 5.58-14.762 4.448-20.875l4.36-2.516a4 4 0 002-3.465v-26.32l9.896-5.705a4.001 4.001 0 002.002-3.466l.002-97.712zM385.728 44.35l76.646 44.251-311.422 179.527-76.638-44.244L385.728 44.35zM70.31 230.81l76.641 44.246v19.397L70.31 250.2v-19.39zm-4.029 26.302l76.614 44.237-44.87 25.563-76.615-44.23 44.871-25.57zm-2.866 158.353l-34.188-19.738v-14.952l34.188 19.737v14.953zm6-20.726l-42.188-24.355a3.998 3.998 0 00-6 3.464v.165L8 366.059v-20.295l76.642 44.249-.001 21.128-13.226-7.956v-4.982c0-1.428-.763-2.75-2-3.464zm22.669-51.464l-77.311-44.633 1.598-9.633 77.256 44.601-1.543 9.665zm-1.351 8.457l-4.761 29.811-77.528-44.76 4.93-29.712 77.359 44.661zm10.926-17.683l10.813-6.16v41.463l-18.123 10.464 7.31-45.767zM8 375.394l13.227 7.954v7.761L8 383.473v-8.079zm63.415 44.69v-7.562l13.226 7.955v7.242l-13.226-7.635zm60.906-22.875c-.001 0-.001 0 0 0-1.979 3.428-3.32 6.938-4.081 10.341l-35.597 20.22v-37.732l25.83-14.913a3.998 3.998 0 002-3.464v-48.33l26.478-15.085v75.153a23.86 23.86 0 00-1.744.826c-4.999 2.639-9.576 7.251-12.886 12.984zm23.971 13.84c-5.305 9.186-13.493 12.997-17.522 10.67-4.03-2.327-4.825-11.323.479-20.51 2.53-4.381 6.063-7.993 9.693-9.909 1.785-.942 5.175-2.291 7.83-.761 2.655 1.533 3.179 5.145 3.256 7.161.154 4.103-1.207 8.968-3.736 13.349zm4.479-27.437c-1.785-1.031-3.749-1.604-5.821-1.737v-9.103l42.512-24.507V367.6l-33.102 19.11c-1.011-1.237-2.196-2.295-3.589-3.098zm103.333-35.454c-5.305 9.186-13.492 12.995-17.522 10.67-4.03-2.327-4.825-11.323.479-20.51 2.529-4.381 6.062-7.993 9.692-9.909 1.202-.635 3.131-1.454 5.074-1.454.942 0 1.888.193 2.755.693 2.655 1.533 3.18 5.145 3.256 7.161.157 4.103-1.204 8.969-3.734 13.349zm37.523-21.139c-5.305 9.186-13.492 12.995-17.522 10.67-4.031-2.327-4.825-11.323.479-20.51 2.529-4.381 6.062-7.993 9.692-9.909 1.202-.635 3.131-1.454 5.074-1.454.942 0 1.888.193 2.755.693 2.655 1.533 3.18 5.145 3.256 7.161.157 4.103-1.204 8.968-3.734 13.349zm9.738-25.165l-1.592.919c-1.026-1.278-2.238-2.367-3.666-3.192-4.436-2.563-9.963-2.344-15.565.613-4.999 2.64-9.575 7.251-12.886 12.984-2.012 3.484-3.363 7.053-4.117 10.508l-1.001.578c-1.079-1.439-2.394-2.643-3.954-3.544-4.436-2.562-9.963-2.344-15.565.613-4.999 2.64-9.575 7.251-12.885 12.984-2.126 3.682-3.519 7.461-4.242 11.097l-30.43 17.567v-19.33L311.364 282.6v19.254zm40.671-42.699l13.04-7.517v15.046l-13.04-7.529zm55.182 6.648c-2.529 4.381-6.062 7.993-9.692 9.909-1.785.942-5.174 2.292-7.83.761-2.655-1.533-3.18-5.145-3.256-7.161-.156-4.103 1.206-8.968 3.735-13.349 5.305-9.186 13.491-12.996 17.522-10.67 4.031 2.327 4.825 11.323-.479 20.51zm37.524-21.14c-2.53 4.381-6.063 7.993-9.693 9.909-1.785.941-5.174 2.292-7.83.761-2.655-1.533-3.179-5.145-3.256-7.161-.155-4.103 1.206-8.968 3.735-13.349 5.305-9.186 13.491-12.998 17.522-10.67 4.03 2.328 4.825 11.324-.478 20.51zm9.737-25.165l-1.595.92c-1.016-1.27-2.225-2.362-3.663-3.193-8.664-5.002-21.16.973-28.45 13.598-1.959 3.394-3.34 6.975-4.109 10.504l-1.007.581a13.102 13.102 0 00-3.956-3.543c-8.664-5.002-21.16.973-28.45 13.598-2.075 3.593-3.518 7.396-4.254 11.126l-5.917 3.467v-19.53l81.402-46.927v19.399zM154.95 363.537v-88.48l311.427-179.53v88.478L154.95 363.537z"/></svg>