<svg version="1.1" id="Capa_1" xmlns="http://www.w3.org/2000/svg" x="0" y="0" viewBox="0 0 438.442 438.442" xml:space="preserve"><path d="M425.454 121.158c-.884-.51-104.951-60.391-129.228-74.36-2.212-1.273-4.884-2.525-6.329-3.179a17.775 17.775 0 00-1.997-.783c-6.878-2.144-14.339-1.313-20.653 2.334L51.045 169.997c-12.122 6.998-21.029 18.23-25.083 31.629L.863 284.592c-1.591 5.263-.97 10.714 1.75 15.349 1.124 1.917 2.705 3.697 4.7 5.29l.546.436a20.8 20.8 0 002.595 1.771l42.276 24.406-24.998 43.496-24.018 13.867c-1.88 1.085-2.725 3.47-1.727 5.398a3.997 3.997 0 005.554 1.629l24.547-14.173 80.078-15.905 29.703 16.791c3.028 1.805 6.368 2.733 9.741 2.732 3.318 0 6.664-.883 9.76-2.671l136.044-78.543c.927 6.069 3.814 11.04 8.597 13.801 2.49 1.438 5.271 2.153 8.224 2.153 3.482 0 7.203-.996 10.962-2.98 6.344-3.349 12.161-9.218 16.381-16.527 4.22-7.309 6.395-15.282 6.123-22.449a29.453 29.453 0 00-.249-2.882l65.967-38.091c15.434-8.902 25.021-25.508 25.021-43.335v-50.5c.002-9.392-4.854-17.802-12.986-22.497zm4.988 22.497v40.811l-144.79 83.601v-57.761a4.002 4.002 0 00-6-3.464l-45.23 26.109a4 4 0 00-2 3.464v62.381l-87.566 50.563 20.994-69.424c3.472-11.453 11.083-21.047 21.432-27.017l216.2-124.83c4.808-2.775 10.408-3.172 15.446-1.208 0 0 1.927.859 2.527 1.205 5.627 3.25 8.987 9.07 8.987 15.57zm-152.79 162.984l-37.23 21.495v-89.409l37.23-21.491v89.405zm-247.588 2.624c-1.227-.98-2.167-2.02-2.794-3.087-1.116-1.904-2.194-5.008-.991-8.984l23.669-78.241 88.434 51.054-24.17 79.899a19.608 19.608 0 00-.751 7.763l-80.456-46.448-2.941-1.956zm274-248.242c.122.044 7.159 3.68 7.159 3.68l75.074 43.341a26.14 26.14 0 00-5.702 2.437L170.447 231.811l-87.454-50.488L289.003 62.38c4.682-2.704 10.031-3.186 15.061-1.359zM74.994 185.942L162.5 236.46a54.61 54.61 0 00-21.537 25.797L52.437 211.15a46.679 46.679 0 0120.365-23.943l2.192-1.265zm51.552 178.918c-.757-.484-1.484-1.027-2.118-1.664a10.07 10.07 0 01-1.566-1.993c-1.117-1.903-2.196-5.006-.992-8.983l25.099-82.967a46.707 46.707 0 0121.425-27.018l216.201-124.827c4.685-2.702 10.031-3.186 15.061-1.358.122.044 5.267 2.746 5.267 2.746a26.456 26.456 0 00-5.44 2.366l-216.2 124.828c-12.115 6.987-21.025 18.219-25.091 31.627l-25.09 82.968a19.69 19.69 0 00-.736 7.996l-5.82-3.721zm-114.24-65.881c-1.226-.979-2.165-2.017-2.792-3.086-1.117-1.903-2.195-5.007-.992-8.984l25.099-82.966a46.702 46.702 0 0121.425-27.018l216.2-124.827c4.681-2.703 10.029-3.188 15.061-1.358.122.044 4.581 2.223 4.581 2.223a26.117 26.117 0 00-5.884 2.49L68.802 180.279c-12.122 6.999-21.03 18.232-25.083 31.629L18.62 294.875a19.595 19.595 0 00-.76 7.599l-5.554-3.495zm47.353 36.864l18.241 10.53-36.358 20.993 18.117-31.523zm-6.036 33.784l32.276-18.636 15.755 9.095-48.031 9.541zm103.748 6.454c-4.954 2.858-9.853 1.386-12.789-.943-2.935-2.329-5.48-6.766-3.822-12.234l.711-2.352 90.95-52.518v24.718l-75.05 43.329zm177.28-79.169c-3.477 6.021-8.159 10.799-13.188 13.453-2.564 1.353-7.458 3.278-11.451.974-6.63-3.828-6.55-16.902.175-28.551 3.477-6.021 8.159-10.798 13.188-13.452 2.562-1.353 7.46-3.275 11.45-.974 3.992 2.305 4.772 7.507 4.882 10.403.215 5.682-1.581 12.127-5.056 18.147zm74.77-66.35l-64.459 37.22c-1.49-2.695-3.552-4.855-6.137-6.347-5.424-3.132-12.24-2.84-19.185.827-6.344 3.349-12.161 9.218-16.381 16.526-3.165 5.482-5.098 11.13-5.834 16.435l-11.773 6.797v-24.716l144.79-83.601v.452c0 14.977-8.054 28.927-21.021 36.407z"/><path d="M395.201 144.061a3.998 3.998 0 00-4 0l-91.608 52.656a4 4 0 00-2 3.464v34.563a4 4 0 006 3.464l91.608-52.656a4 4 0 002-3.464v-34.563a3.997 3.997 0 00-2-3.464zm-52.379 62.259l-37.229 21.495V202.49l37.229-21.495v25.325zm46.379-26.543l-37.229 21.495v-25.325l37.229-21.495v25.325zm-166 64.284a3.998 3.998 0 00-4 0l-45.229 26.113a4 4 0 00-2 3.464V308.2a4 4 0 006 3.464l45.229-26.113a4 4 0 002-3.464v-34.562a3.997 3.997 0 00-2-3.464zm-6 35.716l-37.229 21.495v-25.325l37.229-21.495v25.325zM239.19 111.34a3.998 3.998 0 002.019 3.462l40.834 23.28a3.999 3.999 0 004.151-.099l47.714-27.544a4 4 0 000-6.928L293.279 80.05a4.003 4.003 0 00-4.003.001l-48.09 27.813a4.002 4.002 0 00-1.996 3.476zm52.091-23.206l32.626 18.841-39.887 23.026-32.799-18.699 40.06-23.168z"/></svg>