<svg version="1.1" id="Capa_1" xmlns="http://www.w3.org/2000/svg" x="0" y="0" viewBox="0 0 444.905 444.905" xml:space="preserve"><path d="M444.898 164.116a4 4 0 00-2-3.471L264.194 57.459a3.995 3.995 0 00-3.988-.007L15.945 197.419a4 4 0 00-2.012 3.464v.006h-.006v72.686a4 4 0 002 3.464l49.696 28.691-32.733 56.952L2 380.517a4 4 0 004 6.928l31.249-18.043 103.169-20.491 54.22 31.303a4.002 4.002 0 003.988.007l60.716-34.785c2.497 7.522 6.947 13.276 13.055 16.813l31.045 18.028c4.228 2.44 8.977 3.656 14.046 3.656 6.136 0 12.741-1.781 19.454-5.325 11.657-6.153 22.381-16.998 30.197-30.536s11.846-28.247 11.346-41.419c-.524-13.849-5.958-24.447-15.298-29.843l-21.898-12.697c7.685-1.43 14.966-.565 21.153 3.005 3.799 2.195 7.019 5.345 9.569 9.36a4 4 0 005.364 1.326l65.517-37.533a4.001 4.001 0 002.012-3.471v-72.686h-.006zM196.646 299.445l-107.5-62.061 173.039-99.158L369.687 200.3l-173.041 99.145zm181.071-103.746l-111.523-64.396V67.852l166.682 96.243-55.159 31.604zM258.194 67.825v63.468L81.131 232.757l-55.176-31.854L258.194 67.825zM21.927 207.814l170.711 98.554v63.454L21.927 271.265v-63.451zm50.624 101.915l26.026 15.026-51.876 29.952 25.85-44.978zm-13.767 47.24l47.793-27.595 23.329 13.469-71.122 14.126zm311.708-50.012c.443 11.686-3.207 24.867-10.279 37.116-14.266 24.707-37.939 37.839-52.77 29.277-14.833-8.563-15.295-35.632-1.031-60.339s37.937-37.839 52.77-29.276c6.876 3.971 10.893 12.218 11.31 23.222zm-28.293-33.068c-4.07.826-8.271 2.345-12.519 4.587-11.656 6.153-22.381 16.997-30.196 30.535-7.816 13.538-11.846 28.248-11.347 41.42.18 4.742.948 9.091 2.239 12.992l-13.969-8.097c-5.733-3.318-8.552-8.995-9.94-13.972l10.342-5.925a3.994 3.994 0 001.872-2.423c2.411-8.884 6.092-17.641 10.941-26.028 11.078-19.178 26.36-33.222 41.273-39.643l11.304 6.554zm34.358-4.834c-2.852-3.653-6.241-6.626-10.114-8.864-12.137-7.002-27.658-6.197-43.702 2.271-15.44 8.15-29.662 22.539-40.044 40.514-4.903 8.48-8.696 17.329-11.286 26.327l-70.772 40.547v-63.472l236.267-135.37v63.476l-60.349 34.571z"/><path d="M347.936 303.212c-4.058-2.343-9.367-1.404-14.95 2.643-4.675 3.388-9.257 8.731-12.904 15.049-9.602 16.629-7.97 29.173-1.395 32.969 1.39.803 3.006 1.218 4.783 1.218 6.634 0 15.5-5.794 23.072-18.909 3.647-6.317 5.984-12.958 6.581-18.7.713-6.859-1.129-11.928-5.187-14.27zm-2.77 13.443c-.477 4.58-2.5 10.239-5.552 15.526-6.592 11.416-14.707 16.043-16.928 14.764-2.222-1.283-2.269-10.626 4.322-22.041 3.053-5.287 6.942-9.869 10.671-12.571 2.343-1.698 4.255-2.373 5.412-2.373.355 0 .641.063.844.181.867.499 1.622 2.751 1.231 6.514z"/></svg>