<svg version="1.1" id="Capa_1" xmlns="http://www.w3.org/2000/svg" x="0" y="0" viewBox="0 0 401.539 401.539" xml:space="preserve"><path d="M35.036 336.745c-7.127 0-12.711 7.496-12.711 17.066s5.583 17.066 12.711 17.066 12.711-7.496 12.711-17.066-5.583-17.066-12.711-17.066zm0 26.133c-2.179 0-4.711-3.96-4.711-9.066s2.532-9.066 4.711-9.066 4.711 3.96 4.711 9.066-2.532 9.066-4.711 9.066z"/><path d="M401.536 47.601c.004-10.686-5.094-20.342-13.764-26.319-.702-.484-4.3-2.583-5.336-3.136C349.602.6 309.62 1.159 277.239 19.826l-37.887 21.843-36.865-21.283a4.002 4.002 0 00-5.014.833l-15.499 17.756a4 4 0 00-.655 4.226l11.098 25.528-25.893 14.928-37.139-21.441a4.002 4.002 0 00-5.014.833l-15.499 17.756a4 4 0 00-.655 4.226l11.207 25.78-103.4 59.611C5.994 176.204.003 186.569 0 198.147c0 .535.146 157.856.159 157.987 1.025 10.356 6.802 19.292 15.85 24.515 16.706 9.645 35.434 14.467 54.168 14.466a108.553 108.553 0 0044.982-9.744c.192.711.414 1.402.682 2.059 1.226 3.042 3.253 5.445 5.855 6.946 2.028 1.175 4.312 1.769 6.745 1.769 1.402 0 2.854-.197 4.335-.593 6.551-1.751 13.045-7.271 17.367-14.762a38.18 38.18 0 002.977-6.444c.6.512 1.241.976 1.932 1.375 2.071 1.194 4.36 1.763 6.746 1.763 7.595-.001 16.159-5.758 21.706-15.364 3.492-6.034 5.159-12.548 4.764-18.32L312.2 272.355c.182.646.394 1.273.64 1.875 1.226 3.043 3.253 5.446 5.855 6.947 2.028 1.175 4.311 1.769 6.745 1.769a16.77 16.77 0 004.334-.593c6.551-1.751 13.045-7.271 17.368-14.763a38.245 38.245 0 002.975-6.442c.6.511 1.241.973 1.933 1.373 2.071 1.195 4.36 1.763 6.746 1.763 7.594-.001 16.159-5.758 21.706-15.365 3.518-6.078 5.196-12.836 4.731-18.666l.276-.159c9.78-5.638 15.752-15.795 16.017-26.947.021-.844.009-154.57.01-155.546zm-200.2-18.642l30.01 17.325-14.591 8.412-25.191-14.543 9.772-11.194zm23.424 30.358l14.591-8.412 31.788 18.352 9.772 22.477-56.151-32.417zm59.175 43.4l-10.504 12.033-69.802-40.298-1.027-2.361 14.151-8.158 67.182 38.784zm-90.809-52.426l15.625 9.02-9.358 5.395-6.267-14.415zm-64.891 20.497l30.283 17.483-14.592 8.412-25.464-14.701 9.773-11.194zm23.695 30.516l14.592-8.412 31.515 18.194 9.772 22.478-55.879-32.26zm58.903 43.243L200.33 156.58l-69.802-40.298-.917-2.11 14.314-8.252 66.908 38.627zm-90.809-52.425l15.897 9.177-9.521 5.489-6.376-14.666zM20.021 177.353l102.615-59.159 1.082 2.488a4.003 4.003 0 001.668 1.869l73.794 42.603a4 4 0 005.014-.834l15.499-17.757a3.999 3.999 0 00.655-4.225l-15.499-35.651a4.003 4.003 0 00-1.668-1.869L174.53 88.277l21.1-12.164 1.191 2.739a4.003 4.003 0 001.668 1.869l73.794 42.603a4.002 4.002 0 005.014-.833l15.499-17.756a4 4 0 00.655-4.226l-15.499-35.651a4.003 4.003 0 00-1.668-1.869L247.356 46.29l33.879-19.532c15.46-8.913 32.785-13.368 50.116-13.368 17.324 0 34.656 4.456 50.109 13.363l.067.04c7.521 4.343 12.01 12.12 12.007 20.805-.003 8.686-4.497 16.46-12.021 20.798l-261.224 150.59c-30.934 17.834-69.359 17.819-100.281-.031C12.486 214.612 7.997 206.835 8 198.15c.002-8.685 4.496-16.461 12.021-20.797zm-4.013 48.53c16.706 9.645 35.434 14.467 54.168 14.466 18.707-.001 37.42-4.812 54.107-14.431L385.51 75.327a32.384 32.384 0 007.895-6.378l.008 12.219a23.875 23.875 0 01-11.898 18.45L120.289 250.21c-30.934 17.833-69.358 17.819-100.281-.031-6.787-3.919-11.12-10.616-11.888-18.376l-.054.005-.007-12.37a32.373 32.373 0 007.949 6.445zm361.316-62.85l-29 16.716v-51.762l29-16.718v51.764zm-78.71 45.378l-66.29 38.212v-51.764l66.29-38.214v51.766zM20.001 311.177c-3.488-2.01-6.305-4.709-8.374-8.022-1.925-3.083-3.136-6.664-3.502-10.357l-.023.002-.025-42.12a32.387 32.387 0 007.931 6.427 107.583 107.583 0 0015.028 7.172v52.376a99.65 99.65 0 01-11.035-5.478zm19.035-44.151a108.812 108.812 0 0031.141 4.546c18.707-.001 37.42-4.812 54.107-14.431l.04-.023v51.76l-4.039 2.328c-24.838 14.323-54.507 17.127-81.25 8.432v-52.612zm93.288-14.519l19-10.953v51.761l-19 10.952v-51.76zm27-15.565l65-37.471v51.764l-65 37.469v-51.762zm147.29-84.909l33.71-19.433v97.761l-33.71 19.43v-97.758zM20.008 373.722c-5.236-3.023-9.011-7.7-10.816-13.243-.759-2.331-1.052-4.788-1.054-7.239l-.025-41.507a31.975 31.975 0 007.891 6.374c16.707 9.646 35.437 14.467 54.169 14.467 18.709 0 37.422-4.813 54.109-14.436l.042-.024v53.313l-4.035 2.326c-30.934 17.833-69.358 17.819-100.281-.031zm123.208 3.065c-3.238 5.611-8.03 9.841-12.506 11.037-1.984.527-3.667.405-5.011-.373-1.06-.611-1.88-1.624-2.445-3.026-.332-.814-.554-1.764-.683-2.79.572-.316 1.147-.623 1.714-.95l22.307-12.859c-.547 2.942-1.683 6.038-3.376 8.961zm33.361-18.671c-5.306 9.19-13.498 13.005-17.525 10.677-1.811-1.046-2.919-3.303-3.189-6.313l24.201-13.951c-.487 3.117-1.665 6.439-3.487 9.587zm163.64-94.528c-3.238 5.611-8.031 9.841-12.507 11.037-1.983.528-3.667.404-5.01-.373-1.06-.611-1.88-1.624-2.446-3.03-.366-.895-.598-1.951-.719-3.094l24.133-13.912c-.511 3.059-1.675 6.303-3.451 9.372zm33.36-18.672c-5.306 9.189-13.496 13.005-17.527 10.676-1.856-1.071-2.991-3.499-3.214-6.662l24.275-13.994c-.452 3.24-1.658 6.738-3.534 9.98zm19.918-43.974c.526 9.143-4.064 17.656-11.98 22.22l-249.19 143.653v-53.313l166.29-95.856v39.066a3.998 3.998 0 004 4c.689 0 1.379-.178 1.998-.534l41.71-24.04a4.001 4.001 0 002.002-3.466v-43.688l37.187-21.436a32.152 32.152 0 007.952-6.479c-.001 0 .027 39.798.031 39.873zm-.044-59.123a23.82 23.82 0 01-8.127 16.073v-51.234l.186-.107a32.186 32.186 0 007.915-6.439l.026 41.707z"/></svg>