<svg version="1.1" id="Capa_1" xmlns="http://www.w3.org/2000/svg" x="0" y="0" viewBox="0 0 474.254 474.254" xml:space="preserve"><path d="M474.246 94.78c0-1.429-.762-2.75-2-3.464l-21.68-12.52a4.002 4.002 0 00-6 3.464v77.921l-33.15-19.142V58.78c0-1.429-.762-2.75-2-3.464l-21.68-12.52a4.002 4.002 0 00-6 3.464v82.226l-205.08 114.873-9.41-5.433a4.003 4.003 0 00-3.974-.016l-51.821 29.392-43.157-24.919a4 4 0 00-3.98-.011L11.39 272.53a3.996 3.996 0 00-1.96 2.821L.195 330.973a3.99 3.99 0 00-.195 1.21v46.946c0 1.429.762 2.75 2 3.464l84.641 48.865a3.99 3.99 0 001.998.535c.688 0 1.979-.525 1.979-.525l37.102-21.075c.686 5.087 3.047 9.29 7.05 11.601 2.072 1.196 4.362 1.764 6.749 1.764 7.593 0 16.155-5.756 21.702-15.363 4.181-7.242 5.596-14.864 4.421-20.999l52.483-30.299c.776 4.85 3.119 8.84 6.984 11.071 2.072 1.196 4.362 1.764 6.749 1.764 7.593 0 16.154-5.755 21.702-15.362 3.725-6.453 5.252-13.207 4.712-18.944l4.594-2.652a3.998 3.998 0 002-3.464v-13.347l12.214-7.041 13.566 7.833a3.998 3.998 0 003.974.013l.002.004 8.809-5.006c1.176 3.422 3.263 6.112 6.166 7.787 2.05 1.184 4.334 1.774 6.751 1.774 2.811 0 5.801-.798 8.813-2.388 4.999-2.639 9.575-7.25 12.885-12.983 2.323-4.023 3.788-8.164 4.438-12.104 1.182 1.899 2.724 3.458 4.636 4.562 2.05 1.184 4.334 1.774 6.751 1.774 2.811 0 5.801-.798 8.813-2.388 4.999-2.639 9.575-7.25 12.885-12.983 2.224-3.851 3.659-7.81 4.348-11.597 1.048 1.341 2.3 2.477 3.78 3.331 2.05 1.184 4.334 1.773 6.75 1.773 2.811 0 5.802-.798 8.814-2.388 4.999-2.639 9.576-7.25 12.885-12.984 2.323-4.023 3.788-8.164 4.438-12.103 1.182 1.899 2.724 3.458 4.636 4.561 2.05 1.184 4.334 1.774 6.751 1.774 2.811 0 5.802-.798 8.813-2.388 4.999-2.639 9.576-7.25 12.886-12.983 4.152-7.192 5.581-14.762 4.449-20.875l4.359-2.516a3.998 3.998 0 002-3.464V188.83l9.499-5.476c.061-.027.121-.055.18-.084 1.217-.606 1.932-1.802 2.088-3.136.019-.159.001-85.354.001-85.354zm-21.681-5.591l13.68 7.9v75.61l-13.68-7.899V89.189zM262.11 295.104l-9.692-7.932a3.94 3.94 0 00-.532-.375l-2.232-1.289 198.953-113.755 13.724 7.925L262.11 295.104zm178.478-127.982L241.635 280.877l-34.407-19.866 200.167-113.055 33.193 19.166zM403.416 61.089v75.331l-13.68-7.899V53.189l13.68 7.9zm-17.711 74.343l13.646 7.879-200.168 113.055-14.467-8.353 200.989-112.581zM165.228 245.999l76.605 44.23-86.883 49.28v-44.79h-.016c0-1.429-.761-2.75-1.999-3.464l-33.448-19.313 45.741-25.943zm-98.947 4.459l76.614 44.237-44.87 25.563-76.615-44.23 44.871-25.57zm-2.866 158.354l-34.188-19.737v-14.952l34.188 19.737v14.952zm6-20.726L27.227 363.73a3.998 3.998 0 00-6 3.464v.165L8 359.406v-20.294l76.642 44.248v21.129l-13.227-7.956v-4.982a4 4 0 00-2-3.465zm22.669-51.464l-77.311-44.633 1.598-9.632 77.256 44.601-1.543 9.664zm-1.351 8.458l-4.761 29.809L8.444 330.13l4.93-29.711 77.359 44.661zm10.926-17.684l10.813-6.161v41.462L94.349 373.16l7.31-45.764zM8 368.741l13.227 7.954v7.76L8 376.819v-8.078zm63.415 44.689v-7.562l13.227 7.956v7.242l-13.227-7.636zm60.906-22.874c-1.979 3.428-3.32 6.939-4.082 10.341l-35.597 20.22v-37.733l25.83-14.913a3.998 3.998 0 002-3.464v-48.33l26.478-15.085v75.153a23.86 23.86 0 00-1.744.826c-4.998 2.64-9.575 7.251-12.885 12.985zm23.971 13.84c-5.305 9.187-13.49 12.997-17.522 10.67-4.03-2.327-4.825-11.323.479-20.51 2.53-4.381 6.063-7.993 9.693-9.909 1.784-.942 5.173-2.293 7.83-.761 4.029 2.327 4.824 11.322-.48 20.51zm92.338-53.826c-5.305 9.187-13.489 12.999-17.522 10.67-4.03-2.327-4.825-11.323.479-20.51 5.305-9.187 13.489-12.999 17.522-10.67 4.031 2.328 4.825 11.323-.479 20.51zm4.479-27.438c-8.663-4.999-21.16.971-28.45 13.598-2.095 3.63-3.477 7.353-4.208 10.94l-56.096 32.385c-1.001-1.228-2.182-2.289-3.584-3.098-1.785-1.031-3.748-1.603-5.821-1.736v-26.515l94.522-53.613 9.393 7.693V327.2l-1.054.609c-1.177-1.93-2.733-3.54-4.702-4.677zm37.537-16.57l-3.561-2.056 3.561-2.053v4.109zm42.471-4.408c-2.529 4.381-6.062 7.992-9.692 9.909-1.785.941-5.176 2.295-7.83.761-2.655-1.532-3.18-5.144-3.256-7.161-.156-4.102 1.206-8.967 3.735-13.348 4.287-7.425 10.456-11.337 14.793-11.337 1.03 0 1.956.221 2.729.667 4.031 2.327 4.826 11.322-.479 20.509zm37.523-21.139c-2.529 4.381-6.062 7.992-9.692 9.909-1.784.942-5.174 2.293-7.83.761-2.655-1.533-3.18-5.145-3.256-7.162-.156-4.102 1.206-8.967 3.735-13.348 5.304-9.188 13.49-12.997 17.522-10.67 4.031 2.327 4.826 11.323-.479 20.51zm36.578-21.865c-2.529 4.381-6.062 7.993-9.692 9.909-1.784.941-5.176 2.292-7.83.761-2.655-1.533-3.18-5.145-3.256-7.161-.156-4.102 1.206-8.967 3.735-13.348 4.287-7.425 10.456-11.337 14.793-11.337 1.03 0 1.956.221 2.729.667 4.031 2.326 4.825 11.322-.479 20.509zm37.524-21.14c-2.53 4.381-6.063 7.992-9.693 9.909-1.784.942-5.175 2.294-7.83.761-2.655-1.532-3.179-5.144-3.256-7.161-.155-4.102 1.206-8.967 3.735-13.348 5.305-9.188 13.494-12.997 17.522-10.67 4.031 2.327 4.825 11.322-.478 20.509zm9.737-25.165l-1.594.92c-1.016-1.27-2.225-2.363-3.664-3.193-8.662-4.999-21.16.972-28.45 13.599-2.264 3.922-3.756 8.091-4.418 12.144-1.171-1.896-2.711-3.481-4.655-4.603-8.662-4.999-21.16.972-28.45 13.599-2.166 3.751-3.63 7.73-4.333 11.616-1.04-1.341-2.296-2.484-3.794-3.35-8.662-4.999-21.16.971-28.45 13.598-2.265 3.922-3.757 8.091-4.418 12.144-1.171-1.896-2.711-3.481-4.654-4.603-8.662-5-21.16.972-28.45 13.599-2.808 4.863-4.446 10.108-4.753 15.037l-5.749 3.267v-9.752a4.001 4.001 0 00-5.703-4.972l-26.078 15.034v-5.332L454.48 193.439v19.406z"/></svg>