<svg version="1.1" id="Capa_1" xmlns="http://www.w3.org/2000/svg" x="0" y="0" viewBox="0 0 449.436 449.436" xml:space="preserve"><path d="M449.432 128.852a4 4 0 00-2-3.465l-111.145-64.17a3.994 3.994 0 00-3.998-.001l-33.46 19.294 14.845-21.007 9.197-4.748a4 4 0 00-3.67-7.11l-10.065 5.196a4.007 4.007 0 00-1.432 1.246l-25.409 35.956-87.535 50.477 75.826-107.302 11.331-4.753a4 4 0 00-3.095-7.377l-12.389 5.196a3.997 3.997 0 00-1.719 1.38l-86.488 122.39L2.002 251.672A4 4 0 000 255.133V360.5c0 1.429.762 2.75 2 3.464l111.134 64.16a4.002 4.002 0 003.998.001l67.976-39.2c.997 5.045 3.561 9.168 7.643 11.525 2.305 1.331 4.855 1.964 7.515 1.964 8.563 0 18.263-6.558 24.57-17.48 4.342-7.521 6.083-15.397 5.352-21.996l136.648-78.788c.954 5.385 3.619 9.546 7.704 11.904 2.275 1.313 4.813 1.968 7.503 1.968 3.154 0 6.518-.899 9.911-2.69 5.686-3.002 10.896-8.256 14.671-14.794 3.775-6.538 5.72-13.677 5.476-20.102a26.878 26.878 0 00-.188-2.284l35.521-20.476a4.001 4.001 0 002.002-3.466l-.004-105.358zm-7.996 17.601L119.134 332.288v-10.681l322.302-185.836v10.682zm-311.07 236.7l-11.231 6.479v-48.109l11.231-6.476v48.106zm-64.203-19.487v-48.108l44.972 25.963v48.108l-44.972-25.963zm44.971-31.382L8 272.743v-10.678l103.134 59.542v10.677zM8 281.98l50.163 28.96v48.108L8 330.087V281.98zm85.037 106.438v18.866l-66.48-38.38v-18.866l66.48 38.38zm8 4.618l10.098 5.83v18.866l-10.098-5.83v-18.866zm18.097 5.831l11.231-6.479v18.871l-11.231 6.477v-18.869zm19.232-68.433l28.8-16.606v76.21l-28.8 16.608v-76.212zm36.8-21.219l30.913-17.824v41.826l-30.913 17.824v-41.826zm38.912-22.436l28.207-16.264v41.826l-28.207 16.264v-41.826zm36.207-20.877l29.102-16.78v41.825l-29.102 16.78v-41.825zm37.102-21.392l28.8-16.606v76.216l-28.8 16.605V244.51zm36.8-21.219l22.41-12.921v41.828l-22.41 12.921v-41.828zm30.41-17.534l28.207-16.264v41.828l-28.207 16.263v-41.827zm36.206-20.876l23.227-13.392v41.828l-23.227 13.392v-41.828zm31.227-18.005l19.406-11.189v41.828l-19.406 11.189v-41.828zm-150.748-61.247l-55.579 78.65-12.566-7.256a3.998 3.998 0 00-3.999-.001l-50.924 29.366 35.532-50.282 87.536-50.477zm-96.568 136.654l-16.036 9.245-36.347-20.98 78.804-45.443 9.932 5.735-36.353 51.443zm43.31-47.426l19.459 11.237-46.238 26.658 26.779-37.895zm-50.81-29.218l-35.533 50.282-19.353 11.16a4.001 4.001 0 00-.002 6.929l44.35 25.601a4 4 0 003.998.001l86.81-50.05a4.001 4.001 0 00.002-6.929l-24.827-14.337 65.156-92.201 46.47-26.796 103.143 59.55-322.292 185.83-103.132-59.54 155.21-89.5zM8 339.324l10.557 6.095v18.866L8 358.19v-18.866zm209.908 41.61c-5.722 9.909-15.609 15.796-21.156 12.589-5.549-3.204-5.397-14.707.324-24.617 5.722-9.909 15.608-15.79 21.157-12.589 5.548 3.204 5.396 14.706-.325 24.617zm4.324-31.545c-9.726-5.615-23.818 1.201-32.084 15.517-2.868 4.968-4.6 10.091-5.237 14.9l-9.744 5.619v-25.148l104.222-60.095v25.156l-51.604 29.753c-1.34-2.381-3.191-4.339-5.553-5.702zm177.465-72.851c-2.987 5.174-7.17 9.445-11.477 11.719-2.183 1.151-6.342 2.796-9.679.87-3.338-1.927-3.993-6.352-4.086-8.817-.185-4.867 1.423-10.625 4.41-15.799 2.987-5.174 7.17-9.445 11.477-11.72 1.456-.769 3.792-1.756 6.177-1.756 1.189 0 2.392.245 3.502.887 3.338 1.927 3.993 6.352 4.086 8.817.185 4.867-1.423 10.625-4.41 15.799zm9.693-26.166c-1.337-2.265-3.14-4.091-5.369-5.378-4.942-2.853-11.126-2.597-17.415.723-5.686 3.001-10.896 8.255-14.67 14.794-2.692 4.663-4.433 9.628-5.134 14.426l-42.615 24.571v-25.154l117.249-67.604v25.151l-32.046 18.471z"/></svg>