<svg version="1.1" id="Capa_1" xmlns="http://www.w3.org/2000/svg" x="0" y="0" viewBox="0 0 473.875 473.875" xml:space="preserve"><path d="M471.875 78.682L349.883 8.249a3.998 3.998 0 00-4 0L91.798 154.953a3.998 3.998 0 00-2 3.464v38.905l-74.274 42.326a3.996 3.996 0 00-1.96 2.821S0 323.62 0 324.084v67.657c0 1.429.762 2.75 2 3.464l121.981 70.421a3.99 3.99 0 001.997.535c.689 0 1.365-.194 1.973-.539l.007.012 55.802-31.696c.393 7.978 3.623 14.608 9.583 18.049 2.724 1.572 5.738 2.319 8.888 2.319 10.298 0 22.036-7.993 29.702-21.271 6.1-10.565 8.005-21.683 5.939-30.281l101.323-58.492c.597 7.548 3.804 13.787 9.523 17.089 2.724 1.572 5.738 2.319 8.888 2.319 10.299 0 22.037-7.993 29.703-21.271 4.677-8.1 6.891-16.527 6.739-23.893 1.371 5.558 4.373 9.853 8.747 12.378 2.676 1.545 5.669 2.315 8.85 2.315 3.768 0 7.798-1.081 11.875-3.233 6.915-3.65 13.259-10.054 17.866-18.033 4.607-7.979 6.981-16.676 6.685-24.489a30.151 30.151 0 00-.726-5.605l7.383-4.262a3.998 3.998 0 002-3.464v-38.939l15.148-8.745a4 4 0 002-3.464V82.146a4.003 4.003 0 00-2.001-3.464zm-123.992-62.35l113.992 65.814L215.779 224.22l-113.981-65.803L347.883 16.332zM97.798 165.345l113.981 65.803v32.029L97.798 197.364v-32.019zm-4.036 38.926l113.955 65.798-68.217 38.865-113.956-65.788 68.218-38.875zm-2.37 233.304l-52.8-30.482V381.47l52.8 30.482v25.623zm6-31.398l-60.8-35.1a3.998 3.998 0 00-6 3.464v8.326L8 369.282v-38.27l113.983 65.806v41.01l-22.591-13.589v-14.598a4.003 4.003 0 00-2-3.464zm34.89-72.886L17.585 267.075l2.92-17.6 114.597 66.159-2.82 17.657zm-1.351 8.458l-7.458 46.692L8.465 322.043l7.722-46.538 114.744 66.244zm12.202-25.678l18.957-10.8v63.809l-30.21 17.441 11.253-70.45zM8 378.617l22.591 13.586v10.271L8 389.431v-10.814zm91.392 63.576v-8.618l22.591 13.589v8.071l-22.591-13.042zm85.176-17.913l-54.585 31.004v-58.429l38.108-22.001a4 4 0 002-3.464v-70.676l41.688-23.75v112.533a31.58 31.58 0 00-3.454 1.562c-6.915 3.65-13.26 10.055-17.866 18.034-2.914 5.047-4.866 10.22-5.891 15.187zm40.437 4.756c-7.51 13.007-20.179 20.342-27.663 16.023-7.485-4.322-7.465-18.961.044-31.968 3.863-6.69 9.074-12.003 14.673-14.959 2.891-1.526 5.653-2.295 8.123-2.295 1.799 0 3.443.409 4.868 1.231 7.485 4.322 7.465 18.962-.045 31.968zm4.045-38.896c-2.793-1.613-5.935-2.371-9.271-2.3v-15.871l64.796-37.407v31.996l-49.908 28.811c-1.474-2.137-3.345-3.917-5.617-5.229zm151.331-51.739c-7.509 13.006-20.175 20.345-27.663 16.023-7.485-4.322-7.464-18.961.045-31.968 6.045-10.469 15.431-17.266 22.767-17.266 1.778 0 3.436.399 4.896 1.242 7.485 4.322 7.464 18.962-.045 31.969zm54.077-30.466c-3.863 6.69-9.074 12.003-14.673 14.958-4.997 2.638-9.61 3.016-12.99 1.064-3.38-1.951-5.359-6.135-5.574-11.782-.24-6.327 1.755-13.496 5.618-20.186 3.863-6.69 9.074-12.003 14.673-14.958 2.891-1.526 5.653-2.295 8.122-2.295 1.799 0 3.443.409 4.868 1.231 3.38 1.951 5.359 6.135 5.573 11.781.24 6.328-1.755 13.497-5.617 20.187zm14.269-36.13l-4.514 2.606c-1.503-2.227-3.415-4.046-5.711-5.371-5.847-3.376-13.208-3.05-20.725.917-6.915 3.65-13.26 10.054-17.866 18.033-2.878 4.985-4.885 10.251-5.913 15.406l-3.5 2.02c-1.535-2.444-3.561-4.462-6.072-5.912-11.631-6.711-28.58 1.612-38.591 18.952-3.125 5.412-5.151 10.971-6.106 16.262l-47.154 27.221v-31.996l156.152-90.148v32.01zm-228.948 90.926V231.148L465.875 89.074v131.583L219.779 362.731z"/></svg>