<svg version="1.1" id="Capa_1" xmlns="http://www.w3.org/2000/svg" x="0" y="0" viewBox="0 0 420.053 420.053" xml:space="preserve"><path d="M420.052 141.589c0-1.429-.762-2.75-2-3.464L296.06 67.692a3.999 3.999 0 00-3.994-.003l-11.226 6.457V47.198l16.861-8.579a4 4 0 00-.119-7.188L264.51 15.963a4.004 4.004 0 00-3.463.036l-71.685 35.342a4.039 4.039 0 00-.69.433l-68.326 53.243a4.002 4.002 0 00-1.459 2.351l-10.729 52.279-28.469-16.438a3.998 3.998 0 00-4 0l-60.185 34.754a3.996 3.996 0 00-1.94 2.811L.06 261.735c-.036.214-.06.431-.06.653v67.656a4 4 0 002 3.464l121.98 70.422a3.99 3.99 0 001.997.535c.698 0 1.384-.197 1.998-.552l.006.011 39.732-22.936c.412 8.3 3.788 14.689 9.543 18.012 2.724 1.572 5.738 2.32 8.889 2.32 10.299 0 22.036-7.993 29.702-21.271 6.097-10.56 8.004-21.673 5.942-30.268l63.615-36.382c.599 7.875 3.938 13.935 9.491 17.141 2.724 1.572 5.737 2.319 8.888 2.319 10.299 0 22.036-7.993 29.702-21.271 4.514-7.819 6.877-16.324 6.692-24.015 1.338 5.46 4.283 9.896 8.794 12.5 2.724 1.572 5.738 2.319 8.889 2.319 10.299 0 22.036-7.992 29.702-21.271 6.059-10.494 7.98-21.534 5.98-30.107l7.361-4.249a4 4 0 002-3.464v-38.966l15.144-8.715a4.001 4.001 0 002.005-3.467v-50.564zM297.944 78.018l110.099 63.566-35.871 20.644-74.228-42.817V78.018zm-4.004 48.319l70.217 40.503-160.464 92.348v-41.34h-.1c.046-.243.078-.49.078-.743a4 4 0 00-2-3.464l-29.794-17.203 122.063-70.101zm-3.996-48.2v41.269l-122.539 70.375-5.59-37.945 111.025-63.86v16.769a4 4 0 008 0V83.374l9.104-5.237zm-129.382 65.192l-2.567-17.427 64.334-48.936 50.512-25.699v27.479l-112.279 64.583zM262.861 24.024l23.908 11.182-66.346 33.754-21.171-13.575 63.609-31.361zm-71.505 35.801l21.863 14.019-59.935 45.589-23.094-11.945 61.166-47.663zm-65.695 54.328l24.373 12.607 9.189 62.373-43.765-25.27 10.203-49.71zm-47.972 37.139l113.981 65.813-52.185 30.124-113.98-65.803 52.184-30.134zm118.004 72.729v63.962l-63.813 36.841 11.255-70.464 52.558-30.339zM20.478 187.762l114.624 66.174-2.772 17.352L17.594 205.05l2.884-17.288zM8 327.734v-17.65l22.273 12.858v17.651L8 327.734zm24.273-20.735a4 4 0 00-2 3.464v3.241L8 300.846v-31.531l113.982 65.806v31.53l-22.909-13.228v-7.86a4 4 0 00-2-3.464l-60.8-35.1a4 4 0 00-4 0zm58.8 68.695l-52.8-30.483V317.39l52.8 30.482v27.822zm7.896 4.559h.104v-17.592l22.909 13.229v17.65l-23.013-13.287zm24.503-53.508L8.379 260.297l7.81-46.82 114.791 66.27-7.508 46.998zm45.037 44.547l-38.526 22.24v-58.373l65.711-37.937v39.244c-7.847 2.972-15.683 9.876-21.319 19.639-2.839 4.914-4.825 10.101-5.866 15.187zm40.411 4.757c-7.51 13.008-20.179 20.343-27.663 16.023-3.38-1.952-5.358-6.136-5.573-11.782-.239-6.327 1.756-13.496 5.618-20.187 6.045-10.47 15.431-17.265 22.767-17.265 1.778 0 3.437.399 4.896 1.242 7.485 4.323 7.464 18.962-.045 31.969zm117.638-68.46c-7.509 13.007-20.175 20.349-27.662 16.023-3.38-1.951-5.359-6.135-5.574-11.782-.239-6.327 1.756-13.496 5.618-20.186 3.863-6.69 9.074-12.003 14.673-14.959 2.891-1.526 5.653-2.295 8.123-2.295 1.799 0 3.442.409 4.867 1.231 3.38 1.951 5.359 6.135 5.573 11.782.24 6.326-1.756 13.495-5.618 20.186zm54.077-30.466c-7.51 13.007-20.179 20.344-27.663 16.023-7.485-4.322-7.464-18.961.045-31.968 6.045-10.469 15.431-17.266 22.767-17.266 1.778 0 3.437.399 4.896 1.242 7.485 4.323 7.464 18.962-.045 31.969zm14.269-36.13l-4.513 2.604c-1.488-2.199-3.39-4.03-5.712-5.371-11.627-6.711-28.58 1.61-38.591 18.952-2.96 5.127-4.926 10.383-5.938 15.42l-3.482 2.01c-1.551-2.477-3.585-4.484-6.066-5.915-5.845-3.375-13.207-3.05-20.725.917-6.915 3.65-13.26 10.055-17.866 18.034-3.031 5.251-5.089 10.812-6.062 16.228l-67.359 38.523c-1.475-2.142-3.349-3.927-5.626-5.242-2.833-1.636-5.984-2.372-9.271-2.31v-15.858L394.904 208.94v32.053zm17.149-51.152l-208.36 119.914v-41.336l208.359-119.913v41.335z"/></svg>