<svg version="1.1" id="Capa_1" xmlns="http://www.w3.org/2000/svg" x="0" y="0" viewBox="0 0 480.791 480.791" xml:space="preserve"><path d="M480.791 144.745c0-1.429-.762-2.75-2-3.464l-121.99-70.43a3.998 3.998 0 00-3.99-.005l-150.245 86.155-62.138-35.879a3.998 3.998 0 00-4 0l-60.185 34.754a4 4 0 00-1.887 2.522c-.074.305-13.614 81.45-13.614 81.908v38.765l-43.753-16.202a3.998 3.998 0 00-4.368 6.42c8.69 9.701 12.488 22.64 10.419 35.499s-9.735 23.953-21.03 30.437a4 4 0 00.603 7.22l183.049 67.783a4 4 0 003.38-.282c13.398-7.691 22.491-20.851 24.946-36.104.373-2.317.566-4.635.621-6.943l13.844-7.994c.413 8.298 3.788 14.687 9.543 18.01 2.724 1.572 5.738 2.32 8.889 2.32 10.299 0 22.036-7.993 29.702-21.271 6.097-10.56 8.004-21.673 5.942-30.268l63.615-36.382c.599 7.875 3.938 13.935 9.491 17.141 2.724 1.572 5.737 2.319 8.888 2.319 10.299 0 22.036-7.993 29.702-21.271 4.514-7.819 6.877-16.324 6.692-24.015 1.339 5.46 4.283 9.896 8.794 12.5 2.724 1.572 5.738 2.319 8.889 2.319 10.299 0 22.036-7.992 29.702-21.271 6.059-10.494 7.98-21.534 5.981-30.107l7.361-4.249a4 4 0 002-3.464V182.25l15.144-8.715a4.001 4.001 0 002.005-3.467l-.002-25.323zm-216.382 50.274a4 4 0 00-2-3.464l-29.794-17.203 122.068-70.104 92.333 53.019-182.584 105.08-.023-67.328zm190.631-42.371l-96.357-55.329V81.175l110.099 63.564-13.742 7.909zm-104.357-71.36v16.031l-126.078 72.407-14.025-8.098 140.103-80.34zm-212.255 47.917l113.981 65.813-52.185 30.124-113.981-65.803 52.185-30.134zm-57.123 36.521l114.536 66.123-1.909 11.95-114.614-66.167 1.987-11.906zm111.276 86.531l-8.37 52.4-115.006-66.394 8.708-52.204 114.668 66.198zm8.237-.849l33.862-19.55v46.939c-1.386.781-3.357 1.919-6.229 3.577l-35.889 20.722 8.256-51.688zm-132.077-4.175l113.979 65.802v11.204L68.741 282.032v-34.799zM206.088 372.57c-1.972 12.251-9.022 22.901-19.454 29.488L12.636 337.626c9.742-7.838 16.277-18.991 18.302-31.567 1.748-10.866-.035-21.781-4.932-31.32l170.303 63.063c8.236 9.614 11.797 22.229 9.779 34.768zm23.158-23.363l-15.205 8.78a50.767 50.767 0 00-12.413-26.254 4 4 0 00-1.591-1.082l-9.316-3.45v-13.806c10.494-6.059 48.144-27.797 49.887-28.802a4 4 0 002.072-3.506V224.93a4 4 0 00-6-3.464l-34.237 19.767 1.431-8.96 52.557-30.339v112.444c-7.847 2.972-15.683 9.876-21.319 19.639-2.838 4.916-4.825 10.104-5.866 15.19zm40.412 4.755c-7.51 13.008-20.18 20.342-27.663 16.023-3.38-1.952-5.358-6.136-5.573-11.782-.239-6.327 1.756-13.496 5.618-20.187 6.045-10.47 15.431-17.265 22.767-17.265 1.778 0 3.437.399 4.896 1.242 7.486 4.323 7.464 18.962-.045 31.969zm117.638-68.46c-7.509 13.006-20.175 20.347-27.662 16.023-3.38-1.951-5.359-6.135-5.574-11.782-.239-6.327 1.756-13.496 5.618-20.186 3.863-6.69 9.074-12.003 14.673-14.959 2.891-1.526 5.653-2.295 8.123-2.295 1.799 0 3.442.409 4.867 1.231 3.38 1.951 5.359 6.135 5.573 11.782.241 6.326-1.756 13.495-5.618 20.186zm54.077-30.466c-7.51 13.007-20.181 20.343-27.663 16.023-7.485-4.322-7.464-18.961.045-31.968 6.045-10.469 15.431-17.266 22.767-17.266 1.778 0 3.437.399 4.896 1.242 7.486 4.322 7.464 18.962-.045 31.969zm14.27-36.13l-4.513 2.604c-1.488-2.199-3.39-4.03-5.712-5.371-11.628-6.71-28.58 1.61-38.591 18.952-2.96 5.127-4.926 10.383-5.938 15.42l-3.482 2.01c-1.551-2.477-3.586-4.484-6.066-5.915-5.845-3.376-13.206-3.051-20.725.917-6.915 3.65-13.26 10.055-17.866 18.034-3.031 5.251-5.089 10.812-6.062 16.228l-67.359 38.523c-1.475-2.142-3.349-3.927-5.626-5.242-2.833-1.635-5.984-2.372-9.271-2.309v-15.859l191.211-110.044v32.052zm-191.211 68.762v-16.09l208.359-119.915v16.092L264.432 287.668z"/></svg>