<svg version="1.1" id="Capa_1" xmlns="http://www.w3.org/2000/svg" x="0" y="0" viewBox="0 0 456.795 456.795" xml:space="preserve"><path d="M456.795 89.255a4 4 0 00-2-3.464l-128.673-74.29a3.998 3.998 0 00-4 0L151.396 110.08a4 4 0 00-2 3.464v45.248L83.48 196.23a4 4 0 00-1.444 1.409l-.03-.018-41.021 69.815-39.813 39.815A4.004 4.004 0 000 310.08v56.497c0 1.429.762 2.749 1.999 3.463l129.005 74.537a3.994 3.994 0 004 .001l28.741-16.499c1.656 6.542 5.211 11.838 10.618 14.96 3.227 1.863 6.843 2.791 10.694 2.791 4.608 0 9.554-1.33 14.565-3.975 8.598-4.539 16.497-12.52 22.242-22.471 5.486-9.501 8.426-19.801 8.362-29.168l81.505-46.429c1.584 6.829 5.187 12.366 10.764 15.586 3.298 1.904 6.949 2.808 10.771 2.808 12.674 0 27.201-9.959 36.73-26.464 5.65-9.785 8.6-20.417 8.348-30.005l39.344-24.637a3.999 3.999 0 001.877-3.39v-15.996l35.225-20.308a4 4 0 002.002-3.465V89.284c.001-.009.003-.019.003-.029zM324.122 19.584l120.673 69.671-162.737 93.948-120.662-69.66 162.726-93.959zm-13.315 315.522l-24.682 14.06v-10.539l26.149-15.075c-.964 3.984-1.451 7.871-1.467 11.554zM86.868 205.142l122.103 70.492-5.856 9.967-122.078-70.535 5.831-9.924zm112.193 87.356l-27.319 46.494-122.077-70.536 27.318-46.493 122.078 70.535zm18.307-15.365l60.69-34.46v36.936l-94.052 54.303 33.362-56.779zm-59.972-156.661l120.662 69.66v38.665l-120.662-69.672v-38.653zm-4.292 45.413l120.971 69.85-59.598 33.84-120.971-69.838 59.598-33.852zM44.833 274.903l121.833 70.394-34.643 34.643L10.19 309.546l34.643-34.643zM8 317.52l7.083 4.092v27.082L8 344.602V317.52zm15.083 8.715l90 52.001v27.081l-90-52.001v-27.081zm98 56.623l7.922 4.577v27.081l-7.922-4.577v-27.081zM8 364.268v-10.427l121.005 69.915v10.427L8 364.268zm206.937 51.116c-5.002 8.664-11.767 15.552-19.049 19.396-6.68 3.527-12.902 4-17.525 1.332-10.004-5.776-10.158-25.027-.337-42.038 5.002-8.664 11.768-15.552 19.05-19.396 3.826-2.02 7.502-3.038 10.813-3.038 2.471 0 4.737.566 6.712 1.707 4.621 2.667 7.324 8.294 7.61 15.842.31 8.228-2.273 17.531-7.274 26.195zm3.663-48.966c-7.088-4.093-16.06-3.671-25.259 1.184-8.599 4.539-16.497 12.519-22.243 22.471-5.763 9.982-8.534 20.346-8.427 29.41l-25.666 14.623v-47.832l38.448-38.449 102.604-58.977v64.877l-48.833 27.856c-1.656-6.83-5.304-12.091-10.624-15.163zm144.469-34.701c-7.865 13.623-20.172 22.424-29.9 22.422-2.42 0-4.682-.545-6.674-1.695-10.004-5.776-10.158-25.027-.337-42.038 5.002-8.664 11.768-15.552 19.05-19.396 3.826-2.02 7.502-3.038 10.813-3.038 2.471 0 4.737.566 6.712 1.707 4.621 2.667 7.324 8.294 7.61 15.842.311 8.229-2.272 17.532-7.274 26.196zm48.497-56.248l-34.446 21.57c-.889-3.253-2.244-6.128-4.031-8.555l38.477-22.183v9.168zm-44.698 7.367c-.046-.027-.089-.058-.136-.085-7.089-4.093-16.061-3.671-25.259 1.184-8.599 4.539-16.497 12.519-22.243 22.471a69.613 69.613 0 00-2.882 5.563l-30.223 17.424v-93.629h-.001a4.03 4.03 0 00-.066-.688v-44.945l162.735-93.947v139.42l-81.925 47.232z"/><path d="M355.728 301.813c-1.929-1.113-6.052-2.341-12.002 1.97-3.498 2.536-6.917 6.516-9.626 11.208-2.71 4.693-4.447 9.644-4.894 13.94-.759 7.306 2.365 10.265 4.295 11.379.896.518 2.266 1.059 4.071 1.059 2.082 0 4.745-.721 7.931-3.029 3.498-2.535 6.916-6.516 9.625-11.208 5.522-9.565 7.502-21.334.6-25.319zm-7.528 21.319c-4.438 7.688-9.457 10.429-10.692 10.238-.801-1.007-.917-6.695 3.52-14.379 4.436-7.685 9.42-10.443 10.693-10.238.8 1.008.915 6.696-3.521 14.379zM207.595 385.48c-1.929-1.113-6.052-2.341-12.002 1.97-3.498 2.536-6.917 6.516-9.626 11.208-2.71 4.693-4.447 9.644-4.894 13.94-.759 7.306 2.365 10.265 4.295 11.379.896.518 2.266 1.059 4.071 1.059 2.082 0 4.745-.721 7.931-3.029 3.498-2.535 6.916-6.516 9.625-11.208 5.523-9.565 7.502-21.334.6-25.319zm-7.528 21.319c-4.438 7.688-9.465 10.433-10.692 10.238-.801-1.007-.917-6.695 3.52-14.379 4.436-7.685 9.433-10.444 10.693-10.238.8 1.008.915 6.696-3.521 14.379z"/></svg>