<svg version="1.1" id="Capa_1" xmlns="http://www.w3.org/2000/svg" x="0" y="0" viewBox="0 0 459.359 459.359" xml:space="preserve"><path d="M186.802 384.953c-6.426-3.706-14.905 3.215-19.96 11.972-5.056 8.756-6.812 19.562-.386 23.272a7.554 7.554 0 003.831 1.022c5.681-.001 12.031-5.896 16.13-12.994 5.054-8.756 6.81-19.561.385-23.272zm-7.314 19.272c-3.578 6.197-7.617 8.774-8.988 8.965-.521-1.282-.309-6.068 3.269-12.266 3.578-6.198 7.617-8.775 8.987-8.965.522 1.283.31 6.069-3.268 12.266zm259.766-263.081a4.001 4.001 0 00-4.002.003l-173.76 100.579a4 4 0 00-1.996 3.462v104.474a4 4 0 006.004 3.462l173.76-100.579a4 4 0 001.996-3.462V144.609c0-1.43-.763-2.751-2.002-3.465zm-5.998 101.114l-9.728-5.448v-79.633l9.728-5.631v90.712zm-17.727-80.45v75.04l-148.032 85.691v-75.044l148.032-85.687zM267.497 331.783l152.065-88.025 9.611 5.382-161.676 93.584v-10.941z"/><path d="M457.359 107.894L405.692 78.06l27.302-15.765a4 4 0 00-4-6.928l-31.301 18.074-30.862-17.821 27.302-15.765a4 4 0 00-4-6.928l-31.301 18.074-53.613-30.958a3.998 3.998 0 00-4 0l-212.32 122.59a4 4 0 00-2 3.464v61.747l-42.357 24.094a3.99 3.99 0 00-1.384 1.323L.608 301.314a3.999 3.999 0 00-.608 2.12v64.924a4 4 0 001.999 3.464l115.699 66.849a4.003 4.003 0 004.001.001l25.353-14.538c1.588 5.892 4.847 10.451 9.534 13.157 2.959 1.709 6.272 2.56 9.797 2.56 4.199 0 8.699-1.208 13.256-3.613 7.779-4.106 14.922-11.32 20.113-20.313 4.909-8.503 7.565-17.719 7.558-26.129l17.394-9.913s16.223 6.619 16.344 6.689a4.002 4.002 0 004 0l95.594-55.188c1.751 5.058 4.837 9.017 8.986 11.415 2.96 1.709 6.273 2.561 9.799 2.561 4.2-.001 8.7-1.209 13.256-3.613 7.779-4.106 14.921-11.32 20.108-20.31 4.587-7.938 7.214-16.543 7.526-24.504l57.042-32.931a4 4 0 002-3.464v-149.18a4.002 4.002 0 00-2-3.464zm-67.665-29.833l-14.064 8.125-30.854-17.826 14.056-8.12 30.862 17.821zm-218.34 90.49l20.907-12.079 30.852 17.826-20.907 12.079-30.852-17.826zm22.856 22.446l-8.763 5.062-30.866-17.818 8.777-5.071 30.852 17.827zm6.048-39.145l20.907-12.078 30.853 17.826-20.907 12.079-30.853-17.827zm28.903-16.698l20.907-12.079 30.853 17.826-20.908 12.079-30.852-17.826zm28.904-16.699l20.907-12.079 30.853 17.826-20.907 12.079-30.853-17.826zm28.904-16.698l20.907-12.079 30.854 17.826-20.907 12.079-30.854-17.826zm28.904-16.699l20.907-12.079 30.854 17.826-20.907 12.079-30.854-17.826zm-12.654-56.93l47.614 27.494-204.252 118.001-47.682-27.525 204.32-117.97zM109.144 204.395l107.68 62.154-54.59 31.056-107.67-62.164 54.58-31.046zm82.7 85.569v35.872L130.27 360.91l34.802-55.716 26.772-15.23zM47.841 240.798l108.789 62.81-7.686 12.304-108.767-62.844 7.664-12.27zM8 311.97l19.261 11.129v14.83L8 326.799V311.97zm0 24.069l19.261 11.129v14.421L8 350.461v-14.422zm107.699 92.237L8 366.05v-6.349l107.699 62.227v6.348zm-27.53-55.156l-52.908-30.57v-14.83l52.908 30.57v14.83zm0 9.24v14.421l-52.908-30.57V351.79l52.908 30.57zm27.53 30.328l-19.53-11.284v-14.422l19.53 11.284v14.422zm0-23.661l-19.53-11.284v-14.83l19.53 11.284v14.83zm1.918-22.962L8.85 303.22l27.086-43.363 108.768 62.844-27.087 43.364zm28.334 49.47l-22.252 12.678v-9.473l23.397-13.33c-.772 3.44-1.162 6.844-1.145 10.125zm46.872-3.61c-4.447 7.704-10.457 13.825-16.919 17.237-5.862 3.094-11.302 3.52-15.318 1.201-4.017-2.319-6.368-7.244-6.619-13.867-.277-7.303 2.02-15.567 6.468-23.271 4.447-7.704 10.457-13.825 16.919-17.237 3.371-1.779 6.602-2.676 9.503-2.676 2.144 0 4.108.489 5.815 1.475 4.017 2.319 6.368 7.244 6.619 13.866.277 7.304-2.02 15.568-6.468 23.272zm28.046-39.064l-14.615 8.328c-1.57-5.976-4.848-10.598-9.581-13.33-6.484-3.745-14.67-3.371-23.053 1.054-7.779 4.106-14.922 11.32-20.113 20.313a61.555 61.555 0 00-2.458 4.726L123.7 409.533V373.86l74.125-42.223a3.999 3.999 0 002.02-3.476v-42.748l21.024-11.96v99.408zm18.179 4.269l-10.18-4.109V266.575a4 4 0 00-2-3.464l-115.71-66.79a3.994 3.994 0 00-3.977-.013l-12.282 6.986v-50.269l43.685 25.218-14.208 8.208a4 4 0 002.005 7.465c.679 0 1.367-.174 1.997-.537l18.206-10.518 30.866 17.818-14.214 8.212a4 4 0 002.005 7.465c.679 0 1.367-.174 1.997-.537l18.212-10.521 53.598 30.94V377.13zm4-147.821l-49.601-28.632L397.693 82.679l49.666 28.679-204.311 117.951zm142.816 88.127c-4.445 7.703-10.452 13.824-16.915 17.235-5.858 3.094-11.302 3.521-15.319 1.201-3.394-1.961-5.063-5.407-5.88-8.592l43.986-25.394c-.942 5.142-2.941 10.478-5.872 15.55zm65.495-59.207L247.048 376.18V236.238l204.311-117.952v139.943z"/></svg>