<svg version="1.1" id="Capa_1" xmlns="http://www.w3.org/2000/svg" x="0" y="0" viewBox="0 0 463.183 463.183" xml:space="preserve"><path d="M461.248 194.519l.104-.18-141.057-81.448a4 4 0 00-3.97-.018l-63.427 35.884v-30.132a4 4 0 00-8 0v34.658l-38.218 21.622-94.839-54.761V37.191a4 4 0 00-8 0V120.1l-86.205 49.125a3.996 3.996 0 00-1.96 2.821l-.006-.001S0 265.835 0 266.321v78.237c0 1.429.762 2.75 2 3.464l141.057 81.434a3.994 3.994 0 003.977.007l65.47-37.187c.005.213.003.428.011.641.364 9.6 4.182 16.975 10.751 20.768 3.057 1.765 6.442 2.604 9.983 2.604 11.68 0 25.039-9.135 33.788-24.29 7.083-12.268 9.236-25.177 6.702-35.017l118.425-68.366c.464 8.968 4.094 16.402 10.775 20.26 3.057 1.765 6.442 2.604 9.983 2.604 11.68 0 25.039-9.135 33.788-24.29 5.269-9.126 7.985-19.063 7.646-27.982a34.498 34.498 0 00-.756-6.049l7.582-4.376a3.998 3.998 0 002-3.464v-47.388a3.985 3.985 0 00-1.934-3.412zm-42.985-15.822l-82.236 46.953-65.161-37.618 81.916-46.776-.313-.548 65.794 37.989zm-99.988-57.734l26.806 15.478-84.231 48.098a4.002 4.002 0 00-.017 6.938l73.183 42.25a4 4 0 003.983.01l87.966-50.224-.313-.548 25.607 14.786L252.898 312.1V157.95l65.377-36.987zM161.156 276.474l3.165-19.814 80.578-45.906v18.011l-83.743 47.709zm26.283-5.766v48.007l-36.385 21.006 8.484-53.118 27.901-15.895zm57.459-108.232v34.498l-30.178-17.425 30.178-17.073zm-137.096-35.425l133.031 76.813-80.146 45.659-133.031-76.8 80.146-45.672zm-85.184 52l133.672 77.171-3.473 21.742-133.795-77.243 3.596-21.67zm12.757 179.002L8 342.249v-19.718l27.375 16.463v19.059zm70.309 40.59l-62.308-35.971v-31.074l62.308 35.971v31.074zm35.375 20.423l-27.375-15.804v-18.857l27.375 16.467v18.194zm0-27.53l-27.375-16.467v-9.81c0-1.429-.762-2.75-2-3.464l-70.308-40.589a3.998 3.998 0 00-6 3.464v4.989L8 313.196V273.25l133.059 76.82v41.466zm1.572-49.797L8.475 264.285l9.148-55.134 133.843 77.27-8.835 55.318zm70.761 40.833l-64.333 36.542v-69.003l44.38-25.622a4 4 0 002-3.464V266.15l49.459-28.177v104.42a35.486 35.486 0 00-4.328 1.929c-7.893 4.167-15.142 11.487-20.41 20.613-3.297 5.711-5.593 11.739-6.768 17.637zm46.716 5.427c-8.853 15.335-23.893 23.924-32.843 18.758-4.102-2.368-6.501-7.39-6.757-14.142-.282-7.433 2.055-15.842 6.58-23.68 4.525-7.837 10.64-14.066 17.217-17.538 3.434-1.813 6.728-2.727 9.686-2.727 2.189 0 4.196.5 5.94 1.507 8.95 5.167 9.031 22.487.177 37.822zm3.824-44.75c-3.305-1.908-7.048-2.758-11.033-2.562v-19.353l76.18-43.916v38.379l-58.531 33.789c-1.701-2.608-3.904-4.771-6.616-6.337zm175.85-60.06c-8.853 15.335-23.894 23.923-32.843 18.758-8.949-5.167-9.03-22.488-.177-37.822 4.525-7.837 10.64-14.066 17.217-17.538 3.434-1.813 6.728-2.727 9.686-2.727 2.189 0 4.196.5 5.94 1.507 4.102 2.368 6.501 7.391 6.757 14.143.282 7.432-2.055 15.842-6.58 23.679zm15.401-40.182l-4.468 2.579c-1.776-3.019-4.164-5.445-7.11-7.146-6.568-3.792-14.865-3.412-23.361 1.072-7.893 4.167-15.142 11.487-20.41 20.613-3.634 6.295-5.966 12.757-7.038 18.888l-55.718 32.165v-38.372l118.104-68.085v38.286z"/></svg>