<svg version="1.1" id="Capa_1" xmlns="http://www.w3.org/2000/svg" x="0" y="0" viewBox="0 0 430.978 430.978" xml:space="preserve"><path d="M430.978 109.326a4 4 0 00-2-3.477L287.903 24.392a3.996 3.996 0 00-3.978-.013L53.868 155.257a3.982 3.982 0 00-1.378 1.314L.607 239.548A3.996 3.996 0 000 241.667v79.163c0 1.429.762 2.749 1.999 3.463l141.075 81.511a3.994 3.994 0 004.001.001l31.911-18.316c1.754 7.506 5.704 13.285 11.504 16.633 3.47 2.004 7.361 3.001 11.508 3.001 4.979 0 10.328-1.439 15.753-4.302 9.34-4.931 17.926-13.607 24.174-24.43 6.009-10.407 9.208-21.689 9.09-31.925l89.815-51.163c1.67 7.841 5.677 13.875 11.652 17.325 3.551 2.05 7.485 3.025 11.604 3.024 13.723-.001 29.48-10.827 39.832-28.756 6.163-10.674 9.374-22.271 9.077-32.713l15.959-9.085a4 4 0 002.021-3.476c-.002-.001.003-132.272.003-132.296zM177.97 378.86l-28.895 16.463v-13.57l30.736-17.511c-1.288 4.973-1.918 9.907-1.841 14.618zM57.161 164.111l134.172 77.46-10.303 16.495L46.886 180.56l10.275-16.449zm119.628 100.744l-33.958 54.363L8.688 241.712l33.958-54.363 134.143 77.506zM8 269.036l25.24 14.583v11.108L8 280.144v-11.108zm33.24 19.205l66.267 38.288v11.108L41.24 299.349v-11.108zm74.266 42.91l25.568 14.773v11.108l-25.568-14.773v-11.108zm25.569-3.709v9.243L8 259.797v-9.243l133.075 76.888zM8 289.383l25.24 14.583v10.132L8 299.515v-10.132zm33.24 19.205l66.267 38.288v10.132L41.24 318.72v-10.132zm74.266 42.91l25.568 14.773v10.132l-25.568-14.773v-10.132zm84.271-108.344l34.143-19.422v46.058l-78.832 44.906 44.689-71.542zm42.143-23.972l181.053-102.989v45.903L241.92 265.233v-46.051zm43.969-186.716l133.045 76.821-221.999 126.28L63.89 158.759 285.889 32.466zM8 318.521v-9.767l133.075 76.888v9.768L8 318.521zm226.996 55.87c-5.504 9.535-12.956 17.119-20.98 21.354-7.422 3.919-14.357 4.433-19.526 1.448-5.169-2.984-8.19-9.247-8.508-17.634-.344-9.068 2.499-19.313 8.003-28.848 5.505-9.534 12.956-17.118 20.981-21.354 7.423-3.918 14.357-4.432 19.526-1.448 5.169 2.984 8.19 9.247 8.508 17.634.343 9.069-2.499 19.313-8.004 28.848zm161.992-91.495c-10.84 18.778-29.391 29.223-40.507 22.803-5.169-2.984-8.19-9.247-8.508-17.634-.344-9.068 2.499-19.313 8.003-28.847 8.669-15.014 22.264-24.699 33.048-24.699 2.704 0 5.231.609 7.459 1.895 5.169 2.984 8.19 9.247 8.508 17.635.344 9.067-2.498 19.313-8.003 28.847zm14.88-37.278c-1.811-7.262-5.714-12.858-11.384-16.132-15.385-8.881-37.977 2.421-51.435 25.731-5.902 10.222-9.098 21.289-9.099 31.379l-89.911 51.218c-1.731-7.602-5.696-13.456-11.547-16.833-7.637-4.41-17.318-3.947-27.261 1.302-9.34 4.931-17.926 13.606-24.174 24.429a74.222 74.222 0 00-3.085 5.951l-34.896 19.882V327.33l273.898-156.026v67.992l-11.106 6.322z"/><path d="M388.448 250.33c-5.551-3.207-15.284.668-23.139 14.275-2.938 5.087-4.821 10.448-5.304 15.097-.809 7.778 2.479 10.908 4.511 12.081 1.208.697 2.613 1.06 4.155 1.06 5.543-.001 12.839-4.688 18.985-15.334 7.856-13.608 6.345-23.973.792-27.179zm-7.72 23.178c-5.141 8.905-11.156 11.962-12.211 11.346-.147-.085-.875-1.243-.554-4.326.364-3.502 1.922-7.849 4.274-11.923 4.723-8.181 10.183-11.421 11.858-11.421.148 0 .267.025.353.075 1.057.61 1.421 7.345-3.72 16.249zm-154.271 68.317c-5.553-3.207-15.285.668-23.14 14.275-2.937 5.087-4.82 10.448-5.303 15.096-.808 7.779 2.48 10.908 4.512 12.081.938.542 2.37 1.106 4.264 1.106 2.208 0 5.045-.769 8.454-3.24 3.784-2.742 7.485-7.054 10.422-12.141 7.854-13.606 6.343-23.97.791-27.177zm-7.721 23.178c-2.353 4.075-5.337 7.597-8.189 9.664-2.509 1.818-3.875 1.768-4.023 1.683-.147-.085-.874-1.243-.554-4.326.364-3.502 1.922-7.848 4.274-11.923 5.142-8.904 11.157-11.953 12.212-11.347 1.057.61 1.421 7.344-3.72 16.249zM284.462 54.28a4.002 4.002 0 00-6-3.465L99.3 154.098a4 4 0 003.995 6.931L282.327 57.821a4 4 0 002.135-3.541zM199.15 216.576a3.996 3.996 0 005.463 1.468L383.77 114.766a4 4 0 00-3.995-6.931L200.618 211.113a4 4 0 00-1.468 5.463z"/></svg>