<svg version="1.1" id="Capa_1" xmlns="http://www.w3.org/2000/svg" x="0" y="0" viewBox="0 0 470.75 470.75" xml:space="preserve"><path d="M417.176 276.047c-6.675-3.856-15.53 3.422-20.829 12.6-5.298 9.178-7.17 20.484-.497 24.339a7.778 7.778 0 003.951 1.055c5.922 0 12.574-6.2 16.878-13.654 5.298-9.179 7.171-20.486.497-24.34zm-7.425 20.338c-3.988 6.907-8.566 9.631-9.881 9.637-.652-1.143-.583-6.469 3.405-13.376 3.988-6.907 8.566-9.631 9.881-9.637.652 1.143.582 6.469-3.405 13.376zM197.634 400.74c-1.877-1.084-5.881-2.28-11.625 1.884-3.347 2.426-6.616 6.231-9.205 10.716-2.589 4.483-4.25 9.218-4.677 13.329-.733 7.056 2.304 9.926 4.18 11.009a7.778 7.778 0 003.951 1.055c5.922 0 12.574-6.2 16.878-13.654 5.299-9.18 7.171-20.487.498-24.339zm-7.426 20.338c-3.988 6.907-8.566 9.631-9.881 9.637-.652-1.143-.582-6.469 3.405-13.375 3.989-6.908 8.566-9.631 9.881-9.637.653 1.141.583 6.468-3.405 13.375z"/><path d="M470.75 87.093a4 4 0 00-1.998-3.463L346.179 12.797a3.992 3.992 0 00-3.993-.006S52.717 178.777 52.327 179.172c-.928.939-1.36 2.595-1.975 4.966 0 0-16.855 65.285-16.855 65.624a4 4 0 002 3.464l18.132 10.467-14.632 24.894-37.826 37.824A3.999 3.999 0 000 329.239v53.706a4 4 0 001.999 3.464l122.631 70.845a4.003 4.003 0 004.001.001l27.136-15.574c1.634 6.337 5.085 11.233 10.079 14.116 3.164 1.827 6.667 2.695 10.332 2.695 12.121 0 25.998-9.501 35.092-25.254 5.429-9.403 8.068-19.162 8.032-27.738l155.889-88.804c1.58 6.3 4.993 11.404 10.197 14.408 3.164 1.827 6.667 2.695 10.332 2.695 12.121 0 25.998-9.501 35.092-25.254 5.281-9.147 8.087-19.073 7.97-28.079l29.947-17.056a4 4 0 002.021-3.476V87.093zM344.171 20.876l114.565 66.206-42.088 24.163-114.573-66.199 42.096-24.17zm21.427 119.677l-21.214-12.257 43.192-24.609 21.051 12.163-43.029 24.703zM251.027 74.356l43.027-24.705 18.768 10.844-43.192 24.609-18.603-10.748zm69.819-9.225l23.767 13.732-43.192 24.609-23.767-13.732 43.192-24.609zm31.79 18.368l26.916 15.552-43.192 24.609-26.917-15.552 43.193-24.609zm-109.63-4.538l114.57 66.197-179.967 103.32-114.561-66.191L243.006 78.961zM57.528 188.338l115.442 66.7-15.396 59.418L42.118 247.81a707768.06 707768.06 0 0115.41-59.472zm100.6 135.674a4 4 0 003.988.007l30.633-17.551-29.369 49.98-115.699-66.849 12.877-21.907 97.57 56.32zm100.261-55.153v34.972l-82.764 47.568 31.104-52.941 51.66-29.599zm-215.54 27.188l115.455 66.708-32.635 32.644-115.461-66.711 32.641-32.641zM8 336.652l20.895 12.073v25.285L8 361.937v-25.285zm28.895 16.695l56.557 32.677v25.286l-56.557-32.678v-25.285zm64.556 37.3l21.18 12.237v25.286l-21.18-12.237v-25.286zM8 380.636v-9.459l114.631 66.233v9.449L8 380.636zm196.343 48.602c-9.283 16.077-25.082 25.063-34.497 19.631-4.332-2.501-6.866-7.791-7.135-14.896-.295-7.786 2.151-16.591 6.887-24.795 7.441-12.888 19.067-21.221 28.238-21.221 2.27 0 4.39.512 6.259 1.59 9.416 5.438 9.53 23.614.248 39.691zM348.21 252.933l-43.992 25.065v-51.997l43.992-25.399v52.331zm-43.992 34.272l43.992-25.065v60.719l-43.992 25.061v-60.715zm119.667 17.341c-9.283 16.077-25.08 25.063-34.497 19.631-9.417-5.438-9.53-23.613-.248-39.69 7.441-12.888 19.067-21.22 28.238-21.22 2.27 0 4.391.511 6.259 1.589 4.332 2.501 6.866 7.791 7.135 14.896.295 7.785-2.15 16.589-6.887 24.794zm13.79-32.654c-1.65-6.263-5.084-11.104-10.038-13.964-13.626-7.87-33.58 2.043-45.424 22.559-5.395 9.344-8.034 19.041-8.031 27.579l-17.971 10.237V193.674a3.998 3.998 0 00-6-3.464l-51.992 30.018a3.998 3.998 0 00-2 3.464v128.786l-77.959 44.41c-1.595-6.235-4.999-11.285-10.164-14.268-13.625-7.869-33.58 2.042-45.424 22.559-5.247 9.088-8.052 18.945-7.973 27.905l-24.066 13.711v-45.043l36.443-36.454 97.308-55.685a3.998 3.998 0 002.007-3.468v-44.188a4.001 4.001 0 00-5.989-3.471l-94.017 53.867 14.673-56.631L462.75 94.002V257.61l-25.075 14.282z"/><path d="M451.778 134.498a3.998 3.998 0 00-4 0l-51.992 30.018a3.998 3.998 0 00-2 3.464v39.73a3.998 3.998 0 006 3.464l51.992-30.018a3.998 3.998 0 002-3.464v-39.73c0-1.429-.762-2.75-2-3.464zm-6 40.885l-43.992 25.399v-30.493l43.992-25.399v30.493zm-189.587 47.136a3.998 3.998 0 00-4 0l-29.009 16.748a3.998 3.998 0 00-2 3.464v22.167a3.998 3.998 0 006 3.464l29.009-16.748a3.998 3.998 0 002-3.464v-22.167c0-1.429-.762-2.75-2-3.464zm-6 23.322l-21.009 12.13v-12.93l21.009-12.13v12.93zm-96.58 14.432l-85.405-49.157a3.994 3.994 0 00-1.996-.533c-3.096 0-3.798 2.712-4.136 4.016l-5.883 22.706a4.166 4.166 0 00-.128 1.025c0 1.432.765 2.754 2.005 3.467l85.405 49.134a3.998 3.998 0 005.867-2.465l6.147-23.724a4 4 0 00-1.876-4.469zm-10.698 21.106L64.694 236.38l4.071-15.711 78.213 45.018-4.065 15.692zm74.366-95.011a4 4 0 00-2-3.464l-46.703-26.97a3.998 3.998 0 00-4.003.001l-55.28 31.973c-1.24.718-2.002 2.043-1.998 3.476s.774 2.753 2.019 3.462l46.954 26.769a3.983 3.983 0 001.976.525c.756 0 1.502-.215 2.145-.622l54.889-31.686a3.998 3.998 0 002.001-3.464zm-59.046 27.157l-38.904-22.18 47.249-27.327 38.701 22.349-47.046 27.158z"/></svg>