<svg version="1.1" id="Capa_1" xmlns="http://www.w3.org/2000/svg" x="0" y="0" viewBox="0 0 449.441 449.441" xml:space="preserve"><path d="M449.432 92.721c-.154-1.233-.907-2.336-2-2.967l-111.145-64.17a3.999 3.999 0 00-3.998-.001L2.002 216.039C.764 216.753 0 219.504 0 219.504v136.729a4 4 0 002 3.464l33.489 19.334-6.215 3.553c-6.022-7.621-14.582-10.777-20.819-7.176-3.672 2.119-5.89 6.298-6.086 11.464-.173 4.561 1.196 9.609 3.855 14.214 2.658 4.605 6.346 8.315 10.382 10.446 2.445 1.29 4.934 1.938 7.282 1.938 2.044 0 3.98-.491 5.688-1.478 3.671-2.119 5.89-6.297 6.085-11.463.135-3.545-.672-7.382-2.282-11.078l10.13-5.79 69.624 40.195a4.002 4.002 0 003.998.001l35.624-20.54c.118 7.732 3.157 13.975 8.635 17.136 2.452 1.416 5.166 2.09 8 2.09 9.178-.001 19.601-7.065 26.394-18.822 2.77-4.796 4.589-9.853 5.411-14.71 1.39 2.207 3.213 4.014 5.446 5.302 2.417 1.396 5.116 2.091 7.979 2.091 3.373 0 6.975-.965 10.612-2.886 6.125-3.233 11.737-8.898 15.802-15.948a46.294 46.294 0 004.294-9.947l95.601-55.194a15.235 15.235 0 003.082 2.375c2.418 1.396 5.118 2.092 7.983 2.092 3.37 0 6.97-.963 10.604-2.881 6.122-3.23 11.736-8.894 15.807-15.944 2.765-4.786 4.582-9.852 5.404-14.722 1.391 2.218 3.22 4.028 5.453 5.315 2.417 1.396 5.116 2.091 7.98 2.091 3.373 0 6.975-.964 10.612-2.885 6.124-3.232 11.739-8.897 15.812-15.95 5.39-9.344 7.182-19.756 4.975-27.674l18.79-10.834a4 4 0 002.002-3.465c-.001-.001.019-137.063-.001-137.226zM25.577 405.065c-1.238.715-3.147.495-5.235-.608-2.682-1.415-5.302-4.103-7.189-7.371-1.887-3.269-2.903-6.881-2.789-9.911.09-2.359.852-4.123 2.092-4.839.484-.279 1.065-.416 1.714-.416 3.055 0 7.613 3.03 10.711 8.396 1.887 3.269 2.903 6.881 2.788 9.911-.09 2.359-.853 4.123-2.092 4.838zm415.855-294.886l-40.941 23.606v-10.038l40.941-23.606v10.038zm-98.511 174.257V176.213l49.569-28.581v108.223l-49.569 28.581zM227.78 350.824V242.602l49.57-28.582v108.223l-49.57 28.581zm-57.58 33.2V275.802l49.58-28.587v108.223l-49.58 28.586zm-51.066 29.445V305.246l43.066-24.832v108.223l-43.066 24.832zM8 236.467v-10.035l103.134 59.542v10.034L8 236.467zm211.78-8.524v10.037l-49.58 28.587V256.53l49.58-28.587zm8-4.613l49.57-28.582v10.037l-49.57 28.582V223.33zm57.571-33.194l49.57-28.582v10.038l-49.57 28.582v-10.038zm53.517-40.092L235.727 90.499l49.277-28.415 103.143 59.547-49.279 28.413zm-8.005 4.616l-49.567 28.579-103.139-59.543 49.565-28.581 103.141 59.545zm-57.572 33.195l-50 28.829-103.136-59.543 49.996-28.83 103.14 59.544zM215.286 221.3l-49.445 28.509-103.133-59.541 49.443-28.511L215.286 221.3zM162.2 271.18l-43.066 24.832v-10.037l43.066-24.832v10.037zm-51.066 34.065v108.22l-16.237-9.374v-108.22l16.237 9.374zm174.217-95.838l49.57-28.582v108.223l-49.57 28.582V209.407zm57.57-42.428v-10.037l49.569-28.581v10.038l-49.569 28.58zm-8.635-133.313l103.142 59.55-41.277 23.8-103.143-59.547 41.278-23.803zM54.703 194.884l103.133 59.541-42.702 24.621-103.131-59.54 42.7-24.622zM8 245.704l14.244 8.223v108.22L8 353.924v-108.22zm49.85 125.153a4.001 4.001 0 00-5.458-1.487l-8.862 5.065-13.285-7.67v-108.22l56.652 32.706v108.22L51.55 379.066l4.812-2.75a4.002 4.002 0 001.488-5.459zm131.006 28.862c-6.424 11.121-17.171 17.44-23.467 13.806-3.82-2.205-5.421-8.006-4.258-15.037l32.312-18.631c.97 5.641-.663 13.069-4.587 19.862zm45.249-26.148c-3.323 5.763-7.801 10.334-12.609 12.873-2.435 1.287-7.082 3.12-10.855.941-3.806-2.198-5.412-7.977-4.274-14.98l32.345-18.65c.949 5.632-.691 13.04-4.607 19.816zm11.831-23.98l89.454-51.578c.077 2.755.538 5.309 1.34 7.604l-89.788 51.838c.035-2.792-.293-5.447-1.006-7.864zm125.541-55.522c-3.327 5.763-7.807 10.334-12.612 12.87-2.435 1.284-7.082 3.112-10.854.937-3.732-2.155-5.356-7.804-4.32-14.65l32.421-18.694c.846 5.61-.803 12.904-4.635 19.537zm45.259-26.149c-3.328 5.764-7.809 10.336-12.618 12.875-2.436 1.286-7.087 3.119-10.859.938-3.718-2.143-5.343-7.771-4.324-14.595l32.441-18.705c.827 5.599-.824 12.873-4.64 19.487zm-16.246-16.678V143.019l40.941-23.606v108.223l-40.941 23.606z"/></svg>