<svg version="1.1" id="Capa_1" xmlns="http://www.w3.org/2000/svg" x="0" y="0" viewBox="0 0 449.432 449.432" xml:space="preserve"><path d="M449.432 93.214a4 4 0 00-2-3.464L336.287 25.58a3.996 3.996 0 00-3.998-.001L2.002 216.035C.764 216.749 0 219.5 0 219.5v136.73c0 1.429.762 2.75 2 3.464l33.49 19.334-6.215 3.552c-6.023-7.621-14.585-10.773-20.82-7.176-7.173 4.142-8.153 15.42-2.231 25.678 2.659 4.605 6.346 8.315 10.383 10.446 2.444 1.29 4.934 1.938 7.282 1.938 2.043 0 3.98-.491 5.688-1.478 3.672-2.119 5.89-6.297 6.086-11.463.134-3.545-.673-7.382-2.283-11.078l10.13-5.79 69.624 40.195a4.002 4.002 0 003.998.001l35.623-20.54c.119 7.733 3.158 13.975 8.635 17.136 2.453 1.416 5.167 2.09 8 2.089 9.178 0 19.602-7.064 26.395-18.821 2.77-4.796 4.589-9.853 5.411-14.709 1.39 2.207 3.213 4.014 5.445 5.302 2.417 1.396 5.116 2.091 7.979 2.091 3.373 0 6.975-.965 10.612-2.886 6.125-3.233 11.737-8.898 15.801-15.948a46.294 46.294 0 004.294-9.947l95.601-55.195a15.235 15.235 0 003.082 2.375c2.418 1.396 5.118 2.092 7.983 2.092 3.371 0 6.97-.963 10.604-2.881 6.122-3.23 11.736-8.894 15.807-15.944 2.765-4.786 4.583-9.852 5.404-14.722 1.391 2.218 3.219 4.027 5.452 5.314 2.417 1.396 5.117 2.091 7.981 2.091 3.373 0 6.975-.964 10.612-2.884 6.125-3.233 11.74-8.898 15.813-15.951 5.39-9.344 7.181-19.756 4.975-27.674l18.79-10.834a3.999 3.999 0 002.002-3.465l-.001-136.728zM25.578 405.061c-1.24.717-3.149.494-5.236-.608-2.682-1.415-5.302-4.103-7.189-7.371-3.755-6.504-3.465-13.151-.698-14.75.485-.279 1.065-.416 1.714-.416 3.055 0 7.614 3.031 10.711 8.396 1.887 3.269 2.904 6.881 2.789 9.911-.09 2.359-.852 4.123-2.091 4.838zm415.854-205.357l-40.941 23.606v-78.161l40.941-23.606v78.161zm-98.511 84.728v-18.694l49.57-28.582v18.694l-49.57 28.582zm-115.14 66.389v-18.694l49.57-28.582v18.694l-49.57 28.582zm-57.58 33.199v-18.695l49.58-28.587v18.694l-49.58 28.588zm-51.067 29.445V394.77l43.067-24.832v18.694l-43.067 24.833zM355.589 70.763l60.344 34.843-300.797 173.436-84.05-48.524L307.792 70.762c14.742-8.511 33.057-8.508 47.797.001zm-78.238 123.981v12.172l-49.57 28.582v-12.172l49.57-28.582zm-57.57 45.366l-49.58 28.587v-12.171l49.58-28.587v12.171zm-57.58 33.2l-43.067 24.832v-12.171l43.067-24.832v12.171zm-43.067 34.066l43.067-24.832v78.16l-43.067 24.832v-78.16zm51.067-29.445l49.58-28.587v78.161l-49.58 28.587v-78.161zm57.58-33.199l49.57-28.582v78.161l-49.57 28.582v-78.161zm57.57-33.195l49.57-28.581v78.161l-49.57 28.581v-78.161zm0-9.234v-12.172l49.57-28.582v12.172l-49.57 28.582zm57.57-45.365l49.57-28.582v12.172l-49.57 28.581v-12.171zM111.134 285.969v12.168L8 238.597v-12.169l103.134 59.541zM8 247.834l103.134 59.541v78.157L8 325.991v-78.157zm277.351 51.098l49.57-28.581v18.694l-49.57 28.581v-18.694zm57.57-42.428v-78.161l49.57-28.582v78.161l-49.57 28.582zm98.511-144.195l-40.941 23.606v-12.172l40.941-23.606v12.172zm-17.494-11.319l-64.349-37.156a55.626 55.626 0 00-21.302-7.057V35.972l99.141 57.24-13.49 7.778zm-93.651-65.022v20.437c-9.177.229-18.308 2.702-26.495 7.429L23.086 225.9l-11.082-6.398L330.287 35.968zM57.85 370.853a4 4 0 00-5.458-1.487l-8.862 5.066L8 353.92v-18.691l103.134 59.541v18.691L51.55 379.062l4.812-2.75a4.002 4.002 0 001.488-5.459zm131.007 28.862c-6.424 11.119-17.171 17.439-23.467 13.806-3.82-2.204-5.421-8.005-4.258-15.037l32.313-18.631c.969 5.642-.664 13.07-4.588 19.862zm45.248-26.148c-3.322 5.763-7.8 10.334-12.608 12.873-2.436 1.287-7.086 3.117-10.856.941-3.805-2.197-5.412-7.976-4.273-14.98l32.344-18.65c.949 5.632-.691 13.04-4.607 19.816zm11.83-23.98l89.454-51.578c.077 2.755.538 5.309 1.34 7.604l-89.788 51.839c.036-2.793-.292-5.447-1.006-7.865zm125.542-55.522c-3.328 5.763-7.807 10.334-12.613 12.87-2.434 1.285-7.082 3.112-10.854.937-3.732-2.155-5.355-7.803-4.32-14.65l32.421-18.694c.848 5.61-.801 12.904-4.634 19.537zm45.26-26.149c-3.328 5.764-7.81 10.336-12.619 12.875-2.436 1.286-7.085 3.116-10.86.939-3.718-2.144-5.342-7.772-4.324-14.596l32.441-18.705c.828 5.599-.823 12.872-4.638 19.487zm-16.246-16.678v-18.694l40.941-23.606v18.694l-40.941 23.606z"/></svg>