<svg version="1.1" id="Capa_1" xmlns="http://www.w3.org/2000/svg" x="0" y="0" viewBox="0 0 473.181 473.181" xml:space="preserve"><path d="M453.638 82.576c-13.411-23.228-31.769-41.812-51.691-52.329-20.524-10.836-40.333-11.893-55.771-2.978l-.004-.001-226.87 131.058c-16.872 9.745-26.072 30.554-25.319 56.503l-18.253-10.54a3.998 3.998 0 00-4 0l-56.951 32.886a4 4 0 00-1.865 2.435C12.826 239.941 0 316.423 0 317.25v64.021a4 4 0 002 3.464l115.426 66.637a3.997 3.997 0 001.998.535c.695 0 1.384-.19 2-.547l.004.007 37.296-21.53c.471 7.758 3.686 13.735 9.117 16.869 2.566 1.482 5.435 2.22 8.48 2.22 3.6 0 7.448-1.031 11.338-3.084 6.578-3.473 12.612-9.562 16.991-17.146 4.38-7.584 6.637-15.855 6.354-23.289a28.773 28.773 0 00-.692-5.338l122.96-70.159c.631 7.079 3.69 12.927 9.088 16.043 2.608 1.506 5.496 2.222 8.512 2.222 9.824 0 21.004-7.599 28.299-20.233 4.117-7.13 6.222-14.529 6.395-21.152 1.437 4.476 4.102 8.105 7.965 10.335 2.566 1.482 5.435 2.22 8.48 2.22 3.601 0 7.448-1.031 11.338-3.084 6.578-3.473 12.612-9.563 16.991-17.147 4.379-7.585 6.636-15.855 6.354-23.289a28.87 28.87 0 00-.659-5.188l6.85-3.954a4 4 0 002-3.464V224.19a4.001 4.001 0 00-1.92-3.417c-.062-.038-.128-.066-.192-.101l.004-.007-12.982-6.969 18.008-10.402c15.44-8.914 24.428-26.596 25.307-49.789.854-22.511-6.061-47.701-19.472-70.929zm-330.335 82.677c12.972-7.488 30.03-6.38 48.036 3.124 18.607 9.822 35.83 27.314 48.491 49.245l.02.034c.028.054.058.108.088.161 25.695 44.642 24.345 93.811-3.008 109.605-6.904 3.984-14.883 5.536-23.752 4.643l-.021-57.662a4 4 0 00-2-3.464l-88.903-51.334c-2.028-25.296 5.767-45.525 21.049-54.352zM73.73 212.372l107.426 62.029-48.951 28.257-107.426-62.019 48.951-28.267zm111.448 68.945v60.028l-6.532 3.771v-60.029l6.532-3.77zm-14.532 8.389v60.03l-45.353 26.184 10.562-66.131 34.791-20.083zM19.953 247.09l107.868 62.274-2.55 15.965-107.93-62.308 2.612-15.931zm-2.324 137.429L8 378.96v-13.625l9.629 5.559v13.625zm79.67 45.995l-71.67-41.376v-13.625l71.67 41.376v13.625zm18.129 10.466l-10.129-5.848v-13.626l10.129 5.848v13.626zm0-22.863L8 356.097v-31.92l107.428 62.021v31.919zm1.462-40.312L8.758 315.377l7.2-43.917 107.962 62.327-7.03 44.018zm42.588 42.358l-36.051 20.811v-54.741l61.75-35.651v36.622c-7.426 2.86-14.821 9.396-20.146 18.618-2.678 4.64-4.558 9.537-5.553 14.341zm38.244 4.533c-3.636 6.296-8.536 11.293-13.799 14.072-2.697 1.425-7.855 3.453-12.083 1.011-4.227-2.439-5.051-7.92-5.167-10.97-.226-5.947 1.652-12.689 5.287-18.986 7.048-12.207 18.903-19.112 25.883-15.083 4.227 2.44 5.051 7.921 5.167 10.971.225 5.946-1.653 12.688-5.288 18.985zm174.521-100.755c-7.049 12.207-18.901 19.113-25.883 15.083-6.982-4.031-6.927-17.75.121-29.957 3.636-6.296 8.535-11.294 13.799-14.072 1.787-.943 4.651-2.15 7.61-2.15 1.51 0 3.045.314 4.473 1.139 6.983 4.032 6.927 17.75-.12 29.957zm51.17-28.828c-3.636 6.296-8.535 11.294-13.799 14.072-2.698 1.425-7.856 3.452-12.083 1.011-6.982-4.031-6.927-17.75.12-29.957 3.636-6.296 8.536-11.293 13.799-14.072 2.7-1.425 7.86-3.451 12.084-1.011 4.226 2.439 5.051 7.92 5.166 10.97.226 5.948-1.652 12.69-5.287 18.987zm13.474-34.205l-3.988 2.302c-1.423-2.059-3.22-3.743-5.365-4.981-5.6-3.233-12.639-2.927-19.818.864-6.579 3.473-12.613 9.562-16.992 17.146-2.794 4.839-4.656 9.801-5.623 14.561l-3.032 1.75c-1.457-2.263-3.358-4.139-5.705-5.494-5.601-3.234-12.639-2.926-19.818.864-6.578 3.473-12.612 9.563-16.991 17.147-2.947 5.105-4.863 10.347-5.778 15.344L207.13 392.674a16.547 16.547 0 00-5.287-4.863c-2.652-1.532-5.595-2.238-8.665-2.214v-14.668l243.709-139.89v29.869zm-4.293-36.629L193.178 361.705v-21.607c1.558.132 3.1.198 4.625.198 8.431 0 16.301-2.008 23.126-5.947l200.72-115.947 10.945 5.877zm11.209-27.912L239.118 314.643c4.226-8.382 6.667-18.51 7.113-29.996.871-22.431-5.981-47.539-19.298-70.714a5.084 5.084 0 00-.169-.302c-13.41-23.229-31.768-41.813-51.69-52.329-10.16-5.363-20.143-8.326-29.509-8.874l204.61-118.234.002.002c12.972-7.489 30.031-6.379 48.036 3.125 18.607 9.822 35.831 27.314 48.498 49.254 25.811 44.712 24.509 93.963-2.908 109.792z"/></svg>