<svg height="512" viewBox="0 0 64 64" width="512" xmlns="http://www.w3.org/2000/svg"><path d="m45 27h-7.279l-1.772-5.316a1 1 0 0 0 -.949-.684h-5a1 1 0 0 0 -1 1v5h-5.382l-2.718-5.447a1 1 0 0 0 -.9-.553h-5a1 1 0 0 0 -1 1v14a3 3 0 0 0 3 3h12v5a1 1 0 0 0 1 1h6a1 1 0 0 0 .976-.783l1.159-5.217h10.865a3 3 0 0 0 3-3v-2a7.008 7.008 0 0 0 -7-7zm-14-4h3.279l1.333 4h-4.612zm19 13a1 1 0 0 1 -1 1h-10.42l.4-1.783-1.952-.434-1.828 8.217h-4.2v-8h-2v2h-12a1 1 0 0 1 -1-1v-13h3.382l2.723 5.447a1 1 0 0 0 .895.553h22a5.006 5.006 0 0 1 5 5z"/><path d="m43 31h4v2h-4z"/><path d="m39 31h2v2h-2z"/><path d="m35 31h2v2h-2z"/><path d="m31 31h2v2h-2z"/><path d="m27 31h2v2h-2z"/><path d="m23 31h2v2h-2z"/><path d="m61.1 26.005-7.1-.705a22.931 22.931 0 0 0 -1.7-4.109l4.518-5.524a1 1 0 0 0 -.066-1.34l-7.074-7.076a1 1 0 0 0 -1.341-.067l-5.523 4.516a23.021 23.021 0 0 0 -4.109-1.7l-.71-7.1a1 1 0 0 0 -.995-.9h-10a1 1 0 0 0 -1 .9l-.7 7.1a23.021 23.021 0 0 0 -4.114 1.7l-5.523-4.516a1 1 0 0 0 -1.341.067l-7.071 7.071a1 1 0 0 0 -.066 1.34l4.515 5.524a22.931 22.931 0 0 0 -1.7 4.114l-7.1.71a1 1 0 0 0 -.9.99v10a1 1 0 0 0 .9.995l7.1.71a22.87 22.87 0 0 0 1.7 4.109l-4.515 5.524a1 1 0 0 0 .066 1.34l7.071 7.071a1 1 0 0 0 1.341.067l5.523-4.516a23.021 23.021 0 0 0 4.114 1.7l.71 7.1a1 1 0 0 0 1 .9h9.99a1 1 0 0 0 .995-.9l.71-7.1a23.021 23.021 0 0 0 4.109-1.7l5.523 4.519a1 1 0 0 0 1.341-.067l7.071-7.071a1 1 0 0 0 .066-1.34l-4.515-5.527a22.87 22.87 0 0 0 1.7-4.109l7.1-.71a1 1 0 0 0 .9-.995v-10a1 1 0 0 0 -.9-.995zm-1.1 10.095-6.872.687a1 1 0 0 0 -.865.734 20.86 20.86 0 0 1 -2.037 4.91 1 1 0 0 0 .094 1.13l4.374 5.339-5.794 5.8-5.347-4.376a1 1 0 0 0 -1.13-.092 21.012 21.012 0 0 1 -4.911 2.037 1 1 0 0 0 -.733.865l-.679 6.866h-8.19l-.687-6.871a1 1 0 0 0 -.733-.865 21.012 21.012 0 0 1 -4.911-2.037 1 1 0 0 0 -1.13.092l-5.349 4.381-5.794-5.8 4.374-5.347a1 1 0 0 0 .094-1.13 20.86 20.86 0 0 1 -2.037-4.91 1 1 0 0 0 -.865-.734l-6.872-.679v-8.19l6.872-.687a1 1 0 0 0 .865-.734 20.887 20.887 0 0 1 2.037-4.91 1 1 0 0 0 -.094-1.13l-4.374-5.349 5.794-5.795 5.347 4.376a1 1 0 0 0 1.13.092 21.012 21.012 0 0 1 4.911-2.037 1 1 0 0 0 .733-.865l.684-6.871h8.195l.687 6.871a1 1 0 0 0 .733.865 21.012 21.012 0 0 1 4.911 2.037 1 1 0 0 0 1.13-.092l5.339-4.376 5.794 5.795-4.374 5.344a1 1 0 0 0 -.094 1.13 20.887 20.887 0 0 1 2.037 4.91 1 1 0 0 0 .865.734l6.872.687z"/><path d="m32 17a14.909 14.909 0 0 1 13.493 8.438l1.8-.876a17.005 17.005 0 0 0 -26.538-5.312l1.324 1.5a14.981 14.981 0 0 1 9.921-3.75z"/><path d="m32 47a15 15 0 0 1 -12.4-6.563l-1.653 1.126a17 17 0 0 0 28.114 0l-1.661-1.126a15 15 0 0 1 -12.4 6.563z"/><path d="m31 9h2v2h-2z"/><path d="m15.444 15.443h2v2h-2z" transform="matrix(.707 -.707 .707 .707 -6.811 16.448)"/><path d="m9 31h2v2h-2z"/><path d="m15.444 46.557h2v2h-2z" transform="matrix(.707 -.707 .707 .707 -28.811 25.556)"/><path d="m31 53h2v2h-2z"/><path d="m46.557 46.557h2v2h-2z" transform="matrix(.707 -.707 .707 .707 -19.699 47.568)"/><path d="m53 31h2v2h-2z"/><path d="m46.556 15.443h2v2h-2z" transform="matrix(.707 -.707 .707 .707 2.302 38.444)"/></svg>