<svg height="512" viewBox="0 0 64 64" width="512" xmlns="http://www.w3.org/2000/svg"><path d="m46 19v-2a7.008 7.008 0 0 0 -7-7h-10.412l-1.632-5.294a1 1 0 0 0 -.956-.706h-6a1 1 0 0 0 -1 1v5h-7.307l-2.756-7.351a1 1 0 0 0 -.937-.649h-5a1 1 0 0 0 -1 1v14a5.006 5.006 0 0 0 5 5h12v7a1 1 0 0 0 1 1h6a1 1 0 0 0 .94-.658l2.67-7.342h13.39a3 3 0 0 0 3-3zm-25-13h4.262l1.238 4h-5.5zm23 13a1 1 0 0 1 -1 1h-12.663l.6-1.658-1.88-.684-3.757 10.342h-4.3v-10h-2v2h-12a3 3 0 0 1 -3-3v-13h3.307l2.756 7.351a1 1 0 0 0 .937.649h28a5.006 5.006 0 0 1 5 5z"/><path d="m38 14h4v2h-4z"/><path d="m32 14h2v2h-2z"/><path d="m28 14h2v2h-2z"/><path d="m24 14h2v2h-2z"/><path d="m20 14h2v2h-2z"/><path d="m16 14h2v2h-2z"/><path d="m12 14h2v2h-2z"/><path d="m53 41a4 4 0 1 0 4 4 4 4 0 0 0 -4-4zm0 6a2 2 0 1 1 2-2 2 2 0 0 1 -2 2z"/><path d="m53 36a9.011 9.011 0 0 0 -9 9c0 4.712 7.461 11.919 8.312 12.726a1 1 0 0 0 1.376 0c.851-.807 8.312-8.014 8.312-12.726a9.011 9.011 0 0 0 -9-9zm0 19.6c-2.447-2.457-7-7.639-7-10.6a7 7 0 0 1 14 0c0 2.96-4.553 8.144-7 10.6z"/><path d="m52 60h2v2h-2z"/><path d="m48 60h2v2h-2z"/><path d="m44 60h2v2h-2z"/><path d="m40 60h2v2h-2z"/><path d="m36 60h2v2h-2z"/><path d="m32 60h2v2h-2z"/><path d="m28 60h2v2h-2z"/><path d="m24 60h2v2h-2z"/><path d="m20 60h2v2h-2z"/><path d="m16 60h2v2h-2z"/><path d="m12 60h2v2h-2z"/><path d="m8 60h2v2h-2z"/><path d="m52 32h2v2h-2z"/><path d="m56 32h2v2h-2z"/><path d="m60 32h2v2h-2z"/><path d="m60 28h2v2h-2z"/><path d="m60 24h2v2h-2z"/><path d="m60 20h2v2h-2z"/><path d="m56 20h2v2h-2z"/><path d="m52 20h2v2h-2z"/><path d="m48 20h2v2h-2z"/><path d="m48 32h2v2h-2z"/><path d="m44 32h2v2h-2z"/><path d="m40 32h2v2h-2z"/><path d="m36 32h2v2h-2z"/><path d="m32 32h2v2h-2z"/><path d="m28 32h2v2h-2z"/><path d="m24 32h2v2h-2z"/><path d="m20 32h2v2h-2z"/><path d="m16 32h2v2h-2z"/><path d="m12 32h2v2h-2z"/><path d="m8 32h2v2h-2z"/><path d="m4 60h2v2h-2z"/><path d="m4 56h2v2h-2z"/><path d="m4 52h2v2h-2z"/><path d="m4 48h2v2h-2z"/><path d="m4 44h2v2h-2z"/><path d="m4 40h2v2h-2z"/><path d="m4 36h2v2h-2z"/><path d="m4 32h2v2h-2z"/></svg>