<?xml version="1.0"?>
<svg xmlns="http://www.w3.org/2000/svg" viewBox="0 0 64 64" width="512" height="512"><g id="Compass-3" data-name="Compass"><path d="M30,6l4.2,5.6a1,1,0,0,0,.8.4,1.019,1.019,0,0,0,.316-.051A1,1,0,0,0,36,11V2H34V8L29.8,2.4A1,1,0,0,0,28,3v9h2Z"/><path d="M31,54h2a1,1,0,0,1,1,1h2a3,3,0,0,0-3-3H31a3,3,0,0,0,0,6h2a1,1,0,0,1,0,2H31a1,1,0,0,1-1-1H28a3,3,0,0,0,3,3h2a3,3,0,0,0,0-6H31a1,1,0,0,1,0-2Z"/><path d="M62,29V27H56a1,1,0,0,0-1,1v8a1,1,0,0,0,1,1h6V35H57V33h3V31H57V29Z"/><path d="M8.039,36.275A1,1,0,0,0,9,37h.017a1,1,0,0,0,.953-.757l2-8-1.94-.486L8.936,32.135l-.975-3.41a1,1,0,0,0-1.922,0l-.975,3.41L3.97,27.757l-1.94.486,2,8a1,1,0,0,0,1.931.032L7,32.64Z"/><path d="M7.917,38.731l-1.927.538A26.977,26.977,0,0,0,25.77,58.277l.46-1.946A24.977,24.977,0,0,1,7.917,38.731Z"/><path d="M37.771,56.331l.458,1.946A26.977,26.977,0,0,0,58.01,39.269l-1.926-.538A24.978,24.978,0,0,1,37.771,56.331Z"/><path d="M56.084,25.269l1.926-.538A26.977,26.977,0,0,0,38.229,5.723l-.458,1.946A24.978,24.978,0,0,1,56.084,25.269Z"/><path d="M26.23,7.669l-.46-1.946A27.171,27.171,0,0,0,5.723,25.77l1.946.46A25.159,25.159,0,0,1,26.23,7.669Z"/><path d="M15,32A17,17,0,1,0,32,15,17.019,17.019,0,0,0,15,32ZM32.8,17.04a.984.984,0,0,0-.5.253l-2,2A1,1,0,0,0,30,20v4a1,1,0,0,0,.485.857L35,27.566V32a1,1,0,0,0,.836.986L41,33.847v2.917l-1.9,3.789A1,1,0,0,0,39,41v2a1,1,0,0,0,1,1h.962A14.906,14.906,0,0,1,34,46.851V45a1,1,0,0,0,.447-.1l2-1A1,1,0,0,0,37,43V40a1,1,0,0,0-.293-.707l-2-2A1,1,0,0,0,34,37H30a1,1,0,0,0-.707.293l-2,2A1,1,0,0,0,27,40v3a1.006,1.006,0,0,0,.168.555L29,46.3v.4a14.9,14.9,0,0,1-5.189-2.147A.979.979,0,0,0,24,44V40.162l.832-2.495,4.683-2.81A1,1,0,0,0,30,34V30a1,1,0,0,0-.293-.707L27,26.586V23a1,1,0,0,0-.105-.447l-1.9-3.8A14.9,14.9,0,0,1,32,17C32.269,17,32.532,17.026,32.8,17.04ZM17,32a14.97,14.97,0,0,1,6.038-12h.344L25,23.236V27a1,1,0,0,0,.293.707L28,30.414v3.02l-4.515,2.709a1,1,0,0,0-.434.541l-1,3A1,1,0,0,0,22,40v3.149A14.951,14.951,0,0,1,17,32ZM31,46.949V46a1.006,1.006,0,0,0-.168-.555L29,42.7V40.414L30.414,39h3.172L35,40.414v1.968L33.764,43H33a1,1,0,0,0-1,1v3C31.662,47,31.332,46.971,31,46.949ZM47,32a14.92,14.92,0,0,1-3.851,10H41v-.764l1.9-3.789A1,1,0,0,0,43,37V33a1,1,0,0,0-.836-.986L37,31.153V27a1,1,0,0,0-.485-.857L32,23.434v-3.02L33.414,19h6.038A15,15,0,0,1,47,32Z"/></g></svg>
