<?xml version="1.0"?>
<svg xmlns="http://www.w3.org/2000/svg" viewBox="0 0 64 64" width="512" height="512"><g id="Box-Package"><path d="M61.394,31.081,54,27.912V12a1.006,1.006,0,0,0-.168-.555L48.424,3.338A2.982,2.982,0,0,0,45.93,2H10.07A2.979,2.979,0,0,0,7.578,3.335l-5.41,8.11A1.006,1.006,0,0,0,2,12V53a3,3,0,0,0,3,3H39.031c.077.063.151.13.23.191l7.121,5.595a1,1,0,0,0,1.236,0l7.121-5.595A18.89,18.89,0,0,0,62,41.251V32A1,1,0,0,0,61.394,31.081ZM22,19H4V13H22Zm2-6h8V25.919l-3.375-2.7a1,1,0,0,0-1.25,0L24,25.919Zm10,0H52v6H34ZM9.244,4.441A.987.987,0,0,1,10.07,4H45.93a.988.988,0,0,1,.828.444L51.131,11H4.869ZM4,53V21H22v7a1,1,0,0,0,1.625.781L28,25.28l4.375,3.5A1,1,0,0,0,34,28V21H52v6.055l-4.606-1.974a1.007,1.007,0,0,0-.788,0l-14,6A1,1,0,0,0,32,32v9.251A18.874,18.874,0,0,0,36.907,54H5A1,1,0,0,1,4,53ZM60,41.251a16.9,16.9,0,0,1-6.5,13.368L47,59.729l-6.5-5.11A16.9,16.9,0,0,1,34,41.251V32.659l13-5.571,13,5.571Z"/><path d="M46.606,29.433l-10,4.286a1,1,0,0,0-.606.919v6.614a14.915,14.915,0,0,0,5.731,11.794L46.382,56.7a1,1,0,0,0,1.236,0l4.65-3.653A14.913,14.913,0,0,0,58,41.252V34.638a1,1,0,0,0-.606-.919l-10-4.286A1,1,0,0,0,46.606,29.433ZM56,35.3v5.955a12.925,12.925,0,0,1-4.969,10.222L47,54.642l-4.032-3.168A12.927,12.927,0,0,1,38,41.252V35.3l9-3.858Z"/><path d="M43.707,41.293l-1.414,1.414,3,3a1,1,0,0,0,1.414,0l6-6-1.414-1.414L46,43.586Z"/></g></svg>
