<svg height="512" viewBox="0 0 64 64" width="512" xmlns="http://www.w3.org/2000/svg"><path d="m48 34h4v2h-4z"/><path d="m14 46h2v2h-2z"/><path d="m48 46h2v2h-2z"/><path d="m61.9 30.553-5.9-11.789a4.974 4.974 0 0 0 -4.472-2.764h-46.528a3 3 0 0 0 -3 3v26a3 3 0 0 0 3 3h3.08a6.991 6.991 0 0 0 13.84 0h20.16a6.991 6.991 0 0 0 13.84 0h3.08a3 3 0 0 0 3-3v-14a1 1 0 0 0 -.1-.447zm-7.689-10.895 5.171 10.342h-13.382v-12h5.528a2.986 2.986 0 0 1 2.683 1.658zm-10.211 22.453a6.977 6.977 0 0 0 -1.92 3.889h-6.08v-24h8zm-24 0v-10.111h14v14h-12.08a6.974 6.974 0 0 0 -1.92-3.889zm-16-12.111v-8h6v8zm8-8h6v8h-6zm8 0h6v8h-6zm14 8h-6v-8h6zm-29-12h39v2h-40v-1a1 1 0 0 1 1-1zm-1 18h1v2h-1zm0 9v-1h3v-2h-3v-2h1a2 2 0 0 0 2-2v-2a2 2 0 0 0 -2-2h-1v-2h14v8.685a6.974 6.974 0 0 0 -9.92 5.315h-3.08a1 1 0 0 1 -1-1zm11 7a5 5 0 1 1 5-5 5.006 5.006 0 0 1 -5 5zm34 0a5 5 0 1 1 5-5 5.006 5.006 0 0 1 -5 5zm10-6h-3.08a6.974 6.974 0 0 0 -9.92-5.315v-8.685h14v2h-3a3 3 0 0 0 0 6h3v2h-3v2h3v1a1 1 0 0 1 -1 1zm1-10v2h-3a1 1 0 0 1 0-2z"/></svg>