<svg height="512" viewBox="0 0 64 64" width="512" xmlns="http://www.w3.org/2000/svg"><path d="m61.356 31.065-15.211-5.794 2.809-8.971a1 1 0 0 0 -1.254-1.254l-8.972 2.809-5.793-15.211a1 1 0 0 0 -1.87 0l-5.794 15.211-8.971-2.809a1 1 0 0 0 -1.254 1.254l2.809 8.972-15.211 5.793a1 1 0 0 0 0 1.87l15.211 5.794-2.809 8.971a1 1 0 0 0 1.254 1.254l8.972-2.809 5.794 15.211a1 1 0 0 0 1.87 0l5.794-15.211 8.97 2.809a1 1 0 0 0 1.254-1.254l-2.809-8.972 15.211-5.794a1 1 0 0 0 0-1.87zm-22.521-7.314-1.935 1.937a7.953 7.953 0 0 0 -3.9-1.619v-15.635zm-6.835 14.249a6 6 0 1 1 6-6 6.006 6.006 0 0 1 -6 6zm-1-13.931a7.953 7.953 0 0 0 -3.9 1.619l-1.937-1.937 5.837-15.317zm-7.249 1.1 1.937 1.931a7.953 7.953 0 0 0 -1.619 3.9h-15.635zm.318 7.831a7.953 7.953 0 0 0 1.619 3.9l-1.937 1.937-15.317-5.837zm1.1 7.249 1.931-1.937a7.953 7.953 0 0 0 3.9 1.619v15.635zm7.831-.318a7.953 7.953 0 0 0 3.9-1.619l1.937 1.937-5.837 15.317zm7.249-1.1-1.937-1.931a7.953 7.953 0 0 0 1.619-3.9h15.635zm-.318-7.831a7.953 7.953 0 0 0 -1.619-3.9l1.937-1.937 15.317 5.837zm6.544-13.475-2.2 7.033-3.5-1.333-1.332-3.5zm-28.95 0 7.033 2.2-1.333 3.5-3.5 1.333zm0 28.95 2.2-7.033 3.5 1.333 1.333 3.5zm28.95 0-7.032-2.2 1.332-3.5 3.5-1.333z"/><path d="m15.056 19.592-1.612-1.184a22.825 22.825 0 0 0 -3.578 7.32l1.925.544a20.829 20.829 0 0 1 3.265-6.68z"/><path d="m52.21 26.272 1.924-.544a22.843 22.843 0 0 0 -3.577-7.32l-1.614 1.184a20.834 20.834 0 0 1 3.267 6.68z"/><path d="m45.229 13.183a22.861 22.861 0 0 0 -6.957-3.317l-.544 1.925a20.85 20.85 0 0 1 6.348 3.026z"/><path d="m26.272 11.791-.544-1.925a22.864 22.864 0 0 0 -6.956 3.316l1.152 1.635a20.872 20.872 0 0 1 6.348-3.026z"/><path d="m11.791 37.728-1.925.544a22.825 22.825 0 0 0 3.578 7.32l1.612-1.184a20.829 20.829 0 0 1 -3.265-6.68z"/><path d="m48.943 44.408 1.614 1.184a22.843 22.843 0 0 0 3.577-7.32l-1.924-.544a20.834 20.834 0 0 1 -3.267 6.68z"/><path d="m37.728 52.209.544 1.925a22.861 22.861 0 0 0 6.957-3.317l-1.153-1.634a20.85 20.85 0 0 1 -6.348 3.026z"/><path d="m18.772 50.818a22.864 22.864 0 0 0 6.956 3.316l.544-1.925a20.872 20.872 0 0 1 -6.348-3.026z"/></svg>