<svg height="512" viewBox="0 0 64 64" width="512" xmlns="http://www.w3.org/2000/svg"><g id="Call_Center" data-name="Call Center"><path d="m28 31h2v2h-2z"/><path d="m34 31h2v2h-2z"/><path d="m45 49.9a7.006 7.006 0 0 0 -4.157-6.4l-4.843-2.15v-1.432a8.056 8.056 0 0 0 2.235-1.918h2.765a2 2 0 0 0 2-2v-2.382a3.927 3.927 0 0 0 0-5.236v-1.382a11 11 0 0 0 -22 0v1.382a3.98 3.98 0 0 0 3 6.618c.086 0 .171-.019.257-.024a8.023 8.023 0 0 0 3.743 4.942v1.432l-4.843 2.15a7.006 7.006 0 0 0 -4.157 6.4v6.1h-2v2h30v-2h-2zm-5.589-13.9a8.1 8.1 0 0 0 .332-1.024c.086.005.171.024.257.024a3.939 3.939 0 0 0 1-.142v1.142zm2.589-5a2 2 0 0 1 -2 2v-4a2 2 0 0 1 2 2zm-16.363-10.363a9 9 0 0 1 15.363 6.363v.142a3.939 3.939 0 0 0 -1-.142c-.086 0-.171.019-.257.024a7.988 7.988 0 0 0 -15.486 0c-.086-.005-.171-.024-.257-.024a3.939 3.939 0 0 0 -1 .142v-.142a8.945 8.945 0 0 1 2.637-6.363zm12.273 7.363h-.5l-1.707-1.707a1 1 0 0 0 -1.154-.188l-3.785 1.895h-4.674a5.993 5.993 0 0 1 11.82 0zm-15.91 3a2 2 0 0 1 2-2v4a2 2 0 0 1 -2-2zm4 2v-3h5a1 1 0 0 0 .447-.105l3.353-1.678 1.49 1.49a1 1 0 0 0 .71.293h1v3a5.958 5.958 0 0 1 -.812 3h-5.188v2h3.31a5.995 5.995 0 0 1 -9.31-5zm6 8a7.953 7.953 0 0 0 2-.263v1.263a2 2 0 0 1 -4 0v-1.263a7.953 7.953 0 0 0 2 .263zm-11 8.9a5.005 5.005 0 0 1 2.969-4.569l4.3-1.912a3.982 3.982 0 0 0 7.456 0l4.3 1.912a5.005 5.005 0 0 1 2.975 4.569v6.1h-22z"/><path d="m13 8h2v2h-2z"/><path d="m17 8h2v2h-2z"/><path d="m21 8h2v2h-2z"/><path d="m60 16h-3v-9a3 3 0 0 0 -3-3h-44a3 3 0 0 0 -3 3v13h-3a2 2 0 0 0 -2 2v8a2 2 0 0 0 2 2h3v27a3 3 0 0 0 3 3h44a3 3 0 0 0 3-3v-31h3a2 2 0 0 0 2-2v-8a2 2 0 0 0 -2-2zm-50-10h44a1 1 0 0 1 1 1v5.032h-46v-5.032a1 1 0 0 1 1-1zm-6 16h12v8h-2a1 1 0 0 0 -1 1v1.586l-2.293-2.293a1 1 0 0 0 -.707-.293h-6zm51 37a1 1 0 0 1 -1 1h-44a1 1 0 0 1 -1-1v-27h.586l3.707 3.707a1 1 0 0 0 1.707-.707v-3h1a2 2 0 0 0 2-2v-8a2 2 0 0 0 -2-2h-7v-5.968h46v1.968h-7a2 2 0 0 0 -2 2v8a2 2 0 0 0 2 2h1v3a1 1 0 0 0 1.707.707l3.707-3.707h.586zm5-33h-6a1 1 0 0 0 -.707.293l-2.293 2.293v-1.586a1 1 0 0 0 -1-1h-2v-8h12z"/><path d="m50 19h8v2h-8z"/><path d="m50 23h8v2h-8z"/><path d="m6 23h8v2h-8z"/><path d="m6 27h8v2h-8z"/></g></svg>