<?xml version="1.0"?>
<svg xmlns="http://www.w3.org/2000/svg" viewBox="0 0 64 64" width="512" height="512"><g id="Globe_Grid" data-name="Globe Grid"><path d="M44,24A12,12,0,1,0,32,36,12.013,12.013,0,0,0,44,24ZM32,34A10,10,0,1,1,42,24,10.011,10.011,0,0,1,32,34Z"/><path d="M55.3,36.075A26.32,26.32,0,0,0,57,27,25,25,0,0,0,7,27c0,8.036,4.248,16.62,12.285,24.825A73.55,73.55,0,0,0,31.47,61.848a1,1,0,0,0,1.06,0,64.225,64.225,0,0,0,5.518-4.016A13.987,13.987,0,1,0,55.3,36.075ZM59.949,47H54.976a24.979,24.979,0,0,0-1-6.35,14.05,14.05,0,0,0,2.262-1.35A11.96,11.96,0,0,1,59.949,47ZM48,60c-1.361,0-2.809-1.639-3.8-4.373a11.8,11.8,0,0,1,7.59,0C50.809,58.361,49.361,60,48,60Zm5.624-3.593a12.012,12.012,0,0,1,1.692,1.083,11.981,11.981,0,0,1-3.092,1.728A13.548,13.548,0,0,0,53.624,56.407ZM51.442,39.482a11.695,11.695,0,0,1-6.884,0C45.519,37.288,46.794,36,48,36S50.481,37.288,51.442,39.482Zm.782-2.7A11.977,11.977,0,0,1,54.615,38a11.926,11.926,0,0,1-1.325.759A12.612,12.612,0,0,0,52.224,36.782ZM42.71,38.757A11.926,11.926,0,0,1,41.385,38a11.977,11.977,0,0,1,2.391-1.216A12.612,12.612,0,0,0,42.71,38.757Zm-2.951.543a14.05,14.05,0,0,0,2.262,1.35,24.979,24.979,0,0,0-1,6.35H36.051A11.96,11.96,0,0,1,39.759,39.3ZM41.024,49a25.793,25.793,0,0,0,.747,5.464A13.945,13.945,0,0,0,39.2,56.13,11.942,11.942,0,0,1,36.051,49Zm1.352,7.407a13.548,13.548,0,0,0,1.4,2.811,11.981,11.981,0,0,1-3.092-1.728A11.955,11.955,0,0,1,42.376,56.407ZM48,53a13.967,13.967,0,0,0-4.363.709A24.1,24.1,0,0,1,43.023,49h9.954a24.1,24.1,0,0,1-.614,4.709A13.967,13.967,0,0,0,48,53Zm-4.977-6a23.241,23.241,0,0,1,.86-5.635,13.664,13.664,0,0,0,8.234,0A23.241,23.241,0,0,1,52.977,47ZM32,59.806C28.51,57.474,9,43.688,9,27a23,23,0,0,1,46,0,24.216,24.216,0,0,1-1.486,8.135A13.979,13.979,0,0,0,36.755,56.3C34.588,58.038,32.835,59.25,32,59.806ZM56.8,56.13a13.945,13.945,0,0,0-2.572-1.666A25.793,25.793,0,0,0,54.976,49h4.973A11.942,11.942,0,0,1,56.8,56.13Z"/></g></svg>
