<svg height="512" viewBox="0 0 64 64" width="512" xmlns="http://www.w3.org/2000/svg"><path d="m61.035 44-3.035-.1v-16.282l.9-.447a1.99 1.99 0 0 0 1.1-1.789v-2.382a1 1 0 0 0 -1-1v-3a1 1 0 0 0 -1-1h-4a1 1 0 0 0 -1 1v3h-1v-3a1 1 0 0 0 -1-1h-4a1 1 0 0 0 -1 1v3h-1a1 1 0 0 0 -1 1v1h-29a1 1 0 0 0 -1 1v9h-3a1 1 0 0 0 -1 1v7.241l-6.965-.241a.972.972 0 0 0 -.836.4 1 1 0 0 0 -.148.915l5.458 16.375a5.449 5.449 0 0 1 -1.409-1.33c-.876-1.051-1.966-2.36-4.1-2.36v2c1.142 0 1.69.593 2.562 1.64s1.966 2.36 4.1 2.36h53.338v-17a1 1 0 0 0 -.965-1zm-1.6 14.359c-.88-1.051-1.972-2.359-4.108-2.359s-3.227 1.308-4.1 2.359-1.427 1.641-2.574 1.641-1.692-.593-2.565-1.64-1.967-2.36-4.103-2.36-3.224 1.309-4.1 2.36-1.421 1.64-2.563 1.64-1.692-.593-2.565-1.64-1.966-2.36-4.101-2.36-3.225 1.309-4.1 2.36-1.423 1.64-2.565 1.64-1.691-.593-2.564-1.64-1.966-2.36-4.101-2.36-3.224 1.309-4.1 2.36a4.8 4.8 0 0 1 -1.58 1.416l-1.925-5.776h52.279v5.012c-.181-.193-.365-.412-.569-.653zm-1.235 1.641h-5.746c.1-.121.206-.242.3-.359.878-1.048 1.429-1.641 2.573-1.641s1.694.593 2.569 1.64c.097.117.204.238.304.36zm-13.345 0h-5.737c.1-.122.206-.243.3-.36.872-1.047 1.422-1.64 2.563-1.64s1.693.593 2.566 1.64c.102.117.203.238.308.36zm-13.331 0h-5.736c.1-.122.206-.243.3-.36.873-1.047 1.423-1.64 2.565-1.64s1.692.593 2.565 1.64c.1.117.202.238.306.36zm-13.33 0h-5.735c.1-.122.206-.243.3-.36.872-1.047 1.421-1.64 2.563-1.64s1.692.593 2.565 1.64c.101.117.203.238.307.36zm36.806-40h2v2h-2zm-7 0h2v2h-2zm-2 4h12v1.382l-1.447.723a1 1 0 0 0 -.553.895v16.827l-8-.276v-16.551a1 1 0 0 0 -.553-.895l-1.447-.723zm0 12v7.482l-18-.621v-6.861zm-.9-8.829.9.447v6.382h-14v-8h12.1a1.986 1.986 0 0 0 1.005 1.171zm-29.1-1.171h14v8h-14zm-4 10h14v6.792l-14-.482zm48 9.966v6.034h-52.946l-2.654-7.95z"/><path d="m50 26h4v2h-4z"/><path d="m50 30h4v2h-4z"/><path d="m50 34h4v2h-4z"/><path d="m50 38h4v2h-4z"/><path d="m9 48h2v2h-2z"/><path d="m13 48h2v2h-2z"/><path d="m17 48h2v2h-2z"/><path d="m21 48h2v2h-2z"/><path d="m25 48h2v2h-2z"/><path d="m29 48h2v2h-2z"/><path d="m33 48h2v2h-2z"/><path d="m37 48h2v2h-2z"/><path d="m14 38h2v4h-2z"/><path d="m18 38h2v4h-2z"/><path d="m22 38h2v4h-2z"/><path d="m34 28h2v4h-2z"/><path d="m38 28h2v4h-2z"/><path d="m42 28h2v4h-2z"/><path d="m18 28h2v4h-2z"/><path d="m22 28h2v4h-2z"/><path d="m26 28h2v4h-2z"/><path d="m30 38h2v4h-2z"/><path d="m34 38h2v4h-2z"/><path d="m38 38h2v4h-2z"/><path d="m42 38h2v4h-2z"/><path d="m60 8v2a1 1 0 0 1 -1 1h-1a3 3 0 0 0 -3 3v2h2v-2a1 1 0 0 1 1-1h1a3 3 0 0 0 3-3v-2z"/><path d="m50 14a1 1 0 0 1 1-1 3 3 0 0 0 3-3v-2h-2v2a1 1 0 0 1 -1 1 3 3 0 0 0 -3 3v2h2z"/></svg>