<?xml version="1.0"?>
<svg xmlns="http://www.w3.org/2000/svg" viewBox="0 0 64 64" width="512" height="512"><g id="Globe-2" data-name="Globe"><path d="M49.578,7.691a29.994,29.994,0,0,0-35.154,0,30,30,0,0,0,0,48.62,29.994,29.994,0,0,0,35.154,0,30,30,0,0,0,0-48.62ZM59.97,31H50.984c-.164-7.866-2.25-14.976-5.546-20.187A29.741,29.741,0,0,0,48.243,9.2c.053.038.109.069.161.108A28.06,28.06,0,0,1,59.97,31ZM48.985,33c-.164,7.619-2.183,14.469-5.336,19.365a29.872,29.872,0,0,0-23.3,0C17.2,47.469,15.179,40.619,15.015,33H17V31H15.015c.164-7.619,2.183-14.469,5.336-19.365A29.869,29.869,0,0,0,32,14a29.869,29.869,0,0,0,11.649-2.365C46.8,16.531,48.821,23.381,48.985,31H47v2ZM31,59.948c-3.561-.342-6.829-2.5-9.472-5.916A27.851,27.851,0,0,1,31,52.037Zm2-7.911a27.851,27.851,0,0,1,9.472,1.995c-2.643,3.416-5.911,5.574-9.472,5.916ZM33,4.052c3.561.342,6.829,2.5,9.472,5.916A27.851,27.851,0,0,1,33,11.963Zm-2,7.911a27.851,27.851,0,0,1-9.472-1.995C24.171,6.552,27.439,4.394,31,4.052ZM46.409,8c-.691.416-1.393.808-2.113,1.161A21.435,21.435,0,0,0,40.772,5.4,27.679,27.679,0,0,1,46.409,8ZM19.7,9.156C18.984,8.8,18.282,8.411,17.591,8A27.679,27.679,0,0,1,23.228,5.4,21.435,21.435,0,0,0,19.7,9.156ZM15.6,9.309c.051-.038.107-.069.159-.106a29.616,29.616,0,0,0,2.805,1.61C15.266,16.024,13.18,23.134,13.016,31H4.03A28.063,28.063,0,0,1,15.6,9.309ZM4.03,33h8.986c.164,7.866,2.25,14.976,5.546,20.187a29.741,29.741,0,0,0-2.805,1.61c-.053-.038-.109-.069-.161-.108A28.06,28.06,0,0,1,4.03,33ZM17.591,56.005c.691-.416,1.393-.808,2.113-1.161A21.539,21.539,0,0,0,23.227,58.6,27.7,27.7,0,0,1,17.591,56.005ZM44.3,54.844c.72.353,1.422.745,2.113,1.161A27.7,27.7,0,0,1,40.773,58.6,21.468,21.468,0,0,0,44.3,54.844Zm4.106-.153c-.051.038-.107.069-.159.106a29.741,29.741,0,0,0-2.8-1.61c3.3-5.211,5.382-12.321,5.546-20.187H59.97A28.063,28.063,0,0,1,48.4,54.691Z"/><path d="M32,16A13.015,13.015,0,0,0,19,29c0,9.392,11.894,18.42,12.4,18.8a1,1,0,0,0,1.2,0C33.106,47.42,45,38.392,45,29A13.015,13.015,0,0,0,32,16Zm0,29.725C29.621,43.792,21,36.281,21,29a11,11,0,0,1,22,0C43,36.271,34.377,43.791,32,45.725Z"/><path d="M32,23a6,6,0,1,0,6,6A6.006,6.006,0,0,0,32,23Zm0,10a4,4,0,1,1,4-4A4,4,0,0,1,32,33Z"/></g></svg>
