<svg height="512" viewBox="0 0 64 64" width="512" xmlns="http://www.w3.org/2000/svg"><path d="m32 2a30 30 0 1 0 30 30 30.034 30.034 0 0 0 -30-30zm19 50.543v-5.543a1 1 0 0 0 -.293-.707l-2-2-1.414 1.414 1.707 1.707v6.814a27.849 27.849 0 0 1 -15 5.693v-4.507l2.707-2.707a1 1 0 0 0 .293-.707v-3.586l1.707-1.707a1 1 0 0 0 .293-.707v-1h-2v.586l-1.707 1.707a1 1 0 0 0 -.293.707v3.586l-2.707 2.707a1 1 0 0 0 -.293.707v5c-.673 0-1.339-.032-2-.079v-7.921a1 1 0 0 0 -.293-.707l-1.707-1.707v-3.586a1 1 0 0 0 -1-1h-3.586l-1.414-1.414v-.586h-2v1a1 1 0 0 0 .293.707l2 2a1 1 0 0 0 .707.293h3v3a1 1 0 0 0 .293.707l1.707 1.707v7.3a27.994 27.994 0 0 1 -17.5-9.8l4.207-4.207a1 1 0 0 0 .293-.707v-2.586l2.707-2.707a1 1 0 0 0 .293-.707v-3a1 1 0 0 0 -.293-.707l-5-5-1.414 1.414 4.707 4.707v2.172l-2.707 2.707a1 1 0 0 0 -.293.707v2.586l-3.732 3.732a27.932 27.932 0 0 1 5.443-38.318h4.875l2.414 2.414v3.172l-3.707 3.707a1 1 0 0 0 -.293.707v3.586l-.707.707 1.414 1.414 1-1a1 1 0 0 0 .293-.707v-3.586l3.707-3.707a1 1 0 0 0 .293-.707v-4a1 1 0 0 0 -.293-.707l-3-3a1 1 0 0 0 -.707-.293h-2.4a27.8 27.8 0 0 1 10.4-3.71v7.71a1 1 0 0 0 .293.707l4 4a1 1 0 0 0 .707.293h4.586l4.414 4.414v5.172l-1.707 1.707a1 1 0 0 0 -.293.707v4a1 1 0 0 0 .293.707l3.707 3.707v1.586h2v-2a1 1 0 0 0 -.293-.707l-3.707-3.707v-3.172l1.707-1.707a1 1 0 0 0 .293-.707v-6a1 1 0 0 0 -.293-.707l-5-5a1 1 0 0 0 -.707-.293h-4.586l-3.414-3.414v-7.507c.661-.047 1.327-.079 2-.079a27.983 27.983 0 0 1 19 48.543z"/><path d="m33.707 36.293a1 1 0 0 0 -.707-.293h-2v2h1.586l1.707 1.707 1.414-1.414z"/><path d="m39 22a1 1 0 0 0 -1-1h-6a1 1 0 0 0 -1 1v2a1 1 0 0 0 .293.707l1.707 1.707v3.586a1 1 0 0 0 1 1h2a1 1 0 0 0 .707-.293l2-2a1 1 0 0 0 .293-.707zm-2 5.586-1.414 1.414h-.586v-3a1 1 0 0 0 -.293-.707l-1.707-1.707v-.586h4z"/><path d="m56 23a4 4 0 1 0 -5 3.858v4.142h2v-4.142a4 4 0 0 0 3-3.858zm-4 2a2 2 0 1 1 2-2 2 2 0 0 1 -2 2z"/><path d="m15 20a3 3 0 1 0 -4 2.816v2.184h2v-2.184a3 3 0 0 0 2-2.816zm-3 1a1 1 0 1 1 1-1 1 1 0 0 1 -1 1z"/><path d="m28 29a2.993 2.993 0 0 0 -1 5.816v4.184h2v-4.184a2.993 2.993 0 0 0 -1-5.816zm0 4a1 1 0 1 1 1-1 1 1 0 0 1 -1 1z"/><path d="m51 33h2v2h-2z"/><path d="m51 37h2v2h-2z"/><path d="m51 41h2v2h-2z"/><path d="m47 41h2v2h-2z"/><path d="m43 41h2v2h-2z"/><path d="m39 41h2v2h-2z"/><path d="m35 41h2v2h-2z"/><path d="m31 41h2v2h-2z"/><path d="m27 41h2v2h-2z"/><path d="m23 39h2v2h-2z"/><path d="m19 39h2v2h-2z"/><path d="m19 35h2v2h-2z"/><path d="m19 31h2v2h-2z"/><path d="m19 27h2v2h-2z"/><path d="m15 27h2v2h-2z"/><path d="m11 27h2v2h-2z"/></svg>