<svg height="512" viewBox="0 0 64 64" width="512" xmlns="http://www.w3.org/2000/svg"><g id="Checklist-2" data-name="Checklist"><path d="m25 12a3 3 0 1 0 -3-3 3 3 0 0 0 3 3zm0-4a1 1 0 1 1 -1 1 1 1 0 0 1 1-1z"/><path d="m59.832 30.445-4-6a1 1 0 0 0 -.832-.445h-9v-7a5.006 5.006 0 0 0 -5-5h-5.031a4.952 4.952 0 0 0 -2.969-1h-2v-4a5.006 5.006 0 0 0 -5-5h-2a5.006 5.006 0 0 0 -5 5v4h-2a4.952 4.952 0 0 0 -2.969 1h-5.031a5.006 5.006 0 0 0 -5 5v40a5.006 5.006 0 0 0 5 5h32a5.006 5.006 0 0 0 5-5v-3h12a2 2 0 0 0 2-2v-21a1.006 1.006 0 0 0 -.168-.555zm-2.7-.445h-24.264l2.667-4h18.93zm-16.132 5h-9v-3h9zm-31 16.414 4.586 4.586h-4.586zm1.414-1.414h3.586a1 1 0 0 1 1 1v3.586zm3.586-2h-5v-30h2v3a1 1 0 0 0 1 1h24a1 1 0 0 0 1-1v-3h2v6h-5a1 1 0 0 0 -.832.445l-4 6a1.006 1.006 0 0 0 -.168.555v21a2 2 0 0 0 2 2h8v2h-22v-5a3 3 0 0 0 -3-3zm-1-29h22v1h-22zm29 13h4v7.131l-1.445-.963a1 1 0 0 0 -1.11 0l-1.445.963zm6 0h9v3h-9zm-5-15v7h-2v-6a2 2 0 0 0 -2-2h-2a4.95 4.95 0 0 0 -.424-2h3.424a3 3 0 0 1 3 3zm-27-4h3a1 1 0 0 0 1-1v-5a3 3 0 0 1 3-3h2a3 3 0 0 1 3 3v5a1 1 0 0 0 1 1h3a3 3 0 0 1 3 3v1h-22v-1a3 3 0 0 1 3-3zm27 44a3 3 0 0 1 -3 3h-32a3 3 0 0 1 -3-3v-40a3 3 0 0 1 3-3h3.424a4.95 4.95 0 0 0 -.424 2h-2a2 2 0 0 0 -2 2v38a2 2 0 0 0 2 2h30a2 2 0 0 0 2-2v-2h2zm-12-5v-15h9v4a1 1 0 0 0 1.555.832l2.445-1.632 2.445 1.63a1 1 0 0 0 1.555-.83v-4h9v15z"/><path d="m14 36h6a2 2 0 0 0 2-2v-2h-2v2h-6v-6h6v-2h-6a2 2 0 0 0 -2 2v6a2 2 0 0 0 2 2z"/><path d="m16.707 29.293-1.414 1.414 2 2a1 1 0 0 0 1.414 0l4-4-1.414-1.414-3.293 3.293z"/><path d="m24 27h4v2h-4z"/><path d="m24 30h4v2h-4z"/><path d="m12 38h2v2h-2z"/><path d="m16 38h10v2h-10z"/><path d="m12 42h14v2h-14z"/></g></svg>