<svg height="512" viewBox="0 0 64 64" width="512" xmlns="http://www.w3.org/2000/svg"><g id="Gps-3" data-name="Gps"><path d="m46 2h-28a5.006 5.006 0 0 0 -5 5v50a5.006 5.006 0 0 0 5 5h28a5.006 5.006 0 0 0 5-5v-50a5.006 5.006 0 0 0 -5-5zm-21 2h14v2a1 1 0 0 1 -1 1h-12a1 1 0 0 1 -1-1zm24 53a3 3 0 0 1 -3 3h-28a3 3 0 0 1 -3-3v-50a3 3 0 0 1 3-3h5v2a3 3 0 0 0 3 3h12a3 3 0 0 0 3-3v-2h5a3 3 0 0 1 3 3z"/><path d="m32 17a13.015 13.015 0 0 0 -13 13c0 9.392 11.894 18.42 12.4 18.8a1 1 0 0 0 1.2 0c.506-.38 12.4-9.408 12.4-18.8a13.015 13.015 0 0 0 -13-13zm0 29.725c-2.378-1.933-11-9.444-11-16.725a11 11 0 0 1 22 0c0 7.271-8.623 14.791-11 16.725z"/><path d="m32 24a6 6 0 1 0 6 6 6.006 6.006 0 0 0 -6-6zm0 10a4 4 0 1 1 4-4 4 4 0 0 1 -4 4z"/></g></svg>