<svg height="512" viewBox="0 0 64 64" width="512" xmlns="http://www.w3.org/2000/svg"><g id="Gps-2" data-name="Gps"><path d="m46 2h-28a5.006 5.006 0 0 0 -5 5v50a5.006 5.006 0 0 0 5 5h28a5.006 5.006 0 0 0 5-5v-50a5.006 5.006 0 0 0 -5-5zm-21 2h14v2a1 1 0 0 1 -1 1h-12a1 1 0 0 1 -1-1zm24 53a3 3 0 0 1 -3 3h-28a3 3 0 0 1 -3-3v-50a3 3 0 0 1 3-3h5v2a3 3 0 0 0 3 3h12a3 3 0 0 0 3-3v-2h5a3 3 0 0 1 3 3z"/><path d="m32.934 18.641a1 1 0 0 0 -1.868 0l-10 26a1 1 0 0 0 1.559 1.14l9.375-7.5 9.375 7.5a1 1 0 0 0 1.559-1.14zm-1.934 17.878-6.741 5.393 6.741-17.526zm2 0v-12.133l6.741 17.526z"/><path d="m40.162 16.192h2.001v2h-2.001z" transform="matrix(.991 -.135 .135 .991 -1.947 5.724)"/><path d="m40.703 20.156h2.001v2h-2.001z" transform="matrix(.991 -.135 .135 .991 -2.47 5.811)"/><path d="m41.783 28.083h2.001v2h-2.001z" transform="matrix(.991 -.135 .135 .991 -3.539 6.051)"/><path d="m42.324 32.046h2.001v2h-2.001z" transform="matrix(.991 -.135 .135 .991 -4.07 6.161)"/><path d="m42.864 36.009h2.001v2h-2.001z" transform="matrix(.991 -.135 .135 .991 -4.603 6.274)"/><path d="m41.243 24.119h2.001v2h-2.001z" transform="matrix(.991 -.135 .135 .991 -3.008 5.942)"/><path d="m20.756 24.119h2v2.001h-2z" transform="matrix(.135 -.991 .991 .135 -6.074 43.28)"/><path d="m21.837 16.192h2v2.001h-2z" transform="matrix(.135 -.991 .991 .135 2.715 37.496)"/><path d="m19.675 32.046h2v2.001h-2z" transform="matrix(.135 -.991 .991 .135 -14.862 49.064)"/><path d="m20.216 28.082h2v2.001h-2z" transform="matrix(.135 -.991 .991 .135 -10.468 46.172)"/><path d="m21.297 20.155h2v2.001h-2z" transform="matrix(.135 -.991 .991 .135 -1.67 40.399)"/><path d="m19.135 36.009h2v2.001h-2z" transform="matrix(.135 -.991 .991 .135 -19.257 51.953)"/></g></svg>