<?xml version="1.0"?>
<svg xmlns="http://www.w3.org/2000/svg" viewBox="0 0 64 64" width="512" height="512"><g id="Conveyor-Machine-2" data-name="Conveyor-Machine"><path d="M52,12a3,3,0,1,0-3-3A3,3,0,0,0,52,12Zm0-4a1,1,0,1,1-1,1A1,1,0,0,1,52,8Z"/><path d="M21,12a3,3,0,1,0-3-3A3,3,0,0,0,21,12Zm0-4a1,1,0,1,1-1,1A1,1,0,0,1,21,8Z"/><path d="M39,32H38V29.5a2.5,2.5,0,0,0-5,0V32H9V29.5a2.5,2.5,0,0,0-5,0V32H3a1,1,0,0,0-1,1V61a1,1,0,0,0,1,1H39a1,1,0,0,0,1-1V33A1,1,0,0,0,39,32Zm-4-2.5a.5.5,0,0,1,1,0V32H35Zm-29,0a.5.5,0,0,1,1,0V32H6ZM38,34v2H4V34Zm0,4V56H4V38ZM4,60V58H38v2Z"/><path d="M13,54a3,3,0,0,0,3-3V43a3,3,0,0,0-6,0v8A3,3,0,0,0,13,54ZM12,43a1,1,0,0,1,2,0v8a1,1,0,0,1-2,0Z"/><path d="M21,54a3,3,0,0,0,3-3V43a3,3,0,0,0-6,0v8A3,3,0,0,0,21,54ZM20,43a1,1,0,0,1,2,0v8a1,1,0,0,1-2,0Z"/><path d="M29,54a3,3,0,0,0,3-3V43a3,3,0,0,0-6,0v8A3,3,0,0,0,29,54ZM28,43a1,1,0,0,1,2,0v8a1,1,0,0,1-2,0Z"/><path d="M61.832,54.445l-4-6A1,1,0,0,0,57,48V13.889A6.993,6.993,0,0,0,47.111,4H25.889A6.993,6.993,0,0,0,16,13.889V18H15a1,1,0,0,0-1,1v4a1,1,0,0,0,1,1h1v3a1,1,0,0,0,.293.707l2,2,1.414-1.414L18,26.586V24h6v2.586l-1.707,1.707,1.414,1.414,2-2A1,1,0,0,0,26,27V24h1a1,1,0,0,0,1-1V19a1,1,0,0,0-1-1H26V14H47V48a1,1,0,0,0-.832.445l-4,6A1.006,1.006,0,0,0,42,55v6a1,1,0,0,0,1,1H61a1,1,0,0,0,1-1V55A1.006,1.006,0,0,0,61.832,54.445ZM52,4a5,5,0,1,1-5,5A5.006,5.006,0,0,1,52,4Zm-6.315,8H27.315a6.912,6.912,0,0,0,0-6h18.37a6.912,6.912,0,0,0,0,6ZM21,4a5,5,0,1,1-5,5A5.006,5.006,0,0,1,21,4Zm5,18H16V20H26Zm-8-4V15.315a6.912,6.912,0,0,0,6,0V18Zm31-2.685a6.912,6.912,0,0,0,6,0V48H49ZM47.535,50h8.93l2.667,4H44.868ZM44,60V56H60v4Z"/></g></svg>
