<svg height="512" viewBox="0 0 64 64" width="512" xmlns="http://www.w3.org/2000/svg"><path d="m39 48a5 5 0 1 0 5 5 5.006 5.006 0 0 0 -5-5zm0 8a3 3 0 1 1 3-3 3 3 0 0 1 -3 3z"/><path d="m51 48a5 5 0 1 0 5 5 5.006 5.006 0 0 0 -5-5zm0 8a3 3 0 1 1 3-3 3 3 0 0 1 -3 3z"/><path d="m15 48a5 5 0 1 0 5 5 5.006 5.006 0 0 0 -5-5zm0 8a3 3 0 1 1 3-3 3 3 0 0 1 -3 3z"/><path d="m6.75 45.732-1.5-1.322a12.974 12.974 0 0 0 -3.25 8.59h2a10.983 10.983 0 0 1 2.75-7.268z"/><path d="m2.181 55.165a12.862 12.862 0 0 0 .562 2.17l1.885-.67a10.867 10.867 0 0 1 -.475-1.83z"/><path d="m47 40h2v2h-2z"/><path d="m51 40v2a11.028 11.028 0 0 1 9.585 5.608l1.742-.984a13.034 13.034 0 0 0 -11.327-6.624z"/><path d="m51 44h-6v-39a1 1 0 0 0 -1-1h-26a1 1 0 0 0 -1 1v39h-2a9 9 0 0 0 0 18h36a9 9 0 0 0 0-18zm-24-16h-8v-2h8zm-8-18h8v3a1 1 0 0 0 1.555.832l2.445-1.632 2.445 1.63a1 1 0 0 0 1.555-.83v-3h8v14h-24zm10-4h4v5.132l-1.445-.964a1 1 0 0 0 -1.11 0l-1.445.964zm0 20h4v5.132l-1.445-.964a1 1 0 0 0 -1.11 0l-1.445.964zm6 0h8v2h-8zm8-18h-8v-2h8zm-16-2v2h-8v-2zm-8 24h8v3a1 1 0 0 0 1.555.832l2.445-1.632 2.445 1.63a1 1 0 0 0 1.555-.83v-3h8v14h-24zm32 30h-36a7 7 0 0 1 0-14h36a7 7 0 0 1 0 14z"/><path d="m14 52h2v2h-2z"/><path d="m27 48a5 5 0 1 0 5 5 5.006 5.006 0 0 0 -5-5zm0 8a3 3 0 1 1 3-3 3 3 0 0 1 -3 3z"/><path d="m26 52h2v2h-2z"/><path d="m38 52h2v2h-2z"/><path d="m50 52h2v2h-2z"/></svg>