<svg height="512" viewBox="0 0 64 64" width="512" xmlns="http://www.w3.org/2000/svg"><path d="m32 11a16 16 0 1 0 16 16 16.019 16.019 0 0 0 -16-16zm0 30a14 14 0 1 1 14-14 14.015 14.015 0 0 1 -14 14z"/><path d="m32 2a25.028 25.028 0 0 0 -25 25c0 8.036 4.248 16.62 12.285 24.825a73.55 73.55 0 0 0 12.185 10.023 1 1 0 0 0 1.06 0 73.55 73.55 0 0 0 12.185-10.023c8.037-8.205 12.285-16.789 12.285-24.825a25.028 25.028 0 0 0 -25-25zm0 57.805c-3.493-2.333-23-16.118-23-32.805a23 23 0 0 1 46 0c0 16.672-19.508 30.47-23 32.805z"/><path d="m38.962 18.721-17.678 7.779a1 1 0 0 0 .238 1.9l7.778 1.3 1.3 7.78a1 1 0 0 0 .862.828 1.031 1.031 0 0 0 .124.007 1 1 0 0 0 .915-.6l7.778-17.677a1 1 0 0 0 -1.317-1.318zm-13.8 8.258 9.727-4.279-5.06 5.06zm6.863 6.863-.778-4.67 5.053-5.059z"/></svg>