<svg height="512" viewBox="0 0 64 64" width="512" xmlns="http://www.w3.org/2000/svg"><g id="Location-3" data-name="Location"><path d="m37.293 22.293-5.293 5.293-5.293-5.293a1 1 0 0 0 -1.414 0l-6 6 1.414 1.414 5.293-5.293 5.293 5.293a1 1 0 0 0 1.414 0l5.293-5.293 5.293 5.293 1.414-1.414-6-6a1 1 0 0 0 -1.414 0z"/><path d="m32 11a16 16 0 1 0 16 16 16.019 16.019 0 0 0 -16-16zm0 30a14 14 0 1 1 14-14 14.015 14.015 0 0 1 -14 14z"/><path d="m32 2a25.028 25.028 0 0 0 -25 25c0 8.036 4.249 16.62 12.286 24.825a73.521 73.521 0 0 0 12.184 10.023 1 1 0 0 0 1.06 0 73.521 73.521 0 0 0 12.184-10.023c8.037-8.205 12.286-16.789 12.286-24.825a25.028 25.028 0 0 0 -25-25zm0 57.805c-3.493-2.333-23-16.118-23-32.805a23 23 0 0 1 46 0c0 16.672-19.508 30.47-23 32.805z"/></g></svg>