<?xml version="1.0"?>
<svg xmlns="http://www.w3.org/2000/svg" viewBox="0 0 64 64" width="512" height="512"><g id="Damage"><path d="M58.878,13.521,53.446,3.563A3,3,0,0,0,50.812,2H13.188a3,3,0,0,0-2.634,1.563L5.122,13.521A1,1,0,0,0,5,14V59a3,3,0,0,0,3,3H56a3,3,0,0,0,3-3V14A1,1,0,0,0,58.878,13.521ZM25,21H7V15H25Zm2-6H37V30.132l-4.445-2.964a1,1,0,0,0-1.11,0L27,30.132Zm12,0H57v6H39ZM57,42.159l-.614-.937a1,1,0,0,0-1.439-.25l-3.116,2.355-2.144-3.275a1,1,0,0,0-1.44-.25l-3.115,2.353L43,38.884a1,1,0,0,0-.974-.446l-1.07.148L42.106,37.5l3.676,2.11a1,1,0,0,0,1.4-.429l1.712-3.518,3.391,1.947a1,1,0,0,0,1.4-.431l1.7-3.515L57,34.589ZM12.31,4.521A1,1,0,0,1,13.188,4H50.812a1,1,0,0,1,.878.521L56.316,13H7.684ZM56,60H8a1,1,0,0,1-1-1V23H25v9a1,1,0,0,0,1.555.832L32,29.2l5.445,3.63A1,1,0,0,0,39,32V23H57v9.283l-1.552-.89a1,1,0,0,0-1.4.431l-1.7,3.515-3.39-1.946a1,1,0,0,0-1.4.429L45.849,37.34l-3.391-1.947a1,1,0,0,0-1.185.14l-3.96,3.74a1,1,0,0,0,.823,1.718l3.532-.484,2.374,3.639a1,1,0,0,0,1.441.251L48.6,42.042l2.144,3.275a1,1,0,0,0,1.439.25L55.3,43.212l1.7,2.6V59A1,1,0,0,1,56,60Z"/></g></svg>
