<?xml version="1.0"?>
<svg xmlns="http://www.w3.org/2000/svg" viewBox="0 0 64 64" width="512" height="512"><g id="Location-2" data-name="Location"><path d="M32,25.414V29a1,1,0,0,0,1,1h2a1,1,0,0,0,.707-.293l2-2A1,1,0,0,0,38,27V21a1,1,0,0,0-1-1H31a1,1,0,0,0-1,1v2a1,1,0,0,0,.293.707ZM32,22h4v4.586L34.586,28H34V25a1,1,0,0,0-.293-.707L32,22.586Z"/><path d="M59.628,35.537A28.913,28.913,0,0,0,31,2a27.887,27.887,0,0,0-3.106.166,29,29,0,0,0-.006,57.667A27.83,27.83,0,0,0,31,60c.36,0,.71-.01,1.031-.03a28.481,28.481,0,0,0,11.313-2.735A45.621,45.621,0,0,0,48.4,61.8a1,1,0,0,0,1.2,0C50.106,61.42,62,52.392,62,43A12.921,12.921,0,0,0,59.628,35.537ZM58,31c0,.845-.048,1.688-.126,2.526a12.941,12.941,0,0,0-16.194-1.26L41,31.585V28.414l1.707-1.707A1,1,0,0,0,43,26V20a1,1,0,0,0-.293-.707l-5-5A1,1,0,0,0,37,14H32.414L29,10.586v-6.5C29.646,4.033,30.309,4,31,4A27.03,27.03,0,0,1,58,31ZM4,31A27,27,0,0,1,15.369,9h3.217L21,11.414v3.172l-3.707,3.707A1,1,0,0,0,17,19v3.586L13.586,26H11a1,1,0,0,0-1,1v3a1,1,0,0,0,.293.707L15,35.414v2.172l-2.707,2.707A1,1,0,0,0,12,41v2.586L8.989,46.6A26.729,26.729,0,0,1,4,31Zm6.206,17.208,3.5-3.5A1,1,0,0,0,14,44V41.414l2.707-2.707A1,1,0,0,0,17,38V35a1,1,0,0,0-.293-.707L12,29.586V28h2a1,1,0,0,0,.707-.293l4-4A1,1,0,0,0,19,23V19.414l3.707-3.707A1,1,0,0,0,23,15V11a1,1,0,0,0-.293-.707l-3-3A1,1,0,0,0,19,7h-.355A26.95,26.95,0,0,1,27,4.308V11a1,1,0,0,0,.293.707l4,4A1,1,0,0,0,32,16h4.586L41,20.414v5.172l-1.707,1.707A1,1,0,0,0,39,28v4a1,1,0,0,0,.293.707l.826.826a13,13,0,0,0-3.54,5.632l-3.872-3.872A1,1,0,0,0,32,35H24a1,1,0,0,0-.707.293l-4,4A1,1,0,0,0,19,40v3a1,1,0,0,0,.293.707l2,2A1,1,0,0,0,22,46h3v3a1,1,0,0,0,.293.707L27,51.414V57.7A27.129,27.129,0,0,1,10.206,48.208ZM29,57.913V51a1,1,0,0,0-.293-.707L27,48.586V45a1,1,0,0,0-1-1H22.414L21,42.586V40.414L24.414,37h7.172L36,41.414v3.172l-1.707,1.707A1,1,0,0,0,34,47v3.586l-2.707,2.707A1,1,0,0,0,31,54v3.98C30.319,57.985,29.656,57.964,29,57.913Zm4,0v-3.5l2.707-2.707A1,1,0,0,0,36,51V47.414l.611-.611a25.817,25.817,0,0,0,5.322,8.886A26.465,26.465,0,0,1,33,57.91Zm16,1.815C46.621,57.792,38,50.281,38,43a11,11,0,0,1,22,0C60,50.271,51.377,57.791,49,59.725Z"/><path d="M49,37a6,6,0,1,0,6,6A6.006,6.006,0,0,0,49,37Zm0,10a4,4,0,1,1,4-4A4,4,0,0,1,49,47Z"/></g></svg>
