<svg height="512" viewBox="0 0 64 64" width="512" xmlns="http://www.w3.org/2000/svg"><path d="m58 6h-12v-1a3 3 0 0 0 -6 0v1h-5v-1a3 3 0 0 0 -6 0v1h-5v-1a3 3 0 0 0 -6 0v1h-6a1 1 0 0 0 -1 1v39h-5a1 1 0 0 0 -1 1v4a5.006 5.006 0 0 0 5 5h1v5a1 1 0 0 0 1 1h46a1 1 0 0 0 1-1v-54a1 1 0 0 0 -1-1zm-1 8h-4v-6h4zm-15-9a1 1 0 0 1 2 0v1h-2zm-11 0a1 1 0 0 1 2 0v1h-2zm-11 0a1 1 0 0 1 2 0v1h-2zm-2 3v1a3 3 0 0 0 3 3v-2a1 1 0 0 1 -1-1v-1h9v1a3 3 0 0 0 3 3v-2a1 1 0 0 1 -1-1v-1h9v1a3 3 0 0 0 3 3v-2a1 1 0 0 1 -1-1v-1h9v6h-38v-6zm26 38h-31v-30h38v35a3 3 0 0 1 -6 0v-4a1 1 0 0 0 -1-1zm-37 5v-3h36v3a4.973 4.973 0 0 0 1 3h-34a3 3 0 0 1 -3-3zm6 5h35a4.948 4.948 0 0 0 3-1.026v5.026h-38zm40 4v-44h4v44z"/><path d="m45 22a1 1 0 0 0 -1-1h-24a1 1 0 0 0 -1 1v18a1 1 0 0 0 1 1h24a1 1 0 0 0 1-1zm-6 3h-5v-2h5zm-11-2h4v5.131l-1.445-.963a1 1 0 0 0 -1.11 0l-1.445.963zm-2 0v2h-5v-2zm-5 16v-12h5v3a1 1 0 0 0 1.555.832l2.445-1.632 2.445 1.63a1 1 0 0 0 1.555-.83v-3h5v12zm22 0h-2v-16h2z"/></svg>