<?xml version="1.0"?>
<svg xmlns="http://www.w3.org/2000/svg" viewBox="0 0 64 64" width="512" height="512"><g id="Delivery_Cart" data-name="Delivery Cart"><path d="M14,17.071v-1.1A4.977,4.977,0,0,0,16,12V11a1,1,0,0,0,1-1V8A6,6,0,0,0,5,8v2a1,1,0,0,0,1,1v1a4.977,4.977,0,0,0,2,3.974v1.1A7.011,7.011,0,0,0,2,24V35.5a2.5,2.5,0,0,0,3,2.449V56a3,3,0,0,0-3,3v2a1,1,0,0,0,1,1H9a1,1,0,0,0,.447-.1L11,61.118l1.553.777A1,1,0,0,0,13,62h6a1,1,0,0,0,1-1V59a3,3,0,0,0-3-3V37.949A2.5,2.5,0,0,0,20,35.5V24A7.011,7.011,0,0,0,14,17.071ZM7,8a4,4,0,0,1,8,0V9h-.172a1,1,0,0,1-.707-.293L12.707,7.293a1,1,0,0,0-1.414,0l-.828.828A2.98,2.98,0,0,1,8.343,9H7Zm1.343,3a4.969,4.969,0,0,0,3.536-1.465L12,9.414l.707.707A2.98,2.98,0,0,0,14,10.87V12a3,3,0,0,1-6,0V11ZM11,17a5,5,0,0,0,1-.1v.687l-1,1-1-1V16.9A5,5,0,0,0,11,17ZM4.5,36a.5.5,0,0,1-.5-.5V34H5v1.5A.5.5,0,0,1,4.5,36ZM8.764,60H4V59a1,1,0,0,1,1-1h5v1.382ZM18,59v1H13.236L12,59.382V58h5A1,1,0,0,1,18,59Zm-6-3V40H10V56H7V38h8V56Zm5.5-20a.5.5,0,0,1-.5-.5V34h1v1.5A.5.5,0,0,1,17.5,36Zm.5-4H17V23H15V36H7V23H5v9H4V24a4.991,4.991,0,0,1,4.624-4.962L10,20.414V33h2V20.414l1.376-1.376A4.991,4.991,0,0,1,18,24Z"/><path d="M62,53a3,3,0,0,0-3-3V19a1,1,0,0,0-1-1H38a1,1,0,0,0-1,1V50H34.939L33,18.938h0A3,3,0,0,0,30,16H26a3,3,0,0,0,0,6h4a2.988,2.988,0,0,0,1.171-.238L32.948,50.2A2.994,2.994,0,0,0,34,56h1.556A3.959,3.959,0,0,0,35,58a4,4,0,0,0,8,0,3.959,3.959,0,0,0-.556-2H52.556A3.959,3.959,0,0,0,52,58a4,4,0,1,0,7.421-2.043A2.994,2.994,0,0,0,62,53ZM45,38H39V36h6ZM39,24h6v3a1,1,0,0,0,1.707.707L48,26.414l1.293,1.293A1,1,0,0,0,50,28a.987.987,0,0,0,.383-.076A1,1,0,0,0,51,27V24h6V34H39Zm8-4h2v4.586l-.293-.293a1,1,0,0,0-1.414,0L47,24.586Zm0,16h2v4.586l-.293-.293a1,1,0,0,0-1.414,0L47,40.586Zm4,0h6v2H51Zm6-14H51V20h6ZM45,20v2H39V20ZM39,40h6v3a1,1,0,0,0,1.707.707L48,42.414l1.293,1.293A1,1,0,0,0,50,44a.987.987,0,0,0,.383-.076A1,1,0,0,0,51,43V40h6V50H39ZM30,20H26a1,1,0,0,1,0-2h4a1,1,0,0,1,0,2Zm3,33a1,1,0,1,1,1,1A1,1,0,0,1,33,53Zm8,5a2,2,0,1,1-2-2A2,2,0,0,1,41,58Zm15,2a2,2,0,1,1,2-2A2,2,0,0,1,56,60Zm3-6H36.816a2.809,2.809,0,0,0,0-2H59a1,1,0,0,1,0,2Z"/></g></svg>
