<svg height="512" viewBox="0 0 64 64" width="512" xmlns="http://www.w3.org/2000/svg"><path d="m62 5a3 3 0 0 0 -3-3h-14a3 3 0 0 0 0 6h4.184a2.966 2.966 0 0 0 -.184 1v1h-6.7l-2.745-1.832a1.006 1.006 0 0 0 -.555-.168h-14a1.006 1.006 0 0 0 -.555.168l-2.745 1.832h-6.7v-1a2.966 2.966 0 0 0 -.184-1h4.184a3 3 0 0 0 0-6h-14a3 3 0 0 0 0 6h4.184a2.966 2.966 0 0 0 -.184 1v1h-4a2 2 0 0 0 -2 2v6a2 2 0 0 0 2 2h7.611a2.991 2.991 0 0 1 2.96 2.507l.443 2.658a1 1 0 0 0 .986.835v5a1 1 0 0 0 1 1h1v4.586l-1.707 1.707a1 1 0 0 0 -.293.707v20a3 3 0 0 0 3 3h24a3 3 0 0 0 3-3v-20a1 1 0 0 0 -.293-.707l-1.707-1.707v-4.586h1a1 1 0 0 0 1-1v-5a1 1 0 0 0 .986-.835l.443-2.658a2.991 2.991 0 0 1 2.96-2.507h7.611a2 2 0 0 0 2-2v-6a2 2 0 0 0 -2-2h-4v-1a2.966 2.966 0 0 0 -.184-1h4.184a3 3 0 0 0 3-3zm-18 0a1 1 0 0 1 1-1h14a1 1 0 0 1 0 2h-14a1 1 0 0 1 -1-1zm-40 0a1 1 0 0 1 1-1h14a1 1 0 0 1 0 2h-14a1 1 0 0 1 -1-1zm7 4a1 1 0 0 1 2 0v1h-2zm10 17v4h-2v-4zm20-2h-5.026a4.9 4.9 0 0 0 0-6h4.026a1 1 0 0 1 1 1zm-6-3a3 3 0 1 1 -3-3 3 3 0 0 1 3 3zm-6.974 3h-5.026v-5a1 1 0 0 1 1-1h4.026a4.9 4.9 0 0 0 0 6zm-.026 19h-9v-3h9zm2-3h4v7.131l-1.445-.963a1 1 0 0 0 -1.11 0l-1.445.963zm6 0h9v3h-9zm-15.586-2 2-2h19.172l2 2zm23.586 22h-24a1 1 0 0 1 -1-1v-14h9v4a1 1 0 0 0 1.555.832l2.445-1.632 2.445 1.63a1 1 0 0 0 1.555-.83v-4h9v14a1 1 0 0 1 -1 1zm-1-25.414-.293-.293a1 1 0 0 0 -.707-.293h-20a1 1 0 0 0 -.707.293l-.293.293v-2.586h1a1 1 0 0 0 1-1v-5h18v5a1 1 0 0 0 1 1h1zm2-4.586h-2v-4h2zm14-12h-7.611a4.984 4.984 0 0 0 -4.932 4.178l-.304 1.822h-3.153v-5a3 3 0 0 0 -3-3h-16a3 3 0 0 0 -3 3v5h-3.153l-.3-1.822a4.984 4.984 0 0 0 -4.936-4.178h-7.611v-6h17a1.006 1.006 0 0 0 .555-.168l2.745-1.832h13.4l2.748 1.832a1.006 1.006 0 0 0 .552.168h17zm-6-9v1h-2v-1a1 1 0 0 1 2 0z"/><path d="m31 20h2v2h-2z"/><path d="m7 14h4v2h-4z"/><path d="m13 14h2v2h-2z"/><path d="m53 14h4v2h-4z"/><path d="m49 14h2v2h-2z"/><path d="m45 14h2v2h-2z"/><path d="m17 14h2v2h-2z"/><path d="m31 12h2v2h-2z"/><path d="m35 12h2v2h-2z"/><path d="m27 12h2v2h-2z"/><path d="m58 35a3 3 0 1 0 -4 2.816v5.184h2v-5.184a3 3 0 0 0 2-2.816zm-3 1a1 1 0 1 1 1-1 1 1 0 0 1 -1 1z"/><path d="m54 45h2v2h-2z"/><path d="m54 49h2v2h-2z"/><path d="m54 53h2v2h-2z"/><path d="m58 43h2v6h-2z"/><path d="m58 51h2v2h-2z"/><path d="m58 55h2v2h-2z"/><path d="m9 32a2.993 2.993 0 0 0 -1 5.816v5.184h2v-5.184a2.993 2.993 0 0 0 -1-5.816zm0 4a1 1 0 1 1 1-1 1 1 0 0 1 -1 1z"/><path d="m8 45h2v2h-2z"/><path d="m8 49h2v2h-2z"/><path d="m8 53h2v2h-2z"/><path d="m4 43h2v6h-2z"/><path d="m4 51h2v2h-2z"/><path d="m4 55h2v2h-2z"/></svg>