<svg height="512" viewBox="0 0 64 64" width="512" xmlns="http://www.w3.org/2000/svg"><g id="Map-3" data-name="Map"><path d="m57 2h-50a5.006 5.006 0 0 0 -5 5v38a5.006 5.006 0 0 0 5 5h16.867l-.75 6h-2.117a3 3 0 0 0 0 6h22a3 3 0 0 0 0-6h-2.117l-.75-6h16.867a5.006 5.006 0 0 0 5-5v-38a5.006 5.006 0 0 0 -5-5zm3 5v17h-39v-20h36a3 3 0 0 1 3 3zm-43 1v-4h2v21a1 1 0 0 0 1 1h40v6h-21a1 1 0 0 0 -1 1v7h-6v-7a1 1 0 0 0 -1-1h-11a1 1 0 0 0 -1 1v7h-6v-7a1 1 0 0 0 -1-1h-8v-6h8a1 1 0 0 0 1-1v-21h2v4zm43 26v6h-20v-6zm-30 6h-9v-6h9zm-19 0h-7v-6h7zm-4-36h4v20h-7v-17a3 3 0 0 1 3-3zm37 55a1 1 0 0 1 -1 1h-22a1 1 0 0 1 0-2h22a1 1 0 0 1 1 1zm-5.133-3h-13.734l.75-6h12.234zm18.133-8h-50a3 3 0 0 1 -3-3v-3h56v3a3 3 0 0 1 -3 3z"/><path d="m54 44h2v2h-2z"/><path d="m7 28h4v2h-4z"/><path d="m15 20h2v4h-2z"/><path d="m15 12h2v4h-2z"/><path d="m15 34h2v4h-2z"/><path d="m21 28h4v2h-4z"/><path d="m29 28h4v2h-4z"/><path d="m37 28h4v2h-4z"/><path d="m34 34h2v4h-2z"/><path d="m45 28h4v2h-4z"/><path d="m53 28h4v2h-4z"/><path d="m40 16a3 3 0 1 0 -3-3 3 3 0 0 0 3 3zm0-4a1 1 0 1 1 -1 1 1 1 0 0 1 1-1z"/><path d="m39.384 21.788a1 1 0 0 0 1.232 0c.653-.51 6.384-5.088 6.384-8.788a7 7 0 0 0 -14 0c0 3.7 5.731 8.278 6.384 8.788zm.616-13.788a5.006 5.006 0 0 1 5 5c0 1.869-2.851 4.9-5 6.711-2.149-1.811-5-4.842-5-6.711a5.006 5.006 0 0 1 5-5z"/></g></svg>