<?xml version="1.0"?>
<svg xmlns="http://www.w3.org/2000/svg" viewBox="0 0 64 64" width="512" height="512"><g id="Logistic-Worldwide"><path d="M33,17H27a1,1,0,0,0-1,1v2a1,1,0,0,0,.293.707L28,22.414V26a1,1,0,0,0,1,1h2a1,1,0,0,0,.707-.293l2-2A1,1,0,0,0,34,24V18A1,1,0,0,0,33,17Zm-1,6.586L30.586,25H30V22a1,1,0,0,0-.293-.707L28,19.586V19h4Z"/><path d="M61,39H48.922A24.986,24.986,0,0,0,27,2c-.351,0-.69.01-1.043.021A25,25,0,0,0,8.812,44.146a24.84,24.84,0,0,0,17.157,7.833c.341.011.68.021,1.031.021a24.014,24.014,0,0,0,3.122-.2A24.438,24.438,0,0,0,38,49.436V61a1,1,0,0,0,1,1H61a1,1,0,0,0,1-1V40A1,1,0,0,0,61,39Zm-1,6H54V41h6ZM46,45H40V41h6Zm2-4h4v7.131l-1.445-.963a1,1,0,0,0-1.11,0L48,48.131Zm2-14a22.851,22.851,0,0,1-3.406,12h-3.18L43,38.586V34a1,1,0,0,0-.293-.707L39,29.586V26.414l1.707-1.707A1,1,0,0,0,41,24V18a1,1,0,0,0-.293-.707l-5-5A1,1,0,0,0,35,12H30.414L27,8.586V4A23.026,23.026,0,0,1,50,27ZM4,27A22.972,22.972,0,0,1,17.605,6.019L20,8.414v3.172l-3.707,3.707A1,1,0,0,0,16,16v3.586L12.586,23H10a1,1,0,0,0-1,1v3a1,1,0,0,0,.293.707L14,32.414v2.172l-2.707,2.707A1,1,0,0,0,11,38v2.586l-1.4,1.4A22.893,22.893,0,0,1,4,27ZM24,40H20.414L19,38.586V36.414L22.414,33h7.172L34,37.414v3.172l-1.707,1.707A1,1,0,0,0,32,43v3.586l-2.707,2.707a.993.993,0,0,0-.275.615c-.661.056-1.346.084-2.018.086V47a1,1,0,0,0-.293-.707L25,44.586V41A1,1,0,0,0,24,40Zm7.96,9.454,1.747-1.747A1,1,0,0,0,34,47V43.414l1.707-1.707A1,1,0,0,0,36,41V37a1,1,0,0,0-.293-.707l-5-5A1,1,0,0,0,30,31H22a1,1,0,0,0-.707.293l-4,4A1,1,0,0,0,17,36v3a1,1,0,0,0,.293.707l2,2A1,1,0,0,0,20,42h3v3a1,1,0,0,0,.293.707L25,47.414v2.473a22.786,22.786,0,0,1-14.034-6.439l1.741-1.741A1,1,0,0,0,13,41V38.414l2.707-2.707A1,1,0,0,0,16,35V32a1,1,0,0,0-.293-.707L11,26.586V25h2a1,1,0,0,0,.707-.293l4-4A1,1,0,0,0,18,20V16.414l3.707-3.707A1,1,0,0,0,22,12V8a1,1,0,0,0-.293-.707L19.634,5.22A22.788,22.788,0,0,1,25,4.111V9a1,1,0,0,0,.293.707l4,4A1,1,0,0,0,30,14h4.586L39,18.414v5.172l-1.707,1.707A1,1,0,0,0,37,26v4a1,1,0,0,0,.293.707L41,34.414V39H39a1,1,0,0,0-1,1v7.163A22.459,22.459,0,0,1,31.96,49.454ZM40,60V47h6v3a1,1,0,0,0,1.555.832L50,49.2l2.445,1.63A1,1,0,0,0,54,50V47h6V60Z"/><path d="M57,27a30.144,30.144,0,0,1-.769,6.775l1.95.45A32.146,32.146,0,0,0,59,27,31.781,31.781,0,0,0,53.055,8.418L51.428,9.582A29.786,29.786,0,0,1,57,27Z"/><path d="M51.45,6.354c-.605-.715-1.247-1.41-1.906-2.064L48.136,5.709c.618.614,1.219,1.265,1.787,1.937Z"/><path d="M27,57A29.789,29.789,0,0,1,5.71,48.135L4.29,49.544A31.78,31.78,0,0,0,27,59c1.033,0,2.074-.05,3.1-.147L29.9,56.861C28.946,56.954,27.97,57,27,57Z"/><path d="M31.841,56.611l.318,1.975c.685-.111,1.379-.247,2.066-.405l-.45-1.949C33.132,56.38,32.481,56.508,31.841,56.611Z"/></g></svg>
