<svg height="512" viewBox="0 0 64 64" width="512" xmlns="http://www.w3.org/2000/svg"><path d="m61.553 6.167a1 1 0 0 0 -.941-.089l-18.622 7.841-19.619-7.848a1.007 1.007 0 0 0 -.759.007l-19 8a1 1 0 0 0 -.612.922v42a1 1 0 0 0 1.388.922l18.622-7.841 19.619 7.848a1.012 1.012 0 0 0 .759-.007l19-8a1 1 0 0 0 .612-.922v-42a1 1 0 0 0 -.447-.833zm-1.553 42.169-17 7.158v-19.494h-2v19.523l-18-7.2v-4.323h-2v4.336l-17 7.158v-39.83l17-7.158v29.494h2v-29.523l18 7.2v14.323h2v-14.336l17-7.158z"/><path d="m51 22.857v4.143h2v-4.129a4.006 4.006 0 0 0 3-4.051 4 4 0 1 0 -5 4.038zm.91-5.857h.092a2 2 0 0 1 .088 4 1.983 1.983 0 0 1 -2.09-1.91 2 2 0 0 1 1.91-2.09z"/><path d="m13 44v-6.129a4.006 4.006 0 0 0 3-4.051 4 4 0 1 0 -5 4.038v6.142zm-3-9.91a2 2 0 0 1 1.91-2.09h.092a2 2 0 1 1 -2 2.09z"/><path d="m35.472 30.237h2v1.999h-2z" transform="matrix(.447 -.894 .894 .447 -7.777 49.889)"/><path d="m31.894 28.447h2v2h-2z" transform="matrix(.447 -.894 .894 .447 -8.155 45.7)"/><path d="m39.05 32.025h2v2h-2z" transform="matrix(.447 -.894 .894 .447 -7.399 54.077)"/><path d="m42.689 32.325h2.001v1.999h-2.001z" transform="matrix(.929 -.371 .371 .929 -9.249 18.6)"/><path d="m46.403 30.839h2v2h-2z" transform="matrix(.929 -.371 .371 .929 -8.43 19.862)"/><path d="m50.119 29.362h1.951v2h-1.951z" transform="matrix(.929 -.371 .371 .929 -7.619 21.126)"/><path d="m15.287 43.427h2v2h-2z" transform="matrix(.857 -.515 .515 .857 -20.542 14.717)"/><path d="m18.718 41.37h2v2h-2z" transform="matrix(.857 -.515 .515 .857 -18.993 16.189)"/><path d="m11.858 45.486h2v2h-2z" transform="matrix(.857 -.515 .515 .857 -22.09 13.245)"/><path d="m29.671 43.468h1.999v1.999h-1.999z" transform="matrix(.371 -.928 .928 .371 -22.008 56.427)"/><path d="m25.956 41.982h2v2h-2z" transform="matrix(.371 -.929 .929 .371 -22.962 52.054)"/><path d="m22.242 40.497h2v2h-2z" transform="matrix(.371 -.929 .929 .371 -23.918 47.672)"/><path d="m31 40h2v2h-2z"/><path d="m31 36h2v2h-2z"/><path d="m31 32h2v2h-2z"/></svg>