<svg height="512" viewBox="0 0 64 64" width="512" xmlns="http://www.w3.org/2000/svg"><g id="Mobile_App-Shipping-Tracking" data-name="Mobile App-Shipping-Tracking"><path d="m28.8 20.4a1 1 0 0 0 -.8-.4h-14a1 1 0 0 0 -.8.4l-3 4a1 1 0 0 0 -.2.6v17a2 2 0 0 0 2 2h18a2 2 0 0 0 2-2v-17a1 1 0 0 0 -.2-.6zm-14.3 1.6h13l1.5 2h-16zm2.5 6h-5v-2h5zm2-2h4v5.131l-1.445-.963a1 1 0 0 0 -1.11 0l-1.445.963zm6 0h5v2h-5zm-13 16v-12h5v3a1 1 0 0 0 1.555.832l2.445-1.632 2.445 1.63a1 1 0 0 0 1.555-.83v-3h5v12z"/><path d="m59 10h-19v-3a5.006 5.006 0 0 0 -5-5h-28a5.006 5.006 0 0 0 -5 5v50a5.006 5.006 0 0 0 5 5h28a5.006 5.006 0 0 0 5-5v-29h2v5a1 1 0 0 0 1.707.707l5.707-5.707h9.586a3 3 0 0 0 3-3v-12a3 3 0 0 0 -3-3zm-45-6h14v2h-14zm24 53a3 3 0 0 1 -3 3h-28a3 3 0 0 1 -3-3v-50a3 3 0 0 1 3-3h5v2a2 2 0 0 0 2 2h14a2 2 0 0 0 2-2v-2h5a3 3 0 0 1 3 3v3h-1a3 3 0 0 0 -3 3v12a3 3 0 0 0 3 3h1zm22-32a1 1 0 0 1 -1 1h-10a1 1 0 0 0 -.707.293l-4.293 4.293v-3.586a1 1 0 0 0 -1-1h-6a1 1 0 0 1 -1-1v-12a1 1 0 0 1 1-1h22a1 1 0 0 1 1 1z"/><path d="m40 16h16v2h-16z"/><path d="m40 20h16v2h-16z"/><path d="m44 46h8v2h-8z"/><path d="m43.86 39h7.28v2h-7.28z" transform="matrix(.961 -.275 .275 .961 -9.166 14.6)"/><path d="m46.5 50.36h2v7.28h-2z" transform="matrix(.275 -.962 .962 .275 -17.472 84.837)"/><path d="m16 49h2v2h-2z"/><path d="m20 49h2v2h-2z"/><path d="m24 49h2v2h-2z"/></g></svg>