<svg height="512" viewBox="0 0 64 64" width="512" xmlns="http://www.w3.org/2000/svg"><path d="m61.9 54.568-11-23a1 1 0 0 0 -.614-.526l-7.647-2.3a15.818 15.818 0 0 0 2.361-7.742 13 13 0 0 0 -26 0 15.87 15.87 0 0 0 2.4 7.81l-6.713 2.241a1 1 0 0 0 -.571.487l-12 23a1 1 0 0 0 .884 1.462 1.016 1.016 0 0 0 .3-.045l15.668-4.9 12.675 4.875a.988.988 0 0 0 .718 0l12.675-4.875 15.668 4.9a1 1 0 0 0 1.2-1.387zm-30.9-15.078v14.054l-10.824-4.163 3.965-16.636a46.455 46.455 0 0 0 6.859 6.745zm2 0a46.455 46.455 0 0 0 6.859-6.745l3.965 16.636-10.824 4.163zm-1-29.49a11.013 11.013 0 0 1 11 11c0 7.271-8.623 14.791-11 16.725-2.379-1.933-11-9.444-11-16.725a11.013 11.013 0 0 1 11-11zm-16.3 22.821 6.8-2.269.082.118-4.423 18.545-13.159 4.112zm30.141 16.394-4.421-18.545.116-.168 7.753 2.329 9.818 20.53z"/><path d="m38 21a6 6 0 1 0 -6 6 6.006 6.006 0 0 0 6-6zm-10 0a4 4 0 1 1 4 4 4 4 0 0 1 -4-4z"/></svg>