<?xml version="1.0"?>
<svg xmlns="http://www.w3.org/2000/svg" id="Map-Route" viewBox="0 0 64 64" width="512" height="512"><path d="M59,2H5A3,3,0,0,0,2,5V59a3,3,0,0,0,3,3H59a3,3,0,0,0,3-3V5A3,3,0,0,0,59,2Zm1,3V28H36a13,13,0,0,0-2-3.3V4H59A1,1,0,0,1,60,5ZM51,37V60H45V37a1,1,0,0,0-1-1H36.637a12.578,12.578,0,0,0,0-6H60v6H52A1,1,0,0,0,51,37ZM32,22.774a12.93,12.93,0,0,0-6-2.6V4h6ZM35,33A11,11,0,1,1,24,22,11.013,11.013,0,0,1,35,33ZM32,43.226V60H26V45.83A12.93,12.93,0,0,0,32,43.226ZM34,41.3A13,13,0,0,0,36,38h7V60H34ZM5,4H24V20a13.018,13.018,0,0,0-12,8H4V5A1,1,0,0,1,5,4Zm6.363,32H4V30h7.363a12.578,12.578,0,0,0,0,6ZM4,59V38h8a13.018,13.018,0,0,0,12,8V60H5A1,1,0,0,1,4,59Zm55,1H53V38h7V59A1,1,0,0,1,59,60Z"/><path d="M46,21.857V26h2V21.871a4.006,4.006,0,0,0,3-4.051h0a4,4,0,1,0-5,4.038ZM46.91,16c.031,0,.062,0,.092,0a2,2,0,0,1,.088,4A1.978,1.978,0,0,1,45,18.09,2,2,0,0,1,46.91,16Z"/><path d="M11.82,43A3.991,3.991,0,0,0,11,50.857V55h2V50.871a4.006,4.006,0,0,0,3-4.051h0A4.015,4.015,0,0,0,11.82,43ZM12.09,49a2,2,0,1,1-.18-4c.031,0,.062,0,.092,0a2,2,0,0,1,.088,4Z"/><path d="M17.231,26.36a1,1,0,0,0-.063,1.2L20.8,33l-3.626,5.445A1,1,0,0,0,18,40a.981.981,0,0,0,.393-.081l14-6a1,1,0,0,0,0-1.838l-14-6A1,1,0,0,0,17.231,26.36ZM29.462,33,20.7,36.755l2.132-3.2a1,1,0,0,0,0-1.109l-2.134-3.2Z"/></svg>
