<svg height="512" viewBox="0 0 64 64" width="512" xmlns="http://www.w3.org/2000/svg"><path d="m58.777 37.223a10.914 10.914 0 0 0 -6.9-3.18l-1.735-13.043h1.858a2 2 0 0 0 1.954-1.581 3.958 3.958 0 0 0 2.046.581h1a1 1 0 0 0 1-1v-6a1 1 0 0 0 -1-1h-1a3.958 3.958 0 0 0 -2.046.581 2 2 0 0 0 -1.954-1.581h-8a4 4 0 0 0 -3.858 3h-3.642a2.5 2.5 0 0 0 0 5h4.048a3.976 3.976 0 0 0 3.452 2v19a3 3 0 0 1 -3 3h-7v-12a1 1 0 0 0 1-1v-2a3 3 0 0 0 -3-3h-6v-16a2 2 0 0 0 -2-2h-18a2 2 0 0 0 -2 2v16a2 2 0 0 0 2 2h1.184a2.966 2.966 0 0 0 -.184 1 3 3 0 0 0 3 3h.1a13.1 13.1 0 0 0 -3.141 2.749 2.993 2.993 0 1 0 -2.579 5.185 12.969 12.969 0 0 0 -.38 3.066v6a1 1 0 0 0 1 1h6.072a8 8 0 1 0 15.856 0h16.3a7.009 7.009 0 0 0 1.886-.279 8 8 0 1 0 14.801-2.721h1.085a1 1 0 0 0 1-1 10.928 10.928 0 0 0 -3.223-7.777zm-2.777-23.223v4a2 2 0 0 1 0-4zm-12-1h8v6h-6.5a2.5 2.5 0 0 0 0-5h-3.222a1.993 1.993 0 0 1 1.722-1zm-8 3.5a.5.5 0 0 1 .5-.5h9a.5.5 0 0 1 0 1h-9a.5.5 0 0 1 -.5-.5zm-4 10.5a1 1 0 0 1 1 1v1h-8v-2zm-8-16h-6v-2h6zm-10-2h2v4h-2zm-2 0v2h-6v-2zm-6 4h6v1a1 1 0 0 0 1 1h4a1 1 0 0 0 1-1v-1h6v12h-18zm4 16a1 1 0 0 1 0-2h13v2zm-6 7a1 1 0 0 1 1-1 .989.989 0 0 1 .808.419 12.91 12.91 0 0 0 -.8 1.568 1.023 1.023 0 0 1 -1.008-.987zm24 7h-17.9a5.009 5.009 0 0 1 4.9-4h12a1 1 0 0 1 1 1zm-18 2h18v2h-18zm10 5a1 1 0 1 1 -1-1 1 1 0 0 1 1 1zm5 0a6 6 0 0 1 -12 0 6.126 6.126 0 0 1 .09-1h3.094a2.966 2.966 0 0 0 -.184 1 3 3 0 0 0 6 0 2.966 2.966 0 0 0 -.184-1h3.094a6.126 6.126 0 0 1 .09 1zm5-3v-7a3 3 0 0 0 -3-3h-12a7.008 7.008 0 0 0 -7 7v3h-2v-5a11.013 11.013 0 0 1 11-11h15v13a1 1 0 0 0 1 1h8a5.006 5.006 0 0 0 5-5v-19h2.125l1.86 13.952-1.885 8.172a4.978 4.978 0 0 1 -4.873 3.876zm29 3a6 6 0 0 1 -12 0 5.864 5.864 0 0 1 .55-2.488 6.956 6.956 0 0 0 1.407-1.512h8.5a6 6 0 0 1 1.543 4zm-9.089-6c.043-.144.1-.278.137-.426l1.739-7.536a9 9 0 0 1 8.158 7.962z"/><path d="m53 53a3 3 0 1 0 -3-3 3 3 0 0 0 3 3zm0-4a1 1 0 1 1 -1 1 1 1 0 0 1 1-1z"/><path d="m35 56h10v2h-10z"/><path d="m31 56h2v2h-2z"/><path d="m31 60h10v2h-10z"/><path d="m27 60h2v2h-2z"/><path d="m23 60h2v2h-2z"/><path d="m10 3h10v2h-10z"/><path d="m6 3h2v2h-2z"/><path d="m2 3h2v2h-2z"/></svg>