<?xml version="1.0"?>
<svg xmlns="http://www.w3.org/2000/svg" viewBox="0 0 64 64" width="512" height="512"><g id="Money_Bag" data-name="Money Bag"><path d="M59.123,53.172l-.237-.095A2.984,2.984,0,0,1,57,50.292V35A17.006,17.006,0,0,0,40.8,18.041a2.943,2.943,0,0,0-1.291-3.617l5.345-8.909A1,1,0,0,0,44,4a3.782,3.782,0,0,1-2.446-.833,5.995,5.995,0,0,0-7.109,0,4.009,4.009,0,0,1-4.89,0,5.994,5.994,0,0,0-7.11,0A3.778,3.778,0,0,1,20,4a1,1,0,0,0-.857,1.515l5.345,8.909A2.943,2.943,0,0,0,23.2,18.041,17.006,17.006,0,0,0,7,35V50.292a2.986,2.986,0,0,1-1.887,2.786l-.235.094A4.578,4.578,0,0,0,6.578,62H57.422a4.578,4.578,0,0,0,1.7-8.828ZM25,17a1,1,0,0,1,1-1H38a1,1,0,0,1,0,2H26A1,1,0,0,1,25,17ZM23.555,4.832a4.009,4.009,0,0,1,4.89,0A5.739,5.739,0,0,0,32,6a5.747,5.747,0,0,0,3.555-1.168,4.008,4.008,0,0,1,4.891,0,6.431,6.431,0,0,0,1.915.955L37.434,14H26.566L21.639,5.789A6.425,6.425,0,0,0,23.555,4.832ZM57.422,60H6.578a2.578,2.578,0,0,1-.957-4.971l.235-.094A4.976,4.976,0,0,0,9,50.292V35A15.017,15.017,0,0,1,24,20H40A15.017,15.017,0,0,1,55,35V50.292a4.975,4.975,0,0,0,3.143,4.642l.237.1A2.578,2.578,0,0,1,57.422,60Z"/><path d="M32,24A13.015,13.015,0,0,0,19,37c0,9.392,11.894,18.42,12.4,18.8a1,1,0,0,0,1.2,0C33.106,55.42,45,46.392,45,37A13.015,13.015,0,0,0,32,24Zm0,29.725C29.622,51.792,21,44.281,21,37a11,11,0,0,1,22,0C43,44.271,34.377,51.791,32,53.725Z"/><path d="M32,31a6,6,0,1,0,6,6A6.006,6.006,0,0,0,32,31Zm0,10a4,4,0,1,1,4-4A4,4,0,0,1,32,41Z"/></g></svg>
