<?xml version="1.0"?>
<svg xmlns="http://www.w3.org/2000/svg" viewBox="0 0 64 64" width="512" height="512"><g id="Operator"><rect x="41" y="23" width="2" height="2"/><rect x="47" y="23" width="2" height="2"/><path d="M61,48H58V41.9a7.006,7.006,0,0,0-4.157-6.4L49,33.35V31.918A8.056,8.056,0,0,0,51.235,30H54a2,2,0,0,0,2-2V25.618a3.927,3.927,0,0,0,0-5.236V19a11,11,0,0,0-22,0v1.382A3.98,3.98,0,0,0,37,27c.086,0,.171-.019.257-.024A8.023,8.023,0,0,0,41,31.918V33.35L36.157,35.5A7.008,7.008,0,0,0,32,41.9V48H28V13a1,1,0,0,0-1-1H7a1,1,0,0,0-1,1V48H3a1,1,0,0,0-1,1v4a1,1,0,0,0,1,1H5v7a1,1,0,0,0,1,1H58a1,1,0,0,0,1-1V54h2a1,1,0,0,0,1-1V49A1,1,0,0,0,61,48ZM52.411,28a8.1,8.1,0,0,0,.332-1.024c.086.005.171.024.257.024a3.939,3.939,0,0,0,1-.142V28ZM55,23a2,2,0,0,1-2,2V21A2,2,0,0,1,55,23ZM38.637,12.637A9,9,0,0,1,54,19v.142A3.939,3.939,0,0,0,53,19c-.086,0-.171.019-.257.024a7.988,7.988,0,0,0-15.486,0C37.171,19.019,37.086,19,37,19a3.939,3.939,0,0,0-1,.142V19A8.945,8.945,0,0,1,38.637,12.637ZM50.91,20h-.5l-1.707-1.707a1,1,0,0,0-1.154-.188L43.764,20H39.09a5.993,5.993,0,0,1,11.82,0ZM35,23a2,2,0,0,1,2-2v4A2,2,0,0,1,35,23Zm4,2V22h5a1,1,0,0,0,.447-.105L47.8,20.217l1.49,1.49A1,1,0,0,0,50,22h1v3a5.958,5.958,0,0,1-.812,3H45v2h3.31A5.995,5.995,0,0,1,39,25Zm6,8a7.953,7.953,0,0,0,2-.263V34a2,2,0,0,1-4,0V32.737A7.953,7.953,0,0,0,45,33ZM34,41.9a5,5,0,0,1,2.97-4.569l4.3-1.912a3.982,3.982,0,0,0,7.456,0l4.3,1.913A5,5,0,0,1,56,41.9V48H34ZM13,34H8V32h5ZM8,18h5v3a1,1,0,0,0,1.555.832L17,20.2l2.445,1.63A1,1,0,0,0,21,21V18h5V30H8Zm7-4h4v5.131l-1.445-.963a1,1,0,0,0-1.11,0L15,19.131Zm0,18h4v5.131l-1.445-.963a1,1,0,0,0-1.11,0L15,37.131Zm6,0h5v2H21Zm5-16H21V14h5ZM13,14v2H8V14ZM8,36h5v3a1,1,0,0,0,1.555.832L17,38.2l2.445,1.63A1,1,0,0,0,21,39V36h5V48H8ZM57,60H7V54H57Zm3-8H4V50H60Z"/></g></svg>
