<svg height="512" viewBox="0 0 64 64" width="512" xmlns="http://www.w3.org/2000/svg"><g id="Navigation_Setting" data-name="Navigation Setting"><path d="m40.613 22.078-21.92 9.192a1 1 0 0 0 .19 1.9l9.954 1.99 1.99 9.954a1 1 0 0 0 .881.8h.1a1 1 0 0 0 .922-.613l9.192-21.92a1 1 0 0 0 -1.309-1.309zm-18.136 9.774 14.223-5.963-7.339 7.339zm9.671 9.671-1.376-6.881 7.339-7.342z"/><path d="m61.124 26.008-5.016-.627a24.8 24.8 0 0 0 -2.378-5.75l3.1-3.988a1 1 0 0 0 -.082-1.321l-7.07-7.071a1 1 0 0 0 -1.321-.082l-3.987 3.1a24.794 24.794 0 0 0 -5.751-2.378l-.627-5.016a1 1 0 0 0 -.992-.875h-10a1 1 0 0 0 -.992.876l-.627 5.016a24.794 24.794 0 0 0 -5.751 2.378l-3.987-3.1a1 1 0 0 0 -1.321.082l-7.071 7.07a1 1 0 0 0 -.082 1.321l3.1 3.988a24.8 24.8 0 0 0 -2.378 5.75l-5.016.627a1 1 0 0 0 -.875.992v10a1 1 0 0 0 .876.992l5.016.628a24.841 24.841 0 0 0 2.378 5.75l-3.1 3.987a1 1 0 0 0 .082 1.321l7.071 7.071a1 1 0 0 0 1.321.082l3.987-3.1a24.812 24.812 0 0 0 5.751 2.378l.627 5.016a1 1 0 0 0 .991.875h10a1 1 0 0 0 .992-.876l.627-5.016a24.812 24.812 0 0 0 5.751-2.378l3.987 3.1a1 1 0 0 0 1.321-.082l7.071-7.071a1 1 0 0 0 .082-1.321l-3.1-3.987a24.841 24.841 0 0 0 2.378-5.75l5.016-.628a1 1 0 0 0 .875-.991v-10a1 1 0 0 0 -.876-.992zm-1.124 10.109-4.813.6a1 1 0 0 0 -.848.755 22.83 22.83 0 0 1 -2.67 6.454 1 1 0 0 0 .065 1.134l2.976 3.826-5.822 5.824-3.826-2.976a1 1 0 0 0 -1.134-.065 22.817 22.817 0 0 1 -6.454 2.67 1 1 0 0 0 -.755.848l-.602 4.813h-8.234l-.6-4.813a1 1 0 0 0 -.755-.848 22.817 22.817 0 0 1 -6.454-2.67 1 1 0 0 0 -1.134.065l-3.828 2.976-5.822-5.822 2.976-3.826a1 1 0 0 0 .065-1.134 22.83 22.83 0 0 1 -2.67-6.454 1 1 0 0 0 -.848-.755l-4.813-.602v-8.234l4.813-.6a1 1 0 0 0 .848-.755 22.842 22.842 0 0 1 2.67-6.454 1 1 0 0 0 -.065-1.133l-2.976-3.829 5.822-5.822 3.826 2.976a1 1 0 0 0 1.134.065 22.817 22.817 0 0 1 6.454-2.67 1 1 0 0 0 .755-.848l.602-4.813h8.234l.6 4.813a1 1 0 0 0 .755.848 22.817 22.817 0 0 1 6.454 2.67 1 1 0 0 0 1.134-.065l3.828-2.976 5.822 5.822-2.976 3.827a1 1 0 0 0 -.065 1.133 22.842 22.842 0 0 1 2.67 6.454 1 1 0 0 0 .848.755l4.813.6z"/><path d="m31 10h2v2h-2z"/><path d="m45.849 16.151h2v2h-2z" transform="matrix(.707 -.707 .707 .707 1.594 38.151)"/><path d="m52 31h2v2h-2z"/><path d="m45.849 45.849h2v2h-2z" transform="matrix(.707 -.707 .707 .707 -19.406 46.849)"/><path d="m31 52h2v2h-2z"/><path d="m16.151 45.849h2v2h-2z" transform="matrix(.707 -.707 .707 .707 -28.104 25.849)"/><path d="m10 31h2v2h-2z"/><path d="m16.151 16.151h2v2h-2z" transform="matrix(.707 -.707 .707 .707 -7.104 17.151)"/><path d="m32 14a18 18 0 1 0 18 18 18.021 18.021 0 0 0 -18-18zm0 34a16 16 0 1 1 16-16 16.019 16.019 0 0 1 -16 16z"/></g></svg>