<svg height="512" viewBox="0 0 64 64" width="512" xmlns="http://www.w3.org/2000/svg"><g id="Navigator-2" data-name="Navigator"><path d="m36 50h-8a1 1 0 0 0 -1 1v4a1 1 0 0 0 1 1h8a1 1 0 0 0 1-1v-4a1 1 0 0 0 -1-1zm-1 4h-6v-2h6z"/><path d="m44 50h-4a1 1 0 0 0 -1 1v4a1 1 0 0 0 1 1h4a1 1 0 0 0 1-1v-4a1 1 0 0 0 -1-1zm-1 4h-2v-2h2z"/><path d="m52 50h-4a1 1 0 0 0 -1 1v4a1 1 0 0 0 1 1h4a1 1 0 0 0 1-1v-4a1 1 0 0 0 -1-1zm-1 4h-2v-2h2z"/><path d="m24 50h-4a1 1 0 0 0 -1 1v4a1 1 0 0 0 1 1h4a1 1 0 0 0 1-1v-4a1 1 0 0 0 -1-1zm-1 4h-2v-2h2z"/><path d="m16 50h-4a1 1 0 0 0 -1 1v4a1 1 0 0 0 1 1h4a1 1 0 0 0 1-1v-4a1 1 0 0 0 -1-1zm-1 4h-2v-2h2z"/><path d="m59 6h-13.111a6.976 6.976 0 0 0 -9.778 0h-31.111a3 3 0 0 0 -3 3v48a3 3 0 0 0 3 3h54a3 3 0 0 0 3-3v-48a3 3 0 0 0 -3-3zm-3 6v10h-28v-10h6.141c.848 3.476 5.648 7.323 6.244 7.788a1 1 0 0 0 1.23 0c.6-.465 5.4-4.312 6.244-7.788zm0 18h-11a1 1 0 0 0 -1 1v15h-6v-15a1 1 0 0 0 -1-1h-10a1 1 0 0 0 -1 1v15h-6v-15a1 1 0 0 0 -1-1h-11v-6h11a1 1 0 0 0 1-1v-11h6v11a1 1 0 0 0 1 1h29zm0 2v14h-10v-14zm-20 14h-8v-14h8zm-28-14h10v14h-10zm0-10v-10h10v10zm33-16a5.006 5.006 0 0 1 5 5c0 1.869-2.851 4.9-5 6.711-2.149-1.811-5-4.842-5-6.711a5.006 5.006 0 0 1 5-5zm19 51a1 1 0 0 1 -1 1h-54a1 1 0 0 1 -1-1v-48a1 1 0 0 1 1-1h29.685a6.937 6.937 0 0 0 -.605 2h-26.08a2 2 0 0 0 -2 2v34a2 2 0 0 0 2 2h48a2 2 0 0 0 2-2v-34a2 2 0 0 0 -2-2h-8.08a6.937 6.937 0 0 0 -.605-2h11.685a1 1 0 0 1 1 1z"/><path d="m15 26h4v2h-4z"/><path d="m11 26h2v2h-2z"/><path d="m22 19h2v4h-2z"/><path d="m22 15h2v2h-2z"/><path d="m22 31h2v4h-2z"/><path d="m22 37h2v4h-2z"/><path d="m27 26h4v2h-4z"/><path d="m33 26h4v2h-4z"/><path d="m39 26h4v2h-4z"/><path d="m45 26h4v2h-4z"/><path d="m40 31h2v4h-2z"/><path d="m40 37h2v4h-2z"/><path d="m41 14a3 3 0 1 0 -3-3 3 3 0 0 0 3 3zm0-4a1 1 0 1 1 -1 1 1 1 0 0 1 1-1z"/></g></svg>