<svg height="512" viewBox="0 0 64 64" width="512" xmlns="http://www.w3.org/2000/svg"><path d="m57 10h-50a5.006 5.006 0 0 0 -5 5v34a5.006 5.006 0 0 0 5 5h50a5.006 5.006 0 0 0 5-5v-34a5.006 5.006 0 0 0 -5-5zm3 39a3 3 0 0 1 -3 3h-50a3 3 0 0 1 -3-3v-34a3 3 0 0 1 3-3h50a3 3 0 0 1 3 3z"/><path d="m57 14h-50a1 1 0 0 0 -1 1v34a1 1 0 0 0 1 1h50a1 1 0 0 0 1-1v-34a1 1 0 0 0 -1-1zm-49 2h23v32h-23zm48 32h-23v-32h23z"/><path d="m25.8 35.4-6-8a1.036 1.036 0 0 0 -1.6 0l-6 8a1 1 0 0 0 .8 1.6h2v7a1 1 0 0 0 1 1h6a1 1 0 0 0 1-1v-7h2a1 1 0 0 0 .8-1.6zm-3.8-.4a1 1 0 0 0 -1 1v7h-4v-7a1 1 0 0 0 -1-1h-1l4-5.333 4 5.333z"/><path d="m13 23h4v2h-4z"/><path d="m13 19h4v2h-4z"/><path d="m21 23h4v2h-4z"/><path d="m21 19h4v2h-4z"/><path d="m37 39.816v2.184h2v-2.184a3 3 0 1 0 -2 0zm1-3.816a1 1 0 1 1 -1 1 1 1 0 0 1 1-1z"/><path d="m50 23.816v2.184h2v-2.184a3 3 0 1 0 -2 0zm1-3.816a1 1 0 1 1 -1 1 1 1 0 0 1 1-1z"/><path d="m46 38h1a3 3 0 0 1 0 6h-10v2h10a5 5 0 0 0 0-10h-1a2 2 0 0 1 0-4h3a3 3 0 0 0 3-3v-1h-2v1a1 1 0 0 1 -1 1h-3a4 4 0 0 0 0 8z"/></svg>