<svg height="512" viewBox="0 0 64 64" width="512" xmlns="http://www.w3.org/2000/svg"><path d="m38.8 38.4a1 1 0 0 0 -.8-.4h-12a1 1 0 0 0 -.8.4l-3 4a1 1 0 0 0 -.2.6v15a2 2 0 0 0 2 2h16a2 2 0 0 0 2-2v-15a1 1 0 0 0 -.2-.6zm-12.3 1.6h11l1.5 2h-14zm2.5 6h-5v-2h5zm2-2h2v4.586l-.293-.293a1 1 0 0 0 -1.414 0l-.293.293zm4 0h5v2h-5zm-11 14v-10h5v3a1 1 0 0 0 1.707.707l1.293-1.293 1.293 1.293a1 1 0 0 0 1.707-.707v-3h5v10z"/><path d="m62 23v-16a5.006 5.006 0 0 0 -5-5h-24a5.006 5.006 0 0 0 -5 5v4h-3a19.021 19.021 0 0 0 -19 19v11.1a5.009 5.009 0 0 0 -4 4.9v6a5.006 5.006 0 0 0 5 5h1.09a6 6 0 0 0 11.91-1v-14a5.984 5.984 0 0 0 -8-5.65v-6.35a13.015 13.015 0 0 1 13-13h3v6a5.006 5.006 0 0 0 5 5h5v7a1 1 0 0 0 .684.949 1.019 1.019 0 0 0 .316.051 1 1 0 0 0 .8-.4l5.7-7.6h6.329a13.136 13.136 0 0 1 .171 2v6.35a5.984 5.984 0 0 0 -8 5.65v14a6 6 0 0 0 11.91 1h1.09a5.006 5.006 0 0 0 5-5v-6a5.009 5.009 0 0 0 -4-4.9v-11.1a18.584 18.584 0 0 0 -.134-2.088 5 5 0 0 0 4.134-4.912zm-58 29v-6a3 3 0 0 1 3-3h1v12h-1a3 3 0 0 1 -3-3zm14-10v14a4 4 0 0 1 -8 0v-14a4 4 0 0 1 8 0zm7-27a15.017 15.017 0 0 0 -15 15v7.54a6 6 0 0 0 -1.91 3.46h-.09v-11a17.019 17.019 0 0 1 17-17h3v2zm29 41a4 4 0 0 1 -8 0v-14a4 4 0 0 1 8 0zm0-18.46v-7.54a15.2 15.2 0 0 0 -.148-2h2.011a16.634 16.634 0 0 1 .137 2v11h-.09a6 6 0 0 0 -1.91-3.46zm6 8.46v6a3 3 0 0 1 -3 3h-1v-12h1a3 3 0 0 1 3 3zm0-23a3 3 0 0 1 -3 3h-12a1 1 0 0 0 -.8.4l-4.2 5.6v-5a1 1 0 0 0 -1-1h-6a3 3 0 0 1 -3-3v-16a3 3 0 0 1 3-3h24a3 3 0 0 1 3 3z"/><path d="m34 8h2v2h-2z"/><path d="m38 8h2v2h-2z"/><path d="m42 8h14v2h-14z"/><path d="m34 12h14v2h-14z"/><path d="m50 12h2v2h-2z"/><path d="m54 12h2v2h-2z"/><path d="m34 16h22v2h-22z"/><path d="m34 20h8v2h-8z"/><path d="m44 20h2v2h-2z"/><path d="m48 20h2v2h-2z"/><path d="m52 20h4v2h-4z"/></svg>