<?xml version="1.0"?>
<svg xmlns="http://www.w3.org/2000/svg" viewBox="0 0 64 64" width="512" height="512"><g id="Thief"><rect x="44" y="35" width="2" height="2"/><rect x="52" y="35" width="2" height="2"/><path d="M61.843,53.524a8.978,8.978,0,0,0-2-4.173,8.823,8.823,0,0,0-3.185-2.375L53,45.351V43.918A8,8,0,0,0,57,37V33a7.939,7.939,0,0,0-1-3.864V14a1,1,0,0,0-.122-.479L50.447,3.56A3.006,3.006,0,0,0,47.81,2H10.19A3,3,0,0,0,7.552,3.562l-5.43,9.959A1,1,0,0,0,2,14V59a3,3,0,0,0,3,3H61a1,1,0,0,0,1-1V55.2A9.194,9.194,0,0,0,61.843,53.524ZM39.089,51.458C41.259,53.044,44.911,54,49,54s7.741-.956,9.911-2.542a6.976,6.976,0,0,1,.81,1.828C57.281,54.965,53.266,56,49,56s-8.281-1.035-10.721-2.714A7.009,7.009,0,0,1,39.089,51.458Zm16.76-2.652A6.748,6.748,0,0,1,57.6,49.934C55.782,51.191,52.507,52,49,52s-6.782-.809-8.6-2.066a6.767,6.767,0,0,1,1.759-1.13l3.116-1.386a3.982,3.982,0,0,0,7.456,0ZM51,46a2,2,0,0,1-4,0V44.737a7.736,7.736,0,0,0,4,0Zm-2-3a5.983,5.983,0,0,1-4.46-2H47a1,1,0,0,0,.9-.553L48.618,39h.764l.723,1.447A1,1,0,0,0,51,41h2.46A5.983,5.983,0,0,1,49,43Zm-1-9a1,1,0,0,0,.447-.1L51.8,32.217l1.49,1.49A1,1,0,0,0,54,34h1v3a5.976,5.976,0,0,1-.35,2H51.618L50.9,37.553A1,1,0,0,0,50,37H48a1,1,0,0,0-.9.553L46.382,39H43.35A5.976,5.976,0,0,1,43,37V34Zm-4.91-2a5.993,5.993,0,0,1,11.82,0h-.5l-1.707-1.707a1,1,0,0,0-1.154-.188L47.764,32ZM22,21H4V15H22Zm2-6H34V30.132l-4.445-2.964a1,1,0,0,0-1.11,0L24,30.132Zm12,0H54v6H36ZM9.308,4.52A1.016,1.016,0,0,1,10.19,4H47.81a1.016,1.016,0,0,1,.882.519L53.316,13H4.684ZM4,59V23H22v9a1,1,0,0,0,1.555.832L29,29.2l5.445,3.63A1,1,0,0,0,36,32V23H54v3.765A7.991,7.991,0,0,0,41,33v4a8,8,0,0,0,4,6.918v1.433l-3.651,1.623a8.82,8.82,0,0,0-3.188,2.375,8.984,8.984,0,0,0-2.005,4.18A9.185,9.185,0,0,0,36,55.2V60H5A1,1,0,0,1,4,59Zm34,1V55.473A22.793,22.793,0,0,0,49,58a22.793,22.793,0,0,0,11-2.527V60Z"/></g></svg>
