<?xml version="1.0"?>
<svg xmlns="http://www.w3.org/2000/svg" viewBox="0 0 64 64" width="512" height="512"><g id="Point-2" data-name="Point"><path d="M60.615,40.9a4.027,4.027,0,0,0-5.465-1.464L46.634,44.35A4,4,0,0,0,43,42H31.162l-3.69-1.23A14.977,14.977,0,0,0,22.729,40h-.851a15,15,0,0,0-7.718,2.138L12.723,43H12a1,1,0,0,0-1-1H3a1,1,0,0,0-1,1V57a1,1,0,0,0,1,1h8a1,1,0,0,0,1-1h7.531a6.986,6.986,0,0,1,.818.048l11.921,1.4a14.717,14.717,0,0,0,1.729.1,15.1,15.1,0,0,0,7.523-2.008L59.15,46.366a3.962,3.962,0,0,0,2-3.466A4.03,4.03,0,0,0,60.615,40.9ZM10,56H4V44h6ZM58.15,44.634,40.522,54.812A13.081,13.081,0,0,1,32.5,56.464l-11.921-1.4A9.026,9.026,0,0,0,19.531,55H12V45h1a1,1,0,0,0,.515-.143l1.674-1A13,13,0,0,1,21.878,42h.851a12.993,12.993,0,0,1,4.11.667l3.845,1.282A1,1,0,0,0,31,44H43a2,2,0,0,1,0,4H28v2H43a3.992,3.992,0,0,0,3.952-3.525l9.194-5.306a2,2,0,0,1,3,1.731A1.983,1.983,0,0,1,58.15,44.634Z"/><path d="M31.4,37.8a1,1,0,0,0,1.2,0C33.106,37.42,45,28.392,45,19a13,13,0,0,0-26,0C19,28.392,30.894,37.42,31.4,37.8ZM32,8A11.013,11.013,0,0,1,43,19c0,7.271-8.623,14.791-11,16.725C29.621,33.792,21,26.281,21,19A11.013,11.013,0,0,1,32,8Z"/><path d="M38,19a6,6,0,1,0-6,6A6.006,6.006,0,0,0,38,19ZM28,19a4,4,0,1,1,4,4A4,4,0,0,1,28,19Z"/></g></svg>
