<svg id="Time" height="512" viewBox="0 0 64 64" width="512" xmlns="http://www.w3.org/2000/svg"><path d="m29 10h2v2h-2z"/><path d="m15.565 15.564h2v2.001h-2z" transform="matrix(.707 -.707 .707 .707 -6.861 16.565)"/><path d="m10 29h2v2h-2z"/><path d="m15.564 42.435h2.001v2h-2.001z" transform="matrix(.707 -.707 .707 .707 -25.861 24.435)"/><path d="m29 48h2v2h-2z"/><path d="m48 29h2v2h-2z"/><path d="m42.434 15.565h2.001v2h-2.001z" transform="matrix(.707 -.707 .707 .707 1.009 35.565)"/><path d="m31 26.758v-11.758h-2v11.758l-2.242 2.242h-9.758v2h9.758l2.535 2.535a1 1 0 0 0 1.414 0l2.828-2.828a1 1 0 0 0 0-1.414zm-1 4.656-1.414-1.414 1.414-1.414 1.414 1.414z"/><path d="m61.832 38.445-3.957-5.935c.076-.84.125-1.682.125-2.51a28 28 0 1 0 -28 28c.661 0 1.33-.033 2-.082v1.082a3 3 0 0 0 3 3h24a3 3 0 0 0 3-3v-20a1.006 1.006 0 0 0 -.168-.555zm-18.832 4.555h-9v-3h9zm8.9-11h-14.9a1 1 0 0 0 -.832.445l-4 6a1.006 1.006 0 0 0 -.168.555v12.9c-.671.062-1.341.1-2 .1a22 22 0 1 1 22-22c0 .659-.043 1.329-.1 2zm-6.9 8h4v7.132l-1.445-.964a1 1 0 0 0 -1.11 0l-1.445.964zm6 0h9v3h-9zm-16.132-2 2.667-4h18.93l2.667 4zm-4.868 18a26 26 0 1 1 26-26c0 .66-.036 1.33-.089 2h-2.011c.057-.671.1-1.34.1-2a24 24 0 1 0 -24 24c.66 0 1.329-.039 2-.1v2.007c-.67.057-1.34.093-2 .093zm29 4h-24a1 1 0 0 1 -1-1v-14h9v4a1 1 0 0 0 1.555.832l2.445-1.632 2.445 1.63a1 1 0 0 0 1.555-.83v-4h9v14a1 1 0 0 1 -1 1z"/></svg>