<?xml version="1.0"?>
<svg xmlns="http://www.w3.org/2000/svg" viewBox="0 0 64 64" width="512" height="512"><g id="Point"><path d="M51,19.417V17.411A8.005,8.005,0,1,0,40.181,11.68,25.726,25.726,0,0,0,31,10a26.19,26.19,0,0,0-4.157.332,25.246,25.246,0,0,0-6.18,1.811,25.991,25.991,0,0,0-9.538,40.61,25.66,25.66,0,0,0,17.784,9.153C29.6,61.968,30.3,62,31,62s1.405-.032,2.078-.093A25.969,25.969,0,0,0,51,19.417Zm-4-1.486a7.281,7.281,0,0,0,2,0V28a1,1,0,0,1-2,0ZM48,4a6,6,0,1,1-6,6A6.006,6.006,0,0,1,48,4ZM7,36A23.979,23.979,0,0,1,20.853,14.267L23,16.414v3.172l-3.707,3.707A1,1,0,0,0,19,24v3.586L15.586,31H13a1,1,0,0,0-1,1v3a1,1,0,0,0,.293.707L17,40.414v2.172l-2.707,2.707A1,1,0,0,0,14,46v2.586L11.986,50.6A23.962,23.962,0,0,1,7,36Zm6.262,16.152,2.445-2.445A1,1,0,0,0,16,49V46.414l2.707-2.707A1,1,0,0,0,19,43V40a1,1,0,0,0-.293-.707L14,34.586V33h2a1,1,0,0,0,.707-.293l4-4A1,1,0,0,0,21,28V24.414l3.707-3.707A1,1,0,0,0,25,20V16a1,1,0,0,0-.293-.707l-1.869-1.869A23.408,23.408,0,0,1,26,12.529V17a1,1,0,0,0,.293.707l4,4A1,1,0,0,0,31,22h4.586L40,26.414v5.172l-1.707,1.707A1,1,0,0,0,38,34v4a1,1,0,0,0,.293.707L42,42.414V47a1,1,0,0,0,.293.707L47,52.414V53.87a23.954,23.954,0,0,1-13,5.912V58.414l2.707-2.707A1,1,0,0,0,37,55V51.414l1.707-1.707A1,1,0,0,0,39,49V45a1,1,0,0,0-.293-.707l-5-5A1,1,0,0,0,33,39H25a1,1,0,0,0-.707.293l-4,4A1,1,0,0,0,20,44v3a1,1,0,0,0,.293.707l2,2A1,1,0,0,0,23,50h3v3a1,1,0,0,0,.293.707L28,55.414V59.8A23.643,23.643,0,0,1,13.262,52.152ZM30,59.955V55a1,1,0,0,0-.293-.707L28,52.586V49a1,1,0,0,0-1-1H23.414L22,46.586V44.414L25.414,41h7.172L37,45.414v3.172l-1.707,1.707A1,1,0,0,0,35,51v3.586l-2.707,2.707A1,1,0,0,0,32,58v1.955C31.336,59.986,30.671,59.986,30,59.955Zm18.979-8.062a.993.993,0,0,0-.272-.6L44,46.586V42a1,1,0,0,0-.293-.707L40,37.586V34.414l1.707-1.707A1,1,0,0,0,42,32V26a1,1,0,0,0-.293-.707l-5-5A1,1,0,0,0,36,20H31.414L28,16.586v-4.38A24.241,24.241,0,0,1,31,12a23.721,23.721,0,0,1,10.275,2.317A8.044,8.044,0,0,0,45,17.411V28a3,3,0,0,0,6,0V22.776a23.93,23.93,0,0,1-2.021,29.117Z"/><path d="M30,30.414V34a1,1,0,0,0,1,1h2a1,1,0,0,0,.707-.293l2-2A1,1,0,0,0,36,32V26a1,1,0,0,0-1-1H29a1,1,0,0,0-1,1v2a1,1,0,0,0,.293.707ZM30,27h4v4.586L32.586,33H32V30a1,1,0,0,0-.293-.707L30,27.586Z"/><path d="M48,13a3,3,0,1,0-3-3A3,3,0,0,0,48,13Zm0-4a1,1,0,1,1-1,1A1,1,0,0,1,48,9Z"/></g></svg>
