<svg height="512" viewBox="0 0 64 64" width="512" xmlns="http://www.w3.org/2000/svg"><path d="m42 37h4v2h-4z"/><path d="m13 49h2v2h-2z"/><path d="m48 49h2v2h-2z"/><path d="m61.31 32.574-4.864-9a2.99 2.99 0 0 0 -2.5-1.553 13.008 13.008 0 0 0 -12.946-12.021h-1v-1a1 1 0 0 0 -1-1h-36a1 1 0 0 0 -1 1v40a2 2 0 0 0 2 2h4.09a5.993 5.993 0 0 0 11.82 0h23.18a5.993 5.993 0 0 0 11.82 0h4.09a3 3 0 0 0 3-3v-12.892a4.959 4.959 0 0 0 -.69-2.534zm-6.623-8.05 4.58 8.476h-15.267v-9h9.808a1 1 0 0 1 .879.524zm-13.687-12.524a11.01 11.01 0 0 1 10.949 10h-11.949v-10zm-37-2h34v30h-34zm10 44a4 4 0 1 1 4-4 4 4 0 0 1 -4 4zm0-10a6.006 6.006 0 0 0 -5.91 5h-4.09v-7h34v7h-18.09a6.006 6.006 0 0 0 -5.91-5zm35 10a4 4 0 1 1 4-4 4 4 0 0 1 -4 4zm10-5h-4.09a5.993 5.993 0 0 0 -11.82 0h-3.09v-25h2v10a1 1 0 0 0 1 1h16.985c0 .037.015.072.015.108v1.892h-4a2 2 0 0 0 -2 2v2a2 2 0 0 0 2 2h4v2h-3v2h3v1a1 1 0 0 1 -1 1zm1-10v2h-4v-2z"/><path d="m30.406 17.086-9-4a1 1 0 0 0 -.812 0l-9 4a1 1 0 0 0 -.594.914v5.939a13.006 13.006 0 0 0 6.687 11.361l2.828 1.571a1 1 0 0 0 .97 0l2.828-1.571a13.008 13.008 0 0 0 6.687-11.361v-5.939a1 1 0 0 0 -.594-.914zm-1.406 6.853a11.007 11.007 0 0 1 -5.657 9.616l-2.343 1.301-2.343-1.3a11.007 11.007 0 0 1 -5.657-9.617v-5.29l8-3.549 8 3.554z"/><path d="m17.707 23.293-1.414 1.414 3 3a1 1 0 0 0 1.414 0l5-5-1.414-1.414-4.293 4.293z"/></svg>