<svg height="512" viewBox="0 0 64 64" width="512" xmlns="http://www.w3.org/2000/svg"><g id="Route-2" data-name="Route"><path d="m15 56a1 1 0 0 0 .6-.2c.506-.38 12.4-9.408 12.4-18.8a13 13 0 0 0 -26 0c0 9.392 11.894 18.42 12.4 18.8a1 1 0 0 0 .6.2zm-11-19a11 11 0 0 1 22 0c0 7.271-8.623 14.791-11 16.725-2.378-1.933-11-9.444-11-16.725z"/><path d="m21 37a6 6 0 1 0 -6 6 6.006 6.006 0 0 0 6-6zm-10 0a4 4 0 1 1 4 4 4 4 0 0 1 -4-4z"/><path d="m49 2a13.015 13.015 0 0 0 -13 13c0 9.392 11.894 18.42 12.4 18.8a1 1 0 0 0 1.2 0c.506-.38 12.4-9.408 12.4-18.8a13.015 13.015 0 0 0 -13-13zm0 29.725c-2.378-1.933-11-9.444-11-16.725a11 11 0 0 1 22 0c0 7.271-8.623 14.791-11 16.725z"/><path d="m49 9a6 6 0 1 0 6 6 6.006 6.006 0 0 0 -6-6zm0 10a4 4 0 1 1 4-4 4 4 0 0 1 -4 4z"/><path d="m48 57a3 3 0 0 1 -3 3h-29v-2h-2v2a2 2 0 0 0 2 2h29a5.006 5.006 0 0 0 5-5v-21h-2z"/></g></svg>