<svg height="512" viewBox="0 0 64 64" width="512" xmlns="http://www.w3.org/2000/svg"><path d="m61.955 56.7-10-32a1 1 0 0 0 -.955-.7h-29v-3.589a8 8 0 1 0 -6 0v3.589h-3a1 1 0 0 0 -.955.7l-10 32a1 1 0 0 0 .955 1.3h58a1 1 0 0 0 .955-1.3zm-48.955-43.7a6 6 0 1 1 6 6 6.006 6.006 0 0 1 -6-6zm6 8a8.047 8.047 0 0 0 1-.069v10.069a1 1 0 0 1 -2 0v-10.069a8.047 8.047 0 0 0 1 .069zm-14.64 35 9.375-30h2.265v5a3 3 0 0 0 6 0v-5h28.265l9.375 30z"/><path d="m47 38a3.992 3.992 0 0 0 -1 7.858v4.142h2v-4.142a3.992 3.992 0 0 0 -1-7.858zm0 6a2 2 0 1 1 2-2 2 2 0 0 1 -2 2z"/><path d="m46 52h2v2h-2z"/><path d="m42 52h2v2h-2z"/><path d="m38 52h2v2h-2z"/><path d="m17 44h18a4 4 0 0 0 0-8h-9v2h9a2 2 0 0 1 0 4h-18a6 6 0 0 0 0 12h19v-2h-19a4 4 0 0 1 0-8z"/><path d="m22 36h2v2h-2z"/><path d="m18 36h2v2h-2z"/><path d="m22 13a3 3 0 1 0 -3 3 3 3 0 0 0 3-3zm-4 0a1 1 0 1 1 1 1 1 1 0 0 1 -1-1z"/></svg>