<svg height="512" viewBox="0 0 64 64" width="512" xmlns="http://www.w3.org/2000/svg"><path d="m21 52h2v2h-2z"/><path d="m49 52h2v2h-2z"/><path d="m2 49h5v2h-5z"/><path d="m4 45h3v2h-3z"/><path d="m5 41h2v2h-2z"/><path d="m61.121 38.707-11.827-11.827a2.98 2.98 0 0 0 -2.124-.88h-10.17a2 2 0 0 0 -2 2v13h-23a2 2 0 0 0 -2 2v8a3 3 0 0 0 3 3h2.08a6.98 6.98 0 0 0 2.03 4h-15.11v2h48a7 7 0 0 0 6.92-6h2.08a3 3 0 0 0 3-3v-10.171a2.978 2.978 0 0 0 -.879-2.122zm-1.121 2.122v.171h-15v-9h6.586l8.121 8.121a1 1 0 0 1 .293.708zm-43 12.171a5 5 0 1 1 5 5 5.006 5.006 0 0 1 -5-5zm9.89 5a6.98 6.98 0 0 0 2.03-4h14.16a6.975 6.975 0 0 0 2.031 4zm23.11 0a5 5 0 1 1 5-5 5.006 5.006 0 0 1 -5 5zm9-6h-2.08a6.991 6.991 0 0 0 -13.84 0h-14.16a6.991 6.991 0 0 0 -13.84 0h-2.08a1 1 0 0 1 -1-1v-8h24a1 1 0 0 0 1-1v-14h10.17a1 1 0 0 1 .71.294l1.706 1.706h-4.586a2 2 0 0 0 -2 2v9a2 2 0 0 0 2 2h15v8a1 1 0 0 1 -1 1z"/><path d="m40 45h4v2h-4z"/><path d="m6 6h6v2h-6z"/><path d="m2 6h2v2h-2z"/><path d="m9 2h4v2h-4z"/><path d="m5 2h2v2h-2z"/><path d="m42 18h8v2h-8z"/><path d="m38 18h2v2h-2z"/><path d="m8 20c0 9.392 11.894 18.42 12.4 18.8a1 1 0 0 0 1.2 0c.506-.38 12.4-9.408 12.4-18.8a13 13 0 0 0 -26 0zm13-11a11.013 11.013 0 0 1 11 11c0 7.271-8.623 14.791-11 16.725-2.378-1.933-11-9.444-11-16.725a11.013 11.013 0 0 1 11-11z"/><path d="m21 26a6 6 0 1 0 -6-6 6.006 6.006 0 0 0 6 6zm0-10a4 4 0 1 1 -4 4 4 4 0 0 1 4-4z"/><path d="m40 14h4v2h-4z"/><path d="m36 14h2v2h-2z"/></svg>