<svg height="512" viewBox="0 0 64 64" width="512" xmlns="http://www.w3.org/2000/svg"><path d="m56 44.764v-18.827a12.991 12.991 0 1 0 -19.637-13.937h-25.363a3 3 0 0 0 -3 3v29.764l-5.895 11.789a1 1 0 0 0 -.105.447v3a2 2 0 0 0 2 2h56a2 2 0 0 0 2-2v-3a1 1 0 0 0 -.1-.447zm-15.382 11.236-1.718-3.447a1 1 0 0 0 -.9-.553h-12a1 1 0 0 0 -.895.553l-1.723 3.447h-18.764l5-10h44.764l5 10zm-2.236 0h-12.764l1-2h10.764zm10.618-52a11 11 0 1 1 -11 11 11.013 11.013 0 0 1 11-11zm-39 11a1 1 0 0 1 1-1h25.051c-.026.331-.051.662-.051 1a12.994 12.994 0 0 0 18 12v17h-44zm-6 45v-2h56v2z"/><path d="m10 52h2v2h-2z"/><path d="m14 52h2v2h-2z"/><path d="m48 52h2v2h-2z"/><path d="m52 52h2v2h-2z"/><path d="m15 48h2v2h-2z"/><path d="m11 48h2v2h-2z"/><path d="m19 48h2v2h-2z"/><path d="m23 48h2v2h-2z"/><path d="m27 48h2v2h-2z"/><path d="m31 48h2v2h-2z"/><path d="m35 48h2v2h-2z"/><path d="m39 48h2v2h-2z"/><path d="m43 48h2v2h-2z"/><path d="m47 48h2v2h-2z"/><path d="m51 48h2v2h-2z"/><path d="m18 52h4v2h-4z"/><path d="m42 52h4v2h-4z"/><path d="m32.8 18.4a1 1 0 0 0 -.8-.4h-14a1 1 0 0 0 -.8.4l-3 4a1 1 0 0 0 -.2.6v17a2 2 0 0 0 2 2h18a2 2 0 0 0 2-2v-17a1 1 0 0 0 -.2-.6zm-14.3 1.6h13l1.5 2h-16zm2.5 6h-5v-2h5zm2-2h4v5.131l-1.445-.963a1 1 0 0 0 -1.11 0l-1.445.963zm6 0h5v2h-5zm-13 16v-12h5v3a1 1 0 0 0 1.555.832l2.445-1.632 2.445 1.63a1 1 0 0 0 1.555-.83v-3h5v12z"/><path d="m48 18h-6v-1a1 1 0 0 1 1-1h3a2 2 0 0 0 2-2v-2a2 2 0 0 0 -2-2h-4a2 2 0 0 0 -2 2v1h2v-1h4v2h-3a3 3 0 0 0 -3 3v2a1 1 0 0 0 1 1h7z"/><path d="m51 16h3v4h2v-4h2v-2h-2v-4h-2v4h-2v-4h-2v5a1 1 0 0 0 1 1z"/><path d="m44 30h6v2h-6z"/><path d="m40 34h10v2h-10z"/><path d="m40 38h10v2h-10z"/><path d="m40 30h2v2h-2z"/></svg>