<?xml version="1.0" encoding="iso-8859-1"?>
<!-- Generator: Adobe Illustrator 18.0.0, SVG Export Plug-In . SVG Version: 6.00 Build 0)  -->
<!DOCTYPE svg PUBLIC "-//W3C//DTD SVG 1.1//EN" "http://www.w3.org/Graphics/SVG/1.1/DTD/svg11.dtd">
<svg version="1.1" id="Capa_1" xmlns="http://www.w3.org/2000/svg" xmlns:xlink="http://www.w3.org/1999/xlink" x="0px" y="0px"
	 viewBox="0 0 442.187 442.187" style="enable-background:new 0 0 442.187 442.187;" xml:space="preserve">
<g>
	<polygon points="331.827,262.925 331.843,250.171 322.324,255.648 322.322,255.65 322.308,268.436 311.243,274.843 
		311.257,285.824 322.295,279.434 322.281,292.187 331.797,286.709 331.813,273.924 342.878,267.519 342.88,267.516 
		342.864,256.534 	"/>
	<path d="M442.186,112.329c-0.001-1.428-0.762-2.747-1.999-3.46l-141.071-81.46c-1.234-0.713-2.754-0.715-3.99-0.006l-145.865,83.65
		l-1.562-0.902c-0.597-0.36-3.497-0.37-4.083-0.027l-32.19,18.597c-1.237,0.714-1.999,2.035-1.999,3.464
		c0,0.244,0.073,1.668,0.073,1.668l-44.403,25.459c-0.597,0.343-1.081,0.828-1.426,1.397l-0.028-0.017l-45.111,76.776l-17.915,28.42
		C0.214,266.527,0,267.267,0,268.021v61.783c0,1.429,0.762,2.749,1.999,3.463l141.075,81.511c0.619,0.358,1.31,0.537,2.001,0.537
		c0.671,0,1.341-0.172,1.946-0.51l0.002,0.003l38.608-21.533c1.692,7.755,5.684,13.725,11.615,17.149
		c3.47,2.004,7.361,3.001,11.508,3.001c4.979,0,10.328-1.439,15.753-4.303c9.34-4.931,17.926-13.606,24.174-24.429
		c6.109-10.581,9.315-22.067,9.082-32.438l97.673-55.641c1.81,7.265,5.714,12.863,11.386,16.138
		c3.551,2.05,7.485,3.024,11.603,3.024c13.723,0,29.48-10.827,39.833-28.756c6.041-10.464,9.057-21.308,9.165-30.89l12.893-8.106
		c1.165-0.732,1.871-2.011,1.871-3.386L442.186,112.329z M145.635,118.196l47.489,27.422l-24.209,13.98l-47.49-27.416
		L145.635,118.196z M117.5,139.153l45.856,26.473v9.284L117.5,148.437V139.153z M171.356,170.245l45.23,26.112v9.284l-45.23-26.112
		V170.245z M224.587,196.356l24.276-14.017v9.368l-24.276,14.017V196.356z M220.587,189.428l-43.671-25.212l24.208-13.98
		l43.668,25.215L220.587,189.428z M109.5,143.074v7.672c0,1.429,0.762,2.75,2,3.464l107.16,61.864c0.619,0.357,1.31,0.536,2,0.536
		s1.381-0.179,2-0.536l32.203-18.595c1.238-0.714,2-2.035,2-3.464l-0.082-18.706c-0.049-1.374-0.794-2.631-1.991-3.322
		l-97.516-56.309l139.835-80.192l133.057,76.833L208.173,239.617L75.107,162.793L109.5,143.074z M161.585,315.61L27.438,238.101
		l30.714-52.273l134.148,77.509L161.585,315.61z M196.352,256.439L62.204,178.931l6.295-10.714l134.174,77.463L196.352,256.439z
		 M23.279,244.938l134.143,77.506l-13.679,21.7L9.6,266.638L23.279,244.938z M184.718,384.625l-35.643,19.879v-9.65l36.92-21.9
		C185.136,376.92,184.7,380.842,184.718,384.625z M31.59,288.582v15.536L8,290.488v-15.536L31.59,288.582z M141.075,367.377
		l-24.888-14.38v-15.536l24.888,14.38V367.377z M108.187,348.374L39.59,308.74v-15.536l68.597,39.634V348.374z M8,299.727
		l133.075,76.888v9.728L8,309.455V299.727z M8,327.496v-8.802l133.075,76.888v8.802L8,327.496z M241.753,380.694
		c-5.505,9.534-12.956,17.118-20.981,21.354c-7.422,3.919-14.357,4.433-19.526,1.448c-5.169-2.984-8.19-9.247-8.508-17.634
		c-0.344-9.068,2.499-19.313,8.003-28.848c5.505-9.535,12.956-17.118,20.981-21.354c4.239-2.238,8.318-3.365,12-3.365
		c2.766,0,5.309,0.637,7.526,1.917c5.169,2.984,8.19,9.247,8.508,17.634C250.1,360.915,247.258,371.16,241.753,380.694z
		 M354.312,288.048l-97.616,55.608c-1.784-7.38-5.715-13.062-11.448-16.372c-7.636-4.41-17.318-3.947-27.261,1.302
		c-9.34,4.931-17.926,13.606-24.174,24.429h0c-1.605,2.78-3.007,5.623-4.202,8.492l-40.536,24.045v-34.865l17.332-27.495
		c0.022-0.035,0.044-0.07,0.065-0.106l44.602-75.91l223.113-127.939v103.996l-15.682,9.053c-1.125-1.004-2.347-1.905-3.681-2.675
		c-15.384-8.881-37.977,2.421-51.435,25.731h0C357.227,266.015,354.017,277.608,354.312,288.048z M411.33,283.021
		c-10.843,18.778-29.394,29.222-40.507,22.803c-5.169-2.984-8.191-9.247-8.509-17.634c-0.344-9.068,2.499-19.313,8.003-28.848h0
		c10.842-18.778,29.392-29.22,40.507-22.804C421.939,242.957,422.171,264.243,411.33,283.021z M426.605,247.195
		c-0.65-3.12-1.688-5.996-3.097-8.559l10.679-6.165v9.957L426.605,247.195z"/>
	<path d="M402.789,250.456c-2.032-1.174-6.386-2.457-12.718,2.133c-3.784,2.742-7.485,7.054-10.422,12.141
		c-7.856,13.606-6.345,23.971-0.792,27.177c0.938,0.542,2.37,1.106,4.263,1.106c2.209,0,5.045-0.769,8.455-3.24
		c3.784-2.743,7.485-7.054,10.422-12.141c2.938-5.087,4.821-10.448,5.304-15.096C408.109,254.758,404.821,251.629,402.789,250.456z
		 M399.343,261.71c-0.364,3.502-1.922,7.849-4.275,11.923c-2.352,4.075-5.337,7.597-8.188,9.664
		c-2.511,1.82-3.875,1.767-4.023,1.683c-1.057-0.61-1.42-7.345,3.72-16.25c0,0,0,0,0,0c2.352-4.075,5.336-7.597,8.188-9.663
		c2.014-1.459,3.292-1.715,3.794-1.715c0.124,0,0.2,0.015,0.229,0.032C398.937,257.47,399.664,258.628,399.343,261.71z"/>
	<path d="M233.213,348.129c-2.031-1.173-6.385-2.457-12.718,2.133c-3.784,2.742-7.485,7.054-10.422,12.141
		c-7.855,13.606-6.345,23.971-0.792,27.177c0.938,0.541,2.37,1.106,4.264,1.106c2.209,0,5.045-0.769,8.455-3.24
		c3.784-2.742,7.485-7.054,10.421-12.141c2.938-5.087,4.821-10.448,5.304-15.096C238.533,352.432,235.245,349.302,233.213,348.129z
		 M229.767,359.383c-0.364,3.502-1.922,7.848-4.275,11.923c-2.352,4.075-5.337,7.597-8.188,9.664
		c-2.511,1.82-3.874,1.767-4.023,1.683c-1.057-0.61-1.42-7.345,3.721-16.249c2.352-4.075,5.337-7.597,8.188-9.664
		c2.014-1.459,3.292-1.715,3.794-1.715c0.124,0,0.2,0.015,0.229,0.032C229.36,355.143,230.087,356.301,229.767,359.383z"/>
	<path d="M279.573,219.782c-1.234-0.715-2.756-0.718-3.995-0.009l-54.604,31.31c-0.816,0.468-1.442,1.209-1.766,2.093
		l-19.382,52.859c-0.58,1.581-0.107,3.354,1.181,4.438c0.738,0.621,1.654,0.939,2.575,0.939c0.687,0,1.377-0.177,2-0.536
		l73.986-42.722c1.238-0.714,2-2.035,2-3.464v-41.447C281.567,221.816,280.807,220.497,279.573,219.782z M273.567,262.381
		l-62.433,36.05l15.083-41.134l47.35-27.15V262.381z"/>
	<path d="M366.966,216.708c0.619,0.357,1.31,0.536,2,0.536s1.381-0.179,2-0.536l54.6-31.52c1.237-0.715,2-2.035,2-3.464v-41.45
		c0-1.427-0.76-2.746-1.995-3.461c-1.233-0.715-2.756-0.718-3.995-0.009l-54.6,31.31c-1.243,0.713-2.01,2.037-2.01,3.47v41.66
		C364.966,214.673,365.729,215.994,366.966,216.708z M372.966,173.901l46.6-26.722v32.235l-46.6,26.902V173.901z"/>
	<path d="M351.956,178.415c-1.234-0.716-2.757-0.72-3.995-0.009l-54.6,31.31c-1.244,0.713-2.01,2.037-2.01,3.47v41.66
		c0,1.429,0.762,2.75,2,3.464c0.619,0.357,1.31,0.536,2,0.536s1.381-0.179,2-0.536l54.6-31.52c1.237-0.715,2-2.035,2-3.464v-41.45
		C353.951,180.45,353.19,179.13,351.956,178.415z M345.951,221.017l-46.6,26.902v-32.415l46.6-26.723V221.017z"/>
</g>
<g>
</g>
<g>
</g>
<g>
</g>
<g>
</g>
<g>
</g>
<g>
</g>
<g>
</g>
<g>
</g>
<g>
</g>
<g>
</g>
<g>
</g>
<g>
</g>
<g>
</g>
<g>
</g>
<g>
</g>
</svg>
