<?xml version="1.0" encoding="iso-8859-1"?>
<!-- Generator: Adobe Illustrator 18.0.0, SVG Export Plug-In . SVG Version: 6.00 Build 0)  -->
<!DOCTYPE svg PUBLIC "-//W3C//DTD SVG 1.1//EN" "http://www.w3.org/Graphics/SVG/1.1/DTD/svg11.dtd">
<svg version="1.1" id="Capa_1" xmlns="http://www.w3.org/2000/svg" xmlns:xlink="http://www.w3.org/1999/xlink" x="0px" y="0px"
	 viewBox="0 0 458.643 458.643" style="enable-background:new 0 0 458.643 458.643;" xml:space="preserve">
<g>
	<path d="M264.06,347.9c-8.177-4.72-20.793,2.897-29.35,17.717c-8.557,14.82-8.844,29.556-0.669,34.276
		c1.632,0.942,3.44,1.393,5.358,1.393c7.692,0,17.143-7.247,23.991-19.109c3.771-6.529,6.092-13.446,6.538-19.478
		C270.452,355.643,268.368,350.387,264.06,347.9z M261.952,362.109c-0.354,4.783-2.354,10.64-5.488,16.067
		c-6.721,11.641-15.398,16.53-18.422,14.789c-3.021-1.745-3.123-11.709,3.597-23.349c5.839-10.112,13.154-15.133,16.956-15.133
		c0.574,0,1.069,0.115,1.466,0.344C261.498,355.658,262.222,358.448,261.952,362.109z"/>
	<path d="M422.726,249.234c-4.305-2.487-9.901-1.667-15.751,2.316c-4.999,3.401-9.828,8.87-13.599,15.4
		c-3.77,6.529-6.092,13.446-6.538,19.477c-0.521,7.057,1.563,12.313,5.87,14.799c1.632,0.942,3.44,1.393,5.358,1.393
		c7.691,0,17.142-7.247,23.99-19.109c3.771-6.529,6.093-13.446,6.539-19.477C429.118,256.977,427.034,251.721,422.726,249.234z
		 M420.618,263.442c-0.354,4.783-2.354,10.64-5.488,16.067c-6.721,11.639-15.401,16.532-18.421,14.789
		c-1.438-0.83-2.162-3.62-1.892-7.28c0.354-4.783,2.354-10.64,5.487-16.067c3.135-5.428,7.206-10.089,11.171-12.787
		c3.036-2.066,5.816-2.828,7.251-2.002C420.164,256.992,420.888,259.782,420.618,263.442z"/>
	<path d="M458.596,250.331c-0.591-15.573-6.682-27.479-17.149-33.522c-0.043-0.025-7.748-4.253-10.904-6.041l11.531-6.493
		c1.259-0.709,2.037-2.041,2.037-3.485v-57.183c0-1.053-0.415-2.063-1.154-2.812c0,0-38.577-39.049-38.876-39.24
		c-0.294-0.188-135.816-78.778-135.816-78.778c-1.236-0.718-2.762-0.722-4.004-0.008L114.98,108.673
		c-0.775,0.445-1.378,1.139-1.713,1.968l-25.192,62.313L1.292,234.95C0.468,235.708,0,236.775,0,237.894v58.01
		c0,1.429,0.762,2.75,2,3.464l27.222,15.715c-0.452,17.431,5.717,31.097,17.152,37.71c0.883,0.511,27.83,15.834,27.845,15.843
		c4.729,2.728,10.053,4.076,15.726,4.076c7.99,0,16.669-2.683,25.332-7.951l22.773,13.147c0.619,0.357,1.31,0.536,2,0.536
		s1.381-0.179,2-0.536c0.082-0.047,31.125-18.035,31.125-18.035c-6.842,25.046-1.503,47.476,14.3,56.612
		c0.905,0.523,20.268,11.815,27.968,15.9l0,0c4.696,2.682,9.966,4.022,15.594,4.022c6.897,0,14.33-2.006,21.89-5.996
		c13.181-6.958,25.312-19.229,34.158-34.553c8.848-15.324,13.409-31.966,12.845-46.858c-0.584-15.426-6.565-27.252-16.851-33.348
		c-0.099-0.059-12.09-6.697-17.042-9.556l64.05-37.042c-3.884,22.066,2.025,40.66,16.049,48.762
		c0.901,0.521,20.271,11.813,27.975,15.909l-0.002-0.006c4.697,2.683,9.966,4.023,15.595,4.023c6.896,0,14.33-2.007,21.89-5.997
		c13.181-6.958,25.312-19.229,34.159-34.553S459.161,265.225,458.596,250.331z M436.111,198.452l-8.666,4.879
		c-1.924-6.842-5.772-12.153-11.146-15.255c-7.636-4.411-17.317-3.949-27.263,1.298c-9.339,4.931-17.923,13.605-24.173,24.427
		c-5.867,10.167-9.058,21.131-9.104,31.161l-95.063,54.979c-1.945-6.702-5.762-11.914-11.06-14.975
		c-15.385-8.877-37.982,2.424-51.443,25.734c-1.18,2.044-2.246,4.124-3.206,6.222l-50.937,29.462v-27.881l85.054-60.636
		l202.599-117.079l4.408,4.461V198.452z M419.376,204.335c-0.684-0.399-4.769-2.786-5.779-3.368
		c-6.652-3.841-14.47-4.939-22.767-3.412c0.643-0.387,1.289-0.761,1.941-1.105c7.422-3.918,14.356-4.434,19.527-1.444
		C415.53,196.869,417.95,200.1,419.376,204.335z M24.36,303.038V291.08l95.087,55.299v11.553L24.36,303.038z M8,244.277
		l26.765,15.565v28.034L8,272.311V244.277z M42.765,292.529v-28.034l57.948,33.7v28.034L42.765,292.529z M108.713,330.881v-28.034
		l27.336,15.898v28.034L108.713,330.881z M144.05,355.628l46.814-27.078c-1.094,4.319-1.698,8.607-1.766,12.738l-45.048,26.356
		V355.628z M251.252,297.856c-11.304-4.539-25.344-1.962-38.71,6.532c10.642-11.999,24.231-17.61,33.094-12.493
		C247.944,293.228,249.838,295.261,251.252,297.856z M255.848,193.806l61.933-35.724v39.354l-82.751,47.861L255.848,193.806z
		 M425.892,134.907l-22.342,12.922l-9.064-33.993l6.745-3.891L425.892,134.907z M387.311,117.975l9.067,34.002l-70.596,40.831
		v-39.342L387.311,117.975z M266.247,30.857l127.598,74.113l-141.242,81.471l-128.155-73.988L266.247,30.857z M118.756,118.406
		l128.866,74.401l-22.499,55.646L96.289,173.98L118.756,118.406z M91.411,180.4l128.435,74.242l-80.017,57.045L11.749,237.202
		L91.411,180.4z M8,281.565l8.36,4.862v11.993L8,293.594V281.565z M50.38,345.867c-7.881-4.557-12.493-13.908-13.112-26.14
		l19.791,11.425c-0.174,7.647,0.938,14.559,3.211,20.468C57.866,350.229,51.27,346.383,50.38,345.867z M77.563,361.314
		c-7.426-4.646-11.792-13.733-12.44-25.506l42.076,24.29c-10.435,5.281-20.404,6.069-28.12,2.079
		C78.794,362.029,77.718,361.411,77.563,361.314z M127.447,362.549v-11.519l8.603,5.003v11.482L127.447,362.549z M191.479,409.558
		c-13.953-8.066-17.194-31.383-7.9-55.773l11.561-6.764c1.358-0.795,2.074-2.267,1.969-3.738c-0.17-5.428,0.805-11.274,2.797-17.132
		c16.475-19.403,37.386-27.462,51.034-19.583c0.992,0.571,8.163,4.756,9.344,5.44c-4.893,0.872-9.971,2.665-15.11,5.377
		c-13.181,6.958-25.312,19.229-34.159,34.553c-8.848,15.324-13.409,31.966-12.845,46.858c0.232,6.116,1.324,11.656,3.184,16.507
		C198.996,413.936,192.391,410.085,191.479,409.558z M291.935,349.301c0.508,13.406-3.675,28.52-11.778,42.556
		s-19.101,25.215-30.965,31.478c-11.263,5.944-21.871,6.675-29.871,2.057c-8-4.619-12.672-14.171-13.154-26.897
		c-0.508-13.407,3.674-28.52,11.778-42.556h0c8.103-14.035,19.101-25.215,30.965-31.478c6.374-3.364,12.537-5.059,18.138-5.059
		c4.102,0,7.898,0.92,11.256,2.748c0.176,0.095,0.353,0.191,0.529,0.286C286.8,327.066,291.454,336.602,291.935,349.301z
		 M350.138,310.887c-12.158-7.024-16.361-25.898-10.656-47.27l22.331-12.915c1.37-0.793,2.105-2.287,1.983-3.788
		c-0.41-9.132,2.427-19.466,7.995-29.113c1.013-1.754,2.093-3.441,3.229-5.055c12.815-8.374,25.389-10.155,34.578-4.851
		c1.001,0.577,7.3,4.257,9.351,5.446c-4.892,0.872-9.971,2.665-15.109,5.377c-13.18,6.958-25.311,19.229-34.158,34.553
		s-13.409,31.965-12.845,46.858c0.232,6.115,1.324,11.654,3.184,16.505C357.654,315.264,351.047,311.413,350.138,310.887z
		 M438.824,293.19c-16.394,28.394-43.684,43.439-60.837,33.535c-17.151-9.903-17.769-41.06-1.376-69.453
		c8.104-14.036,19.101-25.215,30.966-31.479c6.373-3.364,12.537-5.059,18.138-5.059c4.295,0,8.26,0.997,11.732,3.002
		c8,4.619,12.672,14.172,13.154,26.897C451.11,264.041,446.927,279.154,438.824,293.19z"/>
</g>
<g>
</g>
<g>
</g>
<g>
</g>
<g>
</g>
<g>
</g>
<g>
</g>
<g>
</g>
<g>
</g>
<g>
</g>
<g>
</g>
<g>
</g>
<g>
</g>
<g>
</g>
<g>
</g>
<g>
</g>
</svg>
