<?xml version="1.0" encoding="iso-8859-1"?>
<!-- Generator: Adobe Illustrator 18.0.0, SVG Export Plug-In . SVG Version: 6.00 Build 0)  -->
<!DOCTYPE svg PUBLIC "-//W3C//DTD SVG 1.1//EN" "http://www.w3.org/Graphics/SVG/1.1/DTD/svg11.dtd">
<svg version="1.1" id="Capa_1" xmlns="http://www.w3.org/2000/svg" xmlns:xlink="http://www.w3.org/1999/xlink" x="0px" y="0px"
	 viewBox="0 0 450.936 450.936" style="enable-background:new 0 0 450.936 450.936;" xml:space="preserve">
<g>
	<path d="M198.521,123.545l44.35,25.604c0.619,0.357,1.31,0.536,2,0.536c0.689,0,1.38-0.179,1.998-0.535L378.678,73.15
		c1.238-0.714,2.002-2.034,2.002-3.464s-0.762-2.75-2-3.465l-44.354-25.607c-1.237-0.715-2.761-0.714-3.998-0.001l-131.805,76.003
		c-1.238,0.714-2.002,2.034-2.002,3.464S197.283,122.83,198.521,123.545z M332.325,48.696l36.351,20.987l-123.804,71.383
		l-36.347-20.983L332.325,48.696z"/>
	<path d="M448.184,64.706L337.04,0.536c-1.237-0.715-2.761-0.714-3.998-0.001L2.755,190.991c-1.238,0.714-2.002,2.034-2.002,3.464
		c0,0.001,0,0.001,0,0.001l-0.005,0.001l0.005,82.952c0,1.43,0.763,2.75,2,3.464l49.681,28.682L2.75,338.202l0.004,0.006
		c-0.083,0.048-0.168,0.092-0.248,0.146c-1.1,0.744-1.758,1.985-1.758,3.313v41.109c0,1.429,0.763,2.75,2,3.464l111.141,64.16
		c0.619,0.357,1.31,0.536,2,0.536s1.38-0.179,1.998-0.535l67.974-39.203c0.997,5.044,3.561,9.167,7.643,11.524
		c2.305,1.331,4.855,1.964,7.515,1.964c8.564,0,18.264-6.558,24.57-17.48c4.342-7.52,6.083-15.396,5.352-21.995l136.648-78.788
		c0.955,5.385,3.619,9.546,7.704,11.904c2.274,1.313,4.813,1.968,7.503,1.968c3.154,0,6.518-0.899,9.911-2.69
		c5.686-3.002,10.896-8.256,14.671-14.794c3.775-6.538,5.72-13.677,5.477-20.102c-0.03-0.783-0.096-1.542-0.188-2.284l35.521-20.476
		c1.238-0.715,2.002-2.036,2.002-3.466V68.17C450.188,68.17,449.422,65.42,448.184,64.706z M214.831,331.644v-42.508l28.206-16.263
		v42.508L214.831,331.644z M175.918,354.082v-42.51l30.913-17.824v42.509L175.918,354.082z M8.748,201.381l103.138,59.544v41.92
		L8.751,243.304L8.748,201.381z M442.188,148.81L119.887,334.645v-22.561l322.302-185.835V148.81z M442.188,117.015l-36.45,21.017
		V96.107l36.45-21.017V117.015z M397.738,142.644l-39.064,22.524v-41.924l39.064-22.524V142.644z M350.674,169.781l-39.065,22.525
		v-41.924l39.065-22.525V169.781z M303.608,196.918l-39.065,22.524v-41.923l39.065-22.525V196.918z M256.543,224.055l-39.064,22.524
		v-41.923l39.064-22.524V224.055z M209.478,251.192l-39.065,22.525v-41.923l39.065-22.525V251.192z M162.413,278.329l-42.526,24.52
		v-41.923l42.526-24.52V278.329z M111.887,398.901l-50.148-28.952v-55.023l50.148,28.952V398.901z M53.738,365.331l-40.987-23.663
		l40.987-23.638V365.331z M78.988,389.145v31.87l-37.34-21.556v-31.872L78.988,389.145z M86.988,393.764l24.898,14.375v31.869
		l-24.898-14.374V393.764z M119.887,343.88l11.231-6.476v96.132l-11.231,6.477V343.88z M139.118,332.791l28.8-16.606v96.127
		l-28.8,16.61V332.791z M251.037,268.26l29.103-16.78v42.507l-29.103,16.781V268.26z M288.14,246.867l28.8-16.606v96.131
		l-28.8,16.605V246.867z M324.939,225.648l22.41-12.921v42.51l-22.41,12.921V225.648z M355.349,208.114l28.206-16.263v42.51
		l-28.206,16.263V208.114z M391.556,187.238l23.227-13.392v42.51l-23.227,13.392V187.238z M422.782,169.233l19.406-11.189v42.511
		l-19.406,11.189V169.233z M335.039,8.618l103.142,59.55l-322.293,185.83l-103.131-59.54L335.039,8.618z M8.751,252.541
		l103.135,59.542v22.559L8.753,275.099L8.751,252.541z M8.748,348.594l24.9,14.376v31.872l-24.9-14.375V348.594z M218.661,403.206
		c-5.722,9.91-15.607,15.794-21.157,12.589c-5.549-3.204-5.397-14.708,0.323-24.617c5.724-9.909,15.609-15.787,21.157-12.589
		C224.533,381.793,224.382,393.297,218.661,403.206z M222.984,371.661c-9.723-5.617-23.818,1.2-32.085,15.517
		c-2.869,4.968-4.602,10.093-5.238,14.901l-9.744,5.619v-44.382L280.14,303.22v44.39l-51.604,29.754
		C227.197,374.982,225.346,373.025,222.984,371.661z M400.45,298.81c-2.987,5.174-7.171,9.445-11.478,11.719
		c-2.182,1.151-6.343,2.796-9.68,0.87c-3.338-1.927-3.993-6.352-4.087-8.817c-0.185-4.867,1.423-10.625,4.41-15.799
		s7.171-9.445,11.478-11.719c1.456-0.769,3.792-1.757,6.178-1.757c1.189,0,2.392,0.246,3.502,0.887
		c3.338,1.927,3.993,6.352,4.087,8.817C405.045,287.879,403.437,293.636,400.45,298.81z M410.142,272.644
		c-1.338-2.265-3.14-4.091-5.369-5.378c-4.94-2.854-11.126-2.596-17.414,0.723c-5.686,3.002-10.896,8.256-14.671,14.794
		c-2.693,4.663-4.434,9.628-5.134,14.426l-42.615,24.571v-44.388l117.249-67.603v44.383L410.142,272.644z"/>
	<ellipse cx="20.878" cy="372.422" rx="5.14" ry="7.709"/>
	<ellipse cx="99.545" cy="416.756" rx="5.14" ry="7.709"/>
</g>
<g>
</g>
<g>
</g>
<g>
</g>
<g>
</g>
<g>
</g>
<g>
</g>
<g>
</g>
<g>
</g>
<g>
</g>
<g>
</g>
<g>
</g>
<g>
</g>
<g>
</g>
<g>
</g>
<g>
</g>
</svg>
