<svg height="512" viewBox="0 0 64 64" width="512" xmlns="http://www.w3.org/2000/svg"><g id="Cargo_Truck-3" data-name="Cargo Truck"><path d="m42 37h4v2h-4z"/><path d="m11 49h2v2h-2z"/><path d="m48 49h2v2h-2z"/><path d="m61.31 32.574-4.863-9a2.986 2.986 0 0 0 -2.5-1.555 13.008 13.008 0 0 0 -12.947-12.019h-1v-1a1 1 0 0 0 -1-1h-36a1 1 0 0 0 -1 1v40a2 2 0 0 0 2 2h2.09a5.993 5.993 0 0 0 11.82 0h25.18a5.993 5.993 0 0 0 11.82 0h4.09a3 3 0 0 0 3-3v-12.892a4.959 4.959 0 0 0 -.69-2.534zm-6.623-8.049 4.58 8.475h-15.267v-9h9.807a1 1 0 0 1 .88.525zm-13.687-12.525a11.01 11.01 0 0 1 10.949 10h-11.949v-10zm-37-2h34v30h-34zm8 44a4 4 0 1 1 4-4 4 4 0 0 1 -4 4zm0-10a6.006 6.006 0 0 0 -5.91 5h-2.09v-7h34v7h-20.09a6.006 6.006 0 0 0 -5.91-5zm37 10a4 4 0 1 1 4-4 4 4 0 0 1 -4 4zm10-5h-4.09a5.993 5.993 0 0 0 -11.82 0h-3.09v-25h2v10a1 1 0 0 0 1 1h16.985c0 .036.015.071.015.108v1.892h-4a2 2 0 0 0 -2 2v2a2 2 0 0 0 2 2h4v2h-3v2h3v1a1 1 0 0 1 -1 1zm1-10v2h-4v-2z"/></g></svg>