<?xml version="1.0" encoding="iso-8859-1"?>
<!-- Generator: Adobe Illustrator 18.0.0, SVG Export Plug-In . SVG Version: 6.00 Build 0)  -->
<!DOCTYPE svg PUBLIC "-//W3C//DTD SVG 1.1//EN" "http://www.w3.org/Graphics/SVG/1.1/DTD/svg11.dtd">
<svg version="1.1" id="Capa_1" xmlns="http://www.w3.org/2000/svg" xmlns:xlink="http://www.w3.org/1999/xlink" x="0px" y="0px"
	 viewBox="0 0 419.809 419.809" style="enable-background:new 0 0 419.809 419.809;" xml:space="preserve">
<path d="M419.806,153.483c-0.001-1.428-0.762-2.747-2-3.461l-41.464-23.944c12.583-18.004,26.169-37.43,29.824-42.389
	c0.474-0.643,0.744-1.413,0.777-2.21c1.661-40.678-33.293-53.276-33.646-53.398c-0.514-0.178-1.061-0.25-1.604-0.21l-101.587,7.452
	c-6.128,0.47-11.997,2.15-17.443,4.995l-50.385,26.313c-5.02,2.621-9.448,6.117-13.163,10.389c0,0-67.518,77.295-67.942,77.626
	L79.69,130.693c-1.238-0.715-2.763-0.715-4,0l-60.185,34.754c-1.237,0.714-1.769,2.054-2,3.464C12.158,177.158,0,248.991,0,249.872
	v67.656c0,1.429,0.762,2.75,2,3.464l121.981,70.422c0.624,0.36,1.313,0.535,1.997,0.535c0.698,0,1.384-0.197,1.998-0.552l0.006,0.01
	l39.695-22.915c0.406,7.952,3.635,14.558,9.58,17.99c2.724,1.573,5.738,2.32,8.888,2.32c10.299,0,22.036-7.992,29.703-21.271
	c4.606-7.979,6.98-16.676,6.685-24.489c-0.078-2.043-0.337-3.969-0.762-5.768l63.634-36.393c0.599,7.876,3.937,13.935,9.49,17.141
	c2.724,1.572,5.738,2.32,8.889,2.32c10.299,0,22.036-7.993,29.702-21.271c4.677-8.1,6.891-16.527,6.739-23.893
	c1.37,5.558,4.373,9.853,8.747,12.379c2.724,1.572,5.738,2.319,8.889,2.319c10.299,0,22.036-7.993,29.702-21.271
	c4.606-7.979,6.98-16.676,6.685-24.489c-0.075-1.982-0.325-3.852-0.727-5.605l7.383-4.261c1.237-0.714,2-2.035,2-3.464v-39.939
	l14.9-8.575c1.24-0.714,2.005-2.036,2.005-3.467v-25.322H419.806z M143.135,241.844l52.316-30.199v63.962l-63.57,36.702
	L143.135,241.844z M203.451,226.738l61.964-11.009c5.628-1,10.949-3.03,15.815-6.035l56.435-34.844
	c4.58-2.828,8.578-6.413,11.884-10.654c0.826-1.06,4.463-6.21,9.646-13.6l26.836,15.406L203.451,271.086V226.738z M394.054,161.383
	l-30.252-17.367c2.47-3.529,5.146-7.357,7.94-11.356l36.053,20.819L394.054,161.383z M385.287,45.161
	c9.399,8.993,14.006,20.694,13.701,34.794c-4.737,6.533-46.898,66.86-51.612,73.54c4.208-22.636,0.452-46.214-10.995-66.803
	c-11.401-20.504-29.428-36.092-50.898-44.477l85.9-6.301C373.393,36.742,379.372,39.502,385.287,45.161z M256.367,47.409
	c2.39-1.248,4.882-2.215,7.447-2.912l2.593,0.495c26.784,5.156,49.74,21.772,62.982,45.589
	c13.035,23.444,15.233,51.092,6.116,76.095c-0.666,0.474-1.344,0.935-2.043,1.367l-52.795,32.597
	c8.364-25.17,6.418-52.462-5.781-76.531c-13.387-26.412-37.203-45.161-65.798-52.009L256.367,47.409z M199.256,78.238l3.826,0.737
	c28.142,5.419,51.712,23.188,64.668,48.75c12.553,24.768,13.314,53.246,2.19,78.552c-1.921,0.682-66.268,12.335-66.268,12.335
	s0-13.578,0-14.022c0-1.429-0.762-2.75-2-3.464l-12.886-7.44c-1.552-6.943-4.654-13.906-9.061-20.233
	c-0.798-1.163-1.709-2.382-2.797-3.741c-4.317-5.342-9.289-9.818-14.777-13.303c-8.306-5.273-17.082-7.756-25.043-7.394
	C137.107,149.015,197.793,79.471,199.256,78.238z M178.524,187.761l-49.574-28.625c7.757-3.966,18.621-2.505,28.913,4.027
	c4.752,3.018,9.073,6.913,12.831,11.563c0.953,1.19,1.749,2.254,2.451,3.277C175.322,181.13,177.123,184.417,178.524,187.761z
	 M77.69,138.776l113.981,65.813l-52.185,30.124L25.504,168.91L77.69,138.776z M20.918,175.5l114.184,65.92l-11.629,72.808
	L8.819,248.035L20.918,175.5z M121.983,322.606v33.061L8,289.864V256.8L121.983,322.606z M103.706,354.354v16.118l-76.193-43.988
	v-16.117L103.706,354.354z M8,299.102l11.512,6.646v16.116L8,315.218V299.102z M111.706,375.09v-16.118l10.277,5.933v16.118
	L111.706,375.09z M168.479,358.793l-38.496,22.222v-58.373l65.711-37.798v39.148c-1.145,0.438-2.297,0.952-3.454,1.562
	c-6.915,3.65-13.26,10.054-17.866,18.033C171.456,348.642,169.503,353.822,168.479,358.793z M208.92,363.533
	c-7.51,13.006-20.176,20.345-27.663,16.023c-7.485-4.322-7.465-18.961,0.044-31.968c3.863-6.69,9.074-12.003,14.673-14.958
	c2.891-1.526,5.653-2.295,8.122-2.295c1.799,0,3.443,0.409,4.868,1.231c3.38,1.951,5.359,6.135,5.574,11.782
	C214.778,349.674,212.783,356.843,208.92,363.533z M326.558,295.073c-7.51,13.008-20.18,20.344-27.663,16.023
	c-3.38-1.952-5.358-6.136-5.573-11.782c-0.239-6.327,1.756-13.496,5.618-20.187c7.511-13.007,20.182-20.341,27.663-16.023
	C334.088,267.426,334.067,282.066,326.558,295.073z M380.635,264.607c-7.51,13.008-20.18,20.346-27.663,16.023
	c-3.38-1.951-5.359-6.135-5.573-11.782c-0.24-6.326,1.756-13.495,5.618-20.186c3.863-6.69,9.074-12.003,14.673-14.959
	c2.891-1.526,5.652-2.295,8.122-2.295c1.799,0,3.442,0.409,4.867,1.231c3.38,1.951,5.359,6.135,5.574,11.782
	C386.493,250.748,384.498,257.917,380.635,264.607z M394.904,228.477l-4.514,2.605c-1.503-2.227-3.415-4.046-5.71-5.371
	c-5.848-3.377-13.208-3.05-20.724,0.917c-6.915,3.65-13.26,10.055-17.866,18.034c-2.878,4.985-4.885,10.251-5.913,15.406
	l-3.501,2.021c-1.535-2.444-3.561-4.462-6.072-5.912c-11.629-6.713-28.58,1.611-38.591,18.951
	c-3.031,5.251-5.089,10.812-6.062,16.228l-67.36,38.524c-1.49-2.169-3.374-3.942-5.626-5.242c-2.793-1.613-5.934-2.371-9.271-2.301
	v-16.841l191.21-110.044V228.477z M203.694,296.266v-15.949L396.05,169.463l15.759-9.064v16.093L203.694,296.266z"/>
<g>
</g>
<g>
</g>
<g>
</g>
<g>
</g>
<g>
</g>
<g>
</g>
<g>
</g>
<g>
</g>
<g>
</g>
<g>
</g>
<g>
</g>
<g>
</g>
<g>
</g>
<g>
</g>
<g>
</g>
</svg>
