<?xml version="1.0" encoding="iso-8859-1"?>
<!-- Generator: Adobe Illustrator 18.0.0, SVG Export Plug-In . SVG Version: 6.00 Build 0)  -->
<!DOCTYPE svg PUBLIC "-//W3C//DTD SVG 1.1//EN" "http://www.w3.org/Graphics/SVG/1.1/DTD/svg11.dtd">
<svg version="1.1" id="Capa_1" xmlns="http://www.w3.org/2000/svg" xmlns:xlink="http://www.w3.org/1999/xlink" x="0px" y="0px"
	 viewBox="0 0 471.138 471.138" style="enable-background:new 0 0 471.138 471.138;" xml:space="preserve">
<path d="M471.001,112.968c-0.469-1.748-2.054-2.963-3.863-2.963h-49.043V99.311h-0.001c0-1.428-0.763-2.749-2-3.463l-107.386-62
	c-1.238-0.715-2.762-0.715-4,0L81.046,162.987c-1.238,0.715-2,2.035-2,3.464v33.969l-65.139,37.119
	c-1.056,0.602-1.966,2.821-1.966,2.821L0.223,310.991C0.082,311.402,0,311.835,0,312.282v59.556c0,1.429,0.762,2.75,2,3.464
	l107.375,61.989c0.624,0.36,1.313,0.535,1.997,0.535c0.688,0,1.979-0.525,1.979-0.525l48.457-27.524
	c0.521,6.842,3.428,12.51,8.623,15.509c2.468,1.425,5.2,2.103,8.051,2.103c9.241,0,19.736-7.117,26.574-18.96
	c5.348-9.263,7.07-19.016,5.357-26.656l88.245-50.943c0.687,6.466,3.563,11.797,8.545,14.673c2.468,1.425,5.199,2.103,8.051,2.103
	c9.24,0,19.735-7.117,26.573-18.96c3.571-6.186,5.522-12.589,5.917-18.437c1.452,3.709,3.844,6.619,7.061,8.476
	c2.432,1.404,5.147,2.104,8.029,2.104c3.394,0,7.018-0.97,10.677-2.902c6.166-3.254,11.819-8.957,15.918-16.058
	c4.1-7.101,6.212-14.848,5.948-21.814c-0.063-1.646-0.261-3.204-0.576-4.677l6.196-3.577c1.237-0.714,2-2.035,2-3.464v-34
	l13.097-7.561c1.237-0.714,2-2.035,2-3.464v-76.273l51.046-29.53C470.707,116.561,471.47,114.716,471.001,112.968z M306.708,41.931
	l99.386,57.381L190.422,223.821l-99.375-57.37L306.708,41.931z M410.095,106.239v3.766h-6.524L410.095,106.239z M386.311,190.939
	L222.14,285.697v-68.749h73.964c0.703,0,1.395-0.186,2.003-0.538l88.204-51.026V190.939z M386.311,200.161v13.036L222.14,307.961
	v-13.026L386.311,200.161z M87.046,173.379l99.374,57.37v27.088l-99.374-57.379V173.379z M83.013,207.367l99.349,57.364
	l-59.085,33.661l-99.349-57.355L83.013,207.367z M142.683,296.544v55.069L117.2,366.325l9.71-60.796L142.683,296.544z
	 M18.889,247.365l99.991,57.726l-2.321,14.532L16.486,261.849L18.889,247.365z M26.929,380.456L8,369.528v-9.788l18.929,10.93
	V380.456z M53.57,395.836l-18.642-10.762v-33.471l18.642,10.762V395.836z M80.449,411.354L61.57,400.455v-33.471l18.878,10.899
	V411.354z M107.377,426.9l-18.929-10.928v-9.793l18.929,10.93V426.9z M107.377,407.871l-18.929-10.93v-21.369
	c0-1.429-0.763-2.75-2-3.464l-53.52-30.897c-1.238-0.715-2.763-0.715-4,0c-1.238,0.714-2,2.035-2,3.464v16.757L8,350.503V319.21
	l99.377,57.374V407.871z M108.805,368.17L8.457,310.237l6.63-39.958l100.121,57.801L108.805,368.17z M162.524,400.169l-47.146,26.78
	v-50.334l33.306-19.229c1.238-0.714,2-2.035,2-3.464v-61.936l35.737-20.36l0.002,97.882c-6.909,2.719-13.761,8.803-18.703,17.362
	C165.17,391.286,163.447,395.812,162.524,400.169z M198.129,404.427c-6.48,11.225-17.331,17.603-23.697,13.93
	c-6.364-3.675-6.266-16.262,0.215-27.486c5.235-9.066,13.32-14.971,19.59-14.971c1.492,0,2.883,0.335,4.106,1.041
	C204.707,380.616,204.609,393.203,198.129,404.427z M250.502,349.392l-43.315,25.005c-1.295-1.779-2.91-3.267-4.844-4.384
	c-2.43-1.403-5.118-2.072-7.921-2.093v-13.216l56.08-32.375V349.392z M334.9,324.644c-6.481,11.224-17.334,17.602-23.696,13.93
	c-6.364-3.675-6.266-16.262,0.214-27.486c6.481-11.225,17.329-17.604,23.696-13.93C341.479,300.833,341.38,313.42,334.9,324.644z
	 M382.502,297.827c-3.355,5.813-7.875,10.423-12.725,12.983c-2.46,1.299-7.156,3.147-10.972,0.945s-4.562-7.194-4.667-9.975
	c-0.208-5.48,1.526-11.699,4.882-17.512s7.875-10.423,12.725-12.983c1.634-0.862,4.254-1.968,6.947-1.968
	c1.362,0,2.743,0.283,4.024,1.022c3.814,2.202,4.562,7.194,4.667,9.975C387.591,285.796,385.857,292.014,382.502,297.827z
	 M394.998,265.985l-3.347,1.932c-1.323-1.853-2.976-3.374-4.934-4.505c-5.294-3.058-11.938-2.774-18.706,0.799
	c-6.166,3.254-11.819,8.957-15.918,16.058c-2.519,4.363-4.28,8.969-5.208,13.489l-2.518,1.453c-1.359-2.043-3.107-3.742-5.253-4.981
	c-10.464-6.041-25.676,1.359-34.624,16.857c-2.734,4.736-4.517,9.6-5.381,14.245l-40.607,23.442v-27.063l136.496-78.798V265.985z
	 M410.095,220.961L194.422,345.467L194.42,230.75l19.72-11.384v95.522c0,1.429,0.762,2.749,2,3.464c0.619,0.357,1.309,0.536,2,0.536
	c0.69,0,1.381-0.179,2-0.536l172.171-99.382c1.237-0.714,2-2.034,2-3.464v-54.75l15.784-9.131V220.961z M295.03,208.948h-62.845
	l157.528-90.942h62.522L295.03,208.948z"/>
<g>
</g>
<g>
</g>
<g>
</g>
<g>
</g>
<g>
</g>
<g>
</g>
<g>
</g>
<g>
</g>
<g>
</g>
<g>
</g>
<g>
</g>
<g>
</g>
<g>
</g>
<g>
</g>
<g>
</g>
</svg>
