<?xml version="1.0" encoding="iso-8859-1"?>
<!-- Generator: Adobe Illustrator 18.0.0, SVG Export Plug-In . SVG Version: 6.00 Build 0)  -->
<!DOCTYPE svg PUBLIC "-//W3C//DTD SVG 1.1//EN" "http://www.w3.org/Graphics/SVG/1.1/DTD/svg11.dtd">
<svg version="1.1" id="Capa_1" xmlns="http://www.w3.org/2000/svg" xmlns:xlink="http://www.w3.org/1999/xlink" x="0px" y="0px"
	 viewBox="0 0 455.061 455.061" style="enable-background:new 0 0 455.061 455.061;" xml:space="preserve">
<g>
	<path d="M249.152,241.769c-1.238-0.715-2.762-0.715-4,0l-89.513,51.669c-1.006,0.58-1.71,1.57-1.929,2.712l-9.585,50.071
		c-0.294,1.536,0.335,3.104,1.609,4.011c0.691,0.492,1.504,0.741,2.319,0.741c0.688,0,1.377-0.177,1.997-0.534l99.098-57.085
		c1.239-0.714,2.003-2.035,2.003-3.466v-44.655C251.152,243.804,250.39,242.483,249.152,241.769z M161.225,299.451l36.508-21.073
		v35.362l-44.107,25.408L161.225,299.451z M243.152,287.575l-37.42,21.556V273.76l37.42-21.6V287.575z"/>
	<path d="M428.02,147.896c-1.238-0.715-2.762-0.715-4,0l-67.1,38.74c-1.237,0.714-2,2.035-2,3.464v44.867
		c0,1.429,0.763,2.75,2,3.464c0.619,0.357,1.31,0.536,2,0.536s1.381-0.179,2-0.536l67.1-38.74c1.237-0.714,2-2.035,2-3.464V151.36
		C430.02,149.932,429.257,148.61,428.02,147.896z M397.165,172.639l9.204-5.314v35.629l-9.204,5.314V172.639z M389.165,212.886
		l-9.205,5.315v-35.629l9.205-5.315V212.886z M362.92,192.41l9.04-5.219v35.629l-9.04,5.219V192.41z M422.02,193.918l-7.65,4.417
		v-35.629l7.65-4.417V193.918z"/>
	<path d="M312.962,239.243c-1.238-0.715-2.762-0.715-4,0l-27.215,15.712c-1.237,0.714-2,2.035-2,3.464v18.197
		c0,1.429,0.763,2.75,2,3.464c0.619,0.357,1.31,0.536,2,0.536s1.381-0.179,2-0.536l27.215-15.712c1.237-0.714,2-2.035,2-3.464
		v-18.197C314.962,241.278,314.199,239.957,312.962,239.243z M306.962,258.595l-19.215,11.094v-8.96l19.215-11.094V258.595z"/>
	<path d="M455.061,107.234c0-1.429-0.763-2.75-2-3.464L327.146,31.079c-1.238-0.715-2.762-0.715-4,0l-121.478,70.132
		c-1.237,0.714-2,2.035-2,3.464v24.99l-36.608,21.134l-21.428-12.371c-1.238-0.715-2.762-0.715-4,0L16.155,208.561
		c-2.189,1.099-2.129,2.675-2.129,2.675L0.311,276.441C0.109,276.923,0,277.446,0,277.985v69.84c0,1.429,0.763,2.75,2,3.464
		l125.916,72.693c0.624,0.36,1.313,0.535,1.997,0.535c0.698,0,1.384-0.197,1.998-0.552l0.006,0.01l41.158-23.759
		c0.369,8.259,3.685,15.125,9.836,18.676c2.793,1.612,5.883,2.379,9.114,2.379c10.584,0,22.655-8.229,30.545-21.894
		c4.744-8.216,7.188-17.169,6.884-25.21c-0.081-2.14-0.355-4.158-0.806-6.038l104.866-60.537c0.571,7.84,3.868,14.324,9.786,17.74
		c2.792,1.612,5.883,2.379,9.113,2.379c10.584,0,22.655-8.229,30.546-21.894c4.743-8.216,7.188-17.169,6.883-25.21
		c-0.017-0.445-0.048-0.882-0.081-1.317c1.155,6.623,4.392,11.725,9.36,14.593c2.742,1.584,5.81,2.372,9.07,2.372
		c3.869,0,8.009-1.11,12.197-3.321c7.116-3.757,13.648-10.351,18.392-18.566c6.246-10.818,8.222-22.196,6.153-31.017l8.063-4.457
		c1.273-0.705,2.064-2.045,2.064-3.501C455.061,235.395,455.061,107.412,455.061,107.234z M297.094,55.357l40.423,23.34
		l-54.132,31.252l-40.429-23.337L297.094,55.357z M234.956,91.23l46.429,26.802c0.619,0.357,1.31,0.536,2,0.536s1.381-0.179,2-0.536
		l62.132-35.871c1.237-0.714,2-2.035,2-3.464s-0.763-2.749-2-3.464l-42.423-24.495l20.052-11.577l117.915,68.072l-113.477,65.513
		l-117.916-68.072L234.956,91.23z M269.63,243.413l55.587-32.089v65.323l-55.587,32.09V243.413z M207.668,111.602l117.552,67.863
		v18.005c0,0-116.685-67.361-117.552-67.855V111.602z M203.717,136.565c13.861,8.002,94.692,54.665,117.5,67.832l-51.586,29.779
		v-19.24h-0.106c0.01-0.116,0.023-0.232,0.023-0.351c0-1.429-0.763-2.75-2-3.464l-96.487-55.703L203.717,136.565z M63.07,196.392
		l25.224,14.562v6.599L63.07,202.991V196.392z M96.294,215.572l12.559,7.25v6.599l-12.559-7.25V215.572z M116.853,227.44
		l29.783,17.194v6.598l-29.783-17.194V227.44z M154.636,244.634l19.598-11.316v6.671l-19.598,11.315V244.634z M150.636,237.706
		l-29.792-17.199l19.538-11.283l29.789,17.202L150.636,237.706z M112.844,215.889l-12.703-7.333l19.541-11.285l12.702,7.335
		L112.844,215.889z M92.141,203.937l-25.135-14.51l19.542-11.289l25.136,14.514L92.141,203.937z M55.07,195.331v9.97
		c0,1.429,0.763,2.75,2,3.464l91.628,52.896c0.619,0.357,1.31,0.536,2,0.536s1.381-0.179,2-0.536l27.535-15.898
		c1.237-0.715,1.929-2.035,1.929-3.464v-15.995c-0.042-1.381-0.79-2.648-1.992-3.342L93.699,173.03l45.933-26.518l117.915,68.073
		L144.07,280.098L26.155,212.024L55.07,195.331z M98.699,397.878l-64.576-37.281v-31.664l64.576,37.28V397.878z M104.699,360.439
		l-72.576-41.898c-1.238-0.715-2.762-0.715-4,0c-1.237,0.714-2,2.035-2,3.464v10.218L8,321.762v-36.849l117.918,68.079v36.837
		l-19.219-11.091v-14.835C106.699,362.475,105.937,361.153,104.699,360.439z M8.576,276.009l8.113-38.571l52.644,30.392
		l-7.842,38.729L8.576,276.009z M127.145,344.463L68.8,310.778l7.842-38.729l58.653,33.861L127.145,344.463z M137.036,297.679
		L18.422,229.201l2.327-11.061l118.625,68.484L137.036,297.679z M8,330.998l18.123,10.461v14.519L8,345.516V330.998z
		 M106.699,402.496v-14.522l19.219,11.091v14.526L106.699,402.496z M215.643,395.379c-7.788,13.486-20.947,21.083-28.731,16.587
		c-7.787-4.496-7.787-19.688-0.001-33.176c4-6.927,9.396-12.429,15.198-15.49c5.199-2.744,10.006-3.133,13.533-1.097
		c3.529,2.038,5.595,6.395,5.817,12.269C221.708,381.026,219.643,388.451,215.643,395.379z M376.031,301.819
		c-7.787,13.487-20.944,21.084-28.731,16.587c-7.787-4.496-7.788-19.688-0.002-33.176c7.787-13.486,20.947-21.084,28.732-16.587
		c3.528,2.037,5.595,6.395,5.817,12.269C382.096,287.467,380.03,294.892,376.031,301.819z M431.853,270.37
		c-4,6.928-9.397,12.429-15.198,15.491c-5.199,2.744-10.006,3.134-13.533,1.097c-3.529-2.038-5.595-6.395-5.818-12.27
		c-0.248-6.555,1.817-13.979,5.816-20.906c7.787-13.486,20.948-21.086,28.732-16.588C439.639,241.69,439.639,256.884,431.853,270.37
		z M441.815,235.935c-1.542-2.327-3.527-4.261-5.964-5.668c-11.94-6.893-29.361,1.678-39.66,19.516
		c-2.975,5.152-5.044,10.594-6.1,15.92l-3.778,2.18c-1.598-2.589-3.707-4.679-6.284-6.166c-11.941-6.894-29.36,1.677-39.66,19.515
		c-3.23,5.595-5.319,11.34-6.298,16.805l-108.609,62.698c-1.536-2.261-3.485-4.109-5.821-5.458
		c-5.996-3.463-13.548-3.124-21.269,0.949c-7.116,3.757-13.647,10.351-18.391,18.565c-3.016,5.224-5.031,10.579-6.083,15.714
		l-39.982,23.08v-62.486l13.462-63.674l114.25-65.959v94.199c0,1.429,0.763,2.749,2,3.464c0.619,0.357,1.31,0.536,2,0.536
		s1.381-0.179,2-0.536l63.587-36.708c1.237-0.714,2-2.035,2-3.464v-74.514c0-0.015,0.003-0.029,0.003-0.044v-24.513l113.841-65.724
		v118.873L441.815,235.935z"/>
</g>
<g>
</g>
<g>
</g>
<g>
</g>
<g>
</g>
<g>
</g>
<g>
</g>
<g>
</g>
<g>
</g>
<g>
</g>
<g>
</g>
<g>
</g>
<g>
</g>
<g>
</g>
<g>
</g>
<g>
</g>
</svg>
