<?xml version="1.0" encoding="iso-8859-1"?>
<!-- Generator: Adobe Illustrator 18.0.0, SVG Export Plug-In . SVG Version: 6.00 Build 0)  -->
<!DOCTYPE svg PUBLIC "-//W3C//DTD SVG 1.1//EN" "http://www.w3.org/Graphics/SVG/1.1/DTD/svg11.dtd">
<svg version="1.1" id="Capa_1" xmlns="http://www.w3.org/2000/svg" xmlns:xlink="http://www.w3.org/1999/xlink" x="0px" y="0px"
	 viewBox="0 0 477 477" style="enable-background:new 0 0 477 477;" xml:space="preserve">
<path d="M476.987,193.226l-3.867-47.439v-34.901c0-0.017,0.003-0.034,0.003-0.052c0-1.429-0.762-2.749-2-3.464l-84.82-48.98
	c-1.239-0.715-2.765-0.716-4.003,0.001l-42.236,24.427l-20.179-11.653c-1.239-0.716-2.765-0.715-4.003,0.001l-93.266,53.942
	c-1.24,0.718-2.002,2.043-1.998,3.476c0.004,1.374,0.717,2.639,1.873,3.366L35.988,239.811c-1.237,0.716-1.998,2.035-1.997,3.463
	l0,51.656L7.3,310.372c-1.106,0.64-1.827,1.765-1.967,3.018l-0.003,0l-5.304,47.022c-0.179,1.589,0.604,3.132,1.994,3.923
	l11.351,6.471c-3.789,4.194-3.873,11.849,0.18,18.87c2.094,3.627,5.011,6.556,8.213,8.246c1.987,1.049,4.019,1.575,5.946,1.575
	c1.709,0,3.336-0.414,4.777-1.246c4.271-2.467,5.898-7.938,4.663-13.889l60.094,34.259c0.614,0.351,1.298,0.525,1.981,0.525
	c0.706,0,1.412-0.187,2.04-0.56l38.245-22.674c1.223,2.214,2.909,4.002,4.989,5.201c2.038,1.177,4.306,1.763,6.706,1.763
	c2.788,0,5.753-0.791,8.739-2.366c4.958-2.616,9.496-7.188,12.773-12.871c1.94-3.351,3.329-6.924,4.095-10.448
	c1.038,1.327,2.286,2.433,3.726,3.265c2.015,1.166,4.283,1.755,6.699,1.755c1.394,0,2.836-0.196,4.308-0.59
	c6.497-1.737,12.937-7.211,17.228-14.644c2.171-3.766,3.628-7.763,4.314-11.659c0.994,1.203,2.165,2.209,3.495,2.977
	c2.015,1.166,4.283,1.755,6.699,1.755c1.393,0,2.836-0.196,4.308-0.589c6.496-1.737,12.936-7.211,17.229-14.646
	c2.608-4.531,4.216-9.451,4.651-14.092l88.338-52.372c1.181,1.927,2.736,3.489,4.644,4.594c2.056,1.188,4.329,1.751,6.697,1.751
	c7.532,0,16.025-5.704,21.532-15.229c1.961-3.398,3.331-6.943,4.086-10.458c1.044,1.337,2.288,2.456,3.727,3.282
	c2.035,1.175,4.301,1.761,6.699,1.761c2.791,0,5.761-0.793,8.751-2.373c4.959-2.618,9.498-7.191,12.778-12.874
	c2.159-3.736,3.624-7.741,4.317-11.648c0.99,1.192,2.155,2.199,3.499,2.976c2.054,1.185,4.325,1.748,6.692,1.748
	c7.536,0,16.036-5.71,21.548-15.243c2.468-4.293,4.015-8.818,4.547-13.215l27.718-16.433
	C476.355,196.212,477.111,194.75,476.987,193.226z M301.857,177.208c0.623,0.355,1.303,0.525,1.975,0.525
	c0.201,0,0.401-0.017,0.598-0.047v2.558L105.894,294.863v-12.382l189.113-109.178L301.857,177.208z M388.3,94.653V68.781
	l35.191,20.321v25.872L388.3,94.653z M384.304,101.583l46.416,26.803l-41.04,23.694v-23.29l9-5.195c1.237-0.714,2-2.034,2-3.464
	c0-1.429-0.762-2.749-2-3.464l-20.246-11.692L384.304,101.583z M381.68,156.699l-69.25,39.991v-23.306l69.25-39.975V156.699z
	 M304.43,210.545v11.248L251,252.64v-11.248L304.43,210.545z M312.43,205.926l50.087-28.917v11.248l-50.087,28.917V205.926z
	 M370.517,172.382l11.163-6.445v11.257l-11.163,6.445V172.382z M97.894,294.868L41.99,262.595v-12.393l55.904,32.283V294.868z
	 M41.99,271.832l55.904,32.273v32.312L41.99,304.135V271.832z M105.894,304.101L304.43,189.482v11.827L122.503,306.34
	c-1.913,1.104-2.569,3.551-1.464,5.464c0.741,1.283,2.085,2.001,3.468,2.001c0.678,0,1.366-0.173,1.996-0.537L172,287.001v11.247
	l-66.106,38.165V304.101z M180,282.382l63-36.372v11.248l-63,36.372V282.382z M243,266.496v5.385l-63,36.374v-5.387L243,266.496z
	 M251,261.877l53.43-30.847v5.383L251,267.261V261.877z M312.43,226.412l50.087-28.917v5.381l-50.087,28.918V226.412z
	 M370.517,192.877l17.163-9.909c1.238-0.714,2-2.035,2-3.464v-18.186l34.174-19.73v25.874l-53.337,30.795V192.877z M431.854,136.969
	l6.866-3.964l22.405,12.938l-29.271,16.9V136.969z M446.719,128.388l18.401-10.624v21.249L446.719,128.388z M438.719,123.768
	l-7.228-4.174V93.722l29.633,17.112L438.719,123.768z M380.3,68.79v25.868l-9.862,5.699l-22.377-12.922L380.3,68.79z
	 M317.887,79.248l70.793,40.882l-84.862,48.988l-71.166-40.573L317.887,79.248z M230.529,136.544l56.429,32.169L101.891,275.555
	l-55.906-32.284L230.529,136.544z M33.99,304.172v2.272c0,1.429,0.762,2.749,2,3.464l63.9,36.899c0.619,0.357,1.31,0.536,2,0.536
	c0.69,0,1.381-0.179,2-0.536L172,307.486v5.387l-78.187,45.142l-76.517-44.184L33.99,304.172z M12.594,320.353l77.449,44.722
	l4.404,42.744l-52.838-30.123l5.46-3.121c1.918-1.096,2.584-3.539,1.488-5.457c-1.096-1.917-3.539-2.585-5.458-1.488l-9.562,5.465
	L8.27,358.691L12.594,320.353z M28.485,391.323c-0.614,0.354-1.759,0.172-2.988-0.477c-1.859-0.981-3.689-2.866-5.02-5.171
	c-2.674-4.631-2.304-8.941-0.888-9.759c0.218-0.126,0.494-0.189,0.816-0.189c1.775,0,4.929,1.917,7.192,5.837
	C30.272,386.195,29.903,390.505,28.485,391.323z M165.789,383.638c-2.5,4.333-5.991,7.904-9.58,9.797
	c-1.759,0.929-5.099,2.26-7.713,0.751c-0.975-0.562-1.647-1.421-2.116-2.346l21.571-12.788
	C167.378,380.597,166.656,382.139,165.789,383.638z M201.841,362.981c-3.203,5.549-7.941,9.73-12.364,10.913
	c-1.956,0.524-3.614,0.402-4.937-0.362c-1.166-0.674-1.9-1.762-2.372-2.909l22.141-13.126
	C203.698,359.333,202.878,361.181,201.841,362.981z M237.884,340.821c-3.203,5.549-7.94,9.729-12.364,10.913
	c-1.957,0.521-3.616,0.4-4.937-0.363c-0.956-0.552-1.622-1.386-2.09-2.284l21.505-12.749
	C239.432,337.848,238.728,339.355,237.884,340.821z M363.75,265.468c-5.248,9.075-13.327,12.847-17.298,10.554
	c-0.762-0.441-1.33-1.067-1.766-1.749l20.794-12.328C364.985,263.135,364.414,264.317,363.75,265.468z M399.791,244.805
	c-2.5,4.332-5.995,7.904-9.586,9.801c-1.76,0.931-5.104,2.268-7.723,0.753c-0.947-0.543-1.608-1.37-2.073-2.264l21.49-12.74
	C401.333,241.853,400.632,243.349,399.791,244.805z M435.844,222.644c-5.25,9.08-13.336,12.852-17.31,10.563
	c-0.743-0.43-1.3-1.033-1.73-1.689l20.717-12.282C437.039,220.386,436.484,221.53,435.844,222.644z M102.562,408.517l-4.504-43.715
	l367.588-212.231l3.164,38.814L102.562,408.517z"/>
<g>
</g>
<g>
</g>
<g>
</g>
<g>
</g>
<g>
</g>
<g>
</g>
<g>
</g>
<g>
</g>
<g>
</g>
<g>
</g>
<g>
</g>
<g>
</g>
<g>
</g>
<g>
</g>
<g>
</g>
</svg>
