<?xml version="1.0" encoding="iso-8859-1"?>
<!-- Generator: Adobe Illustrator 18.0.0, SVG Export Plug-In . SVG Version: 6.00 Build 0)  -->
<!DOCTYPE svg PUBLIC "-//W3C//DTD SVG 1.1//EN" "http://www.w3.org/Graphics/SVG/1.1/DTD/svg11.dtd">
<svg version="1.1" id="Capa_1" xmlns="http://www.w3.org/2000/svg" xmlns:xlink="http://www.w3.org/1999/xlink" x="0px" y="0px"
	 viewBox="0 0 457.79 457.79" style="enable-background:new 0 0 457.79 457.79;" xml:space="preserve">
<path d="M455.782,108.209l0.006-0.011L333.792,37.838c-0.283-0.164-0.585-0.292-0.899-0.381L275.71,21.118
	c-1.185-0.572-2.582-0.533-3.733,0.131L75.713,134.571c-1.238,0.714-2,2.035-2,3.464c0,0.001,0,0.001,0,0.002h0v38.92
	l-58.208,33.613c-1.044,0.603-1.744,1.64-1.939,2.807l-0.006-0.001L0.055,294.336l0.006,0.001C0.025,294.553,0,294.771,0,294.994
	v67.657c0,1.429,0.762,2.75,2,3.464l121.981,70.421c0.621,0.358,1.311,0.535,1.999,0.535c0.694,0,1.382-0.19,1.999-0.546
	l0.003,0.006l39.732-22.936c0.412,8.299,3.788,14.689,9.544,18.012c2.724,1.572,5.738,2.319,8.888,2.319
	c10.298,0,22.036-7.993,29.702-21.271c6.1-10.565,8.005-21.683,5.939-30.281l101.323-58.492c0.597,7.548,3.804,13.787,9.523,17.088
	c2.724,1.573,5.738,2.32,8.889,2.32c10.298,0,22.036-7.993,29.702-21.271c4.514-7.818,6.877-16.323,6.692-24.013
	c1.339,5.459,4.283,9.893,8.793,12.498c2.676,1.545,5.669,2.315,8.85,2.315c3.768,0,7.799-1.081,11.875-3.233
	c6.915-3.65,13.26-10.054,17.866-18.033c4.607-7.979,6.98-16.676,6.685-24.489c-0.075-1.982-0.325-3.852-0.727-5.605l7.383-4.262
	c1.238-0.714,2-2.035,2-3.464v-38.938l15.148-8.745c1.238-0.715,2-2.035,2-3.464v-90.923
	C457.79,110.21,456.998,108.911,455.782,108.209z M423.625,98.883l-26.103-7.459l-93.203-53.812l25.903,7.401L423.625,98.883z
	 M273.977,29.332l113.992,65.814l-46.953,27.106l-113.993-65.81L273.977,29.332z M272.322,302.73V171.147l64.737-37.373v131.583
	L272.322,302.73z M151.445,413.749l-21.462,12.39v-12.623l21.462-12.392V413.749z M20.501,220.382l115.104,66.452l-12.098,72.537
	L8.402,292.916L20.501,220.382z M103.496,357.055v17.775l-77.98-45.02v-17.775L103.496,357.055z M111.496,361.674l10.487,6.055
	v17.775l-10.487-6.055V361.674z M17.516,307.416v17.775L8,319.698v-17.775L17.516,307.416z M8,328.936l113.983,65.806v9.261
	L8,338.197V328.936z M143.753,286.611l51.941-29.984v63.962l-63.746,36.803L143.753,286.611z M143.775,222.056l-34.55,19.95
	l-26.478-15.282l34.56-19.951L143.775,222.056z M81.713,176.983v-32.021l113.981,65.803v32.031L81.713,176.983z M203.694,210.766
	l60.628-35v131.583l-60.628,35.001V210.766z M268.366,164.193L154.38,98.386l64.643-37.325l113.992,65.809L268.366,164.193z
	 M146.38,103.006l113.986,65.806l-60.672,35.026L85.713,138.035L146.38,103.006z M77.69,183.898l31.617,18.256l-36.561,21.107
	c-1.238,0.715-2,2.035-2,3.464s0.763,2.75,2,3.464l34.48,19.9c0.619,0.357,1.309,0.536,2,0.536s1.381-0.179,2-0.536l40.548-23.414
	l39.897,23.037l-52.185,30.124L25.504,214.033L77.69,183.898z M8,360.341v-12.906l113.983,65.806v12.904L8,360.341z
	 M168.508,403.899l-9.063,5.232v-14.936c0-1.429-0.762-2.75-2-3.464c-1.237-0.714-2.763-0.714-4,0l-23.462,13.547v-36.514
	l65.711-37.937v39.244c-7.848,2.972-15.684,9.877-21.32,19.64C171.536,393.626,169.549,398.813,168.508,403.899z M208.92,408.656
	c-7.51,13.007-20.179,20.347-27.663,16.023c-3.38-1.951-5.359-6.135-5.574-11.782c-0.24-6.327,1.755-13.496,5.618-20.186
	c6.045-10.47,15.431-17.266,22.767-17.266c1.778,0,3.436,0.399,4.896,1.242C216.45,381.009,216.429,395.649,208.92,408.656z
	 M364.295,318.02c-7.51,13.007-20.179,20.343-27.663,16.023c-7.485-4.322-7.464-18.961,0.045-31.968
	c3.863-6.69,9.074-12.003,14.673-14.958c2.891-1.526,5.652-2.295,8.122-2.295c1.799,0,3.443,0.409,4.868,1.231
	c3.38,1.951,5.359,6.135,5.573,11.781C370.153,304.161,368.158,311.33,364.295,318.02z M418.372,287.555
	c-3.863,6.69-9.074,12.003-14.673,14.958c-4.997,2.638-9.61,3.015-12.99,1.064c-7.485-4.322-7.464-18.961,0.045-31.968
	c3.863-6.69,9.074-12.003,14.673-14.958c2.891-1.526,5.652-2.295,8.122-2.295c1.799,0,3.443,0.409,4.868,1.231
	c3.38,1.951,5.359,6.135,5.573,11.781C424.23,273.695,422.235,280.864,418.372,287.555z M432.641,251.424l-4.514,2.606
	c-1.503-2.227-3.415-4.046-5.711-5.371c-5.848-3.376-13.208-3.051-20.725,0.917c-6.915,3.65-13.259,10.054-17.866,18.033
	c-2.96,5.127-4.926,10.383-5.938,15.42l-3.482,2.01c-1.551-2.477-3.585-4.483-6.066-5.915c-5.847-3.377-13.208-3.05-20.725,0.917
	c-6.915,3.65-13.259,10.054-17.866,18.033c-3.125,5.412-5.151,10.971-6.106,16.262l-105.062,60.651
	c-1.474-2.136-3.345-3.916-5.617-5.228c-2.833-1.635-5.984-2.372-9.271-2.31v-15.862l228.947-132.174V251.424z M449.79,200.276
	l-104.731,60.462V129.156l51.448-29.701l53.283,15.225V200.276z"/>
<g>
</g>
<g>
</g>
<g>
</g>
<g>
</g>
<g>
</g>
<g>
</g>
<g>
</g>
<g>
</g>
<g>
</g>
<g>
</g>
<g>
</g>
<g>
</g>
<g>
</g>
<g>
</g>
<g>
</g>
</svg>
