<?xml version="1.0" encoding="iso-8859-1"?>
<!-- Generator: Adobe Illustrator 18.0.0, SVG Export Plug-In . SVG Version: 6.00 Build 0)  -->
<!DOCTYPE svg PUBLIC "-//W3C//DTD SVG 1.1//EN" "http://www.w3.org/Graphics/SVG/1.1/DTD/svg11.dtd">
<svg version="1.1" id="Capa_1" xmlns="http://www.w3.org/2000/svg" xmlns:xlink="http://www.w3.org/1999/xlink" x="0px" y="0px"
	 viewBox="0 0 468.271 468.271" style="enable-background:new 0 0 468.271 468.271;" xml:space="preserve">
<path d="M468.271,172.802c0.001-1.43-0.762-2.752-2-3.467l-23.239-13.417L399.952,32.362c-0.515-1.474-1.839-2.514-3.393-2.665
	c-0.845-0.085-1.67,0.113-2.377,0.521l-0.003-0.006L198.084,143.274c-0.442,0.32-0.824,0.731-1.11,1.221l-17.768,30.431
	l-22.046,12.642L88.27,147.79c-1.236-0.714-2.761-0.715-4,0l-67.192,38.8c-0.648,0.374-1.166,0.915-1.512,1.55
	c-0.315,0.578-15.243,90.734-15.243,90.734C0.114,279.362,0,279.893,0,280.441v75.533c0,1.429,0.762,2.75,2,3.464l136.183,78.621
	c0.621,0.358,1.311,0.535,1.998,0.535c0.696,0,2.003-0.541,2.003-0.541l44.975-25.962c0.272,9.059,3.815,16.604,10.503,20.465
	c2.915,1.683,6.177,2.521,9.648,2.521c4.132,0,8.558-1.188,13.04-3.554c7.643-4.035,14.661-11.121,19.76-19.954
	c5.1-8.833,7.729-18.454,7.401-27.09c-0.09-2.378-0.402-4.614-0.918-6.689l71.996-41.175c0.501,8.995,4.176,15.911,10.409,19.51
	c2.972,1.715,6.263,2.531,9.703,2.531c11.327,0,24.271-8.843,32.744-23.519c5.1-8.833,7.729-18.454,7.4-27.09
	c-0.077-2.031-0.323-3.953-0.712-5.766l0.786-0.453c0.001,0.04,0,0.08,0.002,0.12c0.354,9.317,4.064,16.478,10.449,20.165
	c2.972,1.715,6.263,2.531,9.703,2.531c11.328,0,24.272-8.843,32.745-23.519c6.786-11.754,8.89-24.115,6.552-33.613l8.512-4.913
	c1.237-0.714,2-2.035,2-3.464V214.54l17.384-10.005c1.24-0.714,2.005-2.036,2.005-3.467
	C468.271,201.069,468.271,172.806,468.271,172.802z M147.625,291.12L18.796,216.746l3.383-20.282l128.698,74.299L147.625,291.12z
	 M146.274,299.578l-8.538,53.454L8.507,278.424l8.883-53.252L146.274,299.578z M107.678,369.836l-67.879-39.187
	c-1.238-0.714-2.763-0.714-4,0c-1.238,0.714-2,2.035-2,3.464v2.621L8,321.84v-34.471l128.186,74.005v34.46l-26.508-15.305V373.3
	C109.678,371.871,108.915,370.551,107.678,369.836z M8,331.078l25.799,14.894v6.392L8,337.471V331.078z M41.799,341.041
	l59.879,34.568v32.137l-59.879-34.569V341.041z M109.678,389.766l26.508,15.305v6.393l-26.508-15.305V389.766z M158.91,271.187
	l59.812-34.527v72.485l-72.566,41.895L158.91,271.187z M226.722,234.067l10.176,29.184l-10.176-5.876V234.067z M226.816,210.039
	l49.698-28.622l55.968,32.313l-86.922,50.061L226.816,210.039z M238.425,150.19L268.75,132.8l-15.235,26.102L238.425,150.19z
	 M282.673,124.816l19.58-11.228l12.71,36.453l-38.445,22.141l-16.075-9.281L282.673,124.816z M290.763,110.955l6.617-11.337
	l2.192,6.286L290.763,110.955z M317.643,157.729l16.675,47.824l-49.795-28.749L317.643,157.729z M324.699,153.666l49.277-28.38
	l55.968,32.313l-86.502,49.819L324.699,153.666z M322.019,145.978l-12.705-36.438l18.758-10.757l37.9,21.881L322.019,145.978z
	 M330.078,90.704c-1.235-0.712-2.755-0.715-3.99-0.005l-19.454,11.156l-3.482-9.985l81.987-47.219l-33.983,58.223L330.078,90.704z
	 M276.84,118.939l-68.161,39.086l-3.411-9.782l82.049-47.255L276.84,118.939z M230.398,154.793l38.111,22.003l-44.373,25.556
	l-12.777-36.641L230.398,154.793z M223.956,226.136l-48.901-28.236l9.982-17.096l19.261-11.045L223.956,226.136z M226.722,266.612
	l33.207,19.175l-33.207,19.112V266.612z M267.941,281.176l-18.245-10.535l90.791-52.289l18.279,10.553L267.941,281.176z
	 M366.777,224.293l-18.282-10.555l89.453-51.518l18.313,10.573L366.777,224.293z M381.986,120.673l33.548-19.322l16.89,48.442
	L381.986,120.673z M412.854,93.663l-38.873,22.388l-15.897-9.178l37.171-63.683L412.854,93.663z M199.507,156.021l2.111,6.053
	l-8.486,4.866L199.507,156.021z M171.111,188.79l-2.984,5.11l-2.954-1.705L171.111,188.79z M86.27,155.873l128.183,74.014
	l-59.192,34.169L27.077,190.053L86.27,155.873z M8,346.709l25.799,14.894v6.956L8,353.665V346.709z M109.678,412.365v-6.969
	l26.508,15.305v6.967L109.678,412.365z M194.613,385.302c-3.273,5.669-5.45,11.479-6.573,17.043l-43.854,25.316v-66.245
	l74.293-43.033v45.084C209.72,366.68,200.926,374.367,194.613,385.302L194.613,385.302z M233.181,407.569
	c-4.355,7.544-10.239,13.539-16.566,16.879c-5.726,3.023-11.036,3.441-14.953,1.18c-8.575-4.951-8.63-21.586-0.12-36.326h0
	c8.511-14.739,22.945-23.008,31.52-18.059c3.917,2.261,6.209,7.069,6.454,13.539C239.787,391.931,237.537,400.024,233.181,407.569z
	 M364.517,331.138c-8.511,14.74-22.947,23.009-31.52,18.059c-3.917-2.261-6.21-7.07-6.455-13.539
	c-0.271-7.15,1.979-15.243,6.334-22.787c4.356-7.544,10.24-13.539,16.567-16.879c3.295-1.74,6.453-2.617,9.286-2.617
	c2.09,0,4.004,0.477,5.666,1.437c3.917,2.261,6.21,7.07,6.455,13.539C371.122,315.501,368.872,323.594,364.517,331.138z
	 M424.89,297.125c-8.511,14.74-22.943,23.011-31.521,18.059c-3.917-2.261-6.209-7.07-6.454-13.539
	c-0.271-7.15,1.979-15.243,6.334-22.787c6.833-11.834,17.483-19.497,25.854-19.497c2.056,0,3.975,0.462,5.665,1.438
	C433.344,265.75,433.398,282.385,424.89,297.125z M440.882,256.824l-5.647,3.259c-1.657-2.559-3.811-4.68-6.467-6.213
	c-12.757-7.364-31.401,1.854-42.447,20.987c-3.227,5.589-5.461,11.492-6.586,17.263l-4.492,2.593
	c-1.719-2.881-4.02-5.198-6.847-6.83c-6.383-3.687-14.44-3.32-22.687,1.033c-7.644,4.035-14.661,11.121-19.761,19.954
	c-3.398,5.886-5.692,12.121-6.752,18.182l-75.771,43.334c-1.66-2.528-3.79-4.587-6.363-6.072c-3.224-1.861-6.825-2.659-10.583-2.51
	v-19.268l214.403-123.392V256.824z M226.722,333.166v-19.038l233.549-134.412v19.039L226.722,333.166z"/>
<g>
</g>
<g>
</g>
<g>
</g>
<g>
</g>
<g>
</g>
<g>
</g>
<g>
</g>
<g>
</g>
<g>
</g>
<g>
</g>
<g>
</g>
<g>
</g>
<g>
</g>
<g>
</g>
<g>
</g>
</svg>
