<?xml version="1.0" encoding="iso-8859-1"?>
<!-- Generator: Adobe Illustrator 18.0.0, SVG Export Plug-In . SVG Version: 6.00 Build 0)  -->
<!DOCTYPE svg PUBLIC "-//W3C//DTD SVG 1.1//EN" "http://www.w3.org/Graphics/SVG/1.1/DTD/svg11.dtd">
<svg version="1.1" id="Capa_1" xmlns="http://www.w3.org/2000/svg" xmlns:xlink="http://www.w3.org/1999/xlink" x="0px" y="0px"
	 viewBox="0 0 474.86 474.86" style="enable-background:new 0 0 474.86 474.86;" xml:space="preserve">
<g>
	<path d="M238.085,156.442l44.035,25.422c0.619,0.357,1.31,0.536,2,0.536c0.689,0,1.38-0.178,1.998-0.535l32.688-18.851
		c1.238-0.714,2.002-2.035,2.002-3.464c0-1.43-0.762-2.75-2-3.465l-44.035-25.422c-1.238-0.713-2.762-0.714-3.998-0.001
		l-32.688,18.851c-1.238,0.714-2.002,2.035-2.002,3.464C236.085,154.406,236.847,155.727,238.085,156.442z M272.772,138.745
		l36.032,20.802l-24.684,14.235l-36.032-20.802L272.772,138.745z"/>
	<path d="M181.425,349.87c-6.113-3.526-14.108,2.949-18.853,11.168c-2.292,3.969-3.763,8.167-4.143,11.819
		c-0.669,6.437,2.155,9.085,3.897,10.091c0.819,0.474,2.073,0.972,3.718,0.972c1.851,0,4.195-0.632,6.97-2.643
		c2.975-2.155,5.874-5.528,8.165-9.497C185.925,363.562,187.532,353.397,181.425,349.87z M174.252,367.781
		c-3.046,5.276-6.429,7.661-7.827,8.07c-0.346-1.416,0.029-5.538,3.075-10.813s6.428-7.661,7.827-8.07
		C177.672,358.384,177.298,362.505,174.252,367.781z"/>
	<path d="M438.924,200.714c-1.74-1.006-5.447-2.126-10.688,1.67c-2.974,2.155-5.873,5.528-8.165,9.496c0,0,0,0,0,0
		c-4.745,8.218-6.353,18.384-0.245,21.911c1.17,0.675,2.408,0.983,3.68,0.983c5.372,0,11.337-5.506,15.173-12.151
		c2.292-3.969,3.763-8.166,4.143-11.82C443.49,204.369,440.666,201.72,438.924,200.714z M431.751,218.624
		c-3.046,5.276-6.428,7.661-7.827,8.07c-0.345-1.417,0.029-5.538,3.075-10.813v0c3.047-5.276,6.429-7.662,7.827-8.07
		C435.172,209.227,434.798,213.349,431.751,218.624z"/>
	<path d="M472.86,142.011L375.43,85.763c-0.923-0.533-2.021-0.675-3.049-0.396l-15.13,4.112l-35.761-20.772
		c-1.234-0.716-2.759-0.721-3.999-0.011L87.584,200.54c-0.777,0.446-1.382,1.14-1.718,1.971L66.89,249.448L1.291,296.32
		C0.468,297.077,0,298.144,0,299.263v43.939c0,1.429,0.763,2.75,2,3.464l103.052,59.49c0.619,0.357,1.31,0.536,2,0.536
		s1.381-0.179,2-0.536c0.064-0.037,35.044-20.37,35.044-20.37c1.42,5.821,4.55,10.315,9.115,12.95
		c2.832,1.636,5.969,2.413,9.246,2.413c10.751,0,23.018-8.366,31.039-22.258c5.047-8.742,7.35-17.841,7.031-25.71L401.85,237.652
		c1.506,5.188,4.469,9.393,8.861,11.929c2.833,1.635,5.969,2.412,9.246,2.412c10.751,0,23.019-8.366,31.039-22.258
		c6.063-10.501,8.169-21.519,6.519-30.295l15.073-12.63c0.883-0.74,1.404-1.826,1.43-2.978l0.842-38.269
		C474.892,144.103,474.125,142.742,472.86,142.011z M372.872,93.524l88.947,51.35l-20.087,8.276l-16.091-23.48
		c-0.479-0.775-1.212-1.375-2.089-1.679l-56.579-32.864L372.872,93.524z M195.535,266.546l28.463-16.342v27.459l-42.924,24.65
		L195.535,266.546z M231.998,245.611l37.346-21.442v27.453l-37.346,21.447V245.611z M277.344,219.576l43.962-25.24v27.447
		l-43.962,25.246V219.576z M329.306,189.743l38.204-21.935v27.441l-38.204,21.94V189.743z M375.51,163.215l29.983-17.214
		l6.137,23.911l-36.12,20.743V163.215z M418.828,165.778l-6.137-23.91l8.333-4.785l13.49,19.686L418.828,165.778z M319.468,76.785
		l94.704,55.008L192.31,259.173l-95.124-54.917L319.468,76.785z M91.404,210.155l95.913,55.376l-16.048,39.691l-95.911-55.378
		L91.404,210.155z M70.828,256.465l95.487,55.133l-59.484,42.407l-95.174-55.349L70.828,256.465z M43.82,326.615v34.956
		l-8.666-5.003v-34.993L43.82,326.615z M51.82,331.268l8.667,5.04v34.885l-8.667-5.003V331.268z M68.487,340.961l8.667,5.04v34.814
		l-8.667-5.003V340.961z M8,320.639l13.362,7.776v-8.764L8,311.876v-6.091l19.154,11.139v35.027L8,340.893V320.639z M85.154,385.433
		v-34.78l17.897,10.408v5.956l-13.264-7.719v8.764l13.264,7.718v19.983L85.154,385.433z M186.568,374.892
		c-7.95,13.768-21.391,21.516-29.357,16.917c-3.616-2.088-5.732-6.546-5.96-12.554c-0.254-6.688,1.854-14.263,5.933-21.328
		c4.079-7.066,9.586-12.678,15.505-15.802c3.068-1.62,6.004-2.437,8.634-2.437c1.927,0,3.688,0.439,5.218,1.321
		C194.504,345.607,194.517,361.123,186.568,374.892z M444.068,225.736c-7.95,13.768-21.39,21.516-29.357,16.917
		c-7.964-4.599-7.977-20.115-0.028-33.883c7.95-13.768,21.391-21.515,29.357-16.917
		C452.004,196.451,452.017,211.968,444.068,225.736z M454.586,191.458c-1.623-2.714-3.805-4.95-6.546-6.532
		c-12.122-7.002-29.818,1.718-40.285,19.845c-4.752,8.232-7.071,16.781-7.06,24.321L199.025,344.82
		c-1.599-4.64-4.434-8.4-8.485-10.739c-6.084-3.512-13.748-3.168-21.587,0.969c-7.234,3.819-13.875,10.523-18.697,18.877
		c-4.328,7.496-6.767,15.592-6.999,23.082l-32.205,18.843v-35.03l64.195-45.766c0.201-0.143,0.381-0.31,0.551-0.486l266.229-152.889
		l24.7-10.176l-0.667,30.339L454.586,191.458z"/>
</g>
<g>
</g>
<g>
</g>
<g>
</g>
<g>
</g>
<g>
</g>
<g>
</g>
<g>
</g>
<g>
</g>
<g>
</g>
<g>
</g>
<g>
</g>
<g>
</g>
<g>
</g>
<g>
</g>
<g>
</g>
</svg>
