<?xml version="1.0" encoding="iso-8859-1"?>
<!-- Generator: Adobe Illustrator 18.0.0, SVG Export Plug-In . SVG Version: 6.00 Build 0)  -->
<!DOCTYPE svg PUBLIC "-//W3C//DTD SVG 1.1//EN" "http://www.w3.org/Graphics/SVG/1.1/DTD/svg11.dtd">
<svg version="1.1" id="Capa_1" xmlns="http://www.w3.org/2000/svg" xmlns:xlink="http://www.w3.org/1999/xlink" x="0px" y="0px"
	 viewBox="0 0 430.978 430.978" style="enable-background:new 0 0 430.978 430.978;" xml:space="preserve">
<g>
	<path d="M430.978,109.319c0.002-1.432-0.76-2.755-2-3.471L287.903,24.391c-1.235-0.713-2.755-0.715-3.988-0.007L91.089,134.878
		c-0.598,0.343-1.082,0.828-1.427,1.397l-44.917,76.37L1.172,256.218C0.422,256.969,0,257.986,0,259.047v61.783
		c0,1.429,0.762,2.749,1.999,3.463l141.074,81.511c0.619,0.358,1.31,0.537,2.001,0.537c0.69,0,1.381-0.179,1.999-0.536
		c0.271-0.156,31.862-18.289,31.862-18.289c1.734,7.275,5.599,13.168,11.554,16.606c3.47,2.003,7.361,3,11.508,3
		c4.979,0,10.327-1.439,15.753-4.303c9.341-4.931,17.926-13.607,24.174-24.43c6.009-10.407,9.208-21.69,9.09-31.926l89.754-51.128
		c1.649,7.591,5.572,13.745,11.713,17.291c3.47,2.003,7.361,3,11.508,3c4.979,0,10.327-1.439,15.753-4.303
		c9.341-4.931,17.926-13.607,24.174-24.43c6.164-10.675,9.374-22.271,9.077-32.714l15.958-9.085c1.25-0.711,2.021-2.039,2.021-3.476
		V109.391C430.973,109.367,430.978,109.344,430.978,109.319z M94.486,143.781l134.174,77.461l-5.221,8.886L89.292,152.62
		L94.486,143.781z M237.063,222.735l60.196-34.49v41.713l-97.582,56.404L237.063,222.735z M305.259,183.662l71.496-40.964v41.31
		l-71.496,41.326V183.662z M384.755,138.114l38.218-21.897v41.076l-38.218,22.091V138.114z M285.896,32.47l133.06,76.83
		L234.159,215.179L101.1,138.362L285.896,32.47z M85.24,159.518l134.147,77.508l-31.814,54.148L53.424,213.665L85.24,159.518z
		 M48.591,220.112l133.905,77.368l-38.432,38.432L10.16,258.544L48.591,220.112z M8,266.535l25.239,14.583v30.479L8,297.015V266.535
		z M41.239,285.741l66.267,38.288v30.479L41.239,316.22V285.741z M115.506,328.651l25.568,14.773v30.479l-25.568-14.773V328.651z
		 M8,318.521v-12.268l133.074,76.888v12.268L8,318.521z M234.996,374.39c-5.505,9.535-12.956,17.119-20.98,21.355
		c-7.424,3.917-14.358,4.432-19.526,1.449c-11.115-6.418-11.347-27.704-0.506-46.482c5.505-9.534,12.956-17.118,20.98-21.354
		c7.422-3.917,14.357-4.434,19.526-1.448c5.169,2.984,8.191,9.247,8.509,17.634C243.344,354.611,240.501,364.856,234.996,374.39z
		 M396.988,282.895c-5.505,9.535-12.956,17.119-20.98,21.355c-7.423,3.917-14.358,4.432-19.526,1.448
		c-11.115-6.417-11.347-27.703-0.506-46.481c8.668-15.014,22.264-24.699,33.048-24.699c2.704,0,5.231,0.609,7.46,1.895
		c5.169,2.984,8.19,9.248,8.509,17.635C405.336,263.116,402.493,273.361,396.988,282.895z M411.868,245.617
		c-1.811-7.262-5.714-12.858-11.385-16.132c-15.388-8.881-37.979,2.422-51.436,25.732c-6.153,10.657-9.167,21.708-9.168,31.419
		l-89.842,51.178c-1.731-7.602-5.697-13.456-11.548-16.834c-7.637-4.409-17.316-3.946-27.261,1.302
		c-9.341,4.931-17.926,13.606-24.174,24.429c-6.316,10.94-9.335,22.301-9.171,32.195l-28.81,16.415v-53.107l41.326-41.326
		l232.572-134.357v72.764L411.868,245.617z"/>
	<path d="M388.448,250.33c-5.552-3.206-15.284,0.67-23.14,14.275c-7.855,13.607-6.345,23.972-0.793,27.178
		c1.208,0.697,2.613,1.06,4.154,1.06c5.543,0,12.839-4.688,18.986-15.334C395.512,263.901,394.001,253.536,388.448,250.33z
		 M380.729,273.507c-5.139,8.901-11.148,11.959-12.213,11.347c-1.057-0.61-1.42-7.345,3.721-16.25
		c5.142-8.905,11.155-11.95,12.212-11.347C385.505,257.868,385.869,264.603,380.729,273.507z"/>
	<path d="M226.456,341.825c-2.031-1.173-6.385-2.456-12.718,2.133c-3.784,2.743-7.485,7.054-10.422,12.141
		c-2.938,5.087-4.821,10.448-5.304,15.096c-0.809,7.779,2.479,10.908,4.511,12.081c1.208,0.697,2.613,1.06,4.155,1.06
		c5.543,0,12.839-4.688,18.984-15.334c2.938-5.087,4.821-10.448,5.304-15.097C231.775,346.128,228.488,342.998,226.456,341.825z
		 M223.01,353.079c-0.363,3.503-1.922,7.849-4.274,11.923c-5.138,8.899-11.153,11.963-12.212,11.346
		c-0.147-0.085-0.874-1.243-0.554-4.325c0.363-3.503,1.922-7.849,4.274-11.923s5.337-7.597,8.188-9.664
		c2.015-1.46,3.293-1.715,3.795-1.715c0.123,0,0.199,0.016,0.229,0.032C222.604,348.838,223.33,349.997,223.01,353.079z"/>
</g>
<g>
</g>
<g>
</g>
<g>
</g>
<g>
</g>
<g>
</g>
<g>
</g>
<g>
</g>
<g>
</g>
<g>
</g>
<g>
</g>
<g>
</g>
<g>
</g>
<g>
</g>
<g>
</g>
<g>
</g>
</svg>
