<?xml version="1.0" encoding="iso-8859-1"?>
<!-- Generator: Adobe Illustrator 18.0.0, SVG Export Plug-In . SVG Version: 6.00 Build 0)  -->
<!DOCTYPE svg PUBLIC "-//W3C//DTD SVG 1.1//EN" "http://www.w3.org/Graphics/SVG/1.1/DTD/svg11.dtd">
<svg version="1.1" id="Capa_1" xmlns="http://www.w3.org/2000/svg" xmlns:xlink="http://www.w3.org/1999/xlink" x="0px" y="0px"
	 viewBox="0 0 435.051 435.051" style="enable-background:new 0 0 435.051 435.051;" xml:space="preserve">
<g>
	<path d="M227.367,310.499c-2.031-1.173-6.384-2.456-12.718,2.133c-3.784,2.743-7.485,7.054-10.422,12.141
		c-7.855,13.607-6.345,23.972-0.792,27.178c1.207,0.697,2.612,1.059,4.153,1.059c5.543,0,12.839-4.688,18.986-15.334
		C234.431,324.07,232.92,313.705,227.367,310.499z M219.647,333.676c-5.139,8.9-11.15,11.956-12.213,11.347
		c-1.057-0.61-1.42-7.345,3.721-16.25c2.353-4.075,5.337-7.597,8.188-9.664c2.509-1.818,3.873-1.767,4.023-1.683
		C224.424,318.037,224.788,324.772,219.647,333.676z"/>
	<path d="M389.359,216.003c-5.548-3.202-15.284,0.667-23.14,14.275c-2.938,5.086-4.821,10.448-5.304,15.096
		c-0.809,7.778,2.479,10.908,4.511,12.081c0.938,0.542,2.37,1.106,4.264,1.106c2.209,0,5.045-0.769,8.454-3.24
		c3.784-2.742,7.485-7.054,10.422-12.141C396.422,229.574,394.912,219.209,389.359,216.003z M381.639,239.181
		c-2.353,4.075-5.337,7.597-8.188,9.664c-2.509,1.817-3.876,1.767-4.023,1.683c-0.147-0.085-0.874-1.244-0.554-4.326
		c0.363-3.502,1.922-7.848,4.274-11.922v0c4.723-8.18,10.183-11.421,11.858-11.421c0.148,0,0.268,0.025,0.354,0.075
		C386.416,223.542,386.779,230.276,381.639,239.181z"/>
	<path d="M433.051,132.386L304.42,58.126c-1.238-0.714-2.764-0.714-4,0l-92.891,53.636l-47.14-27.381
		c-1.238-0.719-2.766-0.721-4.006-0.007l-65.39,37.68c-0.776,0.447-1.38,1.143-1.714,1.974l-29.085,72.341l-58.905,45.57
		C0.468,242.696,0,243.763,0,244.88v50.04c0,1.429,0.763,2.75,2,3.464l136.051,78.54c0.619,0.357,1.31,0.536,2,0.536
		s1.381-0.179,2-0.536c0.076-0.044,37.609-21.539,37.609-21.539c1.634,7.647,5.567,13.846,11.741,17.41c3.47,2.003,7.361,3,11.508,3
		c4.979,0,10.327-1.439,15.753-4.303c9.341-4.931,17.926-13.607,24.174-24.43c6.249-10.823,9.47-22.596,9.07-33.15
		c-0.003-0.078-0.011-0.154-0.014-0.232l90.007-51.965c1.76,7.482,5.707,13.242,11.494,16.584c3.551,2.05,7.485,3.025,11.604,3.024
		c13.724,0,29.48-10.826,39.832-28.756c6.377-11.046,9.388-22.517,9.16-32.478l19.063-11.007c1.237-0.714,2-2.035,2-3.464v-69.77
		C435.051,134.421,434.288,133.101,433.051,132.386z M296.048,163.064c-0.255-0.147-36.456-21.062-36.456-21.062l42.831-24.731
		l76.399,44.116l-80.771,46.635V166.53C298.051,165.1,297.287,163.779,296.048,163.064z M223.643,206.192l-2.527,6.285
		L92.251,138.081l2.529-6.29L223.643,206.192z M218.101,219.975l-20.491,50.962L68.75,196.534l20.487-50.955L218.101,219.975z
		 M231.867,207.181l43.493-25.199v40.56l-67.687,44.811L231.867,207.181z M283.36,177.347l6.69-3.876v39.346l-6.69,4.429V177.347z
		 M386.821,156.768l-80.398-46.425V68.52l116.628,67.331L386.821,156.768z M298.423,68.517v41.826l-46.806,27.027l-36.113-20.976
		L298.423,68.517z M158.372,92.461l127.609,74.121l-57.368,33.238l-128.154-73.987L158.372,92.461z M64.378,203.247l128.606,74.256
		l-53.258,41.125L11.126,244.374L64.378,203.247z M178.799,346.644l-34.749,20.061v-12.828L180.73,332.7
		C179.451,337.516,178.815,342.217,178.799,346.644z M8,251.806l7.418,4.283v14.882L8,266.688V251.806z M23.418,260.708
		l18.02,10.405h-0.054v14.849L23.418,275.59V260.708z M49.384,275.701l45.5,26.272v14.878l-45.5-26.27V275.701z M102.884,306.593
		l17.966,10.521v14.73l-17.966-10.373V306.593z M128.85,321.585l7.201,4.158v14.876l-7.201-4.158V321.585z M8,292.611v-16.685
		l128.051,73.931v16.676L8,292.611z M235.907,343.064c-5.505,9.535-12.956,17.119-20.98,21.355
		c-7.424,3.917-14.358,4.432-19.526,1.449c-11.115-6.418-11.347-27.704-0.506-46.482c8.668-15.014,22.264-24.699,33.048-24.699
		c2.704,0,5.231,0.609,7.46,1.895c5.169,2.984,8.19,9.247,8.509,17.635C244.255,323.285,241.412,333.53,235.907,343.064z
		 M397.899,248.569c-10.842,18.778-29.389,29.223-40.508,22.803c-5.169-2.984-8.19-9.247-8.509-17.634
		c-0.344-9.068,2.499-19.313,8.004-28.848c5.505-9.534,12.956-17.118,20.98-21.354c4.239-2.238,8.318-3.365,12.001-3.365
		c2.766,0,5.309,0.637,7.525,1.917C408.509,208.504,408.74,229.79,397.899,248.569z M427.051,203.311l-14.167,8.18
		c-1.765-7.15-5.61-12.937-11.491-16.332c-7.636-4.41-17.317-3.947-27.261,1.302c-9.341,4.931-17.926,13.606-24.174,24.429
		c-6.059,10.494-9.26,21.877-9.086,32.181l-90.251,52.105c-1.875-6.963-5.71-12.342-11.219-15.523
		c-15.387-8.88-37.979,2.422-51.436,25.732c-1.069,1.851-2.032,3.714-2.912,5.58l-41.004,23.675v-19.245l57.446-44.358
		l94.101-62.299c0.42-0.176,0.816-0.417,1.16-0.733l130.293-75.227V203.311z"/>
</g>
<g>
</g>
<g>
</g>
<g>
</g>
<g>
</g>
<g>
</g>
<g>
</g>
<g>
</g>
<g>
</g>
<g>
</g>
<g>
</g>
<g>
</g>
<g>
</g>
<g>
</g>
<g>
</g>
<g>
</g>
</svg>
