<?xml version="1.0" encoding="iso-8859-1"?>
<!-- Generator: Adobe Illustrator 18.0.0, SVG Export Plug-In . SVG Version: 6.00 Build 0)  -->
<!DOCTYPE svg PUBLIC "-//W3C//DTD SVG 1.1//EN" "http://www.w3.org/Graphics/SVG/1.1/DTD/svg11.dtd">
<svg version="1.1" id="Capa_1" xmlns="http://www.w3.org/2000/svg" xmlns:xlink="http://www.w3.org/1999/xlink" x="0px" y="0px"
	 viewBox="0 0 472.641 472.641" style="enable-background:new 0 0 472.641 472.641;" xml:space="preserve">
<path d="M466.492,145.857c-4.22-7.352-10.048-13.261-16.41-16.641c-1.959-1.04-3.906-1.803-5.817-2.306
	c4.162-8.18,3.084-20.584-3.609-32.251c-9.089-15.841-24.58-23.447-35.267-17.316l-2.888,1.658
	c-0.996-3.016-2.336-6.013-3.971-8.854c-5.428-9.474-13.562-16.456-21.758-18.676c-4.875-1.321-9.478-0.885-13.325,1.26
	c-0.061,0.031-226.752,130.191-226.752,130.191l0,0c-7.161,4.108-10.157,13.208-8.442,23.754l-53.034-30.622
	c-1.238-0.715-2.763-0.714-4,0L14.686,208.7c-0.99,0.572-1.676,1.532-1.911,2.625C12.716,211.598,0,287.613,0,288.214v63.553
	c0,1.429,0.762,2.75,2,3.464l114.583,66.15c0.624,0.36,1.313,0.535,1.997,0.535c0.698,0,1.384-0.197,1.998-0.552l0.006,0.011
	l36.946-21.328c0.471,7.376,3.54,13.493,9.098,16.703c2.595,1.498,5.465,2.209,8.464,2.209c9.763-0.001,20.871-7.549,28.117-20.101
	c4.35-7.534,6.591-15.75,6.312-23.134c-0.071-1.867-0.305-3.629-0.682-5.283l122.004-69.614c0.637,7.017,3.676,12.812,9.031,15.904
	c2.595,1.498,5.465,2.209,8.464,2.209c9.763,0,20.871-7.549,28.118-20.101c4.066-7.042,6.154-14.348,6.347-20.899
	c1.456,4.507,4.134,8.016,7.868,10.172c2.594,1.498,5.465,2.21,8.464,2.21c9.763,0,20.871-7.549,28.118-20.1
	c4.35-7.534,6.591-15.75,6.311-23.134c-0.069-1.811-0.293-3.523-0.651-5.135l6.782-3.915c1.238-0.714,2-2.035,2-3.464v-36.5
	l21.937-12.585C474.433,179.292,475.689,161.882,466.492,145.857z M409.373,84.282c6.567-3.769,17.717,2.807,24.345,14.359
	c6.627,11.553,6.677,24.496,0.108,28.265l0.051,0.088c-1.056,0.34-2.076,0.785-3.051,1.344l-32.567,18.708
	c-2.079-5.037-4.522-10.034-7.328-14.923c-5.617-9.785-12.326-18.547-19.733-25.921L409.373,84.282z M383.7,222.081
	c2.773-6.346,4.385-13.78,4.721-22.08c0.45-11.127-1.449-23.063-5.441-34.954l11.04-6.342
	C402.736,185.857,399.19,211.378,383.7,222.081z M295.757,272.579c2.737-6.317,4.331-13.704,4.665-21.945
	c0.451-11.148-1.455-23.108-5.463-35.021l80.945-46.5c8.931,27.857,4.939,53.974-11.602,64.141L295.757,272.579z M242.794,302.964
	c0.114-0.866,0.193-1.756,0.231-2.673c0.292-7.197-1.872-15.21-6.092-22.562s-10.047-13.262-16.409-16.641
	c-0.868-0.461-1.734-0.87-2.596-1.225l50.86-29.216c8.644,26.911,5.233,52.212-9.904,63.087L242.794,302.964z M183.825,339.112
	v18.527c-7.372,2.845-14.71,9.333-19.995,18.486h0c-2.733,4.733-4.57,9.585-5.542,14.248l-35.704,20.611v-54.273l61.24-35.356v3.364
	V339.112z M85.631,394.275l-49.112-28.353v-24.128l49.112,28.353V394.275z M91.631,364.372l-57.112-32.971
	c-1.238-0.714-2.763-0.714-4,0c-1.238,0.714-2,2.035-2,3.464v7.392L8,329.919v-34.776l106.584,61.535v37.338l-20.954-12.604v-13.575
	C93.631,366.407,92.868,365.087,91.631,364.372z M19.829,218.597l107.056,61.805l-10.842,67.879L8.549,286.221L19.829,218.597z
	 M357.649,104.756l-10.727,6.159c-5.08-4.315-10.411-8-15.898-10.915c-7.294-3.874-14.486-6.226-21.33-7.046
	C323.334,86.631,341.278,91.652,357.649,104.756z M339.548,115.149l-80.698,46.335c-5.058-4.288-10.365-7.952-15.826-10.853
	c-7.424-3.943-14.74-6.302-21.692-7.081l68.54-39.354C303.705,96.603,322.481,101.477,339.548,115.149z M365.863,146.476
	c2.846,4.959,5.261,9.985,7.278,14.998l-81.023,46.544c-2.076-5.027-4.516-10.014-7.316-14.893
	c-5.627-9.804-12.352-18.58-19.775-25.963l80.886-46.443C353.266,127.763,360.112,136.456,365.863,146.476z M191.825,245.679
	c0-1.429-0.784-2.75-2.021-3.464l-9.719-5.612c-3.638-9.789-2.549-19.202,2.716-22.227c6.571-3.767,17.718,2.808,24.345,14.358
	c6.787,11.833,6.052,23.046,1.416,27.284l-2.853,1.639c-3.825,1.174-9.005-0.484-13.884-4.394
	C191.825,253.263,191.825,245.883,191.825,245.679z M214.084,224.753c-4.932-8.596-11.75-14.759-18.662-17.626l43.328-24.878
	c7.377,7.055,14.246,15.768,20.013,25.817c2.836,4.941,5.244,9.949,7.256,14.944l-46.114,26.491
	C220.85,242.102,218.934,233.208,214.084,224.753z M265.702,204.085c-5.626-9.802-12.349-18.576-19.77-25.958l11.913-6.84
	c7.379,7.055,14.25,15.77,20.019,25.821c2.834,4.938,5.24,9.942,7.252,14.933l-12.094,6.947
	C270.945,213.957,268.505,208.967,265.702,204.085z M239.755,172.448c-5.06-4.29-10.369-7.956-15.831-10.858
	c-7.346-3.902-14.588-6.259-21.475-7.063c13.753-7.141,32.212-2.247,49.024,11.192L239.755,172.448z M182.3,166.032
	c13.855-7.955,32.837-3.133,50.079,10.651l-53.56,30.753l0.001,0.001c-0.001,0-0.001,0.001-0.002,0.001
	c-1.008,0.579-1.917,1.275-2.759,2.044c-0.993-3.08-2.342-6.192-4.094-9.246c-4.168-7.264-9.926-13.105-16.213-16.446
	c-0.825-0.438-1.649-0.826-2.468-1.168l28.987-16.644L182.3,166.032z M183.825,252.594v59.522l-59.38,34.283l10.473-65.573
	L183.825,252.594z M191.825,324.718v-61.846c1.452,0.794,2.913,1.439,4.369,1.937c-5.831,8.095-5.256,22.02,2.212,35.033
	c4.22,7.352,10.047,13.261,16.409,16.641c0.81,0.43,1.617,0.805,2.422,1.143l-25.413,14.579V324.718z M228.733,311.031
	c-3.722,1.276-7.872-0.395-10.165-1.613c-5.048-2.681-9.744-7.496-13.223-13.558c-6.732-11.73-6.776-24.879-0.095-28.713
	c1.348-0.773,2.796-1.069,4.223-1.069c2.834,0,5.585,1.167,7.298,2.077c5.048,2.682,9.744,7.497,13.223,13.558
	s5.268,12.545,5.037,18.256c-0.105,2.595-0.757,7.024-3.74,9.595L228.733,311.031z M276.657,283.536
	c2.737-6.317,4.331-13.703,4.664-21.944c0.451-11.145-1.454-23.1-5.459-35.01l12.021-6.905c8.649,26.919,5.237,52.229-9.906,63.102
	L276.657,283.536z M380.144,157.451c-2.082-5.049-4.529-10.057-7.342-14.958c-5.61-9.775-12.312-18.528-19.709-25.897l10.923-6.272
	c7.362,7.048,14.217,15.749,19.975,25.781c2.84,4.948,5.25,9.962,7.264,14.963L380.144,157.451z M367.098,59.855
	c0.052-0.027,0.104-0.056,0.156-0.085c2.53-1.454,5.436-1.117,7.428-0.576c6.099,1.652,12.578,7.374,16.912,14.938
	c1.659,2.884,2.946,5.935,3.793,8.957l-30.363,17.434c-5.072-4.305-10.394-7.983-15.872-10.892
	c-7.387-3.924-14.669-6.282-21.59-7.073L367.098,59.855z M140.681,189.859c3.947-2.266,8.783-0.348,11.316,0.997
	c4.974,2.643,9.601,7.388,13.028,13.362c5.949,10.373,6.117,20.269,2.961,25.4l-29.931-17.282
	C134.289,202.443,135.339,192.921,140.681,189.859z M73.221,184.137l106.583,61.542l-48.535,28.017L24.686,212.164L73.221,184.137z
	 M8,339.254l20.519,12.34v9.71L8,349.458V339.254z M93.631,398.894v-8.146l20.954,12.604v7.639L93.631,398.894z M196.28,394.86
	c-6.987,12.104-18.735,18.958-25.653,14.963c-6.917-3.994-6.857-17.594,0.131-29.698c0,0,0,0,0,0
	c5.634-9.758,14.361-16.103,21.157-16.103c1.633,0,3.156,0.367,4.496,1.14c4.183,2.415,5,7.845,5.114,10.867
	C201.75,381.927,199.887,388.615,196.28,394.86z M369.526,294.842c-6.987,12.104-18.733,18.957-25.653,14.963
	c-6.917-3.994-6.857-17.594,0.131-29.698c6.988-12.104,18.737-18.957,25.653-14.962
	C376.574,269.139,376.514,282.738,369.526,294.842z M420.323,266.225c-6.989,12.104-18.738,18.955-25.654,14.962
	c-4.183-2.415-5-7.844-5.114-10.866c-0.224-5.898,1.639-12.586,5.245-18.832c3.605-6.246,8.466-11.203,13.686-13.958
	c1.771-0.935,4.61-2.131,7.542-2.131c1.495,0,3.014,0.311,4.426,1.127c4.183,2.415,5,7.844,5.114,10.866
	C425.792,253.291,423.929,259.979,420.323,266.225z M433.694,232.267l-3.92,2.263c-1.412-2.037-3.195-3.704-5.32-4.931
	c-5.569-3.216-12.564-2.911-19.703,0.857c-6.535,3.45-12.529,9.499-16.879,17.033c-2.697,4.67-4.581,9.602-5.558,14.436l-3,1.731
	c-1.447-2.24-3.331-4.097-5.657-5.44c-11.043-6.375-27.11,1.484-36.582,17.891c0,0,0,0,0,0c-2.924,5.066-4.826,10.268-5.736,15.228
	l-125.684,71.714c-1.4-1.985-3.158-3.61-5.243-4.814c-2.629-1.518-5.545-2.22-8.587-2.2v-14.605l241.87-138.763V232.267z
	 M459.649,178.552l-57.831,33.178c2.778-6.351,4.395-13.792,4.731-22.1c0.451-11.138-1.452-23.087-5.452-34.99l33.712-19.366
	c4.025-2.311,8.946-0.36,11.521,1.007c5.048,2.681,9.745,7.496,13.224,13.558C466.286,161.569,466.33,174.718,459.649,178.552z"/>
<g>
</g>
<g>
</g>
<g>
</g>
<g>
</g>
<g>
</g>
<g>
</g>
<g>
</g>
<g>
</g>
<g>
</g>
<g>
</g>
<g>
</g>
<g>
</g>
<g>
</g>
<g>
</g>
<g>
</g>
</svg>
