<?xml version="1.0" encoding="iso-8859-1"?>
<!-- Generator: Adobe Illustrator 18.0.0, SVG Export Plug-In . SVG Version: 6.00 Build 0)  -->
<!DOCTYPE svg PUBLIC "-//W3C//DTD SVG 1.1//EN" "http://www.w3.org/Graphics/SVG/1.1/DTD/svg11.dtd">
<svg version="1.1" id="Capa_1" xmlns="http://www.w3.org/2000/svg" xmlns:xlink="http://www.w3.org/1999/xlink" x="0px" y="0px"
	 viewBox="0 0 460.145 460.145" style="enable-background:new 0 0 460.145 460.145;" xml:space="preserve">
<g>
	<path d="M237.595,332.767c-2.032-1.174-6.387-2.456-12.718,2.133c-3.784,2.742-7.485,7.054-10.422,12.141h0
		c-7.855,13.606-6.345,23.971-0.792,27.177c0.938,0.541,2.37,1.106,4.264,1.106c2.209,0,5.045-0.769,8.455-3.24
		c3.784-2.742,7.485-7.054,10.421-12.141c2.938-5.086,4.821-10.448,5.304-15.096C242.915,337.069,239.627,333.94,237.595,332.767z
		 M234.149,344.021c-0.363,3.502-1.922,7.848-4.275,11.923c-2.352,4.075-5.337,7.597-8.188,9.664
		c-2.511,1.82-3.874,1.768-4.023,1.683c-1.057-0.61-1.42-7.345,3.721-16.249h0c2.353-4.075,5.337-7.597,8.189-9.664
		c2.508-1.818,3.874-1.767,4.023-1.683C233.743,339.78,234.469,340.938,234.149,344.021z"/>
	<path d="M413.341,229.574c-5.553-3.204-15.284,0.67-23.14,14.275c-2.938,5.087-4.82,10.449-5.304,15.097
		c-0.809,7.778,2.479,10.908,4.512,12.081c0.938,0.542,2.37,1.106,4.264,1.106c2.208,0,5.045-0.769,8.454-3.24
		c3.784-2.743,7.485-7.054,10.422-12.141C420.405,243.145,418.894,232.78,413.341,229.574z M405.622,252.751
		c-2.353,4.075-5.337,7.597-8.188,9.664c-2.508,1.816-3.875,1.77-4.023,1.683c-0.147-0.085-0.875-1.244-0.555-4.326
		c0.364-3.502,1.922-7.849,4.274-11.923c5.142-8.904,11.16-11.95,12.212-11.347C410.398,237.112,410.762,243.847,405.622,252.751z"
		/>
	<path d="M345.674,244.08l-83.057,48.04c-1.912,1.106-2.565,3.553-1.46,5.465c0.742,1.282,2.085,1.998,3.467,1.998
		c0.68,0,1.368-0.173,1.999-0.538l83.057-48.04c1.912-1.106,2.565-3.553,1.46-5.465C350.033,243.627,347.587,242.974,345.674,244.08
		z"/>
	<path d="M458.145,152.074l-128.631-74.26c-0.923-0.533-2.021-0.675-3.049-0.396l-20.488,5.569l-47.678-27.693
		c-1.238-0.719-2.767-0.722-4.007-0.006l-56.087,32.345l-1.296-0.748c-0.597-0.36-1.296-0.568-2.043-0.571c-0.003,0-0.005,0-0.008,0
		c-0.002-0.001-0.006,0-0.009,0h-0.009c-0.003,0-0.007,0-0.009,0c-0.003,0-0.005,0-0.008,0c-0.73,0.003-1.414,0.202-2.001,0.546
		l-32.186,18.594c-1.237,0.714-1.999,2.035-1.999,3.464c0,0.244,0.073,1.485,0.073,1.485l-43.738,25.225
		c-0.773,0.446-1.375,1.138-1.71,1.965l-25.193,62.31L1.291,261.899C0.468,262.657,0,263.724,0,264.843v58.01
		c0,1.429,0.762,2.75,2,3.464l136.05,78.54c0.619,0.357,1.31,0.536,2,0.536s1.381-0.179,2-0.536
		c0.081-0.047,0.154-0.103,0.231-0.155l0.086,0.146l47.467-27.772c1.58,8.166,5.65,14.44,11.794,17.987
		c3.47,2.004,7.361,3.001,11.508,3.001c4.979,0,10.328-1.439,15.752-4.303c9.341-4.931,17.926-13.606,24.174-24.429
		c6.715-11.631,9.703-23.736,9.101-34.05l103.669-59.962c1.74,7.25,5.601,13.121,11.541,16.551c3.551,2.05,7.484,3.024,11.603,3.024
		c13.724,0,29.481-10.827,39.833-28.756c8.027-13.903,10.726-28.482,8.337-39.871l20.456-17.14c0.883-0.74,1.404-1.826,1.43-2.978
		l1.111-50.523C460.176,154.166,459.41,152.805,458.145,152.074z M326.957,85.575l120.147,69.362l-29.885,12.312l-21.85-31.885
		c-0.499-0.817-1.275-1.443-2.207-1.736L315.7,88.634L326.957,85.575z M222.369,313.224c-9.34,4.931-17.926,13.606-24.174,24.429
		c-1.181,2.045-2.253,4.124-3.213,6.222l-50.931,29.459v-27.882l83.47-59.511v24.989
		C225.817,311.553,224.097,312.311,222.369,313.224z M189.107,368.232l-45.057,26.362v-12.018l46.818-27.08
		C189.775,359.815,189.176,364.1,189.107,368.232z M93.64,349.068l-44.6-25.938v-11.654l44.6,25.937V349.068z M99.651,331.655
		l-52.6-30.59c-1.237-0.719-2.764-0.722-4.005-0.009c-1.241,0.714-2.005,2.036-2.005,3.467v13.955L8,299.263v-7.724l19.828,11.538
		v-11.57L8,279.97v-8.74l128.05,74.469v9.147l-20.223-11.768v11.57l20.223,11.768v7.317l-34.41-20.012v-18.608
		C101.64,333.688,100.882,332.371,99.651,331.655z M235.206,271.795l20.637-51.038l49.303-28.503v39.163L235.206,271.795z
		 M313.145,187.629l53.669-31.028l7.939,34.629l-61.608,35.569V187.629z M382.001,187.045l-7.94-34.634l16.683-9.645l19.263,28.11
		L382.001,187.045z M194.845,94.93l30.753,17.758l-24.211,13.981l-30.751-17.753L194.845,94.93z M166.71,115.887l30.856,17.813
		v9.284l-30.856-17.813V115.887z M205.566,138.319l16.043,9.262v9.284l-16.043-9.262V138.319z M229.609,152.199l36.187,20.891v9.284
		l-36.187-20.891V152.199z M273.796,173.089l24.276-14.017v9.368l-24.276,14.017V173.089z M269.796,166.161l-36.197-20.897
		l24.207-13.979l36.195,20.9L269.796,166.161z M225.599,140.646l-16.212-9.359l24.209-13.981l16.211,9.361L225.599,140.646z
		 M160.71,130.945l107.16,61.863c0.619,0.357,1.31,0.536,2,0.536s1.382-0.179,2-0.536l32.203-18.594c1.237-0.714,2-2.035,2-3.464
		v-18.706c-0.049-1.373-0.877-2.631-2.073-3.322l-97.793-56.469l50.077-28.879l127.602,74.116l-131.287,75.902l-128.159-73.99
		l34.271-19.765v7.843C158.71,128.909,159.473,130.23,160.71,130.945z M118.752,145.357l128.866,74.401l-22.158,54.798
		L96.598,200.152L118.752,145.357z M92.148,206.82l128.502,74.195l-80.823,57.625l-128.08-74.487L92.148,206.82z M8,320.543v-12.025
		l128.05,74.469v11.478L8,320.543z M246.135,365.332c-5.505,9.534-12.956,17.118-20.981,21.354
		c-7.423,3.918-14.357,4.433-19.526,1.448c-5.169-2.984-8.19-9.247-8.508-17.634c-0.344-9.068,2.499-19.313,8.003-28.848h0
		c5.504-9.534,12.956-17.118,20.98-21.354c4.239-2.238,8.318-3.365,12-3.365c2.766,0,5.309,0.637,7.525,1.917
		C256.745,325.267,256.976,346.554,246.135,365.332z M364.771,266.693l-104.029,60.17c-1.905-6.507-5.619-11.769-11.113-14.941
		c-4.185-2.417-8.988-3.36-14.109-2.864v-28.207l176.229-101.743v26.685c-13.226,0.997-27.961,11.612-37.808,28.667
		C367.617,245.415,364.599,256.789,364.771,266.693z M421.882,262.139c-10.842,18.777-29.395,29.222-40.508,22.803
		c-11.115-6.417-11.347-27.703-0.506-46.481c10.842-18.778,29.395-29.22,40.508-22.804
		C432.492,222.075,432.723,243.361,421.882,262.139z M434.313,218.205c-2.095-3.994-5.079-7.248-8.937-9.476
		c-1.786-1.031-3.673-1.779-5.628-2.279v-31.591l32.263-13.292l-0.937,42.593L434.313,218.205z"/>
</g>
<g>
</g>
<g>
</g>
<g>
</g>
<g>
</g>
<g>
</g>
<g>
</g>
<g>
</g>
<g>
</g>
<g>
</g>
<g>
</g>
<g>
</g>
<g>
</g>
<g>
</g>
<g>
</g>
<g>
</g>
</svg>
