<?xml version="1.0" encoding="iso-8859-1"?>
<!-- Generator: Adobe Illustrator 18.0.0, SVG Export Plug-In . SVG Version: 6.00 Build 0)  -->
<!DOCTYPE svg PUBLIC "-//W3C//DTD SVG 1.1//EN" "http://www.w3.org/Graphics/SVG/1.1/DTD/svg11.dtd">
<svg version="1.1" id="Capa_1" xmlns="http://www.w3.org/2000/svg" xmlns:xlink="http://www.w3.org/1999/xlink" x="0px" y="0px"
	 viewBox="0 0 438.619 438.619" style="enable-background:new 0 0 438.619 438.619;" xml:space="preserve">
<g>
	<path d="M234.102,368.924c-5.554-3.211-15.285,0.668-23.14,14.274c-2.938,5.087-4.821,10.448-5.304,15.097
		c-0.809,7.778,2.479,10.907,4.511,12.08c0.938,0.542,2.371,1.106,4.264,1.106c2.208,0,5.045-0.769,8.454-3.239
		c3.784-2.743,7.485-7.055,10.422-12.142c2.937-5.087,4.821-10.448,5.304-15.097C239.421,373.226,236.134,370.097,234.102,368.924z
		 M230.656,380.178c-0.364,3.503-1.922,7.849-4.275,11.923c-2.352,4.075-5.337,7.597-8.188,9.663
		c-2.511,1.82-3.877,1.768-4.024,1.684c-0.147-0.085-0.874-1.244-0.554-4.326c0.364-3.503,1.922-7.849,4.274-11.923h0
		c4.723-8.181,10.183-11.421,11.858-11.421c0.148,0,0.267,0.025,0.353,0.074C230.25,375.937,230.977,377.096,230.656,380.178z"/>
	<path d="M289.691,86.372l-10.403,7.282c-11.248,7.875-25.76,10.045-38.82,5.811c-5.68-1.843-11.575-2.691-17.529-2.52
		c-2.208,0.063-3.947,1.904-3.884,4.112c0.063,2.209,1.894,3.926,4.113,3.884c5.029-0.144,10.024,0.574,14.832,2.133
		c5.198,1.686,10.589,2.513,15.964,2.513c10.583,0,21.097-3.208,29.912-9.378l10.403-7.282c1.81-1.268,2.25-3.762,0.983-5.571
		C293.996,85.546,291.502,85.105,289.691,86.372z"/>
	<path d="M438.618,136.41c-0.001-1.428-0.762-2.748-1.999-3.462l-92.138-53.205c-2.118-8.407-8.282-16.257-18.14-23.047
		c-1.835-14.898-9.375-28.965-21.677-38.607L288.735,5.604c-2.181-1.71-5.245-1.59-7.286,0.281
		c-2.042,1.872-2.426,4.914-0.913,7.235c5.409,8.293,7.369,18.038,5.981,27.362c-13.277-3.005-27.934-4.6-42.699-4.6
		c-56.916,0-101.5,22.183-101.5,50.5c0,3.012,5.911,33.538,8.078,45.4l-88.886,50.573c-0.569,0.324-1.033,0.78-1.377,1.312
		l-0.035-0.022l-51.845,83c-0.25,0.401-0.428,0.844-0.524,1.307l-7.646,36.873c-0.104,0.502-0.111,1.02-0.02,1.524l7.646,42.29
		c0.209,1.157,0.917,2.163,1.935,2.752l141.074,81.511c0.621,0.358,1.312,0.536,2,0.536c0.808,0,1.614-0.244,2.301-0.728
		c0.163-0.115,31.61-18.124,31.61-18.124c1.754,7.506,5.705,13.285,11.505,16.633c3.47,2.004,7.361,3.001,11.508,3.001
		c4.979,0,10.328-1.439,15.753-4.303c9.34-4.931,17.926-13.606,24.174-24.43c6.269-10.859,9.287-22.129,9.172-31.972L348.47,322.4
		c1.677,7.852,5.699,13.894,11.66,17.327c3.551,2.049,7.484,3.022,11.602,3.022c13.725-0.001,29.482-10.827,39.832-28.758
		c6.116-10.595,9.351-22.354,9.07-32.701l15.965-9.095c1.25-0.712,2.021-2.039,2.021-3.477L438.618,136.41L438.618,136.41z
		 M157.754,113.467c18.503,14.662,50.677,23.415,86.064,23.415c38.849,0,71.946-10.336,89.048-25.903
		c-3.829,21.319-7.764,42.78-9.179,49.358c-0.269,1.251-0.694,2.461-1.319,3.578c-8.992,16.074-42,27.963-78.55,27.963
		s-69.559-11.888-78.551-27.963c-0.625-1.117-1.05-2.327-1.319-3.578c-1.417-6.584-5.357-28.079-9.19-49.418
		C155.71,111.781,156.7,112.633,157.754,113.467z M299.729,24.385c17.326,13.58,23.717,37.34,15.541,57.778
		c-0.82,2.051,0.177,4.379,2.228,5.199c2.054,0.823,4.379-0.177,5.2-2.229c2.35-5.874,3.659-11.984,3.999-18.092
		c5.674,4.908,10.622,11.444,10.622,19.34c0,23.037-42.818,42.5-93.5,42.5c-31.621,0-61.35-7.569-78.677-19.883
		c8.789-19.472,29.192-31.425,50.661-29.316l26.191,2.576c16.451,1.623,32.404-5.147,42.676-18.1
		c10.429-13.149,12.993-30.51,7.397-45.78L299.729,24.385z M243.819,43.882c14.103,0,28.079,1.508,40.727,4.354
		c-1.423,3.881-3.471,7.584-6.143,10.954C269.827,70,256.507,75.645,242.777,74.298l-26.191-2.576
		c-24.154-2.383-47.142,10.604-57.794,32.001c-4.442-4.393-8.473-10.31-8.473-17.341C150.319,63.345,193.137,43.882,243.819,43.882z
		 M151.929,140.115c2.502,13.508,4.508,23.802,5.024,25.003c8.781,20.466,44.501,34.76,86.866,34.76s78.085-14.294,86.866-34.759
		c1.037-2.416,14.235-73.721,14.462-75.754l81.428,47.021L204.584,262.662l-133.05-76.804L151.929,140.115z M284.989,226.128
		l125.82-71.571v75.209l-125.82,71.569V226.128z M142.133,381.634L8.354,304.339l5.722-27.593l133.778,77.295L142.133,381.634z
		 M120.956,378.638l5.635,31.084l-88.685-51.241l-5.635-31.084L120.956,378.638z M64.806,191.211l134.176,77.454l-48.504,77.651
		L16.334,268.81L64.806,191.211z M207.425,270.249l34.141-19.421v45.769l-78.798,45.145L207.425,270.249z M9.634,314.318
		l13.555,7.832l5.635,31.084l-13.572-7.842L9.634,314.318z M135.674,414.97l-5.635-31.084l11.592,6.698l5.618,31.074L135.674,414.97
		z M242.643,401.489c-5.505,9.534-12.956,17.118-20.981,21.354c-7.422,3.921-14.356,4.435-19.526,1.449
		c-5.169-2.984-8.191-9.247-8.509-17.635c-0.344-9.067,2.499-19.313,8.003-28.847c5.505-9.534,12.956-17.118,20.981-21.354
		c4.239-2.238,8.318-3.365,12-3.365c2.766,0,5.309,0.636,7.526,1.916C253.252,361.425,253.484,382.711,242.643,401.489z
		 M404.634,309.992c-10.838,18.779-29.391,29.225-40.509,22.804c-4.511-2.597-7.393-7.739-8.258-14.609l11.83-6.739
		c0.466,3.412,1.973,5.994,4.461,7.428c0.939,0.542,2.373,1.108,4.27,1.108c2.208-0.001,5.044-0.769,8.453-3.237
		c3.788-2.743,7.49-7.057,10.422-12.143c2.223-3.844,3.822-7.8,4.693-11.556l12.522-7.133
		C411.896,293.684,409.16,302.152,404.634,309.992z M375.709,306.883l13.42-7.645c-0.241,0.457-0.493,0.913-0.755,1.366
		c-2.35,4.075-5.333,7.598-8.186,9.663c-2.509,1.818-3.88,1.767-4.032,1.679C375.875,311.784,375.225,310.205,375.709,306.883z
		 M349.668,312.514l-91.932,52.369c-1.71-7.366-5.592-13.334-11.6-16.803c-7.637-4.41-17.318-3.946-27.261,1.302
		c-9.34,4.931-17.926,13.606-24.174,24.43c-6.052,10.482-9.253,21.852-9.086,32.147l-29.987,17.084l-6.48-35.842l6.688-32.25
		l91.718-52.564c1.244-0.713,2.012-2.037,2.012-3.471v-52.638l27.423-15.599v77.534c0,1.425,0.757,2.741,1.989,3.458
		c0.622,0.361,1.316,0.542,2.011,0.542c0.682,0,1.364-0.174,1.978-0.523l133.82-76.12c1.25-0.711,2.022-2.038,2.022-3.477v-82.086
		l11.81-6.718v123.106L349.668,312.514z"/>
</g>
<g>
</g>
<g>
</g>
<g>
</g>
<g>
</g>
<g>
</g>
<g>
</g>
<g>
</g>
<g>
</g>
<g>
</g>
<g>
</g>
<g>
</g>
<g>
</g>
<g>
</g>
<g>
</g>
<g>
</g>
</svg>
