<?xml version="1.0" encoding="iso-8859-1"?>
<!-- Generator: Adobe Illustrator 18.0.0, SVG Export Plug-In . SVG Version: 6.00 Build 0)  -->
<!DOCTYPE svg PUBLIC "-//W3C//DTD SVG 1.1//EN" "http://www.w3.org/Graphics/SVG/1.1/DTD/svg11.dtd">
<svg version="1.1" id="Capa_1" xmlns="http://www.w3.org/2000/svg" xmlns:xlink="http://www.w3.org/1999/xlink" x="0px" y="0px"
	 viewBox="0 0 459.359 459.359" style="enable-background:new 0 0 459.359 459.359;" xml:space="preserve">
<g>
	<path d="M457.359,107.894l-152.14-87.85c-1.236-0.714-2.762-0.715-4,0l-212.32,122.59c-1.238,0.714-2,2.035-2,3.464v61.747
		l-42.357,24.093c-0.574,0.326-1.414,1.306-1.414,1.306l-42.52,68.07C0.21,301.95,0,302.684,0,303.433v64.924
		c0,1.429,0.762,2.749,1.999,3.463l115.699,66.849c0.619,0.358,1.31,0.537,2.001,0.537c0.69,0,1.381-0.179,2-0.536
		c0.24-0.139,25.348-14.553,25.348-14.553c1.586,5.899,4.847,10.464,9.538,13.173c2.959,1.708,6.272,2.56,9.796,2.56
		c4.2,0,8.7-1.208,13.256-3.614c7.779-4.106,14.922-11.32,20.113-20.312c4.909-8.503,7.565-17.72,7.558-26.13
		c0,0,19.667-11.199,19.842-11.321c0,0,13.703,7.985,13.898,8.098c0.619,0.357,1.309,0.536,2,0.536c0.69,0,1.381-0.179,2-0.536
		l95.593-55.188c1.751,5.058,4.837,9.016,8.987,11.414c2.96,1.709,6.274,2.561,9.8,2.561c4.199,0,8.699-1.208,13.255-3.613
		c7.779-4.106,14.92-11.319,20.108-20.31c4.587-7.937,7.213-16.542,7.525-24.503l57.042-32.931c1.237-0.715,2-2.035,2-3.464v-149.18
		C459.359,109.93,458.597,108.609,457.359,107.894z M303.219,28.127l144.14,83.23l-204.31,117.952L98.899,146.097L303.219,28.127z
		 M94.899,153.026l144.15,83.212v139.87l-10.18-5.879V266.575c0-1.429-0.763-2.75-2-3.464l-115.71-66.79
		c-1.23-0.71-2.744-0.714-3.977-0.013l-12.282,6.986V153.026z M109.144,204.395l107.68,62.154l-54.59,31.055L54.564,235.441
		L109.144,204.395z M145.951,415.535l-22.252,12.678v-9.473l23.397-13.33C146.324,408.849,145.934,412.254,145.951,415.535z
		 M47.842,240.797l108.789,62.81l-7.378,11.812L40.484,252.576L47.842,240.797z M145.012,322.209l-27.394,43.857L8.849,303.22
		l27.395-43.856L145.012,322.209z M115.699,374.196v5.918L8,317.887v-5.918L115.699,374.196z M8,327.126l19.261,11.129v23.335
		L8,350.461V327.126z M35.261,342.877l52.908,30.569v23.335l-52.908-30.569V342.877z M96.169,378.069l19.53,11.284v23.335
		l-19.53-11.284V378.069z M165.073,305.193l26.771-15.23v35.872L130.27,360.91L165.073,305.193z M8,366.049V359.7l107.699,62.227
		v6.349L8,366.049z M192.824,411.925c-4.448,7.704-10.457,13.825-16.92,17.237c-5.86,3.094-11.301,3.521-15.318,1.201
		s-6.368-7.244-6.619-13.867c-0.277-7.303,2.02-15.568,6.468-23.271c8.697-15.062,23.458-23.506,32.238-18.438
		c4.017,2.32,6.368,7.244,6.619,13.867C199.568,395.956,197.271,404.221,192.824,411.925z M220.869,372.861l-14.615,8.328
		c-1.57-5.976-4.848-10.598-9.582-13.331c-12.967-7.485-31.926,1.9-43.166,21.367c-0.897,1.554-1.714,3.133-2.458,4.726
		l-27.349,15.582v-35.672l74.125-42.223c1.249-0.711,2.02-2.038,2.02-3.476v-42.748l21.024-11.96V372.861z M385.864,317.436
		c-4.445,7.703-10.453,13.824-16.915,17.235c-5.861,3.093-11.303,3.519-15.319,1.2c-3.394-1.961-5.064-5.406-5.88-8.59l8.649-4.993
		c0.888,1.846,2.157,2.879,3.104,3.422c1.213,0.699,2.5,1.019,3.822,1.019c5.681,0,12.035-5.895,16.138-12.993
		c1.219-2.11,2.228-4.322,2.985-6.486l9.288-5.362C390.793,307.029,388.795,312.364,385.864,317.436z M363.439,318.224l4.871-2.812
		c-2.097,2.153-3.916,3.163-4.757,3.287C363.514,318.588,363.475,318.42,363.439,318.224z M247.049,376.18V236.238l204.31-117.951
		v139.942L247.049,376.18z"/>
	<path d="M186.802,384.953c-6.424-3.705-14.905,3.214-19.96,11.971c-2.458,4.257-4.036,8.756-4.442,12.666
		c-0.705,6.783,2.239,9.556,4.056,10.605c0.851,0.491,2.151,1.007,3.859,1.007c1.943,0,4.415-0.667,7.354-2.797
		c3.183-2.307,6.29-5.922,8.749-10.18C191.472,399.469,193.227,388.663,186.802,384.953z M179.488,404.225
		c-3.579,6.197-7.618,8.775-8.988,8.964c-0.521-1.281-0.309-6.068,3.269-12.266h0c3.578-6.197,7.617-8.775,8.987-8.965
		C183.278,393.241,183.066,398.028,179.488,404.225z"/>
</g>
<g>
</g>
<g>
</g>
<g>
</g>
<g>
</g>
<g>
</g>
<g>
</g>
<g>
</g>
<g>
</g>
<g>
</g>
<g>
</g>
<g>
</g>
<g>
</g>
<g>
</g>
<g>
</g>
<g>
</g>
</svg>
