<?xml version="1.0" encoding="iso-8859-1"?>
<!-- Generator: Adobe Illustrator 18.0.0, SVG Export Plug-In . SVG Version: 6.00 Build 0)  -->
<!DOCTYPE svg PUBLIC "-//W3C//DTD SVG 1.1//EN" "http://www.w3.org/Graphics/SVG/1.1/DTD/svg11.dtd">
<svg version="1.1" id="Capa_1" xmlns="http://www.w3.org/2000/svg" xmlns:xlink="http://www.w3.org/1999/xlink" x="0px" y="0px"
	 viewBox="0 0 449.441 449.441" style="enable-background:new 0 0 449.441 449.441;" xml:space="preserve">
<path d="M447.438,104.14L336.292,39.97c-1.237-0.715-2.76-0.715-3.997-0.002l-274.78,158.32c-0.005,0.003-0.01,0.005-0.015,0.008
	c-1.238,0.714-2,2.035-2,3.464v72.803L1.964,305.786c-1.304,0.771-2.061,2.212-1.955,3.723v29.741c0,1.429,0.762,2.75,2,3.464
	l111.13,64.16c0.619,0.357,1.31,0.536,2,0.536c0.69,0,1.38-0.179,1.999-0.535l22.932-13.225c0.493,6.343,3.205,11.603,8.038,14.394
	c2.305,1.331,4.855,1.964,7.515,1.964c8.563,0,18.263-6.558,24.57-17.48c4.979-8.625,6.538-17.717,4.868-24.814L366.83,262.91
	c0.942,5.215,3.533,9.482,7.716,11.897c2.274,1.313,4.813,1.968,7.503,1.968c3.154,0,6.518-0.899,9.911-2.69
	c5.685-3.001,10.896-8.255,14.67-14.793c4.43-7.673,6.154-15.717,5.305-22.396l35.504-20.466c1.238-0.715,2.002-2.036,2.002-3.466
	V107.606C449.441,107.606,448.676,104.855,447.438,104.14z M441.441,162.828l-28.413,16.382v-27.645l28.413-16.382V162.828z
	 M145.503,372.499c-2.188,3.79-3.71,7.67-4.595,11.433l-21.773,12.557V375.38l48.035-27.944v7.832
	C159.387,356.543,151.107,362.794,145.503,372.499L145.503,372.499z M175.17,279.468v-11.414l266.271-153.529v11.424L175.17,279.468
	z M114.894,368.592l-20.176-11.648l47.867-27.919l20.239,11.685L114.894,368.592z M89.374,280.419l46.379,26.776l-49.269,34.997
	l-46.442-26.817L89.374,280.419z M90.75,348.974l48.015-34.106v7.124L90.75,349.998V348.974z M146.765,322.2v-8.647l20.405,11.781
	v8.647L146.765,322.2z M167.17,279.401l-23.702-13.684v-10.861l23.702,13.684V279.401z M135.468,261.098l-41.49-23.954v-10.861
	l41.49,23.954V261.098z M85.978,232.526L63.5,219.548v-10.861l22.478,12.978V232.526z M167.17,288.638v27.458L63.5,256.245v-27.459
	L167.17,288.638z M81.749,276.017l-6.556,4.646l-11.693-6.75v-8.431L81.749,276.017z M68.009,285.753l-37.684,26.702
	c-1.061,0.752-1.68,1.971-1.68,3.264l-0.008,2.853l-16.447-9.49l47.87-27.916L68.009,285.753z M36.638,322.647l46.112,26.628v30.817
	l-46.112-26.623V322.647z M90.75,363.891l20.385,11.768v20.819L90.75,384.71V363.891z M175.17,288.702l24.531-14.143v27.64
	l-24.531,14.147V288.702z M207.701,269.946l21.122-12.178v75.479l-21.122,12.178V269.946z M236.822,253.156l30.706-17.704V263.1
	l-30.706,17.704V253.156z M275.528,230.84l26.375-15.206v27.647l-26.375,15.207V230.84z M309.903,211.021l26.375-15.206v27.646
	l-26.375,15.207V211.021z M344.278,191.203l26.375-15.206v27.646l-26.375,15.207V191.203z M378.653,171.384l26.375-15.206v27.645
	l-26.375,15.207V171.384z M334.29,48.051l103.144,59.551L170.749,261.369L67.507,201.764L334.29,48.051z M8.01,315.905
	l20.628,11.903v21.041L8.01,336.94V315.905z M173.265,388.527c-5.722,9.909-15.609,15.787-21.157,12.589
	c-5.549-3.204-5.398-14.707,0.324-24.617h0c5.722-9.909,15.61-15.793,21.156-12.589
	C179.137,367.114,178.985,378.618,173.265,388.527z M177.588,356.982c-0.779-0.45-1.588-0.811-2.418-1.104V325.58l24.531-14.147
	v38.605l-18.068,10.417C180.511,359.069,179.164,357.892,177.588,356.982z M399.702,255.292c-2.987,5.174-7.171,9.445-11.478,11.719
	c-2.182,1.151-6.343,2.794-9.679,0.869c-5.549-3.204-5.397-14.706,0.323-24.616c5.722-9.909,15.608-15.787,21.156-12.589
	C405.574,233.879,405.423,245.382,399.702,255.292z M409.389,229.128c-1.322-2.236-3.109-4.08-5.364-5.381
	c-9.726-5.617-23.818,1.201-32.084,15.517c-2.779,4.813-4.489,9.771-5.172,14.448l-129.947,74.923v-38.597l204.619-117.977v38.591
	L409.389,229.128z"/>
<g>
</g>
<g>
</g>
<g>
</g>
<g>
</g>
<g>
</g>
<g>
</g>
<g>
</g>
<g>
</g>
<g>
</g>
<g>
</g>
<g>
</g>
<g>
</g>
<g>
</g>
<g>
</g>
<g>
</g>
</svg>
