<?xml version="1.0" encoding="iso-8859-1"?>
<!-- Generator: Adobe Illustrator 18.0.0, SVG Export Plug-In . SVG Version: 6.00 Build 0)  -->
<!DOCTYPE svg PUBLIC "-//W3C//DTD SVG 1.1//EN" "http://www.w3.org/Graphics/SVG/1.1/DTD/svg11.dtd">
<svg version="1.1" id="Capa_1" xmlns="http://www.w3.org/2000/svg" xmlns:xlink="http://www.w3.org/1999/xlink" x="0px" y="0px"
	 viewBox="0 0 457.632 457.632" style="enable-background:new 0 0 457.632 457.632;" xml:space="preserve">
<g>
	<path d="M457.632,95.691c0-1.43-0.762-2.751-2-3.465l-94.193-54.383c-1.236-0.714-2.76-0.714-3.998-0.001L2.005,242.756
		c-1.238,0.714-2.001,2.035-2.002,3.464C0.003,246.221,0,361.945,0,361.945c0,1.429,0.762,2.75,2,3.464l25.692,14.836v9.402
		c0,1.429,0.762,2.75,2,3.464l26.285,15.175c0.619,0.357,1.31,0.536,2,0.536s1.381-0.179,2-0.536c1.238-0.714,2-2.035,2-3.464
		v-4.782l34.214,19.749c0.619,0.357,1.309,0.536,2,0.536c0.689,0,1.379-0.178,1.998-0.535l25.321-14.598l10.812,6.237
		c0.619,0.357,1.309,0.535,1.999,0.535c0.69,0,1.379-0.178,1.998-0.535l5.887-3.394c1.007,1.222,2.195,2.244,3.54,3.019
		c2.028,1.175,4.312,1.769,6.745,1.768c1.402,0,2.854-0.197,4.335-0.593c6.551-1.751,13.045-7.271,17.368-14.763
		c1.226-2.12,2.208-4.293,2.966-6.465c0.603,0.514,1.241,0.992,1.942,1.396c2.071,1.195,4.36,1.763,6.746,1.763
		c7.594-0.001,16.159-5.758,21.706-15.365c2.16-3.735,3.58-7.598,4.294-11.321l153.252-88.344c1.107,1.524,2.468,2.78,4.063,3.697
		c2.05,1.184,4.333,1.773,6.749,1.773c2.811,0,5.802-0.799,8.814-2.389c5-2.64,9.574-7.254,12.879-12.986
		c1.232-2.131,2.221-4.303,2.983-6.468c0.602,0.517,1.236,0.998,1.935,1.401c2.05,1.183,4.333,1.772,6.75,1.772
		c2.811,0,5.802-0.799,8.814-2.389c5-2.64,9.574-7.254,12.878-12.986c5.197-8.987,6.174-18.824,2.961-25.471l17.704-10.206
		c1.239-0.714,2.002-2.035,2.002-3.465C457.63,211.414,457.632,95.701,457.632,95.691z M359.438,45.925l86.19,49.762L98.189,295.978
		l-86.182-49.754L359.438,45.925z M94.188,314.793L72.35,302.186v-11.888l21.838,12.607V314.793z M64.35,297.567l-27.914-16.115
		v-11.888l27.914,16.115V297.567z M28.436,276.834L8,265.036v-11.888l20.436,11.798V276.834z M8,274.274l20.436,11.798v52.477
		L8,326.751V274.274z M36.436,290.69l27.914,16.115v52.477l-27.914-16.115V290.69z M72.35,311.424l21.838,12.607v52.477
		L72.35,363.901V311.424z M102.188,328.244l16.938-9.766c0.044-0.026,0.069-0.039,0.135-0.002c0.069,0.04,0.069,0.072,0.069,0.125
		v44.64c0,0.065-0.045,0.102-0.068,0.115l-17.074,9.843V328.244z M53.977,397.893l-18.285-10.556v-7.986l18.285,10.556V397.893z
		 M59.977,384.134l-26.285-15.175c-1.237-0.714-2.763-0.714-4,0c-0.851,0.491-1.47,1.272-1.778,2.175L8,359.636v-23.647
		l86.188,49.758v23.65l-32.211-18.593v-3.205C61.977,386.169,61.214,384.848,59.977,384.134z M138.32,403.347l-4.803-2.771
		l8.982-5.178c-0.065,1.854,0.073,3.631,0.405,5.307L138.32,403.347z M171.265,393.466c-3.237,5.611-8.029,9.84-12.506,11.037
		c-1.983,0.531-3.666,0.406-5.011-0.373c-1.059-0.611-1.879-1.623-2.443-3.023c-1.125-2.763-1.074-6.735,0.087-10.835l23.12-13.328
		C175.652,380.887,174.987,387.032,171.265,393.466z M369.973,255.026v-41.861l19.044-10.979v41.861L369.973,255.026z
		 M366.164,271.589l-150.127,86.543c-0.273-1.555-0.698-3.029-1.305-4.376l151.198-87.165
		C365.831,268.325,365.922,269.994,366.164,271.589z M334.928,248.248v26.98L222.35,340.13v-26.984L334.928,248.248z
		 M342.928,270.617v-41.86l19.044-10.98v41.86L342.928,270.617z M214.35,344.742l-19.044,10.979v-41.873l19.044-10.98V344.742z
		 M397.017,158.259l26.78-15.439c0.046-0.026,0.068-0.04,0.134-0.002c0.069,0.04,0.069,0.072,0.069,0.126v44.64
		c0,0.065-0.045,0.101-0.067,0.114l-26.916,15.515V158.259z M389.017,192.951l-19.044,10.979v-30.08l19.044-10.979V192.951z
		 M361.973,208.543l-19.044,10.98v-30.081l19.044-10.979V208.543z M334.928,239.015l-52.578,30.31v-44.959l52.578-30.311V239.015z
		 M274.35,273.936l-52,29.976v-44.957l52-29.978V273.936z M214.35,293.634l-19.044,10.98v-30.067l19.044-10.979V293.634z
		 M187.306,309.226l-19.044,10.98v-30.069l19.044-10.979V309.226z M160.262,339.702l-12.621,7.278v-44.956l12.621-7.276V339.702z
		 M168.262,329.44l19.044-10.98v41.872l-19.044,10.979V329.44z M204.626,374.795c-5.306,9.19-13.493,13.001-17.527,10.675
		c-3.335-1.923-4.189-8.028-2.159-14.539l22.768-13.125C209.061,361.788,208.409,368.251,204.626,374.795z M394.675,265.227
		c-2.526,4.382-6.057,7.995-9.687,9.912c-1.784,0.942-5.174,2.293-7.833,0.759c-1.199-0.69-2.091-1.892-2.648-3.572
		c-0.977-2.945-0.78-6.884,0.503-10.97l22.752-13.117C399.114,252.219,398.46,258.68,394.675,265.227z M428.035,246.557
		c-2.526,4.382-6.057,7.995-9.686,9.912c-1.784,0.942-5.173,2.293-7.828,0.762c-3.498-2.02-4.261-8.426-1.939-15.229l22.406-12.917
		C432.855,233.601,431.215,241.057,428.035,246.557z M397.017,239.435v-26.987l30.916-17.82c2.509-1.45,4.068-4.149,4.068-7.042
		v-44.64c0-2.944-1.52-5.581-4.066-7.052c-2.543-1.47-5.583-1.472-8.132-0.003L141.7,296.216c-0.851,0.473-1.527,1.252-1.854,2.233
		c-0.149,0.448-0.215,0.908-0.204,1.362v54.003c-0.001,0.041-0.001,0.082-0.001,0.124l0.001,0.116c0.019,2.197,1.805,3.966,4,3.966
		c0.006,0,0.012,0,0.017,0c1.045-0.004,1.996-0.409,2.706-1.069l13.898-8.015v26.986l-58.074,33.479v-26.969l21.074-12.149
		c2.51-1.451,4.068-4.149,4.068-7.043v-44.64c0-2.944-1.52-5.58-4.065-7.052c-2.543-1.47-5.583-1.472-8.133-0.003l-12.944,7.463
		v-16.103L449.63,102.614v106.49L397.017,239.435z"/>
	<path d="M355.565,69.125c0-2.209-1.795-4-4.004-4c-0.701,0-1.39,0.185-1.998,0.535L50.22,238.225
		c-1.914,1.103-2.571,3.549-1.468,5.463c0.741,1.285,2.085,2.003,3.469,2.003c0.677,0,1.365-0.172,1.994-0.535L353.4,72.682
		C354.687,72.018,355.565,70.674,355.565,69.125z"/>
	<path d="M380.611,81.898c-1.104-1.914-3.549-2.572-5.463-1.468L75.805,252.996c-1.914,1.103-2.571,3.549-1.468,5.463
		c0.741,1.285,2.085,2.003,3.469,2.003c0.677,0,1.365-0.172,1.994-0.535L379.144,87.361
		C381.058,86.258,381.715,83.812,380.611,81.898z"/>
	<path d="M99.922,273.222c0.74,1.285,2.085,2.003,3.469,2.003c0.678,0,1.365-0.172,1.994-0.535L404.72,102.133
		c1.914-1.103,2.571-3.549,1.468-5.463c-1.102-1.915-3.549-2.571-5.463-1.468L101.39,267.759
		C99.476,268.862,98.818,271.308,99.922,273.222z"/>
	<ellipse cx="16.843" cy="353.335" rx="5.14" ry="7.709"/>
	<ellipse cx="82.8" cy="391.633" rx="5.14" ry="7.709"/>
</g>
<g>
</g>
<g>
</g>
<g>
</g>
<g>
</g>
<g>
</g>
<g>
</g>
<g>
</g>
<g>
</g>
<g>
</g>
<g>
</g>
<g>
</g>
<g>
</g>
<g>
</g>
<g>
</g>
<g>
</g>
</svg>
