<?xml version="1.0" encoding="iso-8859-1"?>
<!-- Generator: Adobe Illustrator 18.0.0, SVG Export Plug-In . SVG Version: 6.00 Build 0)  -->
<!DOCTYPE svg PUBLIC "-//W3C//DTD SVG 1.1//EN" "http://www.w3.org/Graphics/SVG/1.1/DTD/svg11.dtd">
<svg version="1.1" id="Capa_1" xmlns="http://www.w3.org/2000/svg" xmlns:xlink="http://www.w3.org/1999/xlink" x="0px" y="0px"
	 viewBox="0 0 457.79 457.79" style="enable-background:new 0 0 457.79 457.79;" xml:space="preserve">
<path d="M457.781,121.137c0-1.418-0.745-2.745-1.991-3.464L333.797,47.24c-0.995-0.573-2.186-0.693-3.275-0.327L76.438,132.381
	c-1.49,0.501-2.548,1.83-2.705,3.394c-0.013,0.133-0.011,0.265-0.011,0.397h-0.009v14.798l-58.208,33.613
	c-1.044,0.603-1.744,1.64-1.939,2.807l-0.006-0.001L0.055,268.35l0.006,0.001C0.025,268.567,0,268.785,0,269.008v67.657
	c0,1.429,0.762,2.75,2,3.464l121.981,70.421c0.624,0.36,1.313,0.535,1.997,0.535c0.698,0,1.384-0.198,1.997-0.552l0.006,0.011
	l39.695-22.915c0.406,7.952,3.635,14.558,9.58,17.991c2.724,1.572,5.738,2.319,8.888,2.319c10.299,0,22.037-7.993,29.703-21.271
	c6.1-10.565,8.005-21.683,5.939-30.281l101.323-58.493c0.597,7.548,3.804,13.787,9.523,17.089c2.676,1.545,5.669,2.315,8.85,2.315
	c3.768,0,7.799-1.081,11.875-3.232c6.915-3.65,13.26-10.055,17.866-18.033c4.514-7.819,6.878-16.325,6.692-24.015
	c1.339,5.46,4.283,9.895,8.794,12.5c2.676,1.545,5.669,2.315,8.85,2.315c3.768,0,7.799-1.081,11.875-3.233
	c6.915-3.65,13.26-10.054,17.867-18.033c4.606-7.979,6.98-16.676,6.684-24.489c-0.075-1.982-0.324-3.852-0.726-5.605l7.383-4.262
	c1.238-0.714,2-2.035,2-3.464V188.81l15.148-8.745c1.238-0.715,2-2.035,2-3.464v-55.463H457.781z M133.846,268.422l-114.652-66.19
	l1.307-7.836l114.601,66.161L133.846,268.422z M132.495,276.88l-9.022,56.485L8.402,266.93l9.387-56.272L132.495,276.88z
	 M121.983,341.742v15.816L8,291.754v-15.818L121.983,341.742z M8,300.992l11.063,6.386v12.234L8,313.226V300.992z M27.063,311.997
	l75.5,43.587v33.363l-75.5-43.587V311.997z M110.563,360.203l11.421,6.593v12.236l-11.421-6.591V360.203z M143.135,260.981
	l52.559-30.34v63.962l-63.813,36.842L143.135,260.981z M81.713,143.101l113.981,65.803v7.907L81.713,150.997V143.101z
	 M200.13,202.227l-13.179-7.609l144.846-83.635l51.397,29.675L200.13,202.227z M393.304,137.259l-57.507-33.203V57.633
	l108.318,62.537L393.304,137.259z M327.797,56.27v47.786L178.951,190l-91.564-52.861L327.797,56.27z M77.69,157.912l113.981,65.813
	l-52.185,30.125L25.505,188.047L77.69,157.912z M8,322.464l11.063,6.386v11.892L8,334.355V322.464z M110.563,393.566v-11.889
	l11.421,6.591v11.891L110.563,393.566z M168.479,377.93l-38.496,22.222v-58.374l65.711-37.937v39.246
	c-7.847,2.972-15.683,9.876-21.32,19.638C171.457,367.779,169.504,372.958,168.479,377.93z M208.92,382.67
	c-7.51,13.007-20.179,20.343-27.663,16.023c-7.485-4.322-7.464-18.961,0.045-31.968c6.045-10.47,15.431-17.266,22.767-17.266
	c1.778,0,3.436,0.399,4.896,1.242C216.45,355.023,216.43,369.663,208.92,382.67z M212.965,343.773
	c-2.833-1.635-5.983-2.371-9.271-2.308v-15.863l24.638-14.224v31.995l-9.75,5.629C217.108,346.865,215.237,345.085,212.965,343.773z
	 M296.876,271.807v31.996l-60.544,34.952V306.76L296.876,271.807z M364.295,292.034c-3.862,6.69-9.073,12.003-14.672,14.958
	c-4.997,2.638-9.609,3.015-12.99,1.064c-7.485-4.322-7.464-18.961,0.045-31.968h0c3.863-6.69,9.074-12.003,14.673-14.958
	c4.997-2.638,9.61-3.016,12.99-1.064c3.38,1.951,5.359,6.135,5.573,11.781C370.153,278.175,368.158,285.344,364.295,292.034z
	 M418.373,261.569c-3.863,6.69-9.074,12.003-14.673,14.958c-4.997,2.638-9.61,3.015-12.99,1.064
	c-7.485-4.322-7.464-18.961,0.045-31.968h0c3.862-6.69,9.073-12.003,14.672-14.958c2.89-1.526,5.652-2.295,8.122-2.295
	c1.799,0,3.443,0.409,4.868,1.231c3.38,1.951,5.359,6.135,5.573,11.781C424.23,247.709,422.235,254.878,418.373,261.569z
	 M432.642,225.438l-4.514,2.606c-1.503-2.227-3.415-4.046-5.711-5.371c-5.848-3.377-13.208-3.05-20.725,0.917
	c-6.915,3.65-13.26,10.054-17.866,18.033c-2.96,5.127-4.926,10.383-5.938,15.42l-3.482,2.01c-1.551-2.477-3.585-4.483-6.066-5.915
	c-5.847-3.376-13.208-3.05-20.725,0.917c-6.915,3.65-13.26,10.054-17.866,18.033h0c-3.125,5.412-5.15,10.971-6.105,16.261
	l-18.767,10.834v-31.996l127.765-73.76V225.438z M203.694,316.364V209.469l246.096-82.766v47.588L203.694,316.364z"/>
<g>
</g>
<g>
</g>
<g>
</g>
<g>
</g>
<g>
</g>
<g>
</g>
<g>
</g>
<g>
</g>
<g>
</g>
<g>
</g>
<g>
</g>
<g>
</g>
<g>
</g>
<g>
</g>
<g>
</g>
</svg>
