<?xml version="1.0" encoding="iso-8859-1"?>
<!-- Generator: Adobe Illustrator 18.0.0, SVG Export Plug-In . SVG Version: 6.00 Build 0)  -->
<!DOCTYPE svg PUBLIC "-//W3C//DTD SVG 1.1//EN" "http://www.w3.org/Graphics/SVG/1.1/DTD/svg11.dtd">
<svg version="1.1" id="Capa_1" xmlns="http://www.w3.org/2000/svg" xmlns:xlink="http://www.w3.org/1999/xlink" x="0px" y="0px"
	 viewBox="0 0 471.443 471.443" style="enable-background:new 0 0 471.443 471.443;" xml:space="preserve">
<g>
	<path d="M471.382,261.834c-0.699-18.434-7.285-32.889-18.662-41.218c-1.116-0.817-34.684-19.958-41.224-23.727
		c-8.827-5.093-19.275-6.447-30.446-4.16V80.353l9.034-5.215c1.237-0.714,2-2.034,2-3.464c0-1.429-0.762-2.749-2-3.464
		L279.615,4.416c-1.236-0.715-2.763-0.715-4.003,0.001L144.854,80.044c-1.239,0.718-2.002,2.043-1.997,3.476
		c0.004,1.433,0.773,2.754,2.018,3.463l8.396,4.787v36.847l-11.979-10.571V65.147c0-18.092,9.139-34.649,24.446-44.292
		c1.869-1.178,2.43-3.647,1.253-5.517c-1.178-1.869-3.646-2.431-5.517-1.253c-17.647,11.116-28.183,30.205-28.183,51.062v156.542
		l-28.308,32.701c-6.46-3.67-13.191-7.502-15.653-8.916c-11.023-6.361-25.092-5.643-39.612,2.022
		c-13.92,7.347-26.737,20.313-36.091,36.512c-9.354,16.193-14.176,33.775-13.578,49.51c0.623,16.413,7.033,28.958,18.053,35.326
		c5.273,3.042,29.191,16.588,30.05,17.074c0.003,0.002,0.005,0.004,0.008,0.005c0.005,0.003,0.01,0.005,0.016,0.008
		c0.002,0.001,0.013,0.008,0.015,0.008v0c4.921,2.836,10.508,4.241,16.476,4.241c7.684,0,15.996-2.335,24.309-6.939l25.123,14.321
		c0.614,0.35,1.298,0.524,1.98,0.524c0.732,0,1.464-0.201,2.109-0.602l20.78-12.894c-2.631,8.955-3.87,17.875-3.552,26.269
		c0.622,16.412,7.03,28.956,18.048,35.322c5.344,3.08,31.937,18.103,32.891,18.532c4.227,1.902,8.836,2.849,13.701,2.849
		c7.268,0,15.104-2.115,23.077-6.325c13.924-7.35,26.741-20.316,36.091-36.512c9.351-16.194,14.172-33.778,13.575-49.512
		c-0.366-9.655-2.749-17.955-6.88-24.461l39.193-22.672c3.72,9.677,9.809,17.205,17.981,21.926
		c6.705,3.865,40.773,23.064,42.338,23.708c4.86,1.999,10.116,2.996,15.646,2.996c8.96,0,18.636-2.616,28.494-7.82
		c17.313-9.139,33.259-25.278,44.902-45.446C466.119,303.277,472.123,281.397,471.382,261.834z M373.05,194.939
		c-3.394,1.188-6.832,2.687-10.294,4.514c-10.692,5.643-20.86,13.964-29.818,24.25V108.127l40.112-23.156V194.939z M304.937,275.31
		l-37.396,21.633V145.879l57.396-33.134v121.119c-2.503,3.521-4.872,7.205-7.084,11.037
		C312.147,254.784,307.804,265.078,304.937,275.31z M277.617,12.5l102.467,59.173l-122.187,70.535L154.889,83.482L277.617,12.5z
		 M255.938,150.3c0.622,0.354,1.302,0.524,1.975,0.524c0.561,0,1.116-0.122,1.628-0.35v103.077l-98.27-56.75V96.33L255.938,150.3z
		 M59.639,324.38l8.372,4.773v32.93l-8.372-4.772V324.38z M76.011,333.714l5.601,3.193v32.929l-5.601-3.192V333.714z
		 M89.612,341.467l5.6,3.192v32.928l-5.6-3.192V341.467z M103.212,349.22l8.862,5.052v32.927l-8.862-5.052V349.22z M115.988,347.295
		l-54.133-30.86l96.848-111.878l97.052,56.047L115.988,347.295z M141.292,128.715l11.979,10.571v59.323l-11.979,13.839V128.715z
		 M20.555,288.009c17.431-30.187,46.493-46.154,64.785-35.602c1.905,1.093,6.341,3.621,11.234,6.404
		c-19.017,3.016-39.542,19.181-52.886,42.287c-9.35,16.195-14.171,33.778-13.575,49.512c0.252,6.658,1.472,12.665,3.55,17.894
		c-5.01-2.845-9.596-5.456-11.561-6.589C3.814,351.347,3.121,318.194,20.555,288.009z M52.161,378.994
		c-8.549-4.932-13.54-15.119-14.054-28.687c-0.539-14.247,3.903-30.303,12.509-45.209c11.157-19.32,27.452-33.315,42.933-37.499
		L52.62,314.88c-0.19,0.22-0.354,0.543-0.491,0.888c-0.348,0.876-0.489,1.821-0.489,2.764v41.103c0,1.437,0.771,2.764,2.02,3.475
		l26.948,15.361C69.963,383.179,59.847,383.436,52.161,378.994z M120.074,386.9v-32.725l139.467-86.506v75.657
		c-1.487-1.28-3.075-2.437-4.789-3.426c-0.009-0.005-24.853-14.089-30.059-17.089c-11.019-6.357-25.086-5.639-39.609,2.026
		c-13.923,7.349-26.74,20.316-36.091,36.514c-2.097,3.632-3.953,7.335-5.584,11.07L120.074,386.9z M157.464,439.252
		c-18.282-10.563-18.974-43.715-1.543-73.901c17.429-30.188,46.485-46.162,64.776-35.609c1.891,1.09,6.317,3.61,11.205,6.388
		c-5.411,0.858-11.047,2.782-16.758,5.797c-13.924,7.35-26.741,20.316-36.091,36.512c-9.351,16.195-14.171,33.779-13.575,49.512
		c0.253,6.658,1.473,12.664,3.551,17.894C164.017,442.997,159.429,440.385,157.464,439.252z M252.297,420.726
		c-8.606,14.907-20.289,26.782-32.897,33.438c-12.006,6.336-23.326,7.109-31.873,2.175c-18.282-10.556-18.976-43.707-1.545-73.899
		c8.606-14.906,20.29-26.781,32.897-33.437c12.006-6.338,23.324-7.111,31.873-2.175c8.548,4.936,13.539,15.124,14.054,28.69
		C265.345,389.764,260.903,405.82,252.297,420.726z M267.541,340.572v-34.387l34.953-20.219c-1.256,7.008-1.799,13.909-1.547,20.542
		c0.184,4.865,0.789,9.444,1.773,13.715L267.541,340.572z M327.092,343.077c-23.439-13.543-24.477-55.79-2.311-94.176
		c22.162-38.389,59.267-58.616,82.719-45.081c2.713,1.563,9.578,5.469,16.721,9.528c-7.587,0.754-15.592,3.266-23.726,7.56
		c-17.312,9.139-33.259,25.278-44.902,45.446s-17.647,42.048-16.906,61.61c0.358,9.447,2.281,17.83,5.584,24.898
		C336.99,348.729,329.905,344.699,327.092,343.077z M447.547,319.445c-10.9,18.879-25.713,33.927-41.709,42.371
		c-15.396,8.127-29.956,9.089-41.003,2.712c-11.047-6.378-17.494-19.471-18.154-36.866c-0.685-18.075,4.94-38.428,15.84-57.307
		c22.167-38.393,59.274-58.614,82.713-45.083c11.047,6.378,17.494,19.471,18.153,36.866
		C464.072,280.213,458.447,300.566,447.547,319.445z"/>
	<path d="M240.594,364.423c-10.957-6.325-28.447,4.876-40.68,26.06c-12.23,21.185-13.188,41.932-2.229,48.26
		c2.037,1.177,4.319,1.759,6.781,1.759c4.344,0,9.248-1.813,14.352-5.378c7.121-4.975,14.063-12.944,19.546-22.441
		C250.595,391.497,251.553,370.75,240.594,364.423z M240.054,383.847c-0.648,7.512-3.709,16.331-8.618,24.835
		c-4.91,8.504-11.018,15.565-17.199,19.883c-5.152,3.599-9.846,4.813-12.552,3.25c-2.708-1.563-4.002-6.235-3.462-12.497
		c0.648-7.511,3.709-16.331,8.618-24.835c4.91-8.504,11.019-15.564,17.199-19.882c5.151-3.597,9.846-4.812,12.553-3.25
		C239.302,372.914,240.595,377.585,240.054,383.847z"/>
	<path d="M433.352,245.852c-14.644-8.458-38.555,6.466-54.434,33.971c-7.333,12.7-11.773,26.129-12.504,37.813
		c-0.792,12.676,2.866,22.02,10.301,26.312c2.77,1.6,5.869,2.362,9.185,2.362c14.215-0.002,32.373-14.031,45.249-36.332
		C447.029,282.474,447.996,254.307,433.352,245.852z M385.846,283.822c5.865-10.16,12.567-18.035,19.085-23.476
		c2.46-1.134,5.828-2.142,8.259-0.745c5.805,3.356,4.831,20.037-5.163,37.338c-4.907,8.503-11.014,15.563-17.195,19.88
		c-5.151,3.597-9.842,4.808-12.545,3.248c-2.195-1.272-3.053-4.179-3.385-6.568C376.291,304.153,380.09,293.794,385.846,283.822z
		 M424.221,305.978c-14.547,25.193-34.239,36.388-43.506,31.042c-2.921-1.686-4.911-5.083-5.828-9.73
		c1.883,0.961,3.951,1.463,6.178,1.463c4.342,0,9.243-1.812,14.346-5.375c7.123-4.974,14.063-12.943,19.544-22.438
		c12.162-21.055,13.179-41.679,2.415-48.15c2.388-0.87,4.633-1.318,6.66-1.318c2.008,0,3.805,0.432,5.321,1.308
		C438.618,258.129,438.767,280.782,424.221,305.978z"/>
</g>
<g>
</g>
<g>
</g>
<g>
</g>
<g>
</g>
<g>
</g>
<g>
</g>
<g>
</g>
<g>
</g>
<g>
</g>
<g>
</g>
<g>
</g>
<g>
</g>
<g>
</g>
<g>
</g>
<g>
</g>
</svg>
