<?xml version="1.0" encoding="iso-8859-1"?>
<!-- Generator: Adobe Illustrator 18.0.0, SVG Export Plug-In . SVG Version: 6.00 Build 0)  -->
<!DOCTYPE svg PUBLIC "-//W3C//DTD SVG 1.1//EN" "http://www.w3.org/Graphics/SVG/1.1/DTD/svg11.dtd">
<svg version="1.1" id="Capa_1" xmlns="http://www.w3.org/2000/svg" xmlns:xlink="http://www.w3.org/1999/xlink" x="0px" y="0px"
	 viewBox="0 0 438.442 438.442" style="enable-background:new 0 0 438.442 438.442;" xml:space="preserve">
<g>
	<path d="M425.454,121.158c-0.884-0.51-104.951-60.391-129.228-74.36c-2.212-1.273-4.884-2.525-6.329-3.179
		c-0.653-0.295-1.314-0.569-1.997-0.783c-6.878-2.144-14.339-1.313-20.653,2.334L51.045,169.997
		c-12.122,6.998-21.029,18.23-25.083,31.629L0.863,284.592c-1.591,5.263-0.97,10.714,1.75,15.349c1.124,1.917,2.705,3.697,4.7,5.29
		l0.546,0.436c0.815,0.652,1.688,1.248,2.595,1.771l42.276,24.406l-24.998,43.496L3.714,389.207c-1.88,1.085-2.725,3.47-1.727,5.398
		c0.718,1.387,2.117,2.166,3.558,2.166c0.679,0,1.366-0.173,1.996-0.537l24.547-14.173l80.078-15.905l29.703,16.791
		c3.028,1.805,6.368,2.733,9.741,2.732c3.318,0,6.664-0.883,9.76-2.671l136.044-78.543c0.927,6.069,3.814,11.04,8.597,13.801
		c2.49,1.438,5.271,2.153,8.224,2.153c3.482,0,7.203-0.996,10.962-2.98c6.344-3.349,12.161-9.218,16.381-16.527
		c4.22-7.309,6.395-15.282,6.123-22.449c-0.038-0.99-0.121-1.951-0.249-2.882l65.967-38.091
		c15.434-8.902,25.021-25.508,25.021-43.335v-50.5C438.442,134.263,433.586,125.853,425.454,121.158z M430.442,143.655v40.811
		l-144.79,83.601v-57.761c0-1.429-0.763-2.749-2-3.464c-1.238-0.715-2.762-0.715-4,0l-45.23,26.109c-1.237,0.714-2,2.035-2,3.464
		v62.381l-87.566,50.563l20.994-69.424c3.472-11.453,11.083-21.047,21.432-27.017l216.2-124.83
		c4.808-2.775,10.408-3.172,15.446-1.208c0,0,1.927,0.859,2.527,1.205C427.082,131.335,430.442,137.155,430.442,143.655z
		 M277.652,306.639l-37.23,21.495v-89.409l37.23-21.491V306.639z M30.064,309.263c-1.227-0.98-2.167-2.02-2.794-3.087
		c-1.116-1.904-2.194-5.008-0.991-8.984l23.669-78.241l88.434,51.054l-24.17,79.899c-0.781,2.583-1.022,5.209-0.751,7.763
		l-80.456-46.448L30.064,309.263z M304.064,61.021c0.122,0.044,7.159,3.68,7.159,3.68l75.074,43.341
		c-1.968,0.579-3.884,1.387-5.702,2.437L170.447,231.811l-87.454-50.488L289.003,62.38
		C293.685,59.676,299.034,59.194,304.064,61.021z M74.994,185.942l87.506,50.518c-9.754,6.163-17.244,15.152-21.537,25.797
		L52.437,211.15c3.822-10.081,10.954-18.508,20.365-23.943L74.994,185.942z M126.546,364.86c-0.757-0.484-1.484-1.027-2.118-1.664
		c-0.644-0.647-1.168-1.314-1.566-1.993c-1.117-1.903-2.196-5.006-0.992-8.983l25.099-82.967
		c3.461-11.443,11.07-21.038,21.425-27.018l216.201-124.827c4.685-2.702,10.031-3.186,15.061-1.358
		c0.122,0.044,5.267,2.746,5.267,2.746c-1.865,0.576-3.69,1.355-5.44,2.366L183.283,245.99
		c-12.115,6.987-21.025,18.219-25.091,31.627l-25.09,82.968c-0.814,2.686-1.037,5.392-0.736,7.996L126.546,364.86z M12.306,298.979
		c-1.226-0.979-2.165-2.017-2.792-3.086c-1.117-1.903-2.195-5.007-0.992-8.984l25.099-82.966
		c3.462-11.444,11.07-21.04,21.425-27.018L271.246,52.098c4.681-2.703,10.029-3.188,15.061-1.358
		c0.122,0.044,4.581,2.223,4.581,2.223c-2.032,0.582-4.01,1.407-5.884,2.49L68.802,180.279
		c-12.122,6.999-21.03,18.232-25.083,31.629L18.62,294.875c-0.764,2.527-1.005,5.096-0.76,7.599L12.306,298.979z M59.659,335.843
		L77.9,346.373l-36.358,20.993L59.659,335.843z M53.623,369.627l32.276-18.636l15.755,9.095L53.623,369.627z M157.371,376.081
		c-4.954,2.858-9.853,1.386-12.789-0.943c-2.935-2.329-5.48-6.766-3.822-12.234l0.711-2.352l90.95-52.518v24.718L157.371,376.081z
		 M334.651,296.912c-3.477,6.021-8.159,10.799-13.188,13.453c-2.564,1.353-7.458,3.278-11.451,0.974
		c-6.63-3.828-6.55-16.902,0.175-28.551c3.477-6.021,8.159-10.798,13.188-13.452c2.562-1.353,7.46-3.275,11.45-0.974
		c3.992,2.305,4.772,7.507,4.882,10.403C339.922,284.447,338.126,290.892,334.651,296.912z M409.421,230.562l-64.459,37.22
		c-1.49-2.695-3.552-4.855-6.137-6.347c-5.424-3.132-12.24-2.84-19.185,0.827c-6.344,3.349-12.161,9.218-16.381,16.526
		c-3.165,5.482-5.098,11.13-5.834,16.435l-11.773,6.797v-24.716l144.79-83.601v0.452
		C430.442,209.132,422.388,223.082,409.421,230.562z"/>
	<path d="M395.201,144.061c-1.238-0.715-2.762-0.715-4,0l-91.608,52.656c-1.237,0.714-2,2.035-2,3.464v34.563
		c0,1.429,0.763,2.75,2,3.464c0.619,0.357,1.31,0.536,2,0.536s1.381-0.179,2-0.536l91.608-52.656c1.237-0.714,2-2.035,2-3.464
		v-34.563C397.201,146.096,396.439,144.774,395.201,144.061z M342.822,206.32l-37.229,21.495V202.49l37.229-21.495V206.32z
		 M389.201,179.777l-37.229,21.495v-25.325l37.229-21.495V179.777z"/>
	<path d="M223.201,244.061c-1.238-0.715-2.762-0.715-4,0l-45.229,26.113c-1.237,0.714-2,2.035-2,3.464V308.2
		c0,1.429,0.763,2.75,2,3.464c0.619,0.357,1.31,0.536,2,0.536s1.381-0.179,2-0.536l45.229-26.113c1.237-0.714,2-2.035,2-3.464
		v-34.562C225.201,246.096,224.439,244.774,223.201,244.061z M217.201,279.777l-37.229,21.495v-25.325l37.229-21.495V279.777z"/>
	<path d="M239.19,111.34c0.005,1.433,0.774,2.753,2.019,3.462l40.834,23.28c0.067,0.038,0.136,0.075,0.205,0.11
		c0.574,0.286,1.185,0.423,1.786,0.423c0.766,0,1.517-0.221,2.16-0.632l47.714-27.544c1.237-0.714,2-2.034,2-3.464
		c0-1.429-0.762-2.749-2-3.464L293.279,80.05c-1.237-0.715-2.764-0.714-4.003,0.001l-48.09,27.813
		C239.947,108.582,239.185,109.907,239.19,111.34z M291.281,88.134l32.626,18.841l-39.887,23.026l-32.799-18.699L291.281,88.134z"/>
</g>
<g>
</g>
<g>
</g>
<g>
</g>
<g>
</g>
<g>
</g>
<g>
</g>
<g>
</g>
<g>
</g>
<g>
</g>
<g>
</g>
<g>
</g>
<g>
</g>
<g>
</g>
<g>
</g>
<g>
</g>
</svg>
