<?xml version="1.0" encoding="iso-8859-1"?>
<!-- Generator: Adobe Illustrator 18.0.0, SVG Export Plug-In . SVG Version: 6.00 Build 0)  -->
<!DOCTYPE svg PUBLIC "-//W3C//DTD SVG 1.1//EN" "http://www.w3.org/Graphics/SVG/1.1/DTD/svg11.dtd">
<svg version="1.1" id="Capa_1" xmlns="http://www.w3.org/2000/svg" xmlns:xlink="http://www.w3.org/1999/xlink" x="0px" y="0px"
	 viewBox="0 0 469.74 469.74" style="enable-background:new 0 0 469.74 469.74;" xml:space="preserve">
<path d="M469.74,204.379c0.001-1.431-0.762-2.752-2-3.467l-50.365-29.072v-44.877l32.27-18.606c1.238-0.714,2.001-2.034,2.002-3.464
	s-0.762-2.75-2-3.465L331.847,33.416c-1.236-0.714-2.761-0.714-3.998-0.001L213.625,99.28c-1.238,0.714-2.001,2.034-2.002,3.464
	s0.762,2.75,2,3.465l12.186,7.035v43.897L38.745,265.256c-1.237,0.715-1.999,2.035-1.999,3.464c0,0.017,0.003,0.034,0.003,0.051
	l-0.002,42.381L2.032,330.774c-1.25,0.707-2.025,2.028-2.032,3.464c0,0.019,0.003,0.036,0.003,0.055v30.565
	c0,1.429,0.762,2.75,2,3.464l39.351,22.719l-6.628,3.789c-6.023-7.62-14.584-10.774-20.82-7.176
	c-7.172,4.141-8.152,15.421-2.23,25.679c2.659,4.605,6.346,8.314,10.383,10.445c2.444,1.29,4.934,1.938,7.282,1.938
	c2.043,0,3.98-0.491,5.688-1.478c3.672-2.119,5.89-6.297,6.086-11.463c0.134-3.545-0.673-7.382-2.283-11.078l10.543-6.026
	l70.412,40.652c0.619,0.357,1.309,0.536,2,0.536c0.688,0,1.377-0.178,1.995-0.533l22.806-13.121c1.446,2.571,3.42,4.627,5.864,6.04
	c2.418,1.396,5.118,2.092,7.983,2.092c3.371,0,6.97-0.963,10.604-2.881c6.122-3.23,11.736-8.894,15.806-15.943
	c2.741-4.74,4.581-9.78,5.416-14.73c1.402,2.235,3.229,4.042,5.441,5.322c2.417,1.396,5.117,2.091,7.981,2.091
	c3.373,0,6.974-0.964,10.612-2.885c6.125-3.232,11.74-8.897,15.813-15.952c2.892-5.021,4.784-10.355,5.539-15.54l112.429-64.682
	c1.385,2.142,3.177,3.876,5.313,5.114c2.418,1.396,5.119,2.092,7.984,2.092c3.371,0,6.969-0.963,10.603-2.88
	c6.122-3.23,11.736-8.894,15.808-15.946c2.653-4.599,4.483-9.503,5.348-14.301l0.241-0.138c1.378,2.11,3.155,3.817,5.267,5.034
	c2.453,1.417,5.168,2.09,8.002,2.09c9.183,0,19.609-7.069,26.403-18.836c2.63-4.56,4.45-9.42,5.321-14.173l27.363-15.742
	c1.241-0.713,2.005-2.035,2.005-3.467C469.735,234.982,469.74,204.403,469.74,204.379z M31.029,417.311
	c-1.24,0.716-3.148,0.494-5.236-0.608c-2.682-1.415-5.302-4.102-7.189-7.37c-3.755-6.505-3.465-13.152-0.698-14.751
	c0.485-0.279,1.065-0.416,1.714-0.416c3.055,0,7.614,3.031,10.711,8.396c1.887,3.269,2.904,6.882,2.789,9.912
	C33.031,414.832,32.269,416.596,31.029,417.311z M457.729,204.37l-40.354,23.217v-46.511L457.729,204.37z M294.263,329.017v-21.373
	l144-82.846v21.374L294.263,329.017z M125.787,425.943v-21.371l140.477-80.819v21.373L125.787,425.943z M274.263,319.15l12-6.904
	v21.373l-12,6.904V319.15z M80.403,356.367v-11.416l27.693,15.986v11.416L80.403,356.367z M108.096,328.558l-63.348-36.567
	l0.001-16.343l63.347,36.57V328.558z M108.096,337.794v13.906l-27.693-15.986v-13.906L108.096,337.794z M72.403,317.191v13.906
	l-27.656-15.964l0.001-13.906L72.403,317.191z M44.746,324.369l27.657,15.965v11.416l-27.657-15.965L44.746,324.369z
	 M116.096,312.217l25.623-14.808v60.294l-25.623,14.884V312.217z M331.421,174.216c0.619,0.357,1.31,0.536,2,0.536
	c0.439,0,0.875-0.081,1.295-0.225v38.188l-14.602-8.428l0.344-12.366l-0.009,0c0.001-0.038,0.007-0.075,0.007-0.113
	c0-1.429-0.763-2.749-2-3.463L284.954,169v-21.61L331.421,174.216z M342.717,212.168v-42.159l30.282-17.46v42.161L342.717,212.168z
	 M276.954,152.173v16.571l-18.103,10.724L276.954,152.173z M242.533,189.598c-1.031,1.555-0.851,3.614,0.434,4.967
	c0.777,0.817,1.833,1.244,2.901,1.244c0.699,0,1.403-0.183,2.037-0.559l32.831-19.448l27.723,16.008l-43.688,25.248l-63.355-36.578
	l43.691-25.251l14.621,8.445L242.533,189.598z M256.776,221.678l-60.886,35.187l-63.352-36.577l60.883-35.188L256.776,221.678z
	 M187.894,261.485l-58.015,33.527l-63.35-36.575l58.013-33.529L187.894,261.485z M149.719,292.786l27.208-15.723v60.19
	l-27.208,15.804V292.786z M184.926,272.44l27.2-15.719v60.085l-27.2,15.8V272.44z M220.126,252.097l27.2-15.719v59.981l-27.2,15.799
	V252.097z M255.326,231.755l27.21-15.725v59.877l-27.21,15.805V231.755z M290.536,211.407l21.726-12.556l-1.689,60.77
	l-20.037,11.639V211.407z M319.862,213.379l14.855,8.573v43.987l-16.129-6.718L319.862,213.379z M342.717,267.873v-46.47
	l66.657-38.429v49.215l-64.158,36.911L342.717,267.873z M409.374,173.739l-28.375,16.358v-42.161l28.375-16.361V173.739z
	 M333.423,166.134l-52.929-30.557l106.224-61.244l52.924,30.556L333.423,166.134z M329.846,41.498l48.87,28.216l-106.224,61.244
	l-48.865-28.21L329.846,41.498z M233.809,117.863l40.713,23.504l-10.364,15.625l-17.051-9.848c-1.238-0.715-2.764-0.716-4.002,0.001
	l-9.296,5.373V117.863z M58.534,263.058l63.35,36.575l-9.788,5.657l-63.352-36.573L58.534,263.058z M36.747,320.342l-0.001,17.751
	c0,1.429,0.762,2.75,2,3.464l70.748,40.839c0.749,0.695,1.715,1.079,2.708,1.079c0.685,0,1.377-0.176,2.007-0.541l200.7-116.579
	l20.348,8.475L121.793,397.64L12.064,334.294L36.747,320.342z M63.302,383.103c-1.095-1.918-3.539-2.585-5.458-1.487l-8.449,4.83
	L8.003,362.549v-21.362l109.783,63.378v21.367l-60.372-34.855l4.399-2.514C63.732,387.465,64.398,385.021,63.302,383.103z
	 M167.305,421.381c-2.436,1.285-7.082,3.112-10.852,0.938c-1.347-0.779-2.276-1.923-2.93-3.103l29.261-16.834
	c-0.756,2.068-1.708,4.126-2.867,6.13C176.59,414.273,172.111,418.845,167.305,421.381z M225.178,382.361
	c-3.328,5.764-7.809,10.336-12.619,12.875c-2.436,1.286-7.084,3.119-10.855,0.941c-1.189-0.688-2.158-1.697-2.901-3.012
	l29.185-16.791C227.241,378.391,226.308,380.4,225.178,382.361z M382.856,290.517c-3.328,5.763-7.807,10.334-12.613,12.87
	c-2.435,1.285-7.082,3.115-10.849,0.938c-0.922-0.534-1.71-1.27-2.366-2.188l28.065-16.146
	C384.454,287.518,383.711,289.034,382.856,290.517z M428.116,264.366c-6.425,11.127-17.176,17.454-23.48,13.814
	c-0.896-0.517-1.665-1.223-2.309-2.105l27.961-16.086C429.663,261.466,428.943,262.932,428.116,264.366z M446.263,241.57v-21.374
	l15.472-8.901v21.375L446.263,241.57z"/>
<g>
</g>
<g>
</g>
<g>
</g>
<g>
</g>
<g>
</g>
<g>
</g>
<g>
</g>
<g>
</g>
<g>
</g>
<g>
</g>
<g>
</g>
<g>
</g>
<g>
</g>
<g>
</g>
<g>
</g>
</svg>
