<?xml version="1.0" encoding="iso-8859-1"?>
<!-- Generator: Adobe Illustrator 18.0.0, SVG Export Plug-In . SVG Version: 6.00 Build 0)  -->
<!DOCTYPE svg PUBLIC "-//W3C//DTD SVG 1.1//EN" "http://www.w3.org/Graphics/SVG/1.1/DTD/svg11.dtd">
<svg version="1.1" id="Capa_1" xmlns="http://www.w3.org/2000/svg" xmlns:xlink="http://www.w3.org/1999/xlink" x="0px" y="0px"
	 viewBox="0 0 444.905 444.905" style="enable-background:new 0 0 444.905 444.905;" xml:space="preserve">
<g>
	<path d="M444.898,164.116c0.002-1.432-0.76-2.755-2-3.471L264.194,57.459c-1.235-0.714-2.755-0.715-3.988-0.007L15.945,197.419
		c-1.242,0.712-2.01,2.033-2.012,3.464l0,0.006h-0.006v72.686c0,1.429,0.763,2.75,2,3.464l49.696,28.691l-32.733,56.952L2,380.517
		c-1.913,1.104-2.568,3.551-1.464,5.464c0.741,1.283,2.085,2.001,3.468,2.001c0.679,0,1.366-0.173,1.996-0.537l31.249-18.043
		l103.169-20.491l54.22,31.303c0.619,0.357,1.31,0.536,2,0.536c0.687,0,1.372-0.177,1.988-0.529l60.716-34.785
		c2.497,7.522,6.947,13.276,13.055,16.813c0,0,30.813,17.894,31.045,18.028c4.228,2.44,8.977,3.656,14.046,3.656
		c6.136,0,12.741-1.781,19.454-5.325c11.657-6.153,22.381-16.998,30.197-30.536s11.846-28.247,11.346-41.419
		c-0.524-13.849-5.958-24.447-15.298-29.843h0l-21.898-12.697c7.685-1.43,14.966-0.565,21.153,3.005
		c3.799,2.195,7.019,5.345,9.569,9.36c1.146,1.806,3.509,2.387,5.364,1.326l65.517-37.533c1.244-0.713,2.012-2.037,2.012-3.471
		v-72.686H444.898z M196.646,299.445l-107.5-62.061l173.039-99.158L369.687,200.3L196.646,299.445z M377.717,195.699
		l-111.523-64.396V67.852l166.682,96.243L377.717,195.699z M258.194,67.825v63.468L81.131,232.757l-55.176-31.854L258.194,67.825z
		 M21.927,207.814l170.711,98.554v63.454L21.927,271.265V207.814z M72.551,309.729l26.026,15.026l-51.876,29.952L72.551,309.729z
		 M58.784,356.969l47.793-27.595l23.329,13.469L58.784,356.969z M370.492,306.957c0.443,11.686-3.207,24.867-10.279,37.116
		c-14.266,24.707-37.939,37.839-52.77,29.277c-14.833-8.563-15.295-35.632-1.031-60.339s37.937-37.839,52.77-29.276
		C366.058,287.706,370.075,295.953,370.492,306.957z M342.199,273.889c-4.07,0.826-8.271,2.345-12.519,4.587
		c-11.656,6.153-22.381,16.997-30.196,30.535c-7.816,13.538-11.846,28.248-11.347,41.42c0.18,4.742,0.948,9.091,2.239,12.992
		l-13.969-8.097c-5.733-3.318-8.552-8.995-9.94-13.972l10.342-5.925c0.921-0.527,1.595-1.399,1.872-2.423
		c2.411-8.884,6.092-17.641,10.941-26.028c11.078-19.178,26.36-33.222,41.273-39.643L342.199,273.889z M376.557,269.055
		c-2.852-3.653-6.241-6.626-10.114-8.864c-12.137-7.002-27.658-6.197-43.702,2.271c-15.44,8.15-29.662,22.539-40.044,40.514
		c-4.903,8.48-8.696,17.329-11.286,26.327l-70.772,40.547v-63.472l236.267-135.37v63.476L376.557,269.055z"/>
	<path d="M347.936,303.212c-4.058-2.343-9.367-1.404-14.95,2.643c-4.675,3.388-9.257,8.731-12.904,15.049
		c-9.602,16.629-7.97,29.173-1.395,32.969c1.39,0.803,3.006,1.218,4.783,1.218c6.634,0,15.5-5.794,23.072-18.909
		c3.647-6.317,5.984-12.958,6.581-18.7C353.836,310.623,351.994,305.554,347.936,303.212z M345.166,316.655
		c-0.477,4.58-2.5,10.239-5.552,15.526c-6.592,11.416-14.707,16.043-16.928,14.764c-2.222-1.283-2.269-10.626,4.322-22.041
		c3.053-5.287,6.942-9.869,10.671-12.571c2.343-1.698,4.255-2.373,5.412-2.373c0.355,0,0.641,0.063,0.844,0.181
		C344.802,310.64,345.557,312.892,345.166,316.655z"/>
</g>
<g>
</g>
<g>
</g>
<g>
</g>
<g>
</g>
<g>
</g>
<g>
</g>
<g>
</g>
<g>
</g>
<g>
</g>
<g>
</g>
<g>
</g>
<g>
</g>
<g>
</g>
<g>
</g>
<g>
</g>
</svg>
