<?xml version="1.0" encoding="iso-8859-1"?>
<!-- Generator: Adobe Illustrator 18.0.0, SVG Export Plug-In . SVG Version: 6.00 Build 0)  -->
<!DOCTYPE svg PUBLIC "-//W3C//DTD SVG 1.1//EN" "http://www.w3.org/Graphics/SVG/1.1/DTD/svg11.dtd">
<svg version="1.1" id="Capa_1" xmlns="http://www.w3.org/2000/svg" xmlns:xlink="http://www.w3.org/1999/xlink" x="0px" y="0px"
	 viewBox="0 0 401.539 401.539" style="enable-background:new 0 0 401.539 401.539;" xml:space="preserve">
<g>
	<path d="M35.036,336.745c-7.127,0-12.711,7.496-12.711,17.066s5.583,17.066,12.711,17.066s12.711-7.496,12.711-17.066
		S42.164,336.745,35.036,336.745z M35.036,362.878c-2.179,0-4.711-3.96-4.711-9.066s2.532-9.066,4.711-9.066s4.711,3.96,4.711,9.066
		S37.215,362.878,35.036,362.878z"/>
	<path d="M401.536,47.601c0.004-10.686-5.094-20.342-13.764-26.319c-0.702-0.484-4.3-2.583-5.336-3.136
		C349.602,0.6,309.62,1.159,277.239,19.826l-37.887,21.843l-36.865-21.283c-1.656-0.956-3.757-0.606-5.014,0.833l-15.499,17.756
		c-1.016,1.164-1.271,2.809-0.655,4.226l11.098,25.528l-25.893,14.928l-37.139-21.441c-1.657-0.956-3.756-0.606-5.014,0.833
		l-15.499,17.756c-1.016,1.164-1.271,2.809-0.655,4.226l11.207,25.78L16.024,170.422C5.994,176.204,0.003,186.569,0,198.147
		c0,0.535,0.146,157.856,0.159,157.987c1.025,10.356,6.802,19.292,15.85,24.515c16.706,9.645,35.434,14.467,54.168,14.466
		c15.366-0.001,30.733-3.253,44.982-9.744c0.192,0.711,0.414,1.402,0.682,2.059c1.226,3.042,3.253,5.445,5.855,6.946
		c2.028,1.175,4.312,1.769,6.745,1.769c1.402,0,2.854-0.197,4.335-0.593c6.551-1.751,13.045-7.271,17.367-14.762
		c1.216-2.1,2.211-4.267,2.977-6.444c0.6,0.512,1.241,0.976,1.932,1.375c2.071,1.194,4.36,1.763,6.746,1.763
		c7.595-0.001,16.159-5.758,21.706-15.364c3.492-6.034,5.159-12.548,4.764-18.32L312.2,272.355c0.182,0.646,0.394,1.273,0.64,1.875
		c1.226,3.043,3.253,5.446,5.855,6.947c2.028,1.175,4.311,1.769,6.745,1.769c1.402,0,2.854-0.197,4.334-0.593
		c6.551-1.751,13.045-7.271,17.368-14.763c1.217-2.103,2.21-4.269,2.975-6.442c0.6,0.511,1.241,0.973,1.933,1.373
		c2.071,1.195,4.36,1.763,6.746,1.763c7.594-0.001,16.159-5.758,21.706-15.365c3.518-6.078,5.196-12.836,4.731-18.666l0.276-0.159
		c9.78-5.638,15.752-15.795,16.017-26.947C401.547,202.303,401.535,48.577,401.536,47.601z M201.336,28.959l30.01,17.325
		l-14.591,8.412l-25.191-14.543L201.336,28.959z M224.76,59.317l14.591-8.412l31.788,18.352l9.772,22.477L224.76,59.317z
		 M283.935,102.717l-10.504,12.033l-69.802-40.298l-1.027-2.361l14.151-8.158L283.935,102.717z M193.126,50.291l15.625,9.02
		l-9.358,5.395L193.126,50.291z M128.235,70.788l30.283,17.483l-14.592,8.412l-25.464-14.701L128.235,70.788z M151.93,101.304
		l14.592-8.412l31.515,18.194l9.772,22.478L151.93,101.304z M210.833,144.547L200.33,156.58l-69.802-40.298l-0.917-2.11
		l14.314-8.252L210.833,144.547z M120.024,92.122l15.897,9.177l-9.521,5.489L120.024,92.122z M20.021,177.353l102.615-59.159
		l1.082,2.488c0.342,0.786,0.927,1.441,1.668,1.869l73.794,42.603c0.626,0.361,1.315,0.536,1.998,0.536
		c1.125,0,2.233-0.474,3.016-1.37l15.499-17.757c1.016-1.163,1.271-2.808,0.655-4.225l-15.499-35.651
		c-0.342-0.786-0.927-1.441-1.668-1.869l-28.651-16.541l21.1-12.164l1.191,2.739c0.342,0.786,0.927,1.441,1.668,1.869l73.794,42.603
		c0.626,0.361,1.315,0.536,1.998,0.536c1.125,0,2.233-0.474,3.016-1.369l15.499-17.756c1.016-1.164,1.271-2.809,0.655-4.226
		l-15.499-35.651c-0.342-0.786-0.927-1.441-1.668-1.869L247.356,46.29l33.879-19.532c15.46-8.913,32.785-13.368,50.116-13.368
		c17.324,0,34.656,4.456,50.109,13.363c0.022,0.014,0.045,0.027,0.067,0.04c7.521,4.343,12.01,12.12,12.007,20.805
		c-0.003,8.686-4.497,16.46-12.021,20.798L120.289,218.986c-30.934,17.834-69.359,17.819-100.281-0.031h0
		C12.486,214.612,7.997,206.835,8,198.15C8.002,189.465,12.496,181.689,20.021,177.353z M16.008,225.883
		c16.706,9.645,35.434,14.467,54.168,14.466c18.707-0.001,37.42-4.812,54.107-14.431L385.51,75.327
		c3.018-1.74,5.661-3.9,7.895-6.378l0.008,12.219c-0.743,7.664-5.083,14.522-11.898,18.45L120.289,250.21
		c-30.934,17.833-69.358,17.819-100.281-0.031c-6.787-3.919-11.12-10.616-11.888-18.376l-0.054,0.005l-0.007-12.37
		C10.302,221.943,12.966,224.127,16.008,225.883z M377.324,163.033l-29,16.716v-51.762l29-16.718V163.033z M298.614,208.411
		l-66.29,38.212v-51.764l66.29-38.214V208.411z M20.001,311.177c-3.488-2.01-6.305-4.709-8.374-8.022
		c-1.925-3.083-3.136-6.664-3.502-10.357l-0.023,0.002l-0.025-42.12c2.242,2.499,4.898,4.676,7.931,6.427
		c4.854,2.802,9.882,5.184,15.028,7.172v52.376C27.274,315.065,23.585,313.246,20.001,311.177z M39.036,267.026
		c10.142,3.03,20.64,4.546,31.141,4.546c18.707-0.001,37.42-4.812,54.107-14.431l0.04-0.023v51.76l-4.039,2.328
		c-24.838,14.323-54.507,17.127-81.25,8.432V267.026z M132.324,252.507l19-10.953v51.761l-19,10.952V252.507z M159.324,236.942
		l65-37.471v51.764l-65,37.469V236.942z M306.614,152.033l33.71-19.433v97.761l-33.71,19.43V152.033z M20.008,373.722
		c-5.236-3.023-9.011-7.7-10.816-13.243c-0.759-2.331-1.052-4.788-1.054-7.239l-0.025-41.507c2.242,2.5,4.877,4.638,7.891,6.374
		c16.707,9.646,35.437,14.467,54.169,14.467c18.709,0,37.422-4.813,54.109-14.436l0.042-0.024v53.313l-4.035,2.326
		C89.355,391.586,50.931,391.572,20.008,373.722z M143.216,376.787c-3.238,5.611-8.03,9.841-12.506,11.037
		c-1.984,0.527-3.667,0.405-5.011-0.373c-1.06-0.611-1.88-1.624-2.445-3.026c-0.332-0.814-0.554-1.764-0.683-2.79
		c0.572-0.316,1.147-0.623,1.714-0.95l22.307-12.859C146.045,370.768,144.909,373.864,143.216,376.787z M176.577,358.116
		c-5.306,9.19-13.498,13.005-17.525,10.677c-1.811-1.046-2.919-3.303-3.189-6.313l24.201-13.951
		C179.577,351.646,178.399,354.968,176.577,358.116z M340.217,263.588c-3.238,5.611-8.031,9.841-12.507,11.037
		c-1.983,0.528-3.667,0.404-5.01-0.373c-1.06-0.611-1.88-1.624-2.446-3.03c-0.366-0.895-0.598-1.951-0.719-3.094l24.133-13.912
		C343.157,257.275,341.993,260.519,340.217,263.588z M373.577,244.916c-5.306,9.189-13.496,13.005-17.527,10.676
		c-1.856-1.071-2.991-3.499-3.214-6.662l24.275-13.994C376.659,238.176,375.453,241.674,373.577,244.916z M393.495,200.942
		c0.526,9.143-4.064,17.656-11.98,22.22l-249.19,143.653v-53.313l166.29-95.856v39.066c0,1.429,0.762,2.749,1.999,3.463
		c0.619,0.358,1.311,0.537,2.001,0.537c0.689,0,1.379-0.178,1.998-0.534l41.71-24.04c1.239-0.715,2.002-2.036,2.002-3.466v-43.688
		l37.187-21.436c3.043-1.754,5.703-3.956,7.952-6.479C393.463,161.069,393.491,200.867,393.495,200.942z M393.451,141.819
		c-0.511,6.253-3.429,11.987-8.127,16.073v-51.234l0.186-0.107c3.026-1.745,5.674-3.934,7.915-6.439L393.451,141.819z"/>
</g>
<g>
</g>
<g>
</g>
<g>
</g>
<g>
</g>
<g>
</g>
<g>
</g>
<g>
</g>
<g>
</g>
<g>
</g>
<g>
</g>
<g>
</g>
<g>
</g>
<g>
</g>
<g>
</g>
<g>
</g>
</svg>
