<?xml version="1.0" encoding="iso-8859-1"?>
<!-- Generator: Adobe Illustrator 18.0.0, SVG Export Plug-In . SVG Version: 6.00 Build 0)  -->
<!DOCTYPE svg PUBLIC "-//W3C//DTD SVG 1.1//EN" "http://www.w3.org/Graphics/SVG/1.1/DTD/svg11.dtd">
<svg version="1.1" id="Capa_1" xmlns="http://www.w3.org/2000/svg" xmlns:xlink="http://www.w3.org/1999/xlink" x="0px" y="0px"
	 viewBox="0 0 474.254 474.254" style="enable-background:new 0 0 474.254 474.254;" xml:space="preserve">
<path d="M474.246,94.78c0-1.429-0.762-2.75-2-3.464l-21.68-12.52c-1.237-0.714-2.762-0.714-4,0c-1.237,0.715-2,2.035-2,3.464v77.921
	l-33.15-19.142V58.78c0-1.429-0.762-2.75-2-3.464l-21.68-12.52c-1.237-0.714-2.762-0.714-4,0c-1.237,0.715-2,2.035-2,3.464v82.226
	l-205.08,114.873l-9.41-5.433c-1.229-0.709-2.74-0.715-3.974-0.016l-51.821,29.392l-43.157-24.919
	c-1.229-0.71-2.745-0.715-3.98-0.011L11.39,272.53c-1.056,0.602-1.765,1.645-1.96,2.821l-9.235,55.622
	C0.072,331.36,0,331.766,0,332.183v46.946c0,1.429,0.762,2.75,2,3.464l84.641,48.865c0.624,0.36,1.313,0.535,1.998,0.535
	c0.688,0,1.979-0.525,1.979-0.525l37.102-21.075c0.686,5.087,3.047,9.29,7.05,11.601c2.072,1.196,4.362,1.764,6.749,1.764
	c7.593,0,16.155-5.756,21.702-15.363c4.181-7.242,5.596-14.864,4.421-20.999l52.483-30.299c0.776,4.85,3.119,8.84,6.984,11.071
	c2.072,1.196,4.362,1.764,6.749,1.764c7.593,0,16.154-5.755,21.702-15.362c3.725-6.453,5.252-13.207,4.712-18.944l4.594-2.652
	c1.238-0.714,2-2.035,2-3.464v-13.347l12.214-7.041l13.566,7.833c1.229,0.71,2.741,0.713,3.974,0.013l0.002,0.004l8.809-5.006
	c1.176,3.422,3.263,6.112,6.166,7.787c2.05,1.184,4.334,1.774,6.751,1.774c2.811,0,5.801-0.798,8.813-2.388
	c4.999-2.639,9.575-7.25,12.885-12.983c2.323-4.023,3.788-8.164,4.438-12.104c1.182,1.899,2.724,3.458,4.636,4.562
	c2.05,1.184,4.334,1.774,6.751,1.774c2.811,0,5.801-0.798,8.813-2.388c4.999-2.639,9.575-7.25,12.885-12.983
	c2.224-3.851,3.659-7.81,4.348-11.597c1.048,1.341,2.3,2.477,3.78,3.331c2.05,1.184,4.334,1.773,6.75,1.773
	c2.811,0,5.802-0.798,8.814-2.388c4.999-2.639,9.576-7.25,12.885-12.984c2.323-4.023,3.788-8.164,4.438-12.103
	c1.182,1.899,2.724,3.458,4.636,4.561c2.05,1.184,4.334,1.774,6.751,1.774c2.811,0,5.802-0.798,8.813-2.388
	c4.999-2.639,9.576-7.25,12.886-12.983c4.152-7.192,5.581-14.762,4.449-20.875l4.359-2.516c1.238-0.714,2-2.035,2-3.464v-26.328
	l9.499-5.476c0.061-0.027,0.121-0.055,0.18-0.084c1.217-0.606,1.932-1.802,2.088-3.136C474.264,179.975,474.246,94.78,474.246,94.78
	z M452.565,89.189l13.68,7.9v75.61l-13.68-7.899V89.189z M262.11,295.104l-9.692-7.932c-0.167-0.137-0.341-0.265-0.532-0.375
	l-2.232-1.289l198.953-113.755l13.724,7.925L262.11,295.104z M440.588,167.122L241.635,280.877l-34.407-19.866l200.167-113.055
	L440.588,167.122z M403.416,61.089v75.331l-13.68-7.899V53.189L403.416,61.089z M385.705,135.432l13.646,7.879L199.183,256.366
	l-14.467-8.353L385.705,135.432z M165.228,245.999l76.605,44.23l-86.883,49.28v-44.79h-0.016c0-1.429-0.761-2.75-1.999-3.464
	l-33.448-19.313L165.228,245.999z M66.281,250.458l76.614,44.237l-44.87,25.563L21.41,276.028L66.281,250.458z M63.415,408.812
	l-34.188-19.737v-14.952l34.188,19.737V408.812z M69.415,388.086L27.227,363.73c-1.238-0.714-2.763-0.714-4,0
	c-1.238,0.714-2,2.035-2,3.464v0.165L8,359.406v-20.294l76.642,44.248v21.129l-13.227-7.956v-4.982
	C71.415,390.121,70.653,388.801,69.415,388.086z M92.084,336.622l-77.311-44.633l1.598-9.632l77.256,44.601L92.084,336.622z
	 M90.733,345.08l-4.761,29.809L8.444,330.13l4.93-29.711L90.733,345.08z M101.659,327.396l10.813-6.161v41.462l-18.123,10.463
	L101.659,327.396z M8,368.741l13.227,7.954v7.76L8,376.819V368.741z M71.415,413.43v-7.562l13.227,7.956v7.242L71.415,413.43z
	 M132.321,390.556L132.321,390.556c-1.979,3.428-3.32,6.939-4.082,10.341l-35.597,20.22v-37.733l25.83-14.913
	c1.238-0.714,2-2.035,2-3.464v-48.33l26.478-15.085v75.153c-0.58,0.248-1.161,0.519-1.744,0.826
	C140.208,380.211,135.631,384.822,132.321,390.556z M156.292,404.396c-5.305,9.187-13.49,12.997-17.522,10.67
	c-4.03-2.327-4.825-11.323,0.479-20.51h0c2.53-4.381,6.063-7.993,9.693-9.909c1.784-0.942,5.173-2.293,7.83-0.761
	C160.801,386.213,161.596,395.208,156.292,404.396z M248.63,350.57c-5.305,9.187-13.489,12.999-17.522,10.67
	c-4.03-2.327-4.825-11.323,0.479-20.51h0c5.305-9.187,13.489-12.999,17.522-10.67C253.14,332.388,253.934,341.383,248.63,350.57z
	 M253.109,323.132c-8.663-4.999-21.16,0.971-28.45,13.598h0c-2.095,3.63-3.477,7.353-4.208,10.94l-56.096,32.385
	c-1.001-1.228-2.182-2.289-3.584-3.098c-1.785-1.031-3.748-1.603-5.821-1.736v-26.515l94.522-53.613l9.393,7.693V327.2l-1.054,0.609
	C256.634,325.879,255.078,324.269,253.109,323.132z M290.646,306.562l-3.561-2.056l3.561-2.053V306.562z M333.117,302.154
	c-2.529,4.381-6.062,7.992-9.692,9.909c-1.785,0.941-5.176,2.295-7.83,0.761c-2.655-1.532-3.18-5.144-3.256-7.161
	c-0.156-4.102,1.206-8.967,3.735-13.348c4.287-7.425,10.456-11.337,14.793-11.337c1.03,0,1.956,0.221,2.729,0.667
	C337.627,283.972,338.422,292.967,333.117,302.154z M370.64,281.015c-2.529,4.381-6.062,7.992-9.692,9.909
	c-1.784,0.942-5.174,2.293-7.83,0.761c-2.655-1.533-3.18-5.145-3.256-7.162c-0.156-4.102,1.206-8.967,3.735-13.348
	c5.304-9.188,13.49-12.997,17.522-10.67C375.15,262.832,375.945,271.828,370.64,281.015z M407.218,259.15
	c-2.529,4.381-6.062,7.993-9.692,9.909c-1.784,0.941-5.176,2.292-7.83,0.761c-2.655-1.533-3.18-5.145-3.256-7.161
	c-0.156-4.102,1.206-8.967,3.735-13.348c4.287-7.425,10.456-11.337,14.793-11.337c1.03,0,1.956,0.221,2.729,0.667
	C411.728,240.967,412.522,249.963,407.218,259.15z M444.742,238.01c-2.53,4.381-6.063,7.992-9.693,9.909
	c-1.784,0.942-5.175,2.294-7.83,0.761c-2.655-1.532-3.179-5.144-3.256-7.161c-0.155-4.102,1.206-8.967,3.735-13.348h0
	c5.305-9.188,13.494-12.997,17.522-10.67C449.251,219.828,450.045,228.823,444.742,238.01z M454.479,212.845l-1.594,0.92
	c-1.016-1.27-2.225-2.363-3.664-3.193c-8.662-4.999-21.16,0.972-28.45,13.599c0,0,0,0,0,0c-2.264,3.922-3.756,8.091-4.418,12.144
	c-1.171-1.896-2.711-3.481-4.655-4.603c-8.662-4.999-21.16,0.972-28.45,13.599c-2.166,3.751-3.63,7.73-4.333,11.616
	c-1.04-1.341-2.296-2.484-3.794-3.35c-8.662-4.999-21.16,0.971-28.45,13.598c-2.265,3.922-3.757,8.091-4.418,12.144
	c-1.171-1.896-2.711-3.481-4.654-4.603c-8.662-5-21.16,0.972-28.45,13.599c-2.808,4.863-4.446,10.108-4.753,15.037l-5.749,3.267
	v-9.752c0.448-1.104,0.4-2.394-0.241-3.505c-1.104-1.913-3.55-2.569-5.462-1.467l-26.078,15.034v-5.332l187.614-108.158V212.845z"/>
<g>
</g>
<g>
</g>
<g>
</g>
<g>
</g>
<g>
</g>
<g>
</g>
<g>
</g>
<g>
</g>
<g>
</g>
<g>
</g>
<g>
</g>
<g>
</g>
<g>
</g>
<g>
</g>
<g>
</g>
</svg>
