<?xml version="1.0" encoding="iso-8859-1"?>
<!-- Generator: Adobe Illustrator 18.0.0, SVG Export Plug-In . SVG Version: 6.00 Build 0)  -->
<!DOCTYPE svg PUBLIC "-//W3C//DTD SVG 1.1//EN" "http://www.w3.org/Graphics/SVG/1.1/DTD/svg11.dtd">
<svg version="1.1" id="Capa_1" xmlns="http://www.w3.org/2000/svg" xmlns:xlink="http://www.w3.org/1999/xlink" x="0px" y="0px"
	 viewBox="0 0 449.436 449.436" style="enable-background:new 0 0 449.436 449.436;" xml:space="preserve">
<path d="M449.432,128.852c0-1.43-0.762-2.75-2-3.465l-111.145-64.17c-1.237-0.715-2.761-0.716-3.998-0.001l-33.46,19.294
	l14.845-21.007l9.197-4.748c1.963-1.014,2.733-3.427,1.719-5.39c-1.014-1.962-3.425-2.732-5.389-1.72l-10.065,5.196
	c-0.57,0.295-1.062,0.722-1.432,1.246l-25.409,35.956L194.76,140.52l75.826-107.302l11.331-4.753
	c2.037-0.854,2.996-3.198,2.141-5.235c-0.854-2.038-3.199-2.995-5.236-2.142l-12.389,5.196c-0.691,0.29-1.287,0.768-1.719,1.38
	l-86.488,122.39L2.002,251.672c-1.237,0.713-2,2.032-2.002,3.461L0,360.5c0,1.429,0.762,2.75,2,3.464l111.134,64.16
	c0.619,0.357,1.31,0.536,2,0.536c0.69,0,1.38-0.179,1.998-0.535l67.976-39.2c0.997,5.045,3.561,9.168,7.643,11.525
	c2.305,1.331,4.855,1.964,7.515,1.964c8.563,0,18.263-6.558,24.57-17.48c4.342-7.521,6.083-15.397,5.352-21.996l136.648-78.788
	c0.954,5.385,3.619,9.546,7.704,11.904c2.275,1.313,4.813,1.968,7.503,1.968c3.154,0,6.518-0.899,9.911-2.69
	c5.686-3.002,10.896-8.256,14.671-14.794c3.775-6.538,5.72-13.677,5.476-20.102c-0.03-0.783-0.096-1.542-0.188-2.284l35.521-20.476
	c1.239-0.715,2.002-2.036,2.002-3.466C449.436,234.211,449.432,128.852,449.432,128.852z M441.436,146.453L119.134,332.288v-10.681
	l322.302-185.836V146.453z M130.366,383.153l-11.231,6.479v-48.109l11.231-6.476V383.153z M66.163,363.666v-48.108l44.972,25.963
	v48.108L66.163,363.666z M111.134,332.284L8,272.743v-10.678l103.134,59.542V332.284z M8,281.98l50.163,28.96v48.108L8,330.087
	V281.98z M93.037,388.418v18.866l-66.48-38.38v-18.866L93.037,388.418z M101.037,393.036l10.098,5.83v18.866l-10.098-5.83V393.036z
	 M119.134,398.867l11.231-6.479v18.871l-11.231,6.477V398.867z M138.366,330.434l28.8-16.606v76.21l-28.8,16.608V330.434z
	 M175.166,309.215l30.913-17.824v41.826l-30.913,17.824V309.215z M214.078,286.779l28.207-16.264v41.826l-28.207,16.264V286.779z
	 M250.285,265.902l29.102-16.78v41.825l-29.102,16.78V265.902z M287.387,244.51l28.8-16.606v76.216l-28.8,16.605V244.51z
	 M324.187,223.291l22.41-12.921v41.828l-22.41,12.921V223.291z M354.597,205.757l28.207-16.264v41.828l-28.207,16.263V205.757z
	 M390.803,184.881l23.227-13.392v41.828l-23.227,13.392V184.881z M422.03,166.876l19.406-11.189v41.828l-19.406,11.189V166.876z
	 M271.282,105.629l-55.579,78.65l-12.566-7.256c-1.238-0.715-2.762-0.715-3.999-0.001l-50.924,29.366l35.532-50.282L271.282,105.629
	z M174.714,242.283l-16.036,9.245l-36.347-20.98l78.804-45.443l9.932,5.735L174.714,242.283z M218.024,194.857l19.459,11.237
	l-46.238,26.658L218.024,194.857z M167.214,165.639l-35.533,50.282l-19.353,11.16c-1.238,0.714-2.001,2.034-2.002,3.464
	s0.762,2.751,2,3.465l44.35,25.601c0.619,0.357,1.309,0.536,2,0.536c0.69,0,1.38-0.179,1.998-0.535l86.81-50.05
	c1.238-0.714,2.001-2.034,2.002-3.464c0-1.429-0.762-2.75-2-3.465l-24.827-14.337l65.156-92.201l46.47-26.796l103.143,59.55
	l-322.292,185.83l-103.132-59.54L167.214,165.639z M8,339.324l10.557,6.095v18.866L8,358.19V339.324z M217.908,380.934
	c-5.722,9.909-15.609,15.796-21.156,12.589c-5.549-3.204-5.397-14.707,0.324-24.617h0c5.722-9.909,15.608-15.79,21.157-12.589
	C223.781,359.521,223.629,371.023,217.908,380.934z M222.232,349.389c-9.726-5.615-23.818,1.201-32.084,15.517h0
	c-2.868,4.968-4.6,10.091-5.237,14.9l-9.744,5.619v-25.148l104.222-60.095v25.156l-51.604,29.753
	C226.445,352.71,224.594,350.752,222.232,349.389z M399.697,276.538c-2.987,5.174-7.17,9.445-11.477,11.719
	c-2.183,1.151-6.342,2.796-9.679,0.87c-3.338-1.927-3.993-6.352-4.086-8.817c-0.185-4.867,1.423-10.625,4.41-15.799h0
	c2.987-5.174,7.17-9.445,11.477-11.72c1.456-0.769,3.792-1.756,6.177-1.756c1.189,0,2.392,0.245,3.502,0.887
	c3.338,1.927,3.993,6.352,4.086,8.817C404.292,265.606,402.684,271.364,399.697,276.538z M409.39,250.372
	c-1.337-2.265-3.14-4.091-5.369-5.378c-4.942-2.853-11.126-2.597-17.415,0.723c-5.686,3.001-10.896,8.255-14.67,14.794
	c-2.692,4.663-4.433,9.628-5.134,14.426l-42.615,24.571v-25.154l117.249-67.604v25.151L409.39,250.372z"/>
<g>
</g>
<g>
</g>
<g>
</g>
<g>
</g>
<g>
</g>
<g>
</g>
<g>
</g>
<g>
</g>
<g>
</g>
<g>
</g>
<g>
</g>
<g>
</g>
<g>
</g>
<g>
</g>
<g>
</g>
</svg>
