<?xml version="1.0" encoding="iso-8859-1"?>
<!-- Generator: Adobe Illustrator 18.0.0, SVG Export Plug-In . SVG Version: 6.00 Build 0)  -->
<!DOCTYPE svg PUBLIC "-//W3C//DTD SVG 1.1//EN" "http://www.w3.org/Graphics/SVG/1.1/DTD/svg11.dtd">
<svg version="1.1" id="Capa_1" xmlns="http://www.w3.org/2000/svg" xmlns:xlink="http://www.w3.org/1999/xlink" x="0px" y="0px"
	 viewBox="0 0 463.183 463.183" style="enable-background:new 0 0 463.183 463.183;" xml:space="preserve">
<path d="M461.248,194.519l0.104-0.18l-141.057-81.448c-1.227-0.709-2.737-0.715-3.97-0.018l-63.427,35.884v-30.132
	c0-2.209-1.791-4-4-4s-4,1.791-4,4v34.658l-38.218,21.622l-94.839-54.761V37.191c0-2.209-1.791-4-4-4s-4,1.791-4,4V120.1
	l-86.205,49.125c-1.056,0.602-1.765,1.645-1.96,2.821l-0.006-0.001c0,0-15.67,93.79-15.67,94.276v78.237c0,1.429,0.762,2.75,2,3.464
	l141.057,81.434c0.621,0.358,1.311,0.535,1.998,0.535c0.687,0,1.369-0.18,1.979-0.528l65.47-37.187
	c0.005,0.213,0.003,0.428,0.011,0.641c0.364,9.6,4.182,16.975,10.751,20.768c3.057,1.765,6.442,2.604,9.983,2.604
	c11.68,0,25.039-9.135,33.788-24.29c7.083-12.268,9.236-25.177,6.702-35.017l118.425-68.366c0.464,8.968,4.094,16.402,10.775,20.26
	c3.057,1.765,6.442,2.604,9.983,2.604c11.68,0,25.039-9.135,33.788-24.29c5.269-9.126,7.985-19.063,7.646-27.982
	c-0.081-2.134-0.342-4.15-0.756-6.049l7.582-4.376c1.238-0.714,2-2.035,2-3.464v-47.388
	C463.183,196.479,462.403,195.221,461.248,194.519z M418.263,178.697l-82.236,46.953l-65.161-37.618l81.916-46.776l-0.313-0.548
	L418.263,178.697z M318.275,120.963l26.806,15.478l-84.231,48.098c-1.244,0.71-2.013,2.032-2.017,3.464
	c-0.003,1.432,0.759,2.757,2,3.474l73.183,42.25c0.619,0.357,1.309,0.536,2,0.536c0.684,0,1.369-0.175,1.983-0.526l87.966-50.224
	l-0.313-0.548l25.607,14.786L252.898,312.1V157.95L318.275,120.963z M161.156,276.474l3.165-19.814l80.578-45.906v18.011
	L161.156,276.474z M187.439,270.708v48.007l-36.385,21.006l8.484-53.118L187.439,270.708z M244.898,162.476v34.498l-30.178-17.425
	L244.898,162.476z M107.802,127.051l133.031,76.813l-80.146,45.659l-133.031-76.8L107.802,127.051z M22.618,179.051l133.672,77.171
	l-3.473,21.742L19.022,200.721L22.618,179.051z M35.375,358.053L8,342.249v-19.718l27.375,16.463V358.053z M105.684,398.643
	l-62.308-35.971v-31.074l62.308,35.971V398.643z M141.059,419.066l-27.375-15.804v-18.857l27.375,16.467V419.066z M141.059,391.536
	l-27.375-16.467v-9.81c0-1.429-0.762-2.75-2-3.464l-70.308-40.589c-1.238-0.714-2.763-0.714-4,0c-1.238,0.714-2,2.035-2,3.464v4.989
	L8,313.196v-39.946l133.059,76.82V391.536z M142.631,341.739L8.475,264.285l9.148-55.134l133.843,77.27L142.631,341.739z
	 M213.392,382.572l-64.333,36.542v-69.003l44.38-25.622c1.238-0.715,2-2.035,2-3.464V266.15l49.459-28.177v104.42
	c-1.432,0.526-2.876,1.163-4.328,1.929c-7.893,4.167-15.142,11.487-20.41,20.613C216.863,370.646,214.567,376.674,213.392,382.572z
	 M260.108,387.999c-8.853,15.335-23.893,23.924-32.843,18.758c-4.102-2.368-6.501-7.39-6.757-14.142
	c-0.282-7.433,2.055-15.842,6.58-23.68c4.525-7.837,10.64-14.066,17.217-17.538c3.434-1.813,6.728-2.727,9.686-2.727
	c2.189,0,4.196,0.5,5.94,1.507C268.881,355.344,268.962,372.664,260.108,387.999z M263.932,343.249
	c-3.305-1.908-7.048-2.758-11.033-2.562v-19.353l76.18-43.916v38.379l-58.531,33.789
	C268.847,346.978,266.644,344.815,263.932,343.249z M439.782,283.189c-8.853,15.335-23.894,23.923-32.843,18.758
	c-8.949-5.167-9.03-22.488-0.177-37.822c4.525-7.837,10.64-14.066,17.217-17.538c3.434-1.813,6.728-2.727,9.686-2.727
	c2.189,0,4.196,0.5,5.94,1.507c4.102,2.368,6.501,7.391,6.757,14.143C446.644,266.942,444.307,275.352,439.782,283.189z
	 M455.183,243.007l-4.468,2.579c-1.776-3.019-4.164-5.445-7.11-7.146c-6.568-3.792-14.865-3.412-23.361,1.072
	c-7.893,4.167-15.142,11.487-20.41,20.613c-3.634,6.295-5.966,12.757-7.038,18.888l-55.718,32.165v-38.372l118.104-68.085V243.007z"
	/>
<g>
</g>
<g>
</g>
<g>
</g>
<g>
</g>
<g>
</g>
<g>
</g>
<g>
</g>
<g>
</g>
<g>
</g>
<g>
</g>
<g>
</g>
<g>
</g>
<g>
</g>
<g>
</g>
<g>
</g>
</svg>
