<?xml version="1.0" encoding="iso-8859-1"?>
<!-- Generator: Adobe Illustrator 18.0.0, SVG Export Plug-In . SVG Version: 6.00 Build 0)  -->
<!DOCTYPE svg PUBLIC "-//W3C//DTD SVG 1.1//EN" "http://www.w3.org/Graphics/SVG/1.1/DTD/svg11.dtd">
<svg version="1.1" id="Capa_1" xmlns="http://www.w3.org/2000/svg" xmlns:xlink="http://www.w3.org/1999/xlink" x="0px" y="0px"
	 viewBox="0 0 420.053 420.053" style="enable-background:new 0 0 420.053 420.053;" xml:space="preserve">
<path d="M420.052,141.589c0-1.429-0.762-2.75-2-3.464L296.06,67.692c-1.236-0.714-2.758-0.714-3.994-0.003l-11.226,6.457V47.198
	l16.861-8.579c1.363-0.693,2.211-2.103,2.186-3.631s-0.92-2.909-2.305-3.557L264.51,15.963c-1.099-0.513-2.374-0.501-3.463,0.036
	l-71.685,35.342c-0.244,0.121-0.476,0.266-0.69,0.433l-68.326,53.243c-0.75,0.585-1.268,1.419-1.459,2.351l-10.729,52.279
	l-28.469-16.438c-1.238-0.715-2.764-0.715-4,0l-60.185,34.754c-1.046,0.604-1.746,1.642-1.94,2.811L0.06,261.735
	C0.024,261.949,0,262.166,0,262.388v67.656c0,1.429,0.763,2.75,2,3.464l121.98,70.422c0.624,0.36,1.313,0.535,1.997,0.535
	c0.698,0,1.384-0.197,1.998-0.552l0.006,0.011l39.732-22.936c0.412,8.3,3.788,14.689,9.543,18.012
	c2.724,1.572,5.738,2.32,8.889,2.32c10.299,0,22.036-7.993,29.702-21.271c6.097-10.56,8.004-21.673,5.942-30.268l63.615-36.382
	c0.599,7.875,3.938,13.935,9.491,17.141c2.724,1.572,5.737,2.319,8.888,2.319c10.299,0,22.036-7.993,29.702-21.271
	c4.514-7.819,6.877-16.324,6.692-24.015c1.338,5.46,4.283,9.896,8.794,12.5c2.724,1.572,5.738,2.319,8.889,2.319
	c10.299,0,22.036-7.992,29.702-21.271c6.059-10.494,7.98-21.534,5.98-30.107l7.361-4.249c1.237-0.714,2-2.035,2-3.464v-38.966
	l15.144-8.715c1.24-0.714,2.005-2.036,2.005-3.467L420.052,141.589L420.052,141.589z M297.944,78.018l110.099,63.566l-35.871,20.644
	l-74.228-42.817V78.018z M293.94,126.337l70.217,40.503l-160.464,92.348v-41.34h-0.1c0.046-0.243,0.078-0.49,0.078-0.743
	c0-1.429-0.763-2.75-2-3.464l-29.794-17.203L293.94,126.337z M289.944,78.137v41.269l-122.539,70.375l-5.59-37.945L272.84,87.976
	v16.769c0,2.209,1.791,4,4,4s4-1.791,4-4V83.374L289.944,78.137z M160.562,143.329l-2.567-17.427l64.334-48.936l50.512-25.699
	v27.479L160.562,143.329z M262.861,24.024l23.908,11.182L220.423,68.96l-21.171-13.575L262.861,24.024z M191.356,59.825
	l21.863,14.019l-59.935,45.589l-23.094-11.945L191.356,59.825z M125.661,114.153l24.373,12.607l9.189,62.373l-43.765-25.27
	L125.661,114.153z M77.689,151.292l113.981,65.813l-52.185,30.124L25.505,181.426L77.689,151.292z M195.693,224.021v63.962
	l-63.813,36.841l11.255-70.464L195.693,224.021z M20.478,187.762l114.624,66.174l-2.772,17.352L17.594,205.05L20.478,187.762z
	 M8,327.734v-17.65l22.273,12.858v17.651L8,327.734z M32.273,306.999c-1.237,0.714-2,2.035-2,3.464v3.241L8,300.846v-31.531
	l113.982,65.806v31.53l-22.909-13.228v-7.86c0-1.429-0.763-2.75-2-3.464l-60.8-35.1C35.035,306.285,33.512,306.284,32.273,306.999z
	 M91.073,375.694l-52.8-30.483v-27.821l52.8,30.482V375.694z M98.969,380.253h0.104v-17.592l22.909,13.229v17.65L98.969,380.253z
	 M123.472,326.745L8.379,260.297l7.81-46.82l114.791,66.27L123.472,326.745z M168.509,371.292l-38.526,22.24v-58.373l65.711-37.937
	v39.244c-7.847,2.972-15.683,9.876-21.319,19.639C171.536,361.019,169.55,366.206,168.509,371.292z M208.92,376.049
	c-7.51,13.008-20.179,20.343-27.663,16.023c-3.38-1.952-5.358-6.136-5.573-11.782c-0.239-6.327,1.756-13.496,5.618-20.187
	c6.045-10.47,15.431-17.265,22.767-17.265c1.778,0,3.437,0.399,4.896,1.242C216.45,348.403,216.429,363.042,208.92,376.049z
	 M326.558,307.589c-7.509,13.007-20.175,20.349-27.662,16.023c-3.38-1.951-5.359-6.135-5.574-11.782
	c-0.239-6.327,1.756-13.496,5.618-20.186c3.863-6.69,9.074-12.003,14.673-14.959c2.891-1.526,5.653-2.295,8.123-2.295
	c1.799,0,3.442,0.409,4.867,1.231c3.38,1.951,5.359,6.135,5.573,11.782C332.416,293.729,330.42,300.898,326.558,307.589z
	 M380.635,277.123c-7.51,13.007-20.179,20.344-27.663,16.023c-7.485-4.322-7.464-18.961,0.045-31.968
	c6.045-10.469,15.431-17.266,22.767-17.266c1.778,0,3.437,0.399,4.896,1.242C388.165,249.477,388.144,264.116,380.635,277.123z
	 M394.904,240.993l-4.513,2.604c-1.488-2.199-3.39-4.03-5.712-5.371c-11.627-6.711-28.58,1.61-38.591,18.952
	c-2.96,5.127-4.926,10.383-5.938,15.42l-3.482,2.01c-1.551-2.477-3.585-4.484-6.066-5.915c-5.845-3.375-13.207-3.05-20.725,0.917
	c-6.915,3.65-13.26,10.055-17.866,18.034c-3.031,5.251-5.089,10.812-6.062,16.228l-67.359,38.523
	c-1.475-2.142-3.349-3.927-5.626-5.242c-2.833-1.636-5.984-2.372-9.271-2.31v-15.858L394.904,208.94V240.993z M412.053,189.841
	L203.693,309.755v-41.336l208.359-119.913V189.841z"/>
<g>
</g>
<g>
</g>
<g>
</g>
<g>
</g>
<g>
</g>
<g>
</g>
<g>
</g>
<g>
</g>
<g>
</g>
<g>
</g>
<g>
</g>
<g>
</g>
<g>
</g>
<g>
</g>
<g>
</g>
</svg>
