<?xml version="1.0" encoding="iso-8859-1"?>
<!-- Generator: Adobe Illustrator 18.0.0, SVG Export Plug-In . SVG Version: 6.00 Build 0)  -->
<!DOCTYPE svg PUBLIC "-//W3C//DTD SVG 1.1//EN" "http://www.w3.org/Graphics/SVG/1.1/DTD/svg11.dtd">
<svg version="1.1" id="Capa_1" xmlns="http://www.w3.org/2000/svg" xmlns:xlink="http://www.w3.org/1999/xlink" x="0px" y="0px"
	 viewBox="0 0 459.359 459.359" style="enable-background:new 0 0 459.359 459.359;" xml:space="preserve">
<g>
	<path d="M186.802,384.953c-6.426-3.706-14.905,3.215-19.96,11.972h0c-5.056,8.756-6.812,19.562-0.386,23.272
		c1.216,0.701,2.504,1.022,3.831,1.022c5.681-0.001,12.031-5.896,16.13-12.994C191.471,399.469,193.227,388.664,186.802,384.953z
		 M179.488,404.225c-3.578,6.197-7.617,8.774-8.988,8.965c-0.521-1.282-0.309-6.068,3.269-12.266h0
		c3.578-6.198,7.617-8.775,8.987-8.965C183.278,393.242,183.066,398.028,179.488,404.225z"/>
	<path d="M439.254,141.144c-1.239-0.714-2.765-0.713-4.002,0.003l-173.76,100.579c-1.235,0.715-1.996,2.034-1.996,3.462v104.474
		c0,1.43,0.764,2.751,2.002,3.465c0.618,0.356,1.309,0.535,1.998,0.535c0.692,0,1.384-0.18,2.004-0.538l173.76-100.579
		c1.235-0.715,1.996-2.034,1.996-3.462V144.609C441.256,143.179,440.493,141.858,439.254,141.144z M433.256,242.258l-9.728-5.448
		v-79.633l9.728-5.631V242.258z M415.529,161.808v75.04l-148.032,85.691v-75.044L415.529,161.808z M267.497,331.783l152.065-88.025
		l9.611,5.382l-161.676,93.584V331.783z"/>
</g>
<path d="M457.359,107.894l-51.667-29.834l27.302-15.765c1.913-1.104,2.568-3.551,1.464-5.464s-3.551-2.57-5.464-1.464
	l-31.301,18.074l-30.862-17.821l27.302-15.765c1.913-1.104,2.568-3.551,1.464-5.464s-3.551-2.57-5.464-1.464l-31.301,18.074
	l-53.613-30.958c-1.238-0.715-2.762-0.715-4,0l-212.32,122.59c-1.238,0.715-2,2.035-2,3.464v61.747l-42.357,24.094
	c-0.573,0.326-1.04,0.786-1.384,1.323l-42.55,68.053C0.21,301.951,0,302.685,0,303.434v64.924c0,1.429,0.762,2.749,1.999,3.464
	l115.699,66.849c0.619,0.357,1.31,0.536,2.001,0.536c0.69,0,1.381-0.179,2-0.535c0.179-0.103,16.803-9.636,25.353-14.538
	c1.588,5.892,4.847,10.451,9.534,13.157c2.959,1.709,6.272,2.56,9.797,2.56c4.199,0,8.699-1.208,13.256-3.613
	c7.779-4.106,14.922-11.32,20.113-20.313c4.909-8.503,7.565-17.719,7.558-26.129l17.394-9.913c0,0,16.223,6.619,16.344,6.689
	c0.619,0.357,1.31,0.536,2,0.536s1.381-0.179,2-0.536l95.594-55.188c1.751,5.058,4.837,9.017,8.986,11.415
	c2.96,1.709,6.273,2.561,9.799,2.561c4.2-0.001,8.7-1.209,13.256-3.613c7.779-4.106,14.921-11.32,20.108-20.31
	c4.587-7.938,7.214-16.543,7.526-24.504l57.042-32.931c1.237-0.714,2-2.035,2-3.464V111.358
	C459.359,109.929,458.596,108.609,457.359,107.894z M389.694,78.061l-14.064,8.125L344.776,68.36l14.056-8.12L389.694,78.061z
	 M171.354,168.551l20.907-12.079l30.852,17.826l-20.907,12.079L171.354,168.551z M194.21,190.997l-8.763,5.062l-30.866-17.818
	l8.777-5.071L194.21,190.997z M200.258,151.852l20.907-12.078l30.853,17.826l-20.907,12.079L200.258,151.852z M229.161,135.154
	l20.907-12.079l30.853,17.826l-20.908,12.079L229.161,135.154z M258.065,118.455l20.907-12.079l30.853,17.826l-20.907,12.079
	L258.065,118.455z M286.969,101.757l20.907-12.079l30.854,17.826l-20.907,12.079L286.969,101.757z M315.873,85.058l20.907-12.079
	l30.854,17.826l-20.907,12.079L315.873,85.058z M303.219,28.128l47.614,27.494L146.581,173.623l-47.682-27.525L303.219,28.128z
	 M109.144,204.395l107.68,62.154l-54.59,31.056L54.564,235.441L109.144,204.395z M191.844,289.964v35.872l-61.574,35.074
	l34.802-55.716L191.844,289.964z M47.841,240.798l108.789,62.81l-7.686,12.304L40.177,253.068L47.841,240.798z M8,311.97
	l19.261,11.129v14.83L8,326.799V311.97z M8,336.039l19.261,11.129v14.421L8,350.461V336.039z M115.699,428.276L8,366.05v-6.349
	l107.699,62.227V428.276z M88.169,373.12l-52.908-30.57v-14.83l52.908,30.57V373.12z M88.169,382.36v14.421l-52.908-30.57V351.79
	L88.169,382.36z M115.699,412.688l-19.53-11.284v-14.422l19.53,11.284V412.688z M115.699,389.027l-19.53-11.284v-14.83l19.53,11.284
	V389.027z M117.617,366.065L8.85,303.22l27.086-43.363l108.768,62.844L117.617,366.065z M145.951,415.535l-22.252,12.678v-9.473
	l23.397-13.33C146.324,408.85,145.934,412.254,145.951,415.535z M192.823,411.925c-4.447,7.704-10.457,13.825-16.919,17.237
	c-5.862,3.094-11.302,3.52-15.318,1.201c-4.017-2.319-6.368-7.244-6.619-13.867c-0.277-7.303,2.02-15.567,6.468-23.271c0,0,0,0,0,0
	c4.447-7.704,10.457-13.825,16.919-17.237c3.371-1.779,6.602-2.676,9.503-2.676c2.144,0,4.108,0.489,5.815,1.475
	c4.017,2.319,6.368,7.244,6.619,13.866C199.568,395.957,197.271,404.221,192.823,411.925z M220.869,372.861l-14.615,8.328
	c-1.57-5.976-4.848-10.598-9.581-13.33c-6.484-3.745-14.67-3.371-23.053,1.054c-7.779,4.106-14.922,11.32-20.113,20.313
	c-0.897,1.554-1.714,3.133-2.458,4.726l-27.349,15.581v-35.673l74.125-42.223c1.249-0.711,2.02-2.038,2.02-3.476v-42.748
	l21.024-11.96V372.861z M239.048,377.13l-10.18-4.109V266.575c0-1.429-0.763-2.75-2-3.464l-115.71-66.79
	c-1.23-0.712-2.744-0.715-3.977-0.013l-12.282,6.986v-50.269l43.685,25.218l-14.208,8.208c-1.913,1.105-2.568,3.552-1.462,5.465
	c0.741,1.283,2.085,2,3.467,2c0.679,0,1.367-0.174,1.997-0.537l18.206-10.518l30.866,17.818l-14.214,8.212
	c-1.913,1.105-2.568,3.552-1.462,5.465c0.741,1.283,2.085,2,3.467,2c0.679,0,1.367-0.174,1.997-0.537l18.212-10.521l53.598,30.94
	V377.13z M243.048,229.309l-49.601-28.632L397.693,82.679l49.666,28.679L243.048,229.309z M385.864,317.436
	c-4.445,7.703-10.452,13.824-16.915,17.235c-5.858,3.094-11.302,3.521-15.319,1.201c-3.394-1.961-5.063-5.407-5.88-8.592
	l43.986-25.394C390.794,307.028,388.795,312.364,385.864,317.436z M451.359,258.229L247.048,376.18V236.238l204.311-117.952V258.229
	z"/>
<g>
</g>
<g>
</g>
<g>
</g>
<g>
</g>
<g>
</g>
<g>
</g>
<g>
</g>
<g>
</g>
<g>
</g>
<g>
</g>
<g>
</g>
<g>
</g>
<g>
</g>
<g>
</g>
<g>
</g>
</svg>
