<?xml version="1.0" encoding="iso-8859-1"?>
<!-- Generator: Adobe Illustrator 18.0.0, SVG Export Plug-In . SVG Version: 6.00 Build 0)  -->
<!DOCTYPE svg PUBLIC "-//W3C//DTD SVG 1.1//EN" "http://www.w3.org/Graphics/SVG/1.1/DTD/svg11.dtd">
<svg version="1.1" id="Capa_1" xmlns="http://www.w3.org/2000/svg" xmlns:xlink="http://www.w3.org/1999/xlink" x="0px" y="0px"
	 viewBox="0 0 480.791 480.791" style="enable-background:new 0 0 480.791 480.791;" xml:space="preserve">
<path d="M480.791,144.745c0-1.429-0.762-2.75-2-3.464l-121.99-70.43c-1.235-0.712-2.755-0.715-3.99-0.005l-150.245,86.155
	l-62.138-35.879c-1.238-0.715-2.764-0.715-4,0l-60.185,34.754c-0.959,0.554-1.633,1.472-1.887,2.522
	c-0.074,0.305-13.614,81.45-13.614,81.908v38.765l-43.753-16.202c-1.722-0.638-3.662-0.02-4.695,1.501
	c-1.035,1.52-0.899,3.549,0.327,4.919c8.69,9.701,12.488,22.64,10.419,35.499s-9.735,23.953-21.03,30.437
	c-1.347,0.773-2.124,2.255-1.995,3.802s1.142,2.879,2.598,3.418l183.049,67.783c0.449,0.167,0.92,0.249,1.389,0.249
	c0.69,0,1.378-0.179,1.991-0.531c13.398-7.691,22.491-20.851,24.946-36.104c0.373-2.317,0.566-4.635,0.621-6.943l13.844-7.994
	c0.413,8.298,3.788,14.687,9.543,18.01c2.724,1.572,5.738,2.32,8.889,2.32c10.299,0,22.036-7.993,29.702-21.271
	c6.097-10.56,8.004-21.673,5.942-30.268l63.615-36.382c0.599,7.875,3.938,13.935,9.491,17.141c2.724,1.572,5.737,2.319,8.888,2.319
	c10.299,0,22.036-7.993,29.702-21.271c4.514-7.819,6.877-16.324,6.692-24.015c1.339,5.46,4.283,9.896,8.794,12.5
	c2.724,1.572,5.738,2.319,8.889,2.319c10.299,0,22.036-7.992,29.702-21.271c6.059-10.494,7.98-21.534,5.981-30.107l7.361-4.249
	c1.237-0.714,2-2.035,2-3.464v-38.966l15.144-8.715c1.24-0.714,2.005-2.036,2.005-3.467L480.791,144.745L480.791,144.745z
	 M264.409,195.019c0-1.429-0.763-2.75-2-3.464l-29.794-17.203l122.068-70.104l92.333,53.019L264.432,262.347
	C264.432,262.347,264.409,195.271,264.409,195.019z M455.04,152.648l-96.357-55.329V81.175l110.099,63.564L455.04,152.648z
	 M350.683,81.288v16.031l-126.078,72.407l-14.025-8.098L350.683,81.288z M138.428,129.205l113.981,65.813l-52.185,30.124
	L86.243,159.339L138.428,129.205z M81.305,165.726l114.536,66.123l-1.909,11.95L79.318,177.632L81.305,165.726z M192.581,252.257
	l-8.37,52.4L69.205,238.263l8.708-52.204L192.581,252.257z M200.818,251.408l33.862-19.55v46.939
	c-1.386,0.781-3.357,1.919-6.229,3.577l-35.889,20.722L200.818,251.408z M68.741,247.233l113.979,65.802v11.204L68.741,282.032
	V247.233z M206.088,372.57c-1.972,12.251-9.022,22.901-19.454,29.488L12.636,337.626c9.742-7.838,16.277-18.991,18.302-31.567
	c1.748-10.866-0.035-21.781-4.932-31.32l170.303,63.063C204.545,347.416,208.106,360.031,206.088,372.57z M229.246,349.207
	l-15.205,8.78c-1.475-9.653-5.707-18.768-12.413-26.254c-0.435-0.485-0.98-0.856-1.591-1.082l-9.316-3.45v-13.806
	c10.494-6.059,48.144-27.797,49.887-28.802c1.235-0.681,2.072-1.996,2.072-3.506V224.93c0-1.429-0.763-2.75-2-3.464
	c-1.238-0.715-2.762-0.715-4,0l-34.237,19.767l1.431-8.96l52.557-30.339v112.444c-7.847,2.972-15.683,9.876-21.319,19.639
	C232.274,338.933,230.287,344.121,229.246,349.207z M269.658,353.962c-7.51,13.008-20.18,20.342-27.663,16.023
	c-3.38-1.952-5.358-6.136-5.573-11.782c-0.239-6.327,1.756-13.496,5.618-20.187c6.045-10.47,15.431-17.265,22.767-17.265
	c1.778,0,3.437,0.399,4.896,1.242C277.189,326.316,277.167,340.955,269.658,353.962z M387.296,285.502
	c-7.509,13.006-20.175,20.347-27.662,16.023c-3.38-1.951-5.359-6.135-5.574-11.782c-0.239-6.327,1.756-13.496,5.618-20.186
	c3.863-6.69,9.074-12.003,14.673-14.959c2.891-1.526,5.653-2.295,8.123-2.295c1.799,0,3.442,0.409,4.867,1.231
	c3.38,1.951,5.359,6.135,5.573,11.782C393.155,271.642,391.158,278.811,387.296,285.502z M441.373,255.036
	c-7.51,13.007-20.181,20.343-27.663,16.023c-7.485-4.322-7.464-18.961,0.045-31.968c6.045-10.469,15.431-17.266,22.767-17.266
	c1.778,0,3.437,0.399,4.896,1.242C448.904,227.389,448.882,242.029,441.373,255.036z M455.643,218.906l-4.513,2.604
	c-1.488-2.199-3.39-4.03-5.712-5.371c-11.628-6.71-28.58,1.61-38.591,18.952c-2.96,5.127-4.926,10.383-5.938,15.42l-3.482,2.01
	c-1.551-2.477-3.586-4.484-6.066-5.915c-5.845-3.376-13.206-3.051-20.725,0.917c-6.915,3.65-13.26,10.055-17.866,18.034
	c-3.031,5.251-5.089,10.812-6.062,16.228l-67.359,38.523c-1.475-2.142-3.349-3.927-5.626-5.242
	c-2.833-1.635-5.984-2.372-9.271-2.309v-15.859l191.211-110.044V218.906z M264.432,287.668v-16.09l208.359-119.915v16.092
	L264.432,287.668z"/>
<g>
</g>
<g>
</g>
<g>
</g>
<g>
</g>
<g>
</g>
<g>
</g>
<g>
</g>
<g>
</g>
<g>
</g>
<g>
</g>
<g>
</g>
<g>
</g>
<g>
</g>
<g>
</g>
<g>
</g>
</svg>
